M48
; DRILL file {KiCad 9.0.2} date 2025-09-19T20:00:31+0200
; FORMAT={-:-/ absolute / metric / decimal}
; #@! TF.CreationDate,2025-09-19T20:00:31+02:00
; #@! TF.GenerationSoftware,Kicad,Pcbnew,9.0.2
; #@! TF.FileFunction,Plated,1,4,PTH
FMAT,2
METRIC
; #@! TA.AperFunction,Plated,PTH,ViaDrill
T1C0.300
; #@! TA.AperFunction,Plated,PTH,ComponentDrill
T2C0.300
; #@! TA.AperFunction,Plated,PTH,ViaDrill
T3C0.400
; #@! TA.AperFunction,Plated,PTH,ComponentDrill
T4C0.600
; #@! TA.AperFunction,Plated,PTH,ComponentDrill
T5C0.950
; #@! TA.AperFunction,Plated,PTH,ComponentDrill
T6C1.000
%
G90
G05
T1
X120.9Y-108.6
X121.3Y-99.0
X121.9Y-85.0
X121.9Y-86.6
X122.0Y-82.0
X122.0Y-83.5
X122.0Y-88.3
X123.5Y-126.1
X124.6Y-107.1
X124.7Y-100.0
X125.4Y-126.7
X127.9Y-127.4
X128.3Y-80.1
X130.3Y-80.4
X130.4Y-81.9
X130.4Y-83.4
X134.1Y-84.3
X134.1Y-85.4
X135.2Y-84.3
X135.2Y-85.5
X135.2Y-86.6
X135.2Y-121.1
X135.2Y-123.1
X135.8Y-90.4
X135.8Y-91.4
X136.8Y-86.3
X137.0Y-90.5
X137.1Y-91.4
X137.4Y-99.0
X138.1Y-121.3
X138.1Y-123.0
X138.3Y-86.4
X139.4Y-88.5
X139.4Y-89.3
X139.7Y-86.4
X141.1Y-122.5
X141.65Y-116.475
X142.3Y-125.1
X142.5Y-106.0
X143.25Y-106.0
X143.353Y-114.882
X143.9Y-117.2
X144.0Y-106.0
X144.3Y-104.7
X144.4Y-125.1
X144.9Y-103.9
X145.5Y-120.8
X145.7Y-122.6
X146.1Y-106.3
X146.1Y-107.8
X146.15Y-114.55
X146.5Y-104.0
X147.648Y-107.095
X147.85Y-70.2
X149.25Y-70.2
X150.0Y-130.6
X150.35Y-70.2
X150.4Y-107.1
X150.4Y-108.6
X150.4Y-110.1
X150.4Y-111.6
X150.4Y-113.1
X151.7Y-109.9
X151.8Y-111.1
X151.8Y-112.4
X152.0Y-114.2
X152.6Y-108.0
X152.7Y-132.0
X153.0Y-115.2
X153.0Y-116.3
X153.0Y-117.7
X153.7Y-109.5
X155.0Y-118.2
X155.323Y-111.041
X156.0Y-118.2
X156.1Y-130.3
X156.1Y-131.1
X156.2Y-113.5
X157.2Y-119.6
X157.2Y-134.8
X157.6Y-116.223
X158.2Y-131.2
X158.3Y-130.3
X158.3Y-134.7
X158.7Y-119.5
X159.9Y-131.3
X160.9Y-117.7
X161.2Y-114.4
X162.4Y-117.8
X163.5Y-114.5
X164.2Y-73.7
X164.2Y-75.7
X164.2Y-117.7
X164.3Y-68.1
X164.3Y-69.6
X164.3Y-70.9
X165.6Y-50.8
X165.8Y-114.3
X166.1Y-70.9
X166.2Y-73.9
X167.7Y-107.534
X167.9Y-105.3
X168.6Y-50.8
X169.7Y-96.1
X170.0Y-105.3
X170.0Y-107.5
X170.5Y-109.4
X170.6Y-110.5
X171.1Y-99.3
X171.5Y-50.8
X172.2Y-119.8
X172.3Y-83.1
X172.7Y-114.4
X172.8Y-73.2
X172.8Y-74.4
X172.9Y-117.438
X173.0Y-122.2
X173.5Y-50.8
X174.8Y-83.3
X175.5Y-114.8
X175.756Y-117.644
X175.9Y-50.8
X176.07Y-74.162
X176.3Y-56.5
X177.2Y-55.4
X177.4Y-85.0
X177.6Y-103.0
X177.67Y-74.162
X177.7Y-107.2
X178.1Y-50.8
X178.1Y-56.5
X178.2Y-111.7
X178.3Y-84.9
X178.8Y-121.7
X179.0Y-105.6
X179.05Y-119.1
X179.1Y-55.4
X179.1Y-111.7
X179.1Y-120.1
X179.231Y-57.786
X179.3Y-75.2
X179.686Y-114.456
X179.7Y-56.5
X180.1Y-111.7
X180.2Y-50.8
X180.3Y-120.45
X180.3Y-123.8
X180.5Y-102.8
X180.5Y-104.2
X180.6Y-55.4
X180.8Y-60.475
X180.8Y-113.0
X181.17Y-80.164
X181.5Y-119.5
X182.0Y-102.7
X182.1Y-107.0
X182.445Y-80.164
X182.5Y-126.0
X183.0Y-57.8
X183.1Y-60.775
X183.178Y-56.483
X183.3Y-123.1
X183.426Y-51.935
X183.7Y-53.0
X183.7Y-83.1
X183.7Y-100.7
X183.8Y-80.3
X184.2Y-76.2
X184.5Y-50.8
X184.5Y-55.2
X184.6Y-59.375
X185.0Y-97.6
X185.2Y-76.2
X185.7Y-74.3
X185.8Y-121.9
X185.9Y-54.2
X186.1Y-59.575
X186.2Y-52.2
X186.2Y-76.2
X186.2Y-83.1
X187.0Y-52.7
X187.325Y-50.8
X187.8Y-89.0
X188.6Y-103.7
X188.7Y-92.5
X188.7Y-94.1
X188.7Y-95.7
X188.7Y-101.6
X188.8Y-51.2
X188.8Y-83.0
X188.8Y-97.4
X188.9Y-106.3
X189.1Y-54.025
X189.1Y-73.5
X189.1Y-74.8
X189.1Y-76.0
X189.5Y-50.4
X189.5Y-83.8
X189.5Y-85.1
X189.5Y-86.4
X189.5Y-87.9
T2
X148.5Y-74.0
X148.5Y-75.1
X179.67Y-88.25
X179.67Y-89.65
X180.37Y-87.55
X180.37Y-88.925
X180.37Y-90.35
X181.07Y-88.25
X181.07Y-89.65
X181.77Y-87.55
X181.77Y-88.925
X181.77Y-90.35
X182.47Y-88.25
X182.47Y-89.65
T3
X129.1Y-93.3
X131.5Y-88.55
X133.8Y-103.6
X146.0Y-73.9
X153.6Y-89.0
X155.5Y-89.0
X178.6Y-124.5
T5
X124.2Y-83.0
X124.2Y-85.5
X124.2Y-88.0
X124.2Y-90.5
T6
X122.928Y-102.0
X123.6Y-104.0
X128.6Y-104.0
X129.272Y-106.0
T4
X178.2Y-125.868G85X178.522Y-126.92
G05
X179.466Y-130.009G85X179.7Y-130.774
G05
X186.463Y-123.342G85X186.784Y-124.394
G05
X187.729Y-127.482G85X187.962Y-128.248
G05
T6
X126.004Y-123.631G85X128.108Y-124.274
G05
X127.655Y-117.547G85X130.141Y-118.308
G05
X132.962Y-121.052G85X132.319Y-123.156
G05
M30
