G04 #@! TF.GenerationSoftware,KiCad,Pcbnew,9.0.2*
G04 #@! TF.CreationDate,2025-09-19T19:59:58+02:00*
G04 #@! TF.ProjectId,LumiCtrl,4c756d69-4374-4726-9c2e-6b696361645f,rev?*
G04 #@! TF.SameCoordinates,Original*
G04 #@! TF.FileFunction,Copper,L3,Inr*
G04 #@! TF.FilePolarity,Positive*
%FSLAX46Y46*%
G04 Gerber Fmt 4.6, Leading zero omitted, Abs format (unit mm)*
G04 Created by KiCad (PCBNEW 9.0.2) date 2025-09-19 19:59:58*
%MOMM*%
%LPD*%
G01*
G04 APERTURE LIST*
G04 Aperture macros list*
%AMRoundRect*
0 Rectangle with rounded corners*
0 $1 Rounding radius*
0 $2 $3 $4 $5 $6 $7 $8 $9 X,Y pos of 4 corners*
0 Add a 4 corners polygon primitive as box body*
4,1,4,$2,$3,$4,$5,$6,$7,$8,$9,$2,$3,0*
0 Add four circle primitives for the rounded corners*
1,1,$1+$1,$2,$3*
1,1,$1+$1,$4,$5*
1,1,$1+$1,$6,$7*
1,1,$1+$1,$8,$9*
0 Add four rect primitives between the rounded corners*
20,1,$1+$1,$2,$3,$4,$5,0*
20,1,$1+$1,$4,$5,$6,$7,0*
20,1,$1+$1,$6,$7,$8,$9,0*
20,1,$1+$1,$8,$9,$2,$3,0*%
%AMHorizOval*
0 Thick line with rounded ends*
0 $1 width*
0 $2 $3 position (X,Y) of the first rounded end (center of the circle)*
0 $4 $5 position (X,Y) of the second rounded end (center of the circle)*
0 Add line between two ends*
20,1,$1,$2,$3,$4,$5,0*
0 Add two circle primitives to create the rounded ends*
1,1,$1,$2,$3*
1,1,$1,$4,$5*%
%AMRotRect*
0 Rectangle, with rotation*
0 The origin of the aperture is its center*
0 $1 length*
0 $2 width*
0 $3 Rotation angle, in degrees counterclockwise*
0 Add horizontal line*
21,1,$1,$2,0,0,$3*%
G04 Aperture macros list end*
G04 #@! TA.AperFunction,ComponentPad*
%ADD10C,0.400000*%
G04 #@! TD*
G04 #@! TA.AperFunction,HeatsinkPad*
%ADD11HorizOval,1.000000X-0.116949X0.382522X0.116949X-0.382522X0*%
G04 #@! TD*
G04 #@! TA.AperFunction,HeatsinkPad*
%ADD12HorizOval,1.000000X-0.160804X0.525968X0.160804X-0.525968X0*%
G04 #@! TD*
G04 #@! TA.AperFunction,HeatsinkPad*
%ADD13C,0.600000*%
G04 #@! TD*
G04 #@! TA.AperFunction,ComponentPad*
%ADD14RotRect,4.600000X2.000000X343.000000*%
G04 #@! TD*
G04 #@! TA.AperFunction,ComponentPad*
%ADD15HorizOval,2.000000X1.051935X-0.321609X-1.051935X0.321609X0*%
G04 #@! TD*
G04 #@! TA.AperFunction,ComponentPad*
%ADD16HorizOval,2.000000X-0.321609X-1.051935X0.321609X1.051935X0*%
G04 #@! TD*
G04 #@! TA.AperFunction,ComponentPad*
%ADD17RoundRect,0.250000X-0.725000X0.600000X-0.725000X-0.600000X0.725000X-0.600000X0.725000X0.600000X0*%
G04 #@! TD*
G04 #@! TA.AperFunction,ComponentPad*
%ADD18O,1.950000X1.700000*%
G04 #@! TD*
G04 #@! TA.AperFunction,ComponentPad*
%ADD19RoundRect,0.250000X0.750000X0.750000X-0.750000X0.750000X-0.750000X-0.750000X0.750000X-0.750000X0*%
G04 #@! TD*
G04 #@! TA.AperFunction,ComponentPad*
%ADD20C,2.000000*%
G04 #@! TD*
G04 #@! TA.AperFunction,ViaPad*
%ADD21C,0.800000*%
G04 #@! TD*
G04 #@! TA.AperFunction,ViaPad*
%ADD22C,0.600000*%
G04 #@! TD*
G04 #@! TA.AperFunction,ViaPad*
%ADD23C,0.500000*%
G04 #@! TD*
G04 #@! TA.AperFunction,Conductor*
%ADD24C,0.200000*%
G04 #@! TD*
G04 #@! TA.AperFunction,Conductor*
%ADD25C,0.500000*%
G04 #@! TD*
G04 APERTURE END LIST*
D10*
X148500000Y-74000000D03*
X148500000Y-75100000D03*
D11*
X187845536Y-127864982D03*
D12*
X186623422Y-123867628D03*
D11*
X179583063Y-130391073D03*
D12*
X178360949Y-126393719D03*
D13*
X180370000Y-90350000D03*
X181770000Y-90350000D03*
X179670000Y-89650000D03*
X181070000Y-89650000D03*
X182470000Y-89650000D03*
X180370000Y-88925000D03*
X181770000Y-88925000D03*
X179670000Y-88250000D03*
X181070000Y-88250000D03*
X182470000Y-88250000D03*
X180370000Y-87550000D03*
X181770000Y-87550000D03*
D14*
X128898097Y-117927465D03*
D15*
X127056155Y-123952184D03*
D16*
X132640482Y-122104133D03*
D17*
X124200000Y-83000000D03*
D18*
X124200000Y-85500000D03*
X124200000Y-88000000D03*
X124200000Y-90500000D03*
D19*
X129272144Y-106000000D03*
X128600000Y-104000000D03*
D20*
X123600000Y-104000000D03*
X122927856Y-102000000D03*
D21*
X153600000Y-89000000D03*
X155500000Y-89000000D03*
D22*
X180800000Y-60475000D03*
X146000000Y-73900000D03*
X131500000Y-88550002D03*
X134100000Y-85400000D03*
X134100000Y-84300000D03*
X135200000Y-84300000D03*
X135200000Y-85500000D03*
X135200000Y-86600000D03*
X139700000Y-86400000D03*
X138300000Y-86400000D03*
X136800000Y-86300000D03*
X137000000Y-90500000D03*
X137100000Y-91400000D03*
X135800000Y-91400000D03*
X135800000Y-90400000D03*
X128300000Y-80100000D03*
X130300000Y-80400000D03*
X130400000Y-81900000D03*
X130400000Y-83400000D03*
X122000000Y-88300000D03*
X121900000Y-86600000D03*
X121900000Y-85000000D03*
X122000000Y-83500000D03*
X122000000Y-82000000D03*
X124600000Y-107100000D03*
X120900000Y-108600000D03*
X121300000Y-99000000D03*
X124700000Y-100000000D03*
X146100000Y-106300000D03*
X146100000Y-107800000D03*
X144300000Y-104700000D03*
X144900000Y-103900000D03*
X146500000Y-104000000D03*
X127900000Y-127400000D03*
X125400000Y-126700000D03*
X123500000Y-126100000D03*
X135200000Y-123100000D03*
X135200000Y-121100000D03*
X138100000Y-123000000D03*
X138100000Y-121300000D03*
X142300000Y-125100000D03*
X144400000Y-125100000D03*
X145500000Y-120800000D03*
X145700000Y-122600000D03*
X157200000Y-134800000D03*
X158300000Y-134700000D03*
X158200000Y-131200000D03*
X158300000Y-130300000D03*
X156100000Y-131100000D03*
X156100000Y-130300000D03*
X178600000Y-124500000D03*
X185800000Y-121900000D03*
X180300000Y-120450000D03*
X164200000Y-117700000D03*
X162400000Y-117800000D03*
X160900000Y-117700000D03*
X157200000Y-119600000D03*
X155000000Y-118200000D03*
X156000000Y-118200000D03*
X153000000Y-117700000D03*
X153000000Y-116300000D03*
X153000000Y-115200000D03*
X152000000Y-114200000D03*
X151800000Y-112400000D03*
X151700000Y-109900000D03*
X151800000Y-111100000D03*
X170500000Y-109400000D03*
X170600000Y-110500000D03*
X179000000Y-105600000D03*
X177700000Y-107200000D03*
X180500000Y-104200000D03*
X180500000Y-102800000D03*
X182000000Y-102700000D03*
X188900000Y-106300000D03*
X188600000Y-103700000D03*
X188700000Y-101600000D03*
X188700000Y-92500000D03*
X188700000Y-94100000D03*
X188700000Y-95700000D03*
X188800000Y-97400000D03*
X189500000Y-87900000D03*
X189500000Y-86400000D03*
X189500000Y-85100000D03*
X189500000Y-83800000D03*
X179300000Y-75200000D03*
X172800000Y-73200000D03*
X172800000Y-74400000D03*
X166100000Y-70900000D03*
X166200000Y-73900000D03*
X164200000Y-75700000D03*
X164200000Y-73700000D03*
X164300000Y-70900000D03*
X164300000Y-69600000D03*
X164300000Y-68100000D03*
X176300000Y-56500000D03*
X178100000Y-56500000D03*
X179700000Y-56500000D03*
X177200000Y-55400000D03*
X179100000Y-55400000D03*
X180600000Y-55400000D03*
X183000000Y-57800000D03*
X165600000Y-50800000D03*
X168600000Y-50800000D03*
X171500000Y-50800000D03*
X173500000Y-50800000D03*
X175900000Y-50800000D03*
X178100000Y-50800000D03*
X180200000Y-50800000D03*
X179685712Y-114456014D03*
X156200000Y-113500000D03*
X175756250Y-117643750D03*
X183100000Y-60775000D03*
X184600000Y-59375000D03*
D23*
X181170007Y-80163571D03*
X182445001Y-80163571D03*
D22*
X183700000Y-53000000D03*
X186100000Y-59575000D03*
X183426105Y-51934557D03*
X188800000Y-51200000D03*
X189500000Y-50400000D03*
X189100000Y-54025000D03*
X187325000Y-50800000D03*
X187000000Y-52700000D03*
X179231477Y-57785653D03*
X186200000Y-52200000D03*
X184500000Y-50800000D03*
X183178097Y-56482565D03*
X189100000Y-74800000D03*
X188800000Y-83000000D03*
X189100000Y-73500000D03*
X179100000Y-120100000D03*
X179050000Y-119100000D03*
X129100000Y-93300000D03*
X189100000Y-76000000D03*
X185200000Y-76200000D03*
X180100000Y-111700000D03*
X150350000Y-70200000D03*
X186200000Y-76200000D03*
X147850000Y-70200000D03*
X178200000Y-111700000D03*
X179100000Y-111700000D03*
X177600000Y-103000000D03*
X172700000Y-114400000D03*
X170000000Y-107500000D03*
X172200000Y-119800000D03*
X170000000Y-105300000D03*
X150000000Y-130600000D03*
X167900000Y-105300000D03*
X184200000Y-76200000D03*
X167700000Y-107533561D03*
X149250000Y-70200000D03*
X185700000Y-74300000D03*
X186200000Y-83100000D03*
X153700000Y-109500000D03*
X163500000Y-114500000D03*
X165800000Y-114300000D03*
X161200000Y-114400000D03*
X155322859Y-111040924D03*
X157599715Y-116222661D03*
X158700000Y-119500000D03*
X152600000Y-108000000D03*
X133800000Y-103600000D03*
X150400000Y-110100000D03*
X150400000Y-108600000D03*
X150400000Y-111600000D03*
X150400000Y-113100000D03*
X150400000Y-107100000D03*
X142499994Y-106000000D03*
X183700000Y-83100000D03*
X147648095Y-107095161D03*
X144000000Y-106000000D03*
X183800000Y-80300000D03*
X137400000Y-99000000D03*
X182500000Y-126000000D03*
X181500000Y-119500000D03*
X146149998Y-114550000D03*
X143353085Y-114882452D03*
X141100000Y-122500000D03*
X169700000Y-96100000D03*
X159900000Y-131300000D03*
X187800000Y-89000000D03*
X152700000Y-132000000D03*
X171100000Y-99300000D03*
X175500000Y-114800000D03*
X180800000Y-113000000D03*
D23*
X183700000Y-100700000D03*
X178800000Y-121700000D03*
D22*
X185000000Y-97600000D03*
X173000000Y-122200000D03*
X182100000Y-107000000D03*
X172900000Y-117437500D03*
X141649998Y-116475000D03*
X143900000Y-117200000D03*
X143249997Y-106000000D03*
X178300000Y-84900000D03*
X177670000Y-74162500D03*
X176070000Y-74162500D03*
X177400000Y-85000000D03*
X139400000Y-89300000D03*
X174800000Y-83300000D03*
X139400000Y-88500000D03*
X172300000Y-83100000D03*
X183300000Y-123100000D03*
X180300000Y-123800000D03*
X184500000Y-55200000D03*
X185900000Y-54200000D03*
D24*
X168200000Y-89900000D02*
X174800000Y-83300000D01*
X140100000Y-89900000D02*
X168200000Y-89900000D01*
X139500000Y-89300000D02*
X140100000Y-89900000D01*
X167500000Y-87900000D02*
X172300000Y-83100000D01*
X140000000Y-87900000D02*
X167500000Y-87900000D01*
X139400000Y-88500000D02*
X140000000Y-87900000D01*
X158400000Y-132000000D02*
X152700000Y-132000000D01*
X171100000Y-102000000D02*
X169200000Y-103900000D01*
X171100000Y-99300000D02*
X171100000Y-102000000D01*
X169200000Y-103900000D02*
X169200000Y-121200000D01*
X169200000Y-121200000D02*
X158400000Y-132000000D01*
X186100000Y-53600000D02*
X187000000Y-52700000D01*
X180914347Y-57785653D02*
X185100000Y-53600000D01*
X185100000Y-53600000D02*
X186100000Y-53600000D01*
X179231477Y-57785653D02*
X180914347Y-57785653D01*
D25*
X182100000Y-61775000D02*
X183100000Y-60775000D01*
X182100000Y-79818570D02*
X182100000Y-61775000D01*
X182445001Y-80163571D02*
X182100000Y-79818570D01*
X183508636Y-59375000D02*
X184600000Y-59375000D01*
X181170007Y-61713629D02*
X183508636Y-59375000D01*
X181170007Y-80163571D02*
X181170007Y-61713629D01*
D24*
X186751000Y-75351000D02*
X185700000Y-74300000D01*
X186751000Y-82549000D02*
X186751000Y-75351000D01*
X186200000Y-83100000D02*
X186751000Y-82549000D01*
X153700000Y-109500000D02*
X156300000Y-109500000D01*
X157577054Y-116200000D02*
X157599715Y-116222661D01*
X156500000Y-116200000D02*
X157577054Y-116200000D01*
X155322859Y-115022859D02*
X155322859Y-111040924D01*
X156500000Y-116200000D02*
X155322859Y-115022859D01*
X152600000Y-113400000D02*
X158700000Y-119500000D01*
X152600000Y-108000000D02*
X152600000Y-113400000D01*
X180700000Y-86100000D02*
X183700000Y-83100000D01*
X147648095Y-102151905D02*
X158449000Y-91351000D01*
X168645388Y-91351000D02*
X171396388Y-88600000D01*
X171396388Y-88600000D02*
X171700000Y-88600000D01*
X147648095Y-107095161D02*
X147648095Y-102151905D01*
X174200000Y-86100000D02*
X180700000Y-86100000D01*
X158449000Y-91351000D02*
X168645388Y-91351000D01*
X171700000Y-88600000D02*
X174200000Y-86100000D01*
X145400000Y-91000000D02*
X137400000Y-99000000D01*
X178400000Y-85700000D02*
X173800000Y-85700000D01*
X168500000Y-91000000D02*
X145400000Y-91000000D01*
X183800000Y-80300000D02*
X178400000Y-85700000D01*
X173800000Y-85700000D02*
X168500000Y-91000000D01*
X181500000Y-125000000D02*
X181500000Y-119500000D01*
X182500000Y-126000000D02*
X181500000Y-125000000D01*
X145817546Y-114882452D02*
X146149998Y-114550000D01*
X143353085Y-114882452D02*
X145817546Y-114882452D01*
X160620768Y-96100000D02*
X169700000Y-96100000D01*
X141100000Y-122500000D02*
X141100000Y-115620768D01*
X141100000Y-115620768D02*
X160620768Y-96100000D01*
X187800000Y-90700000D02*
X169551000Y-108949000D01*
X159900000Y-130996388D02*
X159900000Y-131300000D01*
X187800000Y-89000000D02*
X187800000Y-90700000D01*
X169551000Y-121345388D02*
X159900000Y-130996388D01*
X169551000Y-108949000D02*
X169551000Y-121345388D01*
X180800000Y-113000000D02*
X177300000Y-113000000D01*
X177300000Y-113000000D02*
X175500000Y-114800000D01*
X179651000Y-120849000D02*
X179651000Y-117449000D01*
X183700000Y-113400000D02*
X183700000Y-100700000D01*
X179651000Y-117449000D02*
X183700000Y-113400000D01*
X178800000Y-121700000D02*
X179651000Y-120849000D01*
X173000000Y-122200000D02*
X183199000Y-112001000D01*
X183199000Y-99401000D02*
X185000000Y-97600000D01*
X183199000Y-112001000D02*
X183199000Y-99401000D01*
X172900000Y-117437500D02*
X172900000Y-116200000D01*
X172900000Y-116200000D02*
X182100000Y-107000000D01*
X143900000Y-117200000D02*
X143175000Y-116475000D01*
X143175000Y-116475000D02*
X141649998Y-116475000D01*
X178300000Y-83400000D02*
X177670000Y-82770000D01*
X177670000Y-82770000D02*
X177670000Y-74162500D01*
X178300000Y-84900000D02*
X178300000Y-83400000D01*
X177400000Y-83400000D02*
X176070000Y-82070000D01*
X177400000Y-85000000D02*
X177400000Y-83400000D01*
X176070000Y-82070000D02*
X176070000Y-74162500D01*
X156300000Y-109500000D02*
X161200000Y-114400000D01*
G04 #@! TA.AperFunction,Conductor*
G36*
X183935098Y-50020185D02*
G01*
X183980853Y-50072989D01*
X183990797Y-50142147D01*
X183961772Y-50205703D01*
X183955740Y-50212181D01*
X183878213Y-50289707D01*
X183878210Y-50289711D01*
X183790609Y-50420814D01*
X183790602Y-50420827D01*
X183730264Y-50566498D01*
X183730261Y-50566510D01*
X183699500Y-50721153D01*
X183699500Y-50878846D01*
X183730261Y-51033489D01*
X183730264Y-51033501D01*
X183790602Y-51179172D01*
X183790609Y-51179185D01*
X183878210Y-51310288D01*
X183878213Y-51310292D01*
X183989707Y-51421786D01*
X183989711Y-51421789D01*
X184120814Y-51509390D01*
X184120827Y-51509397D01*
X184266498Y-51569735D01*
X184266503Y-51569737D01*
X184421153Y-51600499D01*
X184421156Y-51600500D01*
X184421158Y-51600500D01*
X184578844Y-51600500D01*
X184578845Y-51600499D01*
X184733497Y-51569737D01*
X184879179Y-51509394D01*
X185010289Y-51421789D01*
X185121789Y-51310289D01*
X185209394Y-51179179D01*
X185269737Y-51033497D01*
X185300500Y-50878842D01*
X185300500Y-50721158D01*
X185300500Y-50721155D01*
X185300499Y-50721153D01*
X185269738Y-50566510D01*
X185269737Y-50566503D01*
X185269735Y-50566498D01*
X185209397Y-50420827D01*
X185209390Y-50420814D01*
X185121789Y-50289711D01*
X185121786Y-50289707D01*
X185044260Y-50212181D01*
X185010775Y-50150858D01*
X185015759Y-50081166D01*
X185057631Y-50025233D01*
X185123095Y-50000816D01*
X185131941Y-50000500D01*
X189875500Y-50000500D01*
X189942539Y-50020185D01*
X189988294Y-50072989D01*
X189999500Y-50124500D01*
X189999500Y-81000207D01*
X189999793Y-81000500D01*
X189999794Y-81000500D01*
X190013453Y-81006158D01*
X190067856Y-81049999D01*
X190089921Y-81116294D01*
X190090000Y-81120719D01*
X190090000Y-99879280D01*
X190070315Y-99946319D01*
X190017511Y-99992074D01*
X190013456Y-99993840D01*
X189999793Y-99999499D01*
X189999500Y-99999792D01*
X189999500Y-129912739D01*
X189979815Y-129979778D01*
X189927011Y-130025533D01*
X189917805Y-130029299D01*
X188363351Y-130593484D01*
X188362159Y-130593910D01*
X187981213Y-130727789D01*
X187980143Y-130728160D01*
X186522458Y-131225532D01*
X186521195Y-131225955D01*
X186142586Y-131350614D01*
X186141572Y-131350943D01*
X184668460Y-131821974D01*
X184667124Y-131822393D01*
X184294580Y-131936897D01*
X184293624Y-131937186D01*
X182802089Y-132382499D01*
X182800682Y-132382910D01*
X182438586Y-132486372D01*
X182437688Y-132486625D01*
X180924212Y-132906784D01*
X180922733Y-132907185D01*
X180575968Y-132998851D01*
X180575130Y-132999070D01*
X179035541Y-133394571D01*
X179033990Y-133394958D01*
X178708211Y-133474183D01*
X178707434Y-133474370D01*
X177137240Y-133845515D01*
X177135616Y-133845887D01*
X176837046Y-133912238D01*
X176836330Y-133912395D01*
X175229785Y-134259466D01*
X175228090Y-134259820D01*
X174965569Y-134312707D01*
X174964915Y-134312837D01*
X173313997Y-134636206D01*
X173312230Y-134636539D01*
X173096668Y-134675524D01*
X173096077Y-134675629D01*
X171390712Y-134975537D01*
X171388873Y-134975846D01*
X171235067Y-135000516D01*
X171234540Y-135000599D01*
X169460715Y-135277290D01*
X169458803Y-135277573D01*
X169387689Y-135287533D01*
X169387228Y-135287597D01*
X167531768Y-135540367D01*
X167529388Y-135540668D01*
X165611946Y-135764199D01*
X165609562Y-135764454D01*
X163688093Y-135950864D01*
X163685703Y-135951072D01*
X161761054Y-136100280D01*
X161758661Y-136100442D01*
X159831488Y-136212396D01*
X159829093Y-136212512D01*
X157900114Y-136287170D01*
X157897716Y-136287240D01*
X155967608Y-136324579D01*
X155965210Y-136324602D01*
X154034790Y-136324602D01*
X154032392Y-136324579D01*
X152102283Y-136287240D01*
X152099885Y-136287170D01*
X150170906Y-136212512D01*
X150168511Y-136212396D01*
X148241338Y-136100442D01*
X148238945Y-136100280D01*
X146314296Y-135951072D01*
X146311906Y-135950864D01*
X144390437Y-135764454D01*
X144388053Y-135764199D01*
X142470611Y-135540668D01*
X142468231Y-135540367D01*
X140612770Y-135287597D01*
X140612309Y-135287533D01*
X140541195Y-135277573D01*
X140539283Y-135277290D01*
X138765458Y-135000599D01*
X138764931Y-135000516D01*
X138611125Y-134975846D01*
X138609286Y-134975537D01*
X136903921Y-134675629D01*
X136903330Y-134675524D01*
X136687768Y-134636539D01*
X136686001Y-134636206D01*
X135035083Y-134312837D01*
X135034429Y-134312707D01*
X134771908Y-134259820D01*
X134770213Y-134259466D01*
X133163668Y-133912395D01*
X133162952Y-133912238D01*
X132864382Y-133845887D01*
X132862758Y-133845515D01*
X131292564Y-133474370D01*
X131291787Y-133474183D01*
X130966008Y-133394958D01*
X130964457Y-133394571D01*
X129424868Y-132999070D01*
X129424030Y-132998851D01*
X129077265Y-132907185D01*
X129075786Y-132906784D01*
X127562310Y-132486625D01*
X127561412Y-132486372D01*
X127199316Y-132382910D01*
X127197909Y-132382499D01*
X126030252Y-132033883D01*
X125706374Y-131937186D01*
X125705418Y-131936897D01*
X125654195Y-131921153D01*
X151899500Y-131921153D01*
X151899500Y-132078846D01*
X151930261Y-132233489D01*
X151930264Y-132233501D01*
X151990602Y-132379172D01*
X151990609Y-132379185D01*
X152078210Y-132510288D01*
X152078213Y-132510292D01*
X152189707Y-132621786D01*
X152189711Y-132621789D01*
X152320814Y-132709390D01*
X152320827Y-132709397D01*
X152466498Y-132769735D01*
X152466503Y-132769737D01*
X152621153Y-132800499D01*
X152621156Y-132800500D01*
X152621158Y-132800500D01*
X152778844Y-132800500D01*
X152778845Y-132800499D01*
X152933497Y-132769737D01*
X153079179Y-132709394D01*
X153103384Y-132693221D01*
X153210875Y-132621398D01*
X153277553Y-132600520D01*
X153279766Y-132600500D01*
X158313331Y-132600500D01*
X158313347Y-132600501D01*
X158320943Y-132600501D01*
X158479054Y-132600501D01*
X158479057Y-132600501D01*
X158631785Y-132559577D01*
X158681904Y-132530639D01*
X158768716Y-132480520D01*
X158880520Y-132368716D01*
X158880520Y-132368714D01*
X158890728Y-132358507D01*
X158890730Y-132358504D01*
X159280428Y-131968805D01*
X159341749Y-131935322D01*
X159411441Y-131940306D01*
X159436998Y-131953386D01*
X159520814Y-132009390D01*
X159520827Y-132009397D01*
X159666498Y-132069735D01*
X159666503Y-132069737D01*
X159821153Y-132100499D01*
X159821156Y-132100500D01*
X159821158Y-132100500D01*
X159978844Y-132100500D01*
X159978845Y-132100499D01*
X160133497Y-132069737D01*
X160279179Y-132009394D01*
X160410289Y-131921789D01*
X160521789Y-131810289D01*
X160609394Y-131679179D01*
X160669737Y-131533497D01*
X160700500Y-131378842D01*
X160700500Y-131221158D01*
X160700500Y-131221155D01*
X160684224Y-131139334D01*
X160690451Y-131069742D01*
X160718158Y-131027463D01*
X162562971Y-129182650D01*
X170409500Y-129182650D01*
X170409500Y-129417349D01*
X170409501Y-129417365D01*
X170440134Y-129650048D01*
X170440135Y-129650053D01*
X170440136Y-129650059D01*
X170500883Y-129876772D01*
X170500886Y-129876779D01*
X170590700Y-130093610D01*
X170590705Y-130093620D01*
X170708058Y-130296882D01*
X170850940Y-130483090D01*
X170850946Y-130483097D01*
X171016902Y-130649053D01*
X171016909Y-130649059D01*
X171203117Y-130791941D01*
X171406379Y-130909294D01*
X171406389Y-130909299D01*
X171499316Y-130947790D01*
X171623228Y-130999117D01*
X171849941Y-131059864D01*
X172082644Y-131090500D01*
X172082651Y-131090500D01*
X172317349Y-131090500D01*
X172317356Y-131090500D01*
X172550059Y-131059864D01*
X172776772Y-130999117D01*
X172993617Y-130909296D01*
X173124899Y-130833501D01*
X173178995Y-130802269D01*
X173186508Y-130797930D01*
X173196883Y-130791941D01*
X173383092Y-130649058D01*
X173549058Y-130483092D01*
X173691941Y-130296883D01*
X173809296Y-130093617D01*
X173843626Y-130010737D01*
X178461277Y-130010737D01*
X178461277Y-130010747D01*
X178481012Y-130206734D01*
X178553663Y-130444367D01*
X178615019Y-130425610D01*
X179223077Y-130239706D01*
X179369263Y-130717858D01*
X178699850Y-130922520D01*
X178772501Y-131160149D01*
X178865738Y-131333673D01*
X178991035Y-131485670D01*
X179143580Y-131610305D01*
X179317505Y-131702782D01*
X179506126Y-131759550D01*
X179506135Y-131759552D01*
X179702198Y-131778430D01*
X179702206Y-131778430D01*
X179744495Y-131774171D01*
X179744496Y-131774171D01*
X179509757Y-131006378D01*
X179524298Y-131019938D01*
X179594043Y-131057022D01*
X179671010Y-131074791D01*
X179749953Y-131072034D01*
X179825494Y-131048938D01*
X179892483Y-131007080D01*
X179946355Y-130949309D01*
X179983439Y-130879564D01*
X179987910Y-130860196D01*
X180222648Y-131627985D01*
X180222649Y-131627986D01*
X180260090Y-131607869D01*
X180412084Y-131482574D01*
X180536722Y-131330026D01*
X180629199Y-131156101D01*
X180685967Y-130967480D01*
X180685969Y-130967471D01*
X180704847Y-130771408D01*
X180704847Y-130771398D01*
X180685112Y-130575411D01*
X180612459Y-130337776D01*
X179943047Y-130542436D01*
X179796861Y-130064284D01*
X180466274Y-129859624D01*
X180393622Y-129621990D01*
X180393620Y-129621984D01*
X180300389Y-129448474D01*
X180300387Y-129448472D01*
X180175088Y-129296471D01*
X180022549Y-129171843D01*
X180022546Y-129171841D01*
X179848620Y-129079363D01*
X179659994Y-129022593D01*
X179463928Y-129003714D01*
X179463916Y-129003714D01*
X179421628Y-129007972D01*
X179656366Y-129775765D01*
X179641828Y-129762208D01*
X179572083Y-129725124D01*
X179495116Y-129707355D01*
X179416172Y-129710112D01*
X179340632Y-129733207D01*
X179273643Y-129775066D01*
X179219771Y-129832837D01*
X179182687Y-129902582D01*
X179178215Y-129921950D01*
X178943477Y-129154157D01*
X178943476Y-129154157D01*
X178906036Y-129174276D01*
X178754032Y-129299578D01*
X178629406Y-129452115D01*
X178629404Y-129452118D01*
X178536926Y-129626044D01*
X178480156Y-129814670D01*
X178461277Y-130010737D01*
X173843626Y-130010737D01*
X173899117Y-129876772D01*
X173959864Y-129650059D01*
X173990500Y-129417356D01*
X173990500Y-129182644D01*
X173959864Y-128949941D01*
X173899117Y-128723228D01*
X173847790Y-128599316D01*
X173809299Y-128506389D01*
X173809294Y-128506379D01*
X173774183Y-128445565D01*
X173691941Y-128303117D01*
X173549059Y-128116909D01*
X173549053Y-128116902D01*
X173383097Y-127950946D01*
X173383090Y-127950940D01*
X173196882Y-127808058D01*
X172993620Y-127690705D01*
X172993610Y-127690700D01*
X172776779Y-127600886D01*
X172776780Y-127600886D01*
X172776772Y-127600883D01*
X172550059Y-127540136D01*
X172550053Y-127540135D01*
X172550048Y-127540134D01*
X172317365Y-127509501D01*
X172317362Y-127509500D01*
X172317356Y-127509500D01*
X172082644Y-127509500D01*
X172082638Y-127509500D01*
X172082634Y-127509501D01*
X171849951Y-127540134D01*
X171849944Y-127540135D01*
X171849941Y-127540136D01*
X171802633Y-127552812D01*
X171623234Y-127600881D01*
X171623220Y-127600886D01*
X171406389Y-127690700D01*
X171406379Y-127690705D01*
X171203117Y-127808058D01*
X171016909Y-127950940D01*
X171016902Y-127950946D01*
X170850946Y-128116902D01*
X170850940Y-128116909D01*
X170708058Y-128303117D01*
X170590705Y-128506379D01*
X170590700Y-128506389D01*
X170500886Y-128723220D01*
X170500881Y-128723234D01*
X170440137Y-128949938D01*
X170440134Y-128949951D01*
X170409501Y-129182634D01*
X170409500Y-129182650D01*
X162562971Y-129182650D01*
X165875685Y-125869936D01*
X177195308Y-125869936D01*
X177195308Y-125869945D01*
X177215043Y-126065929D01*
X177215043Y-126065932D01*
X177331550Y-126447013D01*
X177392906Y-126428256D01*
X178000964Y-126242352D01*
X178147149Y-126720504D01*
X177477736Y-126925166D01*
X177594244Y-127306246D01*
X177687477Y-127479762D01*
X177687485Y-127479773D01*
X177812776Y-127631764D01*
X177965316Y-127756393D01*
X177965319Y-127756395D01*
X178139244Y-127848873D01*
X178327870Y-127905643D01*
X178523937Y-127924522D01*
X178523945Y-127924522D01*
X178566237Y-127920263D01*
X178331499Y-127152471D01*
X178346038Y-127166029D01*
X178415783Y-127203113D01*
X178492751Y-127220883D01*
X178571694Y-127218126D01*
X178647234Y-127195031D01*
X178714223Y-127153172D01*
X178768096Y-127095401D01*
X178805180Y-127025656D01*
X178809651Y-127006287D01*
X179044389Y-127774077D01*
X179081833Y-127753958D01*
X179081834Y-127753957D01*
X179233827Y-127628664D01*
X179351495Y-127484646D01*
X186723750Y-127484646D01*
X186723750Y-127484656D01*
X186743485Y-127680643D01*
X186816136Y-127918276D01*
X186877492Y-127899519D01*
X187485550Y-127713615D01*
X187631736Y-128191767D01*
X186962323Y-128396429D01*
X187034974Y-128634058D01*
X187128211Y-128807582D01*
X187253508Y-128959579D01*
X187406053Y-129084214D01*
X187579978Y-129176691D01*
X187768599Y-129233459D01*
X187768608Y-129233461D01*
X187964671Y-129252339D01*
X187964679Y-129252339D01*
X188006968Y-129248080D01*
X188006969Y-129248080D01*
X187772230Y-128480287D01*
X187786771Y-128493847D01*
X187856516Y-128530931D01*
X187933483Y-128548700D01*
X188012426Y-128545943D01*
X188087967Y-128522847D01*
X188154956Y-128480989D01*
X188208828Y-128423218D01*
X188245912Y-128353473D01*
X188250383Y-128334105D01*
X188485121Y-129101894D01*
X188485122Y-129101895D01*
X188522563Y-129081778D01*
X188674557Y-128956483D01*
X188799195Y-128803935D01*
X188891672Y-128630010D01*
X188948440Y-128441389D01*
X188948442Y-128441380D01*
X188967320Y-128245317D01*
X188967320Y-128245307D01*
X188947585Y-128049320D01*
X188874932Y-127811685D01*
X188205520Y-128016345D01*
X188059334Y-127538193D01*
X188728747Y-127333533D01*
X188656095Y-127095899D01*
X188656093Y-127095893D01*
X188562862Y-126922383D01*
X188562860Y-126922381D01*
X188437561Y-126770380D01*
X188285022Y-126645752D01*
X188285019Y-126645750D01*
X188111093Y-126553272D01*
X187922467Y-126496502D01*
X187726401Y-126477623D01*
X187726389Y-126477623D01*
X187684101Y-126481881D01*
X187918839Y-127249674D01*
X187904301Y-127236117D01*
X187834556Y-127199033D01*
X187757589Y-127181264D01*
X187678645Y-127184021D01*
X187603105Y-127207116D01*
X187536116Y-127248975D01*
X187482244Y-127306746D01*
X187445160Y-127376491D01*
X187440688Y-127395859D01*
X187205950Y-126628066D01*
X187205949Y-126628066D01*
X187168509Y-126648185D01*
X187016505Y-126773487D01*
X186891879Y-126926024D01*
X186891877Y-126926027D01*
X186799399Y-127099953D01*
X186742629Y-127288579D01*
X186723750Y-127484646D01*
X179351495Y-127484646D01*
X179358462Y-127476119D01*
X179387973Y-127420618D01*
X179450939Y-127302194D01*
X179507709Y-127113568D01*
X179514736Y-127040588D01*
X179540755Y-126975744D01*
X179597701Y-126935260D01*
X179667494Y-126931990D01*
X179670259Y-126932697D01*
X179675674Y-126934148D01*
X179675676Y-126934149D01*
X179806784Y-126969280D01*
X179806786Y-126969280D01*
X179942516Y-126969280D01*
X179942518Y-126969280D01*
X180073626Y-126934149D01*
X180191175Y-126866282D01*
X180287153Y-126770304D01*
X180355020Y-126652755D01*
X180390151Y-126521647D01*
X180390151Y-126385913D01*
X180355020Y-126254805D01*
X180342714Y-126233491D01*
X180287155Y-126137259D01*
X180287150Y-126137253D01*
X180191177Y-126041280D01*
X180191171Y-126041275D01*
X180073629Y-125973412D01*
X180073630Y-125973412D01*
X180058135Y-125969260D01*
X179942518Y-125938280D01*
X179806784Y-125938280D01*
X179691166Y-125969260D01*
X179675672Y-125973412D01*
X179558130Y-126041275D01*
X179558124Y-126041280D01*
X179462151Y-126137253D01*
X179462146Y-126137259D01*
X179394283Y-126254801D01*
X179394281Y-126254805D01*
X179387433Y-126280362D01*
X179351066Y-126340022D01*
X179303913Y-126366847D01*
X178720932Y-126545082D01*
X178574747Y-126066930D01*
X179244161Y-125862270D01*
X179127654Y-125481193D01*
X179034419Y-125307673D01*
X178909122Y-125155676D01*
X178756577Y-125031041D01*
X178582654Y-124938565D01*
X178394030Y-124881794D01*
X178394024Y-124881793D01*
X178197960Y-124862914D01*
X178197948Y-124862914D01*
X178155660Y-124867172D01*
X178390397Y-125634965D01*
X178375859Y-125621408D01*
X178306115Y-125584324D01*
X178229147Y-125566555D01*
X178150204Y-125569312D01*
X178074664Y-125592407D01*
X178007675Y-125634266D01*
X177953802Y-125692037D01*
X177916718Y-125761781D01*
X177912245Y-125781153D01*
X177677506Y-125013359D01*
X177640069Y-125033475D01*
X177488070Y-125158773D01*
X177363435Y-125311318D01*
X177270959Y-125485241D01*
X177214188Y-125673865D01*
X177214187Y-125673870D01*
X177195308Y-125869936D01*
X165875685Y-125869936D01*
X168024469Y-123721153D01*
X179499500Y-123721153D01*
X179499500Y-123878846D01*
X179530261Y-124033489D01*
X179530264Y-124033501D01*
X179590602Y-124179172D01*
X179590609Y-124179185D01*
X179678210Y-124310288D01*
X179678213Y-124310292D01*
X179789707Y-124421786D01*
X179789711Y-124421789D01*
X179920814Y-124509390D01*
X179920827Y-124509397D01*
X179984846Y-124535914D01*
X180066503Y-124569737D01*
X180221153Y-124600499D01*
X180221156Y-124600500D01*
X180221158Y-124600500D01*
X180378844Y-124600500D01*
X180378845Y-124600499D01*
X180533497Y-124569737D01*
X180679179Y-124509394D01*
X180679184Y-124509390D01*
X180679187Y-124509389D01*
X180706608Y-124491067D01*
X180773285Y-124470188D01*
X180840666Y-124488672D01*
X180887356Y-124540650D01*
X180899500Y-124594168D01*
X180899500Y-124913330D01*
X180899499Y-124913348D01*
X180899499Y-125079054D01*
X180899498Y-125079054D01*
X180906631Y-125105673D01*
X180940423Y-125231785D01*
X180947611Y-125244235D01*
X180947613Y-125244243D01*
X180947616Y-125244242D01*
X180992960Y-125322782D01*
X181019479Y-125368714D01*
X181019481Y-125368717D01*
X181138349Y-125487585D01*
X181138355Y-125487590D01*
X181665425Y-126014660D01*
X181698910Y-126075983D01*
X181699361Y-126078149D01*
X181730261Y-126233491D01*
X181730264Y-126233501D01*
X181790602Y-126379172D01*
X181790609Y-126379185D01*
X181878210Y-126510288D01*
X181878213Y-126510292D01*
X181989707Y-126621786D01*
X181989711Y-126621789D01*
X182120814Y-126709390D01*
X182120827Y-126709397D01*
X182266498Y-126769735D01*
X182266503Y-126769737D01*
X182421153Y-126800499D01*
X182421156Y-126800500D01*
X182421158Y-126800500D01*
X182578844Y-126800500D01*
X182578845Y-126800499D01*
X182733497Y-126769737D01*
X182879179Y-126709394D01*
X183010289Y-126621789D01*
X183121789Y-126510289D01*
X183209394Y-126379179D01*
X183269737Y-126233497D01*
X183300500Y-126078842D01*
X183300500Y-125921158D01*
X183300500Y-125921155D01*
X183300499Y-125921153D01*
X183271551Y-125775623D01*
X183269737Y-125766503D01*
X183259904Y-125742764D01*
X183209397Y-125620827D01*
X183209390Y-125620814D01*
X183121789Y-125489711D01*
X183121786Y-125489707D01*
X183010292Y-125378213D01*
X183010288Y-125378210D01*
X182879185Y-125290609D01*
X182879172Y-125290602D01*
X182733501Y-125230264D01*
X182733491Y-125230261D01*
X182578151Y-125199362D01*
X182516241Y-125166977D01*
X182514662Y-125165426D01*
X182136819Y-124787583D01*
X182122115Y-124760655D01*
X182105523Y-124734837D01*
X182104631Y-124728636D01*
X182103334Y-124726260D01*
X182100500Y-124699902D01*
X182100500Y-124696005D01*
X184886592Y-124696005D01*
X184886592Y-124831739D01*
X184918288Y-124950028D01*
X184921724Y-124962850D01*
X184989587Y-125080392D01*
X184989589Y-125080394D01*
X184989590Y-125080396D01*
X185085568Y-125176374D01*
X185085569Y-125176375D01*
X185085571Y-125176376D01*
X185203113Y-125244239D01*
X185203114Y-125244239D01*
X185203117Y-125244241D01*
X185334225Y-125279372D01*
X185334227Y-125279372D01*
X185469957Y-125279372D01*
X185469959Y-125279372D01*
X185601067Y-125244241D01*
X185718616Y-125176374D01*
X185814594Y-125080396D01*
X185824001Y-125064101D01*
X185874565Y-125015887D01*
X185943171Y-125002662D01*
X186008037Y-125028628D01*
X186027069Y-125047227D01*
X186075248Y-125105672D01*
X186075249Y-125105673D01*
X186227789Y-125230302D01*
X186227792Y-125230304D01*
X186401717Y-125322782D01*
X186590343Y-125379552D01*
X186786410Y-125398431D01*
X186786418Y-125398431D01*
X186828710Y-125394172D01*
X186593972Y-124626380D01*
X186608511Y-124639938D01*
X186678256Y-124677022D01*
X186755224Y-124694792D01*
X186834167Y-124692035D01*
X186909707Y-124668940D01*
X186976696Y-124627081D01*
X187030569Y-124569310D01*
X187067653Y-124499565D01*
X187072124Y-124480196D01*
X187306862Y-125247986D01*
X187344306Y-125227867D01*
X187344307Y-125227866D01*
X187496300Y-125102573D01*
X187620935Y-124950028D01*
X187713412Y-124776103D01*
X187770182Y-124587477D01*
X187789061Y-124391410D01*
X187789061Y-124391401D01*
X187769327Y-124195416D01*
X187769326Y-124195409D01*
X187652818Y-123814331D01*
X186983405Y-124018991D01*
X186837220Y-123540839D01*
X187506634Y-123336179D01*
X187390127Y-122955102D01*
X187296892Y-122781582D01*
X187171595Y-122629585D01*
X187019050Y-122504950D01*
X186845127Y-122412474D01*
X186656503Y-122355703D01*
X186656497Y-122355702D01*
X186460433Y-122336823D01*
X186460421Y-122336823D01*
X186418133Y-122341081D01*
X186652870Y-123108874D01*
X186638332Y-123095317D01*
X186568588Y-123058233D01*
X186491620Y-123040464D01*
X186412677Y-123043221D01*
X186337137Y-123066316D01*
X186270148Y-123108175D01*
X186216275Y-123165946D01*
X186179191Y-123235690D01*
X186174718Y-123255062D01*
X185939979Y-122487268D01*
X185902542Y-122507384D01*
X185750543Y-122632682D01*
X185625908Y-122785227D01*
X185533432Y-122959150D01*
X185476661Y-123147774D01*
X185476660Y-123147779D01*
X185457781Y-123343845D01*
X185457781Y-123343854D01*
X185477516Y-123539838D01*
X185477516Y-123539841D01*
X185594023Y-123920922D01*
X185655379Y-123902165D01*
X186263437Y-123716261D01*
X186409622Y-124194413D01*
X185830298Y-124371531D01*
X185760433Y-124372307D01*
X185725902Y-124355005D01*
X185725655Y-124355434D01*
X185601070Y-124283504D01*
X185601071Y-124283504D01*
X185585576Y-124279352D01*
X185469959Y-124248372D01*
X185334225Y-124248372D01*
X185218607Y-124279352D01*
X185203113Y-124283504D01*
X185085571Y-124351367D01*
X185085565Y-124351372D01*
X184989592Y-124447345D01*
X184989587Y-124447351D01*
X184921724Y-124564893D01*
X184920427Y-124569735D01*
X184886592Y-124696005D01*
X182100500Y-124696005D01*
X182100500Y-123021153D01*
X182499500Y-123021153D01*
X182499500Y-123178846D01*
X182530261Y-123333489D01*
X182530264Y-123333501D01*
X182590602Y-123479172D01*
X182590609Y-123479185D01*
X182678210Y-123610288D01*
X182678213Y-123610292D01*
X182789707Y-123721786D01*
X182789711Y-123721789D01*
X182920814Y-123809390D01*
X182920827Y-123809397D01*
X183066498Y-123869735D01*
X183066503Y-123869737D01*
X183221153Y-123900499D01*
X183221156Y-123900500D01*
X183221158Y-123900500D01*
X183378844Y-123900500D01*
X183378845Y-123900499D01*
X183533497Y-123869737D01*
X183679179Y-123809394D01*
X183810289Y-123721789D01*
X183921789Y-123610289D01*
X184009394Y-123479179D01*
X184069737Y-123333497D01*
X184069899Y-123332683D01*
X184073648Y-123313838D01*
X184073648Y-123313836D01*
X184094423Y-123209394D01*
X184100500Y-123178842D01*
X184100500Y-123021158D01*
X184100500Y-123021155D01*
X184100499Y-123021153D01*
X184088146Y-122959049D01*
X184069737Y-122866503D01*
X184034562Y-122781582D01*
X184009397Y-122720827D01*
X184009390Y-122720814D01*
X183921789Y-122589711D01*
X183921786Y-122589707D01*
X183810292Y-122478213D01*
X183810288Y-122478210D01*
X183729683Y-122424351D01*
X183679185Y-122390609D01*
X183679172Y-122390602D01*
X183533501Y-122330264D01*
X183533489Y-122330261D01*
X183378845Y-122299500D01*
X183378842Y-122299500D01*
X183221158Y-122299500D01*
X183221155Y-122299500D01*
X183066510Y-122330261D01*
X183066498Y-122330264D01*
X182920827Y-122390602D01*
X182920814Y-122390609D01*
X182789711Y-122478210D01*
X182789707Y-122478213D01*
X182678213Y-122589707D01*
X182678210Y-122589711D01*
X182590609Y-122720814D01*
X182590602Y-122720827D01*
X182530264Y-122866498D01*
X182530261Y-122866510D01*
X182499500Y-123021153D01*
X182100500Y-123021153D01*
X182100500Y-120079765D01*
X182120185Y-120012726D01*
X182121398Y-120010874D01*
X182126871Y-120002684D01*
X182209394Y-119879179D01*
X182269737Y-119733497D01*
X182300500Y-119578842D01*
X182300500Y-119421158D01*
X182300500Y-119421155D01*
X182300499Y-119421153D01*
X182274353Y-119289711D01*
X182269737Y-119266503D01*
X182269735Y-119266498D01*
X182209397Y-119120827D01*
X182209390Y-119120814D01*
X182121789Y-118989711D01*
X182121786Y-118989707D01*
X182010292Y-118878213D01*
X182010288Y-118878210D01*
X181879185Y-118790609D01*
X181879172Y-118790602D01*
X181733501Y-118730264D01*
X181733489Y-118730261D01*
X181578845Y-118699500D01*
X181578842Y-118699500D01*
X181421158Y-118699500D01*
X181421155Y-118699500D01*
X181266510Y-118730261D01*
X181266498Y-118730264D01*
X181120827Y-118790602D01*
X181120814Y-118790609D01*
X180989711Y-118878210D01*
X180989707Y-118878213D01*
X180878213Y-118989707D01*
X180878210Y-118989711D01*
X180790609Y-119120814D01*
X180790602Y-119120827D01*
X180730264Y-119266498D01*
X180730261Y-119266510D01*
X180699500Y-119421153D01*
X180699500Y-119578846D01*
X180730261Y-119733489D01*
X180730264Y-119733501D01*
X180790602Y-119879172D01*
X180790609Y-119879185D01*
X180821416Y-119925290D01*
X180873129Y-120002684D01*
X180878602Y-120010874D01*
X180899480Y-120077551D01*
X180899500Y-120079765D01*
X180899500Y-123005831D01*
X180879815Y-123072870D01*
X180827011Y-123118625D01*
X180757853Y-123128569D01*
X180706610Y-123108934D01*
X180679183Y-123090608D01*
X180679172Y-123090602D01*
X180533501Y-123030264D01*
X180533489Y-123030261D01*
X180378845Y-122999500D01*
X180378842Y-122999500D01*
X180221158Y-122999500D01*
X180221155Y-122999500D01*
X180066510Y-123030261D01*
X180066498Y-123030264D01*
X179920827Y-123090602D01*
X179920814Y-123090609D01*
X179789711Y-123178210D01*
X179789707Y-123178213D01*
X179678213Y-123289707D01*
X179678210Y-123289711D01*
X179590609Y-123420814D01*
X179590602Y-123420827D01*
X179530264Y-123566498D01*
X179530261Y-123566510D01*
X179499500Y-123721153D01*
X168024469Y-123721153D01*
X169909506Y-121836116D01*
X169909511Y-121836112D01*
X169919714Y-121825908D01*
X169919716Y-121825908D01*
X170031520Y-121714104D01*
X170085306Y-121620943D01*
X170110577Y-121577173D01*
X170151500Y-121424445D01*
X170151500Y-121266331D01*
X170151500Y-119721153D01*
X171399500Y-119721153D01*
X171399500Y-119878846D01*
X171430261Y-120033489D01*
X171430264Y-120033501D01*
X171490602Y-120179172D01*
X171490609Y-120179185D01*
X171578210Y-120310288D01*
X171578213Y-120310292D01*
X171689707Y-120421786D01*
X171689711Y-120421789D01*
X171820814Y-120509390D01*
X171820827Y-120509397D01*
X171966498Y-120569735D01*
X171966503Y-120569737D01*
X172119972Y-120600264D01*
X172121153Y-120600499D01*
X172121156Y-120600500D01*
X172121158Y-120600500D01*
X172278844Y-120600500D01*
X172278845Y-120600499D01*
X172433497Y-120569737D01*
X172579179Y-120509394D01*
X172710289Y-120421789D01*
X172821789Y-120310289D01*
X172909394Y-120179179D01*
X172969737Y-120033497D01*
X173000500Y-119878842D01*
X173000500Y-119721158D01*
X173000500Y-119721155D01*
X173000499Y-119721153D01*
X172990793Y-119672358D01*
X172969737Y-119566503D01*
X172964760Y-119554487D01*
X172909397Y-119420827D01*
X172909390Y-119420814D01*
X172821789Y-119289711D01*
X172821786Y-119289707D01*
X172710292Y-119178213D01*
X172710288Y-119178210D01*
X172579185Y-119090609D01*
X172579172Y-119090602D01*
X172433501Y-119030264D01*
X172433489Y-119030261D01*
X172278845Y-118999500D01*
X172278842Y-118999500D01*
X172121158Y-118999500D01*
X172121155Y-118999500D01*
X171966510Y-119030261D01*
X171966498Y-119030264D01*
X171820827Y-119090602D01*
X171820814Y-119090609D01*
X171689711Y-119178210D01*
X171689707Y-119178213D01*
X171578213Y-119289707D01*
X171578210Y-119289711D01*
X171490609Y-119420814D01*
X171490602Y-119420827D01*
X171430264Y-119566498D01*
X171430261Y-119566510D01*
X171399500Y-119721153D01*
X170151500Y-119721153D01*
X170151500Y-114321153D01*
X171899500Y-114321153D01*
X171899500Y-114478846D01*
X171930261Y-114633489D01*
X171930264Y-114633501D01*
X171990602Y-114779172D01*
X171990609Y-114779185D01*
X172078210Y-114910288D01*
X172078213Y-114910292D01*
X172189707Y-115021786D01*
X172189711Y-115021789D01*
X172320814Y-115109390D01*
X172320827Y-115109397D01*
X172432730Y-115155748D01*
X172466503Y-115169737D01*
X172621153Y-115200499D01*
X172621156Y-115200500D01*
X172750902Y-115200500D01*
X172817941Y-115220185D01*
X172863696Y-115272989D01*
X172873640Y-115342147D01*
X172844615Y-115405703D01*
X172838583Y-115412181D01*
X172419481Y-115831282D01*
X172419479Y-115831285D01*
X172405589Y-115855344D01*
X172380653Y-115898535D01*
X172340423Y-115968215D01*
X172299499Y-116120943D01*
X172299499Y-116120945D01*
X172299499Y-116289046D01*
X172299500Y-116289059D01*
X172299500Y-116857734D01*
X172279815Y-116924773D01*
X172278602Y-116926625D01*
X172190609Y-117058314D01*
X172190602Y-117058327D01*
X172130264Y-117203998D01*
X172130261Y-117204010D01*
X172099500Y-117358653D01*
X172099500Y-117516346D01*
X172130261Y-117670989D01*
X172130264Y-117671001D01*
X172190602Y-117816672D01*
X172190609Y-117816685D01*
X172278210Y-117947788D01*
X172278213Y-117947792D01*
X172389707Y-118059286D01*
X172389711Y-118059289D01*
X172520814Y-118146890D01*
X172520827Y-118146897D01*
X172575742Y-118169643D01*
X172666503Y-118207237D01*
X172821153Y-118237999D01*
X172821156Y-118238000D01*
X172821158Y-118238000D01*
X172978844Y-118238000D01*
X172978845Y-118237999D01*
X173133497Y-118207237D01*
X173279179Y-118146894D01*
X173410289Y-118059289D01*
X173521789Y-117947789D01*
X173609394Y-117816679D01*
X173669737Y-117670997D01*
X173700500Y-117516342D01*
X173700500Y-117358658D01*
X173700500Y-117358655D01*
X173700499Y-117358653D01*
X173684624Y-117278844D01*
X173669737Y-117204003D01*
X173659372Y-117178980D01*
X173609397Y-117058327D01*
X173609390Y-117058314D01*
X173521398Y-116926625D01*
X173500520Y-116859947D01*
X173500500Y-116857734D01*
X173500500Y-116500097D01*
X173520185Y-116433058D01*
X173536819Y-116412416D01*
X174105760Y-115843475D01*
X174675536Y-115273698D01*
X174736857Y-115240215D01*
X174806549Y-115245199D01*
X174862482Y-115287071D01*
X174866316Y-115292488D01*
X174878211Y-115310290D01*
X174989707Y-115421786D01*
X174989711Y-115421789D01*
X175120814Y-115509390D01*
X175120827Y-115509397D01*
X175266498Y-115569735D01*
X175266503Y-115569737D01*
X175377632Y-115591842D01*
X175421153Y-115600499D01*
X175421156Y-115600500D01*
X175421158Y-115600500D01*
X175578844Y-115600500D01*
X175578845Y-115600499D01*
X175733497Y-115569737D01*
X175846166Y-115523067D01*
X175879172Y-115509397D01*
X175879172Y-115509396D01*
X175879179Y-115509394D01*
X176010289Y-115421789D01*
X176121789Y-115310289D01*
X176209394Y-115179179D01*
X176269737Y-115033497D01*
X176300433Y-114879179D01*
X176300638Y-114878150D01*
X176333023Y-114816239D01*
X176334518Y-114814716D01*
X177512416Y-113636819D01*
X177573739Y-113603334D01*
X177600097Y-113600500D01*
X180220234Y-113600500D01*
X180238315Y-113605809D01*
X180257156Y-113606125D01*
X180285490Y-113619661D01*
X180287273Y-113620185D01*
X180289011Y-113621322D01*
X180289709Y-113621787D01*
X180289711Y-113621789D01*
X180420821Y-113709394D01*
X180421650Y-113709737D01*
X180427418Y-113713582D01*
X180446124Y-113735915D01*
X180466915Y-113756323D01*
X180468292Y-113762381D01*
X180472282Y-113767145D01*
X180475944Y-113796047D01*
X180482402Y-113824455D01*
X180480284Y-113830296D01*
X180481066Y-113836460D01*
X180468520Y-113862756D01*
X180458595Y-113890143D01*
X180451526Y-113898378D01*
X180450981Y-113899521D01*
X180450050Y-113900097D01*
X180446322Y-113904441D01*
X172985339Y-121365425D01*
X172924016Y-121398910D01*
X172921850Y-121399361D01*
X172766508Y-121430261D01*
X172766498Y-121430264D01*
X172620827Y-121490602D01*
X172620814Y-121490609D01*
X172489711Y-121578210D01*
X172489707Y-121578213D01*
X172378213Y-121689707D01*
X172378210Y-121689711D01*
X172290609Y-121820814D01*
X172290602Y-121820827D01*
X172230264Y-121966498D01*
X172230261Y-121966510D01*
X172199500Y-122121153D01*
X172199500Y-122278846D01*
X172230261Y-122433489D01*
X172230264Y-122433501D01*
X172290602Y-122579172D01*
X172290609Y-122579185D01*
X172378210Y-122710288D01*
X172378213Y-122710292D01*
X172489707Y-122821786D01*
X172489711Y-122821789D01*
X172620814Y-122909390D01*
X172620827Y-122909397D01*
X172766498Y-122969735D01*
X172766503Y-122969737D01*
X172916131Y-122999500D01*
X172921153Y-123000499D01*
X172921156Y-123000500D01*
X172921158Y-123000500D01*
X173078844Y-123000500D01*
X173078845Y-123000499D01*
X173233497Y-122969737D01*
X173379179Y-122909394D01*
X173510289Y-122821789D01*
X173621789Y-122710289D01*
X173709394Y-122579179D01*
X173769737Y-122433497D01*
X173799683Y-122282951D01*
X173800638Y-122278150D01*
X173833023Y-122216239D01*
X173834518Y-122214716D01*
X178859142Y-117190092D01*
X178920463Y-117156609D01*
X178990155Y-117161593D01*
X179046088Y-117203465D01*
X179070505Y-117268929D01*
X179066596Y-117309868D01*
X179050499Y-117369943D01*
X179050499Y-117538046D01*
X179050500Y-117538059D01*
X179050500Y-120548902D01*
X179030815Y-120615941D01*
X179014181Y-120636583D01*
X178721699Y-120929064D01*
X178660376Y-120962549D01*
X178658210Y-120963000D01*
X178581092Y-120978340D01*
X178581084Y-120978342D01*
X178444511Y-121034912D01*
X178444498Y-121034919D01*
X178321584Y-121117048D01*
X178321580Y-121117051D01*
X178217051Y-121221580D01*
X178217048Y-121221584D01*
X178134919Y-121344498D01*
X178134912Y-121344511D01*
X178078343Y-121481082D01*
X178078340Y-121481092D01*
X178049500Y-121626079D01*
X178049500Y-121626082D01*
X178049500Y-121773918D01*
X178049500Y-121773920D01*
X178049499Y-121773920D01*
X178078340Y-121918907D01*
X178078343Y-121918917D01*
X178134912Y-122055488D01*
X178134919Y-122055501D01*
X178217048Y-122178415D01*
X178217051Y-122178419D01*
X178321580Y-122282948D01*
X178321584Y-122282951D01*
X178444498Y-122365080D01*
X178444511Y-122365087D01*
X178579880Y-122421158D01*
X178581087Y-122421658D01*
X178581091Y-122421658D01*
X178581092Y-122421659D01*
X178726079Y-122450500D01*
X178726082Y-122450500D01*
X178873920Y-122450500D01*
X178971462Y-122431096D01*
X179018913Y-122421658D01*
X179155495Y-122365084D01*
X179278416Y-122282951D01*
X179382951Y-122178416D01*
X179465084Y-122055495D01*
X179521658Y-121918913D01*
X179536999Y-121841786D01*
X179569381Y-121779879D01*
X179570871Y-121778362D01*
X180131520Y-121217716D01*
X180210577Y-121080784D01*
X180251501Y-120928057D01*
X180251501Y-120769942D01*
X180251501Y-120762347D01*
X180251500Y-120762329D01*
X180251500Y-117749097D01*
X180271185Y-117682058D01*
X180287819Y-117661416D01*
X182214461Y-115734774D01*
X184180520Y-113768716D01*
X184259577Y-113631784D01*
X184300501Y-113479057D01*
X184300501Y-113320942D01*
X184300501Y-113313339D01*
X184300500Y-113313329D01*
X184300500Y-101189767D01*
X184320185Y-101122728D01*
X184321398Y-101120876D01*
X184365080Y-101055501D01*
X184365080Y-101055500D01*
X184365084Y-101055495D01*
X184421658Y-100918913D01*
X184431096Y-100871462D01*
X184450500Y-100773920D01*
X184450500Y-100626079D01*
X184421659Y-100481092D01*
X184421658Y-100481091D01*
X184421658Y-100481087D01*
X184421656Y-100481082D01*
X184365087Y-100344511D01*
X184365080Y-100344498D01*
X184282951Y-100221584D01*
X184282948Y-100221580D01*
X184178419Y-100117051D01*
X184178415Y-100117048D01*
X184055501Y-100034919D01*
X184055488Y-100034912D01*
X183918915Y-99978342D01*
X183918911Y-99978341D01*
X183899305Y-99974441D01*
X183871171Y-99959723D01*
X183842297Y-99946537D01*
X183840439Y-99943646D01*
X183837395Y-99942054D01*
X183821687Y-99914467D01*
X183804523Y-99887759D01*
X183803862Y-99883161D01*
X183802823Y-99881337D01*
X183799500Y-99852824D01*
X183799500Y-99701097D01*
X183819185Y-99634058D01*
X183835819Y-99613416D01*
X184416951Y-99032284D01*
X185014664Y-98434571D01*
X185075985Y-98401088D01*
X185078152Y-98400637D01*
X185078841Y-98400500D01*
X185078842Y-98400500D01*
X185233497Y-98369737D01*
X185379179Y-98309394D01*
X185510289Y-98221789D01*
X185621789Y-98110289D01*
X185709394Y-97979179D01*
X185769737Y-97833497D01*
X185800500Y-97678842D01*
X185800500Y-97521158D01*
X185800500Y-97521155D01*
X185800499Y-97521153D01*
X185769738Y-97366510D01*
X185769738Y-97366508D01*
X185769737Y-97366503D01*
X185769735Y-97366498D01*
X185709397Y-97220827D01*
X185709390Y-97220814D01*
X185621789Y-97089711D01*
X185621786Y-97089707D01*
X185510292Y-96978213D01*
X185510288Y-96978210D01*
X185379185Y-96890609D01*
X185379172Y-96890602D01*
X185233501Y-96830264D01*
X185233489Y-96830261D01*
X185078845Y-96799500D01*
X185078842Y-96799500D01*
X184921158Y-96799500D01*
X184921155Y-96799500D01*
X184766510Y-96830261D01*
X184766498Y-96830264D01*
X184620827Y-96890602D01*
X184620814Y-96890609D01*
X184489711Y-96978210D01*
X184489707Y-96978213D01*
X184378213Y-97089707D01*
X184378210Y-97089711D01*
X184290609Y-97220814D01*
X184290602Y-97220827D01*
X184230264Y-97366498D01*
X184230261Y-97366508D01*
X184199362Y-97521848D01*
X184166977Y-97583759D01*
X184165426Y-97585337D01*
X182833065Y-98917698D01*
X182833057Y-98917706D01*
X182830286Y-98920478D01*
X182830284Y-98920480D01*
X182718480Y-99032284D01*
X182698724Y-99066503D01*
X182639423Y-99169215D01*
X182598499Y-99321943D01*
X182598499Y-99321945D01*
X182598499Y-99490046D01*
X182598500Y-99490059D01*
X182598500Y-106154451D01*
X182578815Y-106221490D01*
X182526011Y-106267245D01*
X182456853Y-106277189D01*
X182427048Y-106269012D01*
X182333501Y-106230264D01*
X182333489Y-106230261D01*
X182178845Y-106199500D01*
X182178842Y-106199500D01*
X182021158Y-106199500D01*
X182021155Y-106199500D01*
X181866510Y-106230261D01*
X181866498Y-106230264D01*
X181720827Y-106290602D01*
X181720814Y-106290609D01*
X181589711Y-106378210D01*
X181589707Y-106378213D01*
X181478213Y-106489707D01*
X181478210Y-106489711D01*
X181390609Y-106620814D01*
X181390602Y-106620827D01*
X181330264Y-106766498D01*
X181330261Y-106766508D01*
X181299362Y-106921848D01*
X181266977Y-106983759D01*
X181265426Y-106985337D01*
X173712181Y-114538583D01*
X173650858Y-114572068D01*
X173581166Y-114567084D01*
X173525233Y-114525212D01*
X173500816Y-114459748D01*
X173500500Y-114450902D01*
X173500500Y-114321155D01*
X173500499Y-114321153D01*
X173489628Y-114266503D01*
X173469737Y-114166503D01*
X173450812Y-114120814D01*
X173409397Y-114020827D01*
X173409390Y-114020814D01*
X173321789Y-113889711D01*
X173321786Y-113889707D01*
X173210292Y-113778213D01*
X173210288Y-113778210D01*
X173079185Y-113690609D01*
X173079172Y-113690602D01*
X172933501Y-113630264D01*
X172933489Y-113630261D01*
X172778845Y-113599500D01*
X172778842Y-113599500D01*
X172621158Y-113599500D01*
X172621155Y-113599500D01*
X172466510Y-113630261D01*
X172466498Y-113630264D01*
X172320827Y-113690602D01*
X172320814Y-113690609D01*
X172189711Y-113778210D01*
X172189707Y-113778213D01*
X172078213Y-113889707D01*
X172078210Y-113889711D01*
X171990609Y-114020814D01*
X171990602Y-114020827D01*
X171930264Y-114166498D01*
X171930261Y-114166510D01*
X171899500Y-114321153D01*
X170151500Y-114321153D01*
X170151500Y-109249096D01*
X170171185Y-109182057D01*
X170187814Y-109161420D01*
X176602680Y-102746554D01*
X176664002Y-102713070D01*
X176733694Y-102718054D01*
X176789627Y-102759926D01*
X176814044Y-102825390D01*
X176811977Y-102858427D01*
X176799500Y-102921153D01*
X176799500Y-103078846D01*
X176830261Y-103233489D01*
X176830264Y-103233501D01*
X176890602Y-103379172D01*
X176890609Y-103379185D01*
X176978210Y-103510288D01*
X176978213Y-103510292D01*
X177089707Y-103621786D01*
X177089711Y-103621789D01*
X177220814Y-103709390D01*
X177220827Y-103709397D01*
X177366498Y-103769735D01*
X177366503Y-103769737D01*
X177521153Y-103800499D01*
X177521156Y-103800500D01*
X177521158Y-103800500D01*
X177678844Y-103800500D01*
X177678845Y-103800499D01*
X177833497Y-103769737D01*
X177979179Y-103709394D01*
X178110289Y-103621789D01*
X178221789Y-103510289D01*
X178309394Y-103379179D01*
X178369737Y-103233497D01*
X178400500Y-103078842D01*
X178400500Y-102921158D01*
X178400500Y-102921155D01*
X178400499Y-102921153D01*
X178381450Y-102825390D01*
X178369737Y-102766503D01*
X178348518Y-102715276D01*
X178309397Y-102620827D01*
X178309390Y-102620814D01*
X178221789Y-102489711D01*
X178221786Y-102489707D01*
X178110292Y-102378213D01*
X178110288Y-102378210D01*
X177979185Y-102290609D01*
X177979172Y-102290602D01*
X177833501Y-102230264D01*
X177833489Y-102230261D01*
X177678845Y-102199500D01*
X177678842Y-102199500D01*
X177521158Y-102199500D01*
X177521153Y-102199500D01*
X177458427Y-102211977D01*
X177388835Y-102205750D01*
X177333658Y-102162886D01*
X177310414Y-102096997D01*
X177326482Y-102029000D01*
X177346553Y-102002681D01*
X188158506Y-91190727D01*
X188158511Y-91190724D01*
X188168714Y-91180520D01*
X188168716Y-91180520D01*
X188280520Y-91068716D01*
X188342090Y-90962073D01*
X188359577Y-90931785D01*
X188400500Y-90779058D01*
X188400500Y-90620943D01*
X188400500Y-89579765D01*
X188420185Y-89512726D01*
X188421398Y-89510874D01*
X188509390Y-89379185D01*
X188509390Y-89379184D01*
X188509394Y-89379179D01*
X188569737Y-89233497D01*
X188600500Y-89078842D01*
X188600500Y-88921158D01*
X188600500Y-88921155D01*
X188600499Y-88921153D01*
X188592272Y-88879792D01*
X188569737Y-88766503D01*
X188545428Y-88707816D01*
X188509397Y-88620827D01*
X188509390Y-88620814D01*
X188421789Y-88489711D01*
X188421786Y-88489707D01*
X188310292Y-88378213D01*
X188310288Y-88378210D01*
X188179185Y-88290609D01*
X188179172Y-88290602D01*
X188033501Y-88230264D01*
X188033489Y-88230261D01*
X187878845Y-88199500D01*
X187878842Y-88199500D01*
X187721158Y-88199500D01*
X187721155Y-88199500D01*
X187566510Y-88230261D01*
X187566498Y-88230264D01*
X187420827Y-88290602D01*
X187420814Y-88290609D01*
X187289711Y-88378210D01*
X187289707Y-88378213D01*
X187178213Y-88489707D01*
X187178210Y-88489711D01*
X187090609Y-88620814D01*
X187090602Y-88620827D01*
X187030264Y-88766498D01*
X187030261Y-88766510D01*
X186999500Y-88921153D01*
X186999500Y-89078846D01*
X187030261Y-89233489D01*
X187030264Y-89233501D01*
X187090602Y-89379172D01*
X187090609Y-89379185D01*
X187178602Y-89510874D01*
X187199480Y-89577551D01*
X187199500Y-89579765D01*
X187199500Y-90399902D01*
X187179815Y-90466941D01*
X187163181Y-90487583D01*
X170729102Y-106921661D01*
X170667779Y-106955146D01*
X170598087Y-106950162D01*
X170553740Y-106921661D01*
X170510292Y-106878213D01*
X170510288Y-106878210D01*
X170379185Y-106790609D01*
X170379172Y-106790602D01*
X170233501Y-106730264D01*
X170233489Y-106730261D01*
X170078845Y-106699500D01*
X170078842Y-106699500D01*
X169924500Y-106699500D01*
X169857461Y-106679815D01*
X169811706Y-106627011D01*
X169800500Y-106575500D01*
X169800500Y-106224500D01*
X169820185Y-106157461D01*
X169872989Y-106111706D01*
X169924500Y-106100500D01*
X170078844Y-106100500D01*
X170078845Y-106100499D01*
X170233497Y-106069737D01*
X170379179Y-106009394D01*
X170510289Y-105921789D01*
X170621789Y-105810289D01*
X170709394Y-105679179D01*
X170769737Y-105533497D01*
X170800500Y-105378842D01*
X170800500Y-105221158D01*
X170800500Y-105221155D01*
X170800499Y-105221153D01*
X170796192Y-105199500D01*
X170769737Y-105066503D01*
X170713471Y-104930663D01*
X170709397Y-104920827D01*
X170709390Y-104920814D01*
X170621789Y-104789711D01*
X170621786Y-104789707D01*
X170510292Y-104678213D01*
X170510288Y-104678210D01*
X170379185Y-104590609D01*
X170379172Y-104590602D01*
X170233501Y-104530264D01*
X170233489Y-104530261D01*
X170078845Y-104499500D01*
X170078842Y-104499500D01*
X169924500Y-104499500D01*
X169915814Y-104496949D01*
X169906853Y-104498238D01*
X169882812Y-104487259D01*
X169857461Y-104479815D01*
X169851533Y-104472974D01*
X169843297Y-104469213D01*
X169829007Y-104446978D01*
X169811706Y-104427011D01*
X169809418Y-104416496D01*
X169805523Y-104410435D01*
X169800500Y-104375500D01*
X169800500Y-104200097D01*
X169820185Y-104133058D01*
X169836819Y-104112416D01*
X170666324Y-103282911D01*
X171580520Y-102368716D01*
X171659577Y-102231784D01*
X171700501Y-102079057D01*
X171700501Y-101920942D01*
X171700501Y-101913347D01*
X171700500Y-101913329D01*
X171700500Y-99879765D01*
X171720185Y-99812726D01*
X171721398Y-99810874D01*
X171809390Y-99679185D01*
X171809390Y-99679184D01*
X171809394Y-99679179D01*
X171869737Y-99533497D01*
X171900500Y-99378842D01*
X171900500Y-99221158D01*
X171900500Y-99221155D01*
X171900499Y-99221153D01*
X171872191Y-99078842D01*
X171869737Y-99066503D01*
X171809532Y-98921153D01*
X171809397Y-98920827D01*
X171809390Y-98920814D01*
X171721789Y-98789711D01*
X171721786Y-98789707D01*
X171610292Y-98678213D01*
X171610288Y-98678210D01*
X171479185Y-98590609D01*
X171479172Y-98590602D01*
X171333501Y-98530264D01*
X171333489Y-98530261D01*
X171178845Y-98499500D01*
X171178842Y-98499500D01*
X171021158Y-98499500D01*
X171021155Y-98499500D01*
X170866510Y-98530261D01*
X170866498Y-98530264D01*
X170720827Y-98590602D01*
X170720814Y-98590609D01*
X170589711Y-98678210D01*
X170589707Y-98678213D01*
X170478213Y-98789707D01*
X170478210Y-98789711D01*
X170390609Y-98920814D01*
X170390602Y-98920827D01*
X170330264Y-99066498D01*
X170330261Y-99066510D01*
X170299500Y-99221153D01*
X170299500Y-99378846D01*
X170330261Y-99533489D01*
X170330264Y-99533501D01*
X170390602Y-99679172D01*
X170390609Y-99679185D01*
X170478602Y-99810874D01*
X170499480Y-99877551D01*
X170499500Y-99879765D01*
X170499500Y-101699902D01*
X170479815Y-101766941D01*
X170463181Y-101787583D01*
X168719481Y-103531282D01*
X168719479Y-103531284D01*
X168701144Y-103563041D01*
X168693395Y-103576465D01*
X168640423Y-103668215D01*
X168599499Y-103820943D01*
X168599499Y-103820945D01*
X168599499Y-103989046D01*
X168599500Y-103989059D01*
X168599500Y-104572649D01*
X168579815Y-104639688D01*
X168527011Y-104685443D01*
X168457853Y-104695387D01*
X168406609Y-104675751D01*
X168279185Y-104590609D01*
X168279172Y-104590602D01*
X168133501Y-104530264D01*
X168133489Y-104530261D01*
X167978845Y-104499500D01*
X167978842Y-104499500D01*
X167821158Y-104499500D01*
X167821155Y-104499500D01*
X167666510Y-104530261D01*
X167666498Y-104530264D01*
X167520827Y-104590602D01*
X167520814Y-104590609D01*
X167389711Y-104678210D01*
X167389707Y-104678213D01*
X167278213Y-104789707D01*
X167278210Y-104789711D01*
X167190609Y-104920814D01*
X167190602Y-104920827D01*
X167130264Y-105066498D01*
X167130261Y-105066510D01*
X167099500Y-105221153D01*
X167099500Y-105378846D01*
X167130261Y-105533489D01*
X167130264Y-105533501D01*
X167190602Y-105679172D01*
X167190609Y-105679185D01*
X167278210Y-105810288D01*
X167278213Y-105810292D01*
X167389707Y-105921786D01*
X167389711Y-105921789D01*
X167520814Y-106009390D01*
X167520827Y-106009397D01*
X167666498Y-106069735D01*
X167666503Y-106069737D01*
X167821153Y-106100499D01*
X167821156Y-106100500D01*
X167821158Y-106100500D01*
X167978844Y-106100500D01*
X167978845Y-106100499D01*
X168133497Y-106069737D01*
X168279179Y-106009394D01*
X168406609Y-105924248D01*
X168473286Y-105903370D01*
X168540666Y-105921854D01*
X168587357Y-105973833D01*
X168599500Y-106027350D01*
X168599500Y-107030121D01*
X168579815Y-107097160D01*
X168527011Y-107142915D01*
X168457853Y-107152859D01*
X168394297Y-107123834D01*
X168372398Y-107099012D01*
X168321789Y-107023272D01*
X168321786Y-107023268D01*
X168210292Y-106911774D01*
X168210288Y-106911771D01*
X168079185Y-106824170D01*
X168079172Y-106824163D01*
X167933501Y-106763825D01*
X167933489Y-106763822D01*
X167778845Y-106733061D01*
X167778842Y-106733061D01*
X167621158Y-106733061D01*
X167621155Y-106733061D01*
X167466510Y-106763822D01*
X167466498Y-106763825D01*
X167320827Y-106824163D01*
X167320814Y-106824170D01*
X167189711Y-106911771D01*
X167189707Y-106911774D01*
X167078213Y-107023268D01*
X167078210Y-107023272D01*
X166990609Y-107154375D01*
X166990602Y-107154388D01*
X166930264Y-107300059D01*
X166930261Y-107300071D01*
X166899500Y-107454714D01*
X166899500Y-107612407D01*
X166930261Y-107767050D01*
X166930264Y-107767062D01*
X166990602Y-107912733D01*
X166990609Y-107912746D01*
X167078210Y-108043849D01*
X167078213Y-108043853D01*
X167189707Y-108155347D01*
X167189711Y-108155350D01*
X167320814Y-108242951D01*
X167320827Y-108242958D01*
X167466498Y-108303296D01*
X167466503Y-108303298D01*
X167621153Y-108334060D01*
X167621156Y-108334061D01*
X167621158Y-108334061D01*
X167778844Y-108334061D01*
X167778845Y-108334060D01*
X167933497Y-108303298D01*
X168079179Y-108242955D01*
X168210289Y-108155350D01*
X168321789Y-108043850D01*
X168365648Y-107978211D01*
X168372398Y-107968109D01*
X168426010Y-107923304D01*
X168495335Y-107914597D01*
X168558363Y-107944751D01*
X168595082Y-108004195D01*
X168599500Y-108037000D01*
X168599500Y-120899903D01*
X168579815Y-120966942D01*
X168563181Y-120987584D01*
X158187584Y-131363181D01*
X158126261Y-131396666D01*
X158099903Y-131399500D01*
X153279766Y-131399500D01*
X153212727Y-131379815D01*
X153210875Y-131378602D01*
X153079185Y-131290609D01*
X153079172Y-131290602D01*
X152933501Y-131230264D01*
X152933489Y-131230261D01*
X152778845Y-131199500D01*
X152778842Y-131199500D01*
X152621158Y-131199500D01*
X152621155Y-131199500D01*
X152466510Y-131230261D01*
X152466498Y-131230264D01*
X152320827Y-131290602D01*
X152320814Y-131290609D01*
X152189711Y-131378210D01*
X152189707Y-131378213D01*
X152078213Y-131489707D01*
X152078210Y-131489711D01*
X151990609Y-131620814D01*
X151990602Y-131620827D01*
X151930264Y-131766498D01*
X151930261Y-131766510D01*
X151899500Y-131921153D01*
X125654195Y-131921153D01*
X125435721Y-131854003D01*
X125332834Y-131822380D01*
X125331578Y-131821986D01*
X124669560Y-131610305D01*
X123858426Y-131350943D01*
X123857412Y-131350614D01*
X123478803Y-131225955D01*
X123477540Y-131225532D01*
X122019855Y-130728160D01*
X122018785Y-130727789D01*
X121637839Y-130593910D01*
X121636647Y-130593484D01*
X120082195Y-130029299D01*
X120025893Y-129987924D01*
X120000899Y-129922678D01*
X120000500Y-129912739D01*
X120000500Y-129182650D01*
X136809500Y-129182650D01*
X136809500Y-129417349D01*
X136809501Y-129417365D01*
X136840134Y-129650048D01*
X136840135Y-129650053D01*
X136840136Y-129650059D01*
X136900883Y-129876772D01*
X136900886Y-129876779D01*
X136990700Y-130093610D01*
X136990705Y-130093620D01*
X137108058Y-130296882D01*
X137250940Y-130483090D01*
X137250946Y-130483097D01*
X137416902Y-130649053D01*
X137416909Y-130649059D01*
X137603117Y-130791941D01*
X137806379Y-130909294D01*
X137806389Y-130909299D01*
X137899316Y-130947790D01*
X138023228Y-130999117D01*
X138249941Y-131059864D01*
X138482644Y-131090500D01*
X138482651Y-131090500D01*
X138717349Y-131090500D01*
X138717356Y-131090500D01*
X138950059Y-131059864D01*
X139176772Y-130999117D01*
X139393617Y-130909296D01*
X139596883Y-130791941D01*
X139783092Y-130649058D01*
X139910997Y-130521153D01*
X149199500Y-130521153D01*
X149199500Y-130678846D01*
X149230261Y-130833489D01*
X149230264Y-130833501D01*
X149290602Y-130979172D01*
X149290609Y-130979185D01*
X149378210Y-131110288D01*
X149378213Y-131110292D01*
X149489707Y-131221786D01*
X149489711Y-131221789D01*
X149620814Y-131309390D01*
X149620827Y-131309397D01*
X149750675Y-131363181D01*
X149766503Y-131369737D01*
X149916131Y-131399500D01*
X149921153Y-131400499D01*
X149921156Y-131400500D01*
X149921158Y-131400500D01*
X150078844Y-131400500D01*
X150078845Y-131400499D01*
X150233497Y-131369737D01*
X150379179Y-131309394D01*
X150510289Y-131221789D01*
X150621789Y-131110289D01*
X150709394Y-130979179D01*
X150769737Y-130833497D01*
X150800500Y-130678842D01*
X150800500Y-130521158D01*
X150800500Y-130521155D01*
X150800499Y-130521153D01*
X150769738Y-130366510D01*
X150769737Y-130366503D01*
X150740900Y-130296883D01*
X150709397Y-130220827D01*
X150709390Y-130220814D01*
X150621789Y-130089711D01*
X150621786Y-130089707D01*
X150510292Y-129978213D01*
X150510288Y-129978210D01*
X150379185Y-129890609D01*
X150379172Y-129890602D01*
X150233501Y-129830264D01*
X150233489Y-129830261D01*
X150078845Y-129799500D01*
X150078842Y-129799500D01*
X149921158Y-129799500D01*
X149921155Y-129799500D01*
X149766510Y-129830261D01*
X149766498Y-129830264D01*
X149620827Y-129890602D01*
X149620814Y-129890609D01*
X149489711Y-129978210D01*
X149489707Y-129978213D01*
X149378213Y-130089707D01*
X149378210Y-130089711D01*
X149290609Y-130220814D01*
X149290602Y-130220827D01*
X149230264Y-130366498D01*
X149230261Y-130366510D01*
X149199500Y-130521153D01*
X139910997Y-130521153D01*
X139949058Y-130483092D01*
X140091941Y-130296883D01*
X140209296Y-130093617D01*
X140299117Y-129876772D01*
X140359864Y-129650059D01*
X140390500Y-129417356D01*
X140390500Y-129182644D01*
X140359864Y-128949941D01*
X140299117Y-128723228D01*
X140247790Y-128599316D01*
X140209299Y-128506389D01*
X140209294Y-128506379D01*
X140091941Y-128303117D01*
X139949059Y-128116909D01*
X139949053Y-128116902D01*
X139783097Y-127950946D01*
X139783090Y-127950940D01*
X139596882Y-127808058D01*
X139393620Y-127690705D01*
X139393610Y-127690700D01*
X139176779Y-127600886D01*
X139176780Y-127600886D01*
X139176772Y-127600883D01*
X138950059Y-127540136D01*
X138950053Y-127540135D01*
X138950048Y-127540134D01*
X138717365Y-127509501D01*
X138717362Y-127509500D01*
X138717356Y-127509500D01*
X138482644Y-127509500D01*
X138482638Y-127509500D01*
X138482634Y-127509501D01*
X138249951Y-127540134D01*
X138249944Y-127540135D01*
X138249941Y-127540136D01*
X138202633Y-127552812D01*
X138023234Y-127600881D01*
X138023220Y-127600886D01*
X137806389Y-127690700D01*
X137806379Y-127690705D01*
X137603117Y-127808058D01*
X137416909Y-127950940D01*
X137416902Y-127950946D01*
X137250946Y-128116902D01*
X137250940Y-128116909D01*
X137108058Y-128303117D01*
X136990705Y-128506379D01*
X136990700Y-128506389D01*
X136900886Y-128723220D01*
X136900881Y-128723234D01*
X136840137Y-128949938D01*
X136840134Y-128949951D01*
X136809501Y-129182634D01*
X136809500Y-129182650D01*
X120000500Y-129182650D01*
X120000500Y-123538726D01*
X124502388Y-123538726D01*
X124506508Y-123774785D01*
X124506509Y-123774789D01*
X124547506Y-124007296D01*
X124547511Y-124007315D01*
X124624373Y-124230539D01*
X124624380Y-124230556D01*
X124735221Y-124439017D01*
X124877310Y-124627575D01*
X124877313Y-124627578D01*
X125047153Y-124791590D01*
X125240559Y-124927015D01*
X125452768Y-125030516D01*
X126378520Y-125313547D01*
X126670892Y-124357243D01*
X127149043Y-124503428D01*
X126856672Y-125459733D01*
X127782424Y-125742764D01*
X127782435Y-125742767D01*
X128016225Y-125775623D01*
X128016241Y-125775624D01*
X128252300Y-125771504D01*
X128252304Y-125771503D01*
X128484818Y-125730505D01*
X128484830Y-125730502D01*
X128708059Y-125653638D01*
X128708072Y-125653632D01*
X128916532Y-125542791D01*
X129105091Y-125400702D01*
X129105094Y-125400699D01*
X129269105Y-125230861D01*
X129269107Y-125230858D01*
X129404528Y-125037455D01*
X129404531Y-125037451D01*
X129449468Y-124945316D01*
X128910795Y-124780627D01*
X128449089Y-124639469D01*
X128497231Y-124594577D01*
X128566997Y-124482929D01*
X128605488Y-124357029D01*
X128610082Y-124225456D01*
X128595274Y-124161316D01*
X129595654Y-124467163D01*
X129609920Y-124365655D01*
X129609921Y-124365641D01*
X129605801Y-124129582D01*
X129605800Y-124129578D01*
X129564803Y-123897071D01*
X129564798Y-123897052D01*
X129487936Y-123673828D01*
X129487929Y-123673811D01*
X129377088Y-123465351D01*
X129234999Y-123276792D01*
X129234997Y-123276789D01*
X129104431Y-123150703D01*
X129104429Y-123150700D01*
X129065170Y-123112788D01*
X129065163Y-123112782D01*
X128995808Y-123064219D01*
X130817041Y-123064219D01*
X130821161Y-123300278D01*
X130821162Y-123300282D01*
X130862159Y-123532789D01*
X130862164Y-123532808D01*
X130939026Y-123756032D01*
X130939033Y-123756049D01*
X131049874Y-123964510D01*
X131191963Y-124153068D01*
X131191966Y-124153071D01*
X131361806Y-124317083D01*
X131555217Y-124452511D01*
X131647348Y-124497447D01*
X131953195Y-123497065D01*
X131998090Y-123545209D01*
X132109737Y-123614975D01*
X132235637Y-123653466D01*
X132367210Y-123658060D01*
X132431347Y-123643252D01*
X132125501Y-124643632D01*
X132227016Y-124657899D01*
X132463083Y-124653779D01*
X132463087Y-124653778D01*
X132695594Y-124612781D01*
X132695613Y-124612776D01*
X132918837Y-124535914D01*
X132918854Y-124535907D01*
X133127315Y-124425066D01*
X133315873Y-124282977D01*
X133315876Y-124282974D01*
X133479888Y-124113134D01*
X133615313Y-123919728D01*
X133718814Y-123707519D01*
X133718814Y-123707518D01*
X134001846Y-122781766D01*
X133045542Y-122489393D01*
X133191727Y-122011241D01*
X134148031Y-122303613D01*
X134431062Y-121377863D01*
X134431065Y-121377852D01*
X134463921Y-121144062D01*
X134463922Y-121144046D01*
X134459802Y-120907987D01*
X134459801Y-120907983D01*
X134418803Y-120675469D01*
X134418800Y-120675457D01*
X134341936Y-120452228D01*
X134341930Y-120452215D01*
X134231089Y-120243755D01*
X134089000Y-120055196D01*
X134088997Y-120055193D01*
X133919160Y-119891184D01*
X133725753Y-119755758D01*
X133633614Y-119710818D01*
X133327766Y-120711197D01*
X133282875Y-120663057D01*
X133171227Y-120593291D01*
X133045327Y-120554800D01*
X132913754Y-120550206D01*
X132849613Y-120565014D01*
X133155461Y-119564631D01*
X133053956Y-119550367D01*
X133053939Y-119550366D01*
X132817880Y-119554486D01*
X132817876Y-119554487D01*
X132585369Y-119595484D01*
X132585350Y-119595489D01*
X132362126Y-119672351D01*
X132362109Y-119672358D01*
X132153649Y-119783199D01*
X131965090Y-119925288D01*
X131965087Y-119925290D01*
X131801080Y-120095124D01*
X131665647Y-120288542D01*
X131562153Y-120500735D01*
X131562149Y-120500746D01*
X131279116Y-121426498D01*
X132235422Y-121718870D01*
X132089236Y-122197022D01*
X131672439Y-122069595D01*
X131132931Y-121904650D01*
X130849902Y-122830402D01*
X130849900Y-122830412D01*
X130817042Y-123064205D01*
X130817041Y-123064219D01*
X128995808Y-123064219D01*
X128871745Y-122977349D01*
X128659552Y-122873855D01*
X128659541Y-122873851D01*
X127733787Y-122590818D01*
X127441414Y-123547123D01*
X126963263Y-123400938D01*
X127255636Y-122444634D01*
X126329885Y-122161604D01*
X126329875Y-122161602D01*
X126096082Y-122128744D01*
X126096068Y-122128743D01*
X125860009Y-122132863D01*
X125860005Y-122132864D01*
X125627498Y-122173861D01*
X125627479Y-122173866D01*
X125404255Y-122250728D01*
X125404238Y-122250735D01*
X125195777Y-122361576D01*
X125007219Y-122503665D01*
X125007216Y-122503668D01*
X124843204Y-122673508D01*
X124707779Y-122866914D01*
X124662840Y-122959049D01*
X124662840Y-122959050D01*
X125663222Y-123264897D01*
X125615079Y-123309792D01*
X125545313Y-123421439D01*
X125506822Y-123547339D01*
X125502228Y-123678912D01*
X125517035Y-123743050D01*
X124516654Y-123437203D01*
X124502389Y-123538710D01*
X124502388Y-123538726D01*
X120000500Y-123538726D01*
X120000500Y-118169641D01*
X125902298Y-118169641D01*
X125910969Y-118313306D01*
X125910970Y-118313311D01*
X125959763Y-118448698D01*
X125959764Y-118448700D01*
X125959765Y-118448701D01*
X126044729Y-118564868D01*
X126158979Y-118652390D01*
X126158980Y-118652391D01*
X126214111Y-118675949D01*
X130704675Y-120048851D01*
X130763555Y-120060151D01*
X130907215Y-120051480D01*
X130907218Y-120051478D01*
X130907222Y-120051478D01*
X130980613Y-120025027D01*
X131042613Y-120002684D01*
X131158780Y-119917720D01*
X131246303Y-119803469D01*
X131269860Y-119748338D01*
X131882596Y-117744167D01*
X131893896Y-117685287D01*
X131885225Y-117541626D01*
X131885224Y-117541623D01*
X131885223Y-117541618D01*
X131836430Y-117406231D01*
X131836429Y-117406229D01*
X131751465Y-117290062D01*
X131637214Y-117202539D01*
X131637215Y-117202539D01*
X131582086Y-117178982D01*
X131582084Y-117178981D01*
X131582083Y-117178981D01*
X129217847Y-116456162D01*
X127091520Y-115806079D01*
X127032640Y-115794779D01*
X127032639Y-115794779D01*
X126996724Y-115796946D01*
X126888976Y-115803450D01*
X126888971Y-115803451D01*
X126753584Y-115852244D01*
X126753581Y-115852245D01*
X126690292Y-115898535D01*
X126637414Y-115937210D01*
X126637413Y-115937211D01*
X126637412Y-115937212D01*
X126549891Y-116051461D01*
X126549889Y-116051463D01*
X126526336Y-116106584D01*
X126526334Y-116106589D01*
X125913598Y-118110761D01*
X125902298Y-118169641D01*
X120000500Y-118169641D01*
X120000500Y-101881947D01*
X121427856Y-101881947D01*
X121427856Y-102118052D01*
X121464790Y-102351247D01*
X121537753Y-102575802D01*
X121644943Y-102786174D01*
X121705194Y-102869104D01*
X121705196Y-102869105D01*
X122444893Y-102129408D01*
X122461931Y-102192993D01*
X122527757Y-102307007D01*
X122620849Y-102400099D01*
X122734863Y-102465925D01*
X122798446Y-102482962D01*
X122058749Y-103222658D01*
X122141680Y-103282911D01*
X122141685Y-103282915D01*
X122145223Y-103284717D01*
X122196022Y-103332688D01*
X122212822Y-103400508D01*
X122206866Y-103433523D01*
X122136934Y-103648751D01*
X122100000Y-103881947D01*
X122100000Y-104118052D01*
X122136934Y-104351247D01*
X122209897Y-104575802D01*
X122317087Y-104786174D01*
X122377338Y-104869104D01*
X122377340Y-104869105D01*
X123117037Y-104129408D01*
X123134075Y-104192993D01*
X123199901Y-104307007D01*
X123292993Y-104400099D01*
X123407007Y-104465925D01*
X123470590Y-104482962D01*
X122730893Y-105222658D01*
X122813828Y-105282914D01*
X123024197Y-105390102D01*
X123248752Y-105463065D01*
X123248751Y-105463065D01*
X123481948Y-105500000D01*
X123718052Y-105500000D01*
X123951247Y-105463065D01*
X124175802Y-105390102D01*
X124386163Y-105282918D01*
X124386169Y-105282914D01*
X124469104Y-105222658D01*
X124469105Y-105222658D01*
X123729408Y-104482962D01*
X123792993Y-104465925D01*
X123907007Y-104400099D01*
X124000099Y-104307007D01*
X124065925Y-104192993D01*
X124082962Y-104129409D01*
X124822658Y-104869105D01*
X124822658Y-104869104D01*
X124882914Y-104786169D01*
X124882918Y-104786163D01*
X124990102Y-104575802D01*
X125063065Y-104351247D01*
X125100000Y-104118052D01*
X125100000Y-103881947D01*
X125063065Y-103648752D01*
X124990102Y-103424197D01*
X124902939Y-103253129D01*
X124902938Y-103253127D01*
X124882916Y-103213830D01*
X124872855Y-103199983D01*
X127099500Y-103199983D01*
X127099500Y-104800001D01*
X127099501Y-104800018D01*
X127110000Y-104902796D01*
X127110001Y-104902799D01*
X127164246Y-105066498D01*
X127165186Y-105069334D01*
X127257288Y-105218656D01*
X127381344Y-105342712D01*
X127530666Y-105434814D01*
X127686649Y-105486501D01*
X127744093Y-105526274D01*
X127770916Y-105590789D01*
X127771644Y-105604207D01*
X127771644Y-106800001D01*
X127771645Y-106800018D01*
X127782144Y-106902796D01*
X127782145Y-106902799D01*
X127824336Y-107030121D01*
X127837330Y-107069334D01*
X127929432Y-107218656D01*
X128053488Y-107342712D01*
X128202810Y-107434814D01*
X128369347Y-107489999D01*
X128472135Y-107500500D01*
X130072152Y-107500499D01*
X130174941Y-107489999D01*
X130341478Y-107434814D01*
X130490800Y-107342712D01*
X130614856Y-107218656D01*
X130706958Y-107069334D01*
X130762143Y-106902797D01*
X130772644Y-106800009D01*
X130772643Y-105921153D01*
X141699494Y-105921153D01*
X141699494Y-106078846D01*
X141730255Y-106233489D01*
X141730258Y-106233501D01*
X141790596Y-106379172D01*
X141790603Y-106379185D01*
X141878204Y-106510288D01*
X141878207Y-106510292D01*
X141989701Y-106621786D01*
X141989705Y-106621789D01*
X142120808Y-106709390D01*
X142120821Y-106709397D01*
X142252224Y-106763825D01*
X142266497Y-106769737D01*
X142418643Y-106800001D01*
X142421147Y-106800499D01*
X142421150Y-106800500D01*
X142421152Y-106800500D01*
X142578838Y-106800500D01*
X142578839Y-106800499D01*
X142733491Y-106769737D01*
X142827544Y-106730778D01*
X142897011Y-106723310D01*
X142922443Y-106730777D01*
X143016500Y-106769737D01*
X143168646Y-106800001D01*
X143171150Y-106800499D01*
X143171153Y-106800500D01*
X143171155Y-106800500D01*
X143328841Y-106800500D01*
X143328842Y-106800499D01*
X143483494Y-106769737D01*
X143577547Y-106730778D01*
X143647014Y-106723310D01*
X143672446Y-106730777D01*
X143766503Y-106769737D01*
X143918649Y-106800001D01*
X143921153Y-106800499D01*
X143921156Y-106800500D01*
X143921158Y-106800500D01*
X144078844Y-106800500D01*
X144078845Y-106800499D01*
X144233497Y-106769737D01*
X144363291Y-106715975D01*
X144379172Y-106709397D01*
X144379172Y-106709396D01*
X144379179Y-106709394D01*
X144510289Y-106621789D01*
X144621789Y-106510289D01*
X144709394Y-106379179D01*
X144769737Y-106233497D01*
X144800500Y-106078842D01*
X144800500Y-105921158D01*
X144800500Y-105921155D01*
X144800499Y-105921153D01*
X144778447Y-105810292D01*
X144769737Y-105766503D01*
X144733569Y-105679185D01*
X144709397Y-105620827D01*
X144709390Y-105620814D01*
X144621789Y-105489711D01*
X144621786Y-105489707D01*
X144510292Y-105378213D01*
X144510288Y-105378210D01*
X144379185Y-105290609D01*
X144379172Y-105290602D01*
X144233501Y-105230264D01*
X144233489Y-105230261D01*
X144078845Y-105199500D01*
X144078842Y-105199500D01*
X143921158Y-105199500D01*
X143921155Y-105199500D01*
X143766511Y-105230260D01*
X143766510Y-105230261D01*
X143766507Y-105230262D01*
X143766503Y-105230263D01*
X143672447Y-105269221D01*
X143602980Y-105276689D01*
X143577546Y-105269220D01*
X143483495Y-105230263D01*
X143483485Y-105230260D01*
X143328842Y-105199500D01*
X143328839Y-105199500D01*
X143171155Y-105199500D01*
X143171152Y-105199500D01*
X143016508Y-105230260D01*
X143016507Y-105230261D01*
X143016504Y-105230262D01*
X143016500Y-105230263D01*
X142922444Y-105269221D01*
X142852977Y-105276689D01*
X142827543Y-105269220D01*
X142733492Y-105230263D01*
X142733482Y-105230260D01*
X142578839Y-105199500D01*
X142578836Y-105199500D01*
X142421152Y-105199500D01*
X142421149Y-105199500D01*
X142266504Y-105230261D01*
X142266492Y-105230264D01*
X142120821Y-105290602D01*
X142120808Y-105290609D01*
X141989705Y-105378210D01*
X141989701Y-105378213D01*
X141878207Y-105489707D01*
X141878204Y-105489711D01*
X141790603Y-105620814D01*
X141790596Y-105620827D01*
X141730258Y-105766498D01*
X141730255Y-105766510D01*
X141699494Y-105921153D01*
X130772643Y-105921153D01*
X130772643Y-105199992D01*
X130762143Y-105097203D01*
X130706958Y-104930666D01*
X130614856Y-104781344D01*
X130490800Y-104657288D01*
X130398032Y-104600069D01*
X130341480Y-104565187D01*
X130341475Y-104565185D01*
X130185495Y-104513498D01*
X130128050Y-104473725D01*
X130101227Y-104409209D01*
X130100499Y-104395792D01*
X130100499Y-103521153D01*
X132999500Y-103521153D01*
X132999500Y-103678846D01*
X133030261Y-103833489D01*
X133030264Y-103833501D01*
X133090602Y-103979172D01*
X133090609Y-103979185D01*
X133178210Y-104110288D01*
X133178213Y-104110292D01*
X133289707Y-104221786D01*
X133289711Y-104221789D01*
X133420814Y-104309390D01*
X133420827Y-104309397D01*
X133527433Y-104353554D01*
X133566503Y-104369737D01*
X133719142Y-104400099D01*
X133721153Y-104400499D01*
X133721156Y-104400500D01*
X133721158Y-104400500D01*
X133878844Y-104400500D01*
X133878845Y-104400499D01*
X134033497Y-104369737D01*
X134179179Y-104309394D01*
X134310289Y-104221789D01*
X134421789Y-104110289D01*
X134509394Y-103979179D01*
X134569737Y-103833497D01*
X134600500Y-103678842D01*
X134600500Y-103521158D01*
X134600500Y-103521155D01*
X134600499Y-103521153D01*
X134576501Y-103400508D01*
X134569737Y-103366503D01*
X134569735Y-103366498D01*
X134509397Y-103220827D01*
X134509390Y-103220814D01*
X134421789Y-103089711D01*
X134421786Y-103089707D01*
X134310292Y-102978213D01*
X134310288Y-102978210D01*
X134179185Y-102890609D01*
X134179172Y-102890602D01*
X134033501Y-102830264D01*
X134033489Y-102830261D01*
X133878845Y-102799500D01*
X133878842Y-102799500D01*
X133721158Y-102799500D01*
X133721155Y-102799500D01*
X133566510Y-102830261D01*
X133566498Y-102830264D01*
X133420827Y-102890602D01*
X133420814Y-102890609D01*
X133289711Y-102978210D01*
X133289707Y-102978213D01*
X133178213Y-103089707D01*
X133178210Y-103089711D01*
X133090609Y-103220814D01*
X133090602Y-103220827D01*
X133030264Y-103366498D01*
X133030261Y-103366510D01*
X132999500Y-103521153D01*
X130100499Y-103521153D01*
X130100499Y-103199998D01*
X130100498Y-103199981D01*
X130089999Y-103097203D01*
X130089998Y-103097200D01*
X130083915Y-103078842D01*
X130034814Y-102930666D01*
X129942712Y-102781344D01*
X129818656Y-102657288D01*
X129724931Y-102599478D01*
X129669336Y-102565187D01*
X129669331Y-102565185D01*
X129667862Y-102564698D01*
X129502797Y-102510001D01*
X129502795Y-102510000D01*
X129400010Y-102499500D01*
X127799998Y-102499500D01*
X127799981Y-102499501D01*
X127697203Y-102510000D01*
X127697200Y-102510001D01*
X127530668Y-102565185D01*
X127530663Y-102565187D01*
X127381342Y-102657289D01*
X127257289Y-102781342D01*
X127165187Y-102930663D01*
X127165186Y-102930666D01*
X127110001Y-103097203D01*
X127110001Y-103097204D01*
X127110000Y-103097204D01*
X127099500Y-103199983D01*
X124872855Y-103199983D01*
X124822658Y-103130894D01*
X124822658Y-103130893D01*
X124082962Y-103870590D01*
X124065925Y-103807007D01*
X124000099Y-103692993D01*
X123907007Y-103599901D01*
X123792993Y-103534075D01*
X123729408Y-103517037D01*
X124469105Y-102777340D01*
X124469104Y-102777338D01*
X124386174Y-102717086D01*
X124382621Y-102715276D01*
X124331827Y-102667299D01*
X124315034Y-102599478D01*
X124320989Y-102566474D01*
X124390921Y-102351245D01*
X124427856Y-102118052D01*
X124427856Y-101881947D01*
X124390921Y-101648752D01*
X124317958Y-101424197D01*
X124210770Y-101213828D01*
X124150514Y-101130894D01*
X124150514Y-101130893D01*
X123410818Y-101870590D01*
X123393781Y-101807007D01*
X123327955Y-101692993D01*
X123234863Y-101599901D01*
X123120849Y-101534075D01*
X123057265Y-101517037D01*
X123796961Y-100777340D01*
X123796960Y-100777338D01*
X123714030Y-100717087D01*
X123503658Y-100609897D01*
X123279103Y-100536934D01*
X123279104Y-100536934D01*
X123045908Y-100500000D01*
X122809804Y-100500000D01*
X122576608Y-100536934D01*
X122352053Y-100609897D01*
X122141686Y-100717084D01*
X122058750Y-100777340D01*
X122798447Y-101517037D01*
X122734863Y-101534075D01*
X122620849Y-101599901D01*
X122527757Y-101692993D01*
X122461931Y-101807007D01*
X122444893Y-101870591D01*
X121705196Y-101130894D01*
X121644940Y-101213830D01*
X121537753Y-101424197D01*
X121464790Y-101648752D01*
X121427856Y-101881947D01*
X120000500Y-101881947D01*
X120000500Y-98921153D01*
X136599500Y-98921153D01*
X136599500Y-99078846D01*
X136630261Y-99233489D01*
X136630264Y-99233501D01*
X136690602Y-99379172D01*
X136690609Y-99379185D01*
X136778210Y-99510288D01*
X136778213Y-99510292D01*
X136889707Y-99621786D01*
X136889711Y-99621789D01*
X137020814Y-99709390D01*
X137020827Y-99709397D01*
X137166498Y-99769735D01*
X137166503Y-99769737D01*
X137321153Y-99800499D01*
X137321156Y-99800500D01*
X137321158Y-99800500D01*
X137478844Y-99800500D01*
X137478845Y-99800499D01*
X137633497Y-99769737D01*
X137779179Y-99709394D01*
X137910289Y-99621789D01*
X138021789Y-99510289D01*
X138109394Y-99379179D01*
X138169737Y-99233497D01*
X138189113Y-99136085D01*
X138200638Y-99078150D01*
X138233023Y-99016239D01*
X138234518Y-99014716D01*
X145612416Y-91636819D01*
X145673739Y-91603334D01*
X145700097Y-91600500D01*
X157050903Y-91600500D01*
X157117942Y-91620185D01*
X157163697Y-91672989D01*
X157173641Y-91742147D01*
X157144616Y-91805703D01*
X157138584Y-91812180D01*
X152151264Y-96799500D01*
X147279381Y-101671383D01*
X147167576Y-101783187D01*
X147167574Y-101783190D01*
X147117456Y-101869999D01*
X147117454Y-101870001D01*
X147088520Y-101920114D01*
X147088519Y-101920115D01*
X147084752Y-101934174D01*
X147047594Y-102072848D01*
X147047594Y-102072850D01*
X147047594Y-102240951D01*
X147047595Y-102240964D01*
X147047595Y-106515395D01*
X147027910Y-106582434D01*
X147026697Y-106584286D01*
X146938704Y-106715975D01*
X146938697Y-106715988D01*
X146878359Y-106861659D01*
X146878356Y-106861671D01*
X146847595Y-107016314D01*
X146847595Y-107174007D01*
X146878356Y-107328650D01*
X146878359Y-107328662D01*
X146938697Y-107474333D01*
X146938704Y-107474346D01*
X147026305Y-107605449D01*
X147026308Y-107605453D01*
X147137802Y-107716947D01*
X147137806Y-107716950D01*
X147268909Y-107804551D01*
X147268922Y-107804558D01*
X147401839Y-107859613D01*
X147414598Y-107864898D01*
X147537149Y-107889275D01*
X147569248Y-107895660D01*
X147569251Y-107895661D01*
X147676509Y-107895661D01*
X147743548Y-107915346D01*
X147789303Y-107968150D01*
X147799247Y-108037308D01*
X147770222Y-108100864D01*
X147764190Y-108107342D01*
X140619481Y-115252050D01*
X140619479Y-115252053D01*
X140599262Y-115287071D01*
X140580403Y-115319737D01*
X140569361Y-115338862D01*
X140569359Y-115338864D01*
X140540425Y-115388977D01*
X140540424Y-115388978D01*
X140531533Y-115422161D01*
X140499499Y-115541711D01*
X140499499Y-115541713D01*
X140499499Y-115709814D01*
X140499500Y-115709827D01*
X140499500Y-121920234D01*
X140479815Y-121987273D01*
X140478602Y-121989125D01*
X140390609Y-122120814D01*
X140390602Y-122120827D01*
X140330264Y-122266498D01*
X140330261Y-122266510D01*
X140299500Y-122421153D01*
X140299500Y-122578846D01*
X140330261Y-122733489D01*
X140330264Y-122733501D01*
X140390602Y-122879172D01*
X140390609Y-122879185D01*
X140478210Y-123010288D01*
X140478213Y-123010292D01*
X140589707Y-123121786D01*
X140589711Y-123121789D01*
X140720814Y-123209390D01*
X140720827Y-123209397D01*
X140860914Y-123267422D01*
X140866503Y-123269737D01*
X141020042Y-123300278D01*
X141021153Y-123300499D01*
X141021156Y-123300500D01*
X141021158Y-123300500D01*
X141178844Y-123300500D01*
X141178845Y-123300499D01*
X141333497Y-123269737D01*
X141453562Y-123220005D01*
X141479172Y-123209397D01*
X141479172Y-123209396D01*
X141479179Y-123209394D01*
X141610289Y-123121789D01*
X141721789Y-123010289D01*
X141809394Y-122879179D01*
X141869737Y-122733497D01*
X141900500Y-122578842D01*
X141900500Y-122421158D01*
X141900500Y-122421155D01*
X141900499Y-122421153D01*
X141887480Y-122355702D01*
X141869737Y-122266503D01*
X141833252Y-122178419D01*
X141809397Y-122120827D01*
X141809390Y-122120814D01*
X141721398Y-121989125D01*
X141700520Y-121922447D01*
X141700500Y-121920234D01*
X141700500Y-117382901D01*
X141720185Y-117315862D01*
X141772989Y-117270107D01*
X141800309Y-117261284D01*
X141818371Y-117257690D01*
X141883495Y-117244737D01*
X142029177Y-117184394D01*
X142070760Y-117156609D01*
X142160873Y-117096398D01*
X142227551Y-117075520D01*
X142229764Y-117075500D01*
X142874903Y-117075500D01*
X142904343Y-117084144D01*
X142934330Y-117090668D01*
X142939345Y-117094422D01*
X142941942Y-117095185D01*
X142962584Y-117111819D01*
X143065425Y-117214660D01*
X143098910Y-117275983D01*
X143099361Y-117278149D01*
X143130261Y-117433491D01*
X143130264Y-117433501D01*
X143190602Y-117579172D01*
X143190609Y-117579185D01*
X143278210Y-117710288D01*
X143278213Y-117710292D01*
X143389707Y-117821786D01*
X143389711Y-117821789D01*
X143520814Y-117909390D01*
X143520827Y-117909397D01*
X143666498Y-117969735D01*
X143666503Y-117969737D01*
X143821153Y-118000499D01*
X143821156Y-118000500D01*
X143821158Y-118000500D01*
X143978844Y-118000500D01*
X143978845Y-118000499D01*
X144133497Y-117969737D01*
X144279179Y-117909394D01*
X144410289Y-117821789D01*
X144521789Y-117710289D01*
X144609394Y-117579179D01*
X144669737Y-117433497D01*
X144700500Y-117278842D01*
X144700500Y-117121158D01*
X144700500Y-117121155D01*
X144700499Y-117121153D01*
X144693137Y-117084144D01*
X144669737Y-116966503D01*
X144644644Y-116905922D01*
X144609397Y-116820827D01*
X144609390Y-116820814D01*
X144521789Y-116689711D01*
X144521786Y-116689707D01*
X144410292Y-116578213D01*
X144410288Y-116578210D01*
X144279185Y-116490609D01*
X144279172Y-116490602D01*
X144133501Y-116430264D01*
X144133491Y-116430261D01*
X143978149Y-116399361D01*
X143916238Y-116366976D01*
X143914660Y-116365425D01*
X143662590Y-116113355D01*
X143662588Y-116113352D01*
X143543717Y-115994481D01*
X143543712Y-115994477D01*
X143444765Y-115937351D01*
X143444521Y-115937210D01*
X143406785Y-115915423D01*
X143406408Y-115915322D01*
X143399139Y-115911147D01*
X143380270Y-115891447D01*
X143359032Y-115874330D01*
X143356454Y-115866584D01*
X143350809Y-115860690D01*
X143345585Y-115833916D01*
X143336974Y-115808034D01*
X143338993Y-115800125D01*
X143337430Y-115792113D01*
X143347511Y-115766763D01*
X143354259Y-115740336D01*
X143360233Y-115734774D01*
X143363250Y-115727189D01*
X143385435Y-115711314D01*
X143405400Y-115692730D01*
X143416931Y-115688778D01*
X143420072Y-115686531D01*
X143424070Y-115686331D01*
X143436704Y-115682002D01*
X143476090Y-115674167D01*
X143586582Y-115652189D01*
X143711374Y-115600499D01*
X143732257Y-115591849D01*
X143732257Y-115591848D01*
X143732264Y-115591846D01*
X143758718Y-115574170D01*
X143863960Y-115503850D01*
X143930638Y-115482972D01*
X143932851Y-115482952D01*
X145730877Y-115482952D01*
X145730893Y-115482953D01*
X145738489Y-115482953D01*
X145896600Y-115482953D01*
X145896603Y-115482953D01*
X146049331Y-115442029D01*
X146121259Y-115400501D01*
X146180364Y-115366376D01*
X146223060Y-115352665D01*
X146222866Y-115351689D01*
X146309332Y-115334488D01*
X146383495Y-115319737D01*
X146523762Y-115261637D01*
X146529170Y-115259397D01*
X146529170Y-115259396D01*
X146529177Y-115259394D01*
X146660287Y-115171789D01*
X146771787Y-115060289D01*
X146859392Y-114929179D01*
X146919735Y-114783497D01*
X146950498Y-114628842D01*
X146950498Y-114471158D01*
X146950498Y-114471155D01*
X146950497Y-114471153D01*
X146919736Y-114316510D01*
X146919735Y-114316503D01*
X146905391Y-114281873D01*
X146859395Y-114170827D01*
X146859388Y-114170814D01*
X146771787Y-114039711D01*
X146771784Y-114039707D01*
X146660290Y-113928213D01*
X146660286Y-113928210D01*
X146529183Y-113840609D01*
X146529170Y-113840602D01*
X146383499Y-113780264D01*
X146383487Y-113780261D01*
X146228843Y-113749500D01*
X146228840Y-113749500D01*
X146071156Y-113749500D01*
X146071153Y-113749500D01*
X145916508Y-113780261D01*
X145916496Y-113780264D01*
X145770825Y-113840602D01*
X145770812Y-113840609D01*
X145639709Y-113928210D01*
X145639705Y-113928213D01*
X145528211Y-114039707D01*
X145528208Y-114039711D01*
X145440607Y-114170814D01*
X145440600Y-114170827D01*
X145426279Y-114205404D01*
X145382439Y-114259808D01*
X145316145Y-114281873D01*
X145311718Y-114281952D01*
X143932851Y-114281952D01*
X143865812Y-114262267D01*
X143863960Y-114261054D01*
X143732270Y-114173061D01*
X143732264Y-114173058D01*
X143666608Y-114145862D01*
X143612205Y-114102020D01*
X143590141Y-114035726D01*
X143607421Y-113968027D01*
X143626377Y-113943624D01*
X149491560Y-108078441D01*
X149552881Y-108044958D01*
X149622573Y-108049942D01*
X149678506Y-108091814D01*
X149702923Y-108157278D01*
X149690795Y-108214304D01*
X149692937Y-108215192D01*
X149630264Y-108366498D01*
X149630261Y-108366510D01*
X149599500Y-108521153D01*
X149599500Y-108678846D01*
X149630261Y-108833489D01*
X149630264Y-108833501D01*
X149690602Y-108979172D01*
X149690609Y-108979185D01*
X149778210Y-109110288D01*
X149778213Y-109110292D01*
X149889707Y-109221786D01*
X149889710Y-109221788D01*
X149889711Y-109221789D01*
X149915219Y-109238833D01*
X149927289Y-109246898D01*
X149972093Y-109300511D01*
X149980800Y-109369836D01*
X149950645Y-109432863D01*
X149927289Y-109453102D01*
X149889707Y-109478213D01*
X149778213Y-109589707D01*
X149778210Y-109589711D01*
X149690609Y-109720814D01*
X149690602Y-109720827D01*
X149630264Y-109866498D01*
X149630261Y-109866510D01*
X149599500Y-110021153D01*
X149599500Y-110178846D01*
X149630261Y-110333489D01*
X149630264Y-110333501D01*
X149690602Y-110479172D01*
X149690609Y-110479185D01*
X149778210Y-110610288D01*
X149778213Y-110610292D01*
X149889707Y-110721786D01*
X149889710Y-110721788D01*
X149889711Y-110721789D01*
X149915219Y-110738833D01*
X149927289Y-110746898D01*
X149972093Y-110800511D01*
X149980800Y-110869836D01*
X149950645Y-110932863D01*
X149927289Y-110953102D01*
X149889707Y-110978213D01*
X149778213Y-111089707D01*
X149778210Y-111089711D01*
X149690609Y-111220814D01*
X149690602Y-111220827D01*
X149630264Y-111366498D01*
X149630261Y-111366510D01*
X149599500Y-111521153D01*
X149599500Y-111678846D01*
X149630261Y-111833489D01*
X149630264Y-111833501D01*
X149690602Y-111979172D01*
X149690609Y-111979185D01*
X149778210Y-112110288D01*
X149778213Y-112110292D01*
X149889707Y-112221786D01*
X149889710Y-112221788D01*
X149889711Y-112221789D01*
X149902390Y-112230261D01*
X149927289Y-112246898D01*
X149972093Y-112300511D01*
X149980800Y-112369836D01*
X149950645Y-112432863D01*
X149927289Y-112453102D01*
X149889707Y-112478213D01*
X149778213Y-112589707D01*
X149778210Y-112589711D01*
X149690609Y-112720814D01*
X149690602Y-112720827D01*
X149630264Y-112866498D01*
X149630261Y-112866510D01*
X149599500Y-113021153D01*
X149599500Y-113178846D01*
X149630261Y-113333489D01*
X149630264Y-113333501D01*
X149690602Y-113479172D01*
X149690609Y-113479185D01*
X149778210Y-113610288D01*
X149778213Y-113610292D01*
X149889707Y-113721786D01*
X149889711Y-113721789D01*
X150020814Y-113809390D01*
X150020827Y-113809397D01*
X150096181Y-113840609D01*
X150166503Y-113869737D01*
X150310490Y-113898378D01*
X150321153Y-113900499D01*
X150321156Y-113900500D01*
X150321158Y-113900500D01*
X150478844Y-113900500D01*
X150478845Y-113900499D01*
X150633497Y-113869737D01*
X150779179Y-113809394D01*
X150910289Y-113721789D01*
X151021789Y-113610289D01*
X151109394Y-113479179D01*
X151169737Y-113333497D01*
X151200500Y-113178842D01*
X151200500Y-113021158D01*
X151200500Y-113021155D01*
X151200499Y-113021153D01*
X151169738Y-112866510D01*
X151169737Y-112866503D01*
X151128316Y-112766503D01*
X151109397Y-112720827D01*
X151109390Y-112720814D01*
X151021789Y-112589711D01*
X151021786Y-112589707D01*
X150910292Y-112478213D01*
X150910284Y-112478207D01*
X150872712Y-112453102D01*
X150827906Y-112399490D01*
X150819199Y-112330165D01*
X150849353Y-112267138D01*
X150872712Y-112246898D01*
X150899279Y-112229145D01*
X150910289Y-112221789D01*
X151021789Y-112110289D01*
X151109394Y-111979179D01*
X151169737Y-111833497D01*
X151200500Y-111678842D01*
X151200500Y-111521158D01*
X151200500Y-111521155D01*
X151200499Y-111521153D01*
X151169738Y-111366510D01*
X151169737Y-111366503D01*
X151150812Y-111320814D01*
X151109397Y-111220827D01*
X151109390Y-111220814D01*
X151021789Y-111089711D01*
X151021786Y-111089707D01*
X150910292Y-110978213D01*
X150910284Y-110978207D01*
X150872712Y-110953102D01*
X150827906Y-110899490D01*
X150819199Y-110830165D01*
X150849353Y-110767138D01*
X150872712Y-110746898D01*
X150899279Y-110729145D01*
X150910289Y-110721789D01*
X151021789Y-110610289D01*
X151109394Y-110479179D01*
X151169737Y-110333497D01*
X151200500Y-110178842D01*
X151200500Y-110021158D01*
X151200500Y-110021155D01*
X151200499Y-110021153D01*
X151169738Y-109866510D01*
X151169737Y-109866503D01*
X151169735Y-109866498D01*
X151109397Y-109720827D01*
X151109390Y-109720814D01*
X151021789Y-109589711D01*
X151021786Y-109589707D01*
X150910292Y-109478213D01*
X150910284Y-109478207D01*
X150872712Y-109453102D01*
X150827906Y-109399490D01*
X150819199Y-109330165D01*
X150849353Y-109267138D01*
X150872712Y-109246898D01*
X150899279Y-109229145D01*
X150910289Y-109221789D01*
X151021789Y-109110289D01*
X151109394Y-108979179D01*
X151169737Y-108833497D01*
X151200500Y-108678842D01*
X151200500Y-108521158D01*
X151200500Y-108521155D01*
X151200499Y-108521153D01*
X151198338Y-108510289D01*
X151169737Y-108366503D01*
X151156299Y-108334060D01*
X151109397Y-108220827D01*
X151109390Y-108220814D01*
X151021789Y-108089711D01*
X151021786Y-108089707D01*
X150939570Y-108007491D01*
X150939564Y-108007486D01*
X150910289Y-107978211D01*
X150868160Y-107950061D01*
X150863891Y-107946628D01*
X150846937Y-107922262D01*
X150846010Y-107921153D01*
X151799500Y-107921153D01*
X151799500Y-108078846D01*
X151830261Y-108233489D01*
X151830264Y-108233501D01*
X151890602Y-108379172D01*
X151890609Y-108379185D01*
X151978602Y-108510874D01*
X151999480Y-108577551D01*
X151999500Y-108579765D01*
X151999500Y-113313330D01*
X151999499Y-113313348D01*
X151999499Y-113479054D01*
X151999498Y-113479054D01*
X151999533Y-113479185D01*
X152040423Y-113631785D01*
X152065084Y-113674499D01*
X152119477Y-113768712D01*
X152119481Y-113768717D01*
X152238349Y-113887585D01*
X152238355Y-113887590D01*
X157865425Y-119514660D01*
X157898910Y-119575983D01*
X157899361Y-119578149D01*
X157930261Y-119733491D01*
X157930264Y-119733501D01*
X157990602Y-119879172D01*
X157990609Y-119879185D01*
X158078210Y-120010288D01*
X158078213Y-120010292D01*
X158189707Y-120121786D01*
X158189711Y-120121789D01*
X158320814Y-120209390D01*
X158320827Y-120209397D01*
X158403776Y-120243755D01*
X158466503Y-120269737D01*
X158621153Y-120300499D01*
X158621156Y-120300500D01*
X158621158Y-120300500D01*
X158778844Y-120300500D01*
X158778845Y-120300499D01*
X158933497Y-120269737D01*
X159079179Y-120209394D01*
X159210289Y-120121789D01*
X159321789Y-120010289D01*
X159409394Y-119879179D01*
X159469737Y-119733497D01*
X159500500Y-119578842D01*
X159500500Y-119421158D01*
X159500500Y-119421155D01*
X159500499Y-119421153D01*
X159474353Y-119289711D01*
X159469737Y-119266503D01*
X159469735Y-119266498D01*
X159409397Y-119120827D01*
X159409390Y-119120814D01*
X159321789Y-118989711D01*
X159321786Y-118989707D01*
X159210292Y-118878213D01*
X159210288Y-118878210D01*
X159079185Y-118790609D01*
X159079172Y-118790602D01*
X158933501Y-118730264D01*
X158933491Y-118730261D01*
X158778151Y-118699362D01*
X158716241Y-118666977D01*
X158714662Y-118665426D01*
X157250084Y-117200848D01*
X157216599Y-117139525D01*
X157221583Y-117069833D01*
X157263455Y-117013900D01*
X157328919Y-116989483D01*
X157361957Y-116991550D01*
X157366216Y-116992397D01*
X157366218Y-116992398D01*
X157428390Y-117004765D01*
X157520870Y-117023161D01*
X157520873Y-117023161D01*
X157678559Y-117023161D01*
X157678560Y-117023160D01*
X157833212Y-116992398D01*
X157978894Y-116932055D01*
X158110004Y-116844450D01*
X158221504Y-116732950D01*
X158309109Y-116601840D01*
X158369452Y-116456158D01*
X158400215Y-116301503D01*
X158400215Y-116143819D01*
X158400215Y-116143816D01*
X158400214Y-116143814D01*
X158381844Y-116051463D01*
X158369452Y-115989164D01*
X158321887Y-115874330D01*
X158309112Y-115843488D01*
X158309105Y-115843475D01*
X158221504Y-115712372D01*
X158221501Y-115712368D01*
X158110007Y-115600874D01*
X158110003Y-115600871D01*
X157978900Y-115513270D01*
X157978887Y-115513263D01*
X157833216Y-115452925D01*
X157833204Y-115452922D01*
X157678560Y-115422161D01*
X157678557Y-115422161D01*
X157520873Y-115422161D01*
X157520870Y-115422161D01*
X157366225Y-115452922D01*
X157366213Y-115452925D01*
X157220538Y-115513265D01*
X157122755Y-115578602D01*
X157056077Y-115599480D01*
X157053864Y-115599500D01*
X156800098Y-115599500D01*
X156733059Y-115579815D01*
X156712417Y-115563181D01*
X155959678Y-114810442D01*
X155926193Y-114749119D01*
X155923359Y-114722761D01*
X155923359Y-111620689D01*
X155943044Y-111553650D01*
X155944257Y-111551798D01*
X156032249Y-111420109D01*
X156032249Y-111420108D01*
X156032253Y-111420103D01*
X156092596Y-111274421D01*
X156123359Y-111119766D01*
X156123359Y-110962082D01*
X156123359Y-110962079D01*
X156123358Y-110962077D01*
X156115652Y-110923338D01*
X156092596Y-110807427D01*
X156073145Y-110760468D01*
X156032256Y-110661751D01*
X156032249Y-110661738D01*
X155944648Y-110530635D01*
X155944645Y-110530631D01*
X155833151Y-110419137D01*
X155833147Y-110419134D01*
X155696973Y-110328145D01*
X155698402Y-110326005D01*
X155656553Y-110284901D01*
X155641090Y-110216764D01*
X155664918Y-110151083D01*
X155720474Y-110108712D01*
X155764848Y-110100500D01*
X155999903Y-110100500D01*
X156066942Y-110120185D01*
X156087584Y-110136819D01*
X160365425Y-114414660D01*
X160398910Y-114475983D01*
X160399361Y-114478149D01*
X160430261Y-114633491D01*
X160430264Y-114633501D01*
X160490602Y-114779172D01*
X160490609Y-114779185D01*
X160578210Y-114910288D01*
X160578213Y-114910292D01*
X160689707Y-115021786D01*
X160689711Y-115021789D01*
X160820814Y-115109390D01*
X160820827Y-115109397D01*
X160932730Y-115155748D01*
X160966503Y-115169737D01*
X161121153Y-115200499D01*
X161121156Y-115200500D01*
X161121158Y-115200500D01*
X161278844Y-115200500D01*
X161278845Y-115200499D01*
X161433497Y-115169737D01*
X161579179Y-115109394D01*
X161710289Y-115021789D01*
X161821789Y-114910289D01*
X161909394Y-114779179D01*
X161969737Y-114633497D01*
X162000500Y-114478842D01*
X162000500Y-114421153D01*
X162699500Y-114421153D01*
X162699500Y-114578846D01*
X162730261Y-114733489D01*
X162730264Y-114733501D01*
X162790602Y-114879172D01*
X162790609Y-114879185D01*
X162878210Y-115010288D01*
X162878213Y-115010292D01*
X162989707Y-115121786D01*
X162989711Y-115121789D01*
X163120814Y-115209390D01*
X163120827Y-115209397D01*
X163266498Y-115269735D01*
X163266503Y-115269737D01*
X163421153Y-115300499D01*
X163421156Y-115300500D01*
X163421158Y-115300500D01*
X163578844Y-115300500D01*
X163578845Y-115300499D01*
X163733497Y-115269737D01*
X163879179Y-115209394D01*
X164010289Y-115121789D01*
X164121789Y-115010289D01*
X164209394Y-114879179D01*
X164269737Y-114733497D01*
X164300500Y-114578842D01*
X164300500Y-114421158D01*
X164300500Y-114421155D01*
X164300499Y-114421153D01*
X164299207Y-114414660D01*
X164269737Y-114266503D01*
X164268084Y-114262512D01*
X164250953Y-114221153D01*
X164999500Y-114221153D01*
X164999500Y-114378846D01*
X165030261Y-114533489D01*
X165030264Y-114533501D01*
X165090602Y-114679172D01*
X165090609Y-114679185D01*
X165178210Y-114810288D01*
X165178213Y-114810292D01*
X165289707Y-114921786D01*
X165289711Y-114921789D01*
X165420814Y-115009390D01*
X165420827Y-115009397D01*
X165566498Y-115069735D01*
X165566503Y-115069737D01*
X165721153Y-115100499D01*
X165721156Y-115100500D01*
X165721158Y-115100500D01*
X165878844Y-115100500D01*
X165878845Y-115100499D01*
X166033497Y-115069737D01*
X166179179Y-115009394D01*
X166310289Y-114921789D01*
X166421789Y-114810289D01*
X166509394Y-114679179D01*
X166511903Y-114673123D01*
X166550954Y-114578844D01*
X166569737Y-114533497D01*
X166600500Y-114378842D01*
X166600500Y-114221158D01*
X166600500Y-114221155D01*
X166600499Y-114221153D01*
X166589627Y-114166498D01*
X166569737Y-114066503D01*
X166569735Y-114066498D01*
X166509397Y-113920827D01*
X166509390Y-113920814D01*
X166421789Y-113789711D01*
X166421786Y-113789707D01*
X166310292Y-113678213D01*
X166310288Y-113678210D01*
X166179185Y-113590609D01*
X166179172Y-113590602D01*
X166033501Y-113530264D01*
X166033489Y-113530261D01*
X165878845Y-113499500D01*
X165878842Y-113499500D01*
X165721158Y-113499500D01*
X165721155Y-113499500D01*
X165566510Y-113530261D01*
X165566498Y-113530264D01*
X165420827Y-113590602D01*
X165420814Y-113590609D01*
X165289711Y-113678210D01*
X165289707Y-113678213D01*
X165178213Y-113789707D01*
X165178210Y-113789711D01*
X165090609Y-113920814D01*
X165090602Y-113920827D01*
X165030264Y-114066498D01*
X165030261Y-114066510D01*
X164999500Y-114221153D01*
X164250953Y-114221153D01*
X164209397Y-114120827D01*
X164209390Y-114120814D01*
X164121789Y-113989711D01*
X164121786Y-113989707D01*
X164010292Y-113878213D01*
X164010288Y-113878210D01*
X163879185Y-113790609D01*
X163879172Y-113790602D01*
X163733501Y-113730264D01*
X163733489Y-113730261D01*
X163578845Y-113699500D01*
X163578842Y-113699500D01*
X163421158Y-113699500D01*
X163421155Y-113699500D01*
X163266510Y-113730261D01*
X163266498Y-113730264D01*
X163120827Y-113790602D01*
X163120814Y-113790609D01*
X162989711Y-113878210D01*
X162989707Y-113878213D01*
X162878213Y-113989707D01*
X162878210Y-113989711D01*
X162790609Y-114120814D01*
X162790602Y-114120827D01*
X162730264Y-114266498D01*
X162730261Y-114266510D01*
X162699500Y-114421153D01*
X162000500Y-114421153D01*
X162000500Y-114321158D01*
X162000500Y-114321155D01*
X162000499Y-114321153D01*
X161989628Y-114266503D01*
X161969737Y-114166503D01*
X161950812Y-114120814D01*
X161909397Y-114020827D01*
X161909390Y-114020814D01*
X161821789Y-113889711D01*
X161821786Y-113889707D01*
X161710292Y-113778213D01*
X161710288Y-113778210D01*
X161579185Y-113690609D01*
X161579172Y-113690602D01*
X161433501Y-113630264D01*
X161433491Y-113630261D01*
X161278149Y-113599361D01*
X161216238Y-113566976D01*
X161214660Y-113565425D01*
X156787590Y-109138355D01*
X156787588Y-109138352D01*
X156668717Y-109019481D01*
X156668716Y-109019480D01*
X156581904Y-108969360D01*
X156581904Y-108969359D01*
X156581900Y-108969358D01*
X156531785Y-108940423D01*
X156379057Y-108899499D01*
X156220943Y-108899499D01*
X156213347Y-108899499D01*
X156213331Y-108899500D01*
X154279766Y-108899500D01*
X154212727Y-108879815D01*
X154210875Y-108878602D01*
X154079185Y-108790609D01*
X154079172Y-108790602D01*
X153933501Y-108730264D01*
X153933489Y-108730261D01*
X153778845Y-108699500D01*
X153778842Y-108699500D01*
X153621158Y-108699500D01*
X153621155Y-108699500D01*
X153466510Y-108730261D01*
X153466507Y-108730261D01*
X153371952Y-108769427D01*
X153339313Y-108772935D01*
X153306853Y-108777603D01*
X153304765Y-108776649D01*
X153302482Y-108776895D01*
X153273139Y-108762206D01*
X153243297Y-108748578D01*
X153242055Y-108746646D01*
X153240003Y-108745619D01*
X153223257Y-108717396D01*
X153205523Y-108689800D01*
X153205087Y-108686771D01*
X153204351Y-108685530D01*
X153200500Y-108654865D01*
X153200500Y-108579765D01*
X153220185Y-108512726D01*
X153221398Y-108510874D01*
X153309390Y-108379185D01*
X153309390Y-108379184D01*
X153309394Y-108379179D01*
X153369737Y-108233497D01*
X153400500Y-108078842D01*
X153400500Y-107921158D01*
X153400500Y-107921155D01*
X153400499Y-107921153D01*
X153379360Y-107814882D01*
X153369737Y-107766503D01*
X153364887Y-107754793D01*
X153309397Y-107620827D01*
X153309390Y-107620814D01*
X153221789Y-107489711D01*
X153221786Y-107489707D01*
X153110292Y-107378213D01*
X153110288Y-107378210D01*
X152979185Y-107290609D01*
X152979172Y-107290602D01*
X152833501Y-107230264D01*
X152833489Y-107230261D01*
X152678845Y-107199500D01*
X152678842Y-107199500D01*
X152521158Y-107199500D01*
X152521155Y-107199500D01*
X152366510Y-107230261D01*
X152366498Y-107230264D01*
X152220827Y-107290602D01*
X152220814Y-107290609D01*
X152089711Y-107378210D01*
X152089707Y-107378213D01*
X151978213Y-107489707D01*
X151978210Y-107489711D01*
X151890609Y-107620814D01*
X151890602Y-107620827D01*
X151830264Y-107766498D01*
X151830261Y-107766510D01*
X151799500Y-107921153D01*
X150846010Y-107921153D01*
X150827906Y-107899490D01*
X150827203Y-107893899D01*
X150823986Y-107889275D01*
X150822897Y-107859613D01*
X150819199Y-107830165D01*
X150821630Y-107825082D01*
X150821424Y-107819452D01*
X150836543Y-107793911D01*
X150849353Y-107767138D01*
X150855595Y-107761728D01*
X150857017Y-107759328D01*
X150860223Y-107757719D01*
X150872712Y-107746898D01*
X150899279Y-107729145D01*
X150910289Y-107721789D01*
X151021789Y-107610289D01*
X151109394Y-107479179D01*
X151169737Y-107333497D01*
X151200500Y-107178842D01*
X151200500Y-107021158D01*
X151200500Y-107021155D01*
X151200499Y-107021153D01*
X151180746Y-106921848D01*
X151169737Y-106866503D01*
X151152201Y-106824167D01*
X151109397Y-106720827D01*
X151109395Y-106720823D01*
X151109394Y-106720821D01*
X151061703Y-106649447D01*
X151040826Y-106582771D01*
X151059310Y-106515391D01*
X151077121Y-106492880D01*
X160833184Y-96736819D01*
X160894507Y-96703334D01*
X160920865Y-96700500D01*
X169120234Y-96700500D01*
X169187273Y-96720185D01*
X169189125Y-96721398D01*
X169320814Y-96809390D01*
X169320827Y-96809397D01*
X169466498Y-96869735D01*
X169466503Y-96869737D01*
X169621153Y-96900499D01*
X169621156Y-96900500D01*
X169621158Y-96900500D01*
X169778844Y-96900500D01*
X169778845Y-96900499D01*
X169933497Y-96869737D01*
X170079179Y-96809394D01*
X170210289Y-96721789D01*
X170321789Y-96610289D01*
X170409394Y-96479179D01*
X170469737Y-96333497D01*
X170500500Y-96178842D01*
X170500500Y-96021158D01*
X170500500Y-96021155D01*
X170500499Y-96021153D01*
X170469738Y-95866510D01*
X170469737Y-95866503D01*
X170413728Y-95731284D01*
X170409397Y-95720827D01*
X170409390Y-95720814D01*
X170321789Y-95589711D01*
X170321786Y-95589707D01*
X170210292Y-95478213D01*
X170210288Y-95478210D01*
X170079185Y-95390609D01*
X170079172Y-95390602D01*
X169933501Y-95330264D01*
X169933489Y-95330261D01*
X169778845Y-95299500D01*
X169778842Y-95299500D01*
X169621158Y-95299500D01*
X169621155Y-95299500D01*
X169466510Y-95330261D01*
X169466498Y-95330264D01*
X169320827Y-95390602D01*
X169320814Y-95390609D01*
X169189125Y-95478602D01*
X169122447Y-95499480D01*
X169120234Y-95499500D01*
X160707437Y-95499500D01*
X160707421Y-95499499D01*
X160699825Y-95499499D01*
X160541711Y-95499499D01*
X160434355Y-95528265D01*
X160388978Y-95540424D01*
X160388977Y-95540425D01*
X160338864Y-95569359D01*
X160338863Y-95569360D01*
X160303621Y-95589707D01*
X160252053Y-95619479D01*
X160252050Y-95619481D01*
X148660276Y-107211256D01*
X148598953Y-107244741D01*
X148529261Y-107239757D01*
X148473328Y-107197885D01*
X148448911Y-107132421D01*
X148448595Y-107123575D01*
X148448595Y-107016316D01*
X148448594Y-107016314D01*
X148429666Y-106921158D01*
X148417832Y-106861664D01*
X148402302Y-106824170D01*
X148357492Y-106715988D01*
X148357485Y-106715975D01*
X148269493Y-106584286D01*
X148248615Y-106517608D01*
X148248595Y-106515395D01*
X148248595Y-102452002D01*
X148268280Y-102384963D01*
X148284914Y-102364321D01*
X158661416Y-91987819D01*
X158722739Y-91954334D01*
X158749097Y-91951500D01*
X168558719Y-91951500D01*
X168558735Y-91951501D01*
X168566331Y-91951501D01*
X168724442Y-91951501D01*
X168724445Y-91951501D01*
X168877173Y-91910577D01*
X168927292Y-91881639D01*
X169014104Y-91831520D01*
X169125908Y-91719716D01*
X169125908Y-91719714D01*
X169136116Y-91709507D01*
X169136117Y-91709504D01*
X171608804Y-89236820D01*
X171670127Y-89203335D01*
X171696485Y-89200501D01*
X171779054Y-89200501D01*
X171779057Y-89200501D01*
X171931785Y-89159577D01*
X172017211Y-89110256D01*
X172068716Y-89080520D01*
X172180520Y-88968716D01*
X172180520Y-88968714D01*
X172190724Y-88958511D01*
X172190727Y-88958506D01*
X174412416Y-86736819D01*
X174473739Y-86703334D01*
X174500097Y-86700500D01*
X180613331Y-86700500D01*
X180613347Y-86700501D01*
X180620943Y-86700501D01*
X180779054Y-86700501D01*
X180779057Y-86700501D01*
X180931785Y-86659577D01*
X180981904Y-86630639D01*
X181068716Y-86580520D01*
X181180520Y-86468716D01*
X181180520Y-86468714D01*
X181190728Y-86458507D01*
X181190729Y-86458504D01*
X183714664Y-83934571D01*
X183775985Y-83901088D01*
X183778152Y-83900637D01*
X183778841Y-83900500D01*
X183778842Y-83900500D01*
X183933497Y-83869737D01*
X184079179Y-83809394D01*
X184210289Y-83721789D01*
X184321789Y-83610289D01*
X184409394Y-83479179D01*
X184469737Y-83333497D01*
X184500500Y-83178842D01*
X184500500Y-83021158D01*
X184500500Y-83021155D01*
X184500499Y-83021153D01*
X184480543Y-82920827D01*
X184469737Y-82866503D01*
X184437929Y-82789711D01*
X184409397Y-82720827D01*
X184409390Y-82720814D01*
X184321789Y-82589711D01*
X184321786Y-82589707D01*
X184210292Y-82478213D01*
X184210288Y-82478210D01*
X184079185Y-82390609D01*
X184079172Y-82390602D01*
X183933501Y-82330264D01*
X183933489Y-82330261D01*
X183778845Y-82299500D01*
X183778842Y-82299500D01*
X183621158Y-82299500D01*
X183621155Y-82299500D01*
X183466510Y-82330261D01*
X183466498Y-82330264D01*
X183320827Y-82390602D01*
X183320814Y-82390609D01*
X183189711Y-82478210D01*
X183189707Y-82478213D01*
X183078213Y-82589707D01*
X183078210Y-82589711D01*
X182990609Y-82720814D01*
X182990602Y-82720827D01*
X182930264Y-82866498D01*
X182930261Y-82866508D01*
X182899362Y-83021848D01*
X182866977Y-83083759D01*
X182865426Y-83085337D01*
X180487584Y-85463181D01*
X180426261Y-85496666D01*
X180399903Y-85499500D01*
X179749097Y-85499500D01*
X179682058Y-85479815D01*
X179636303Y-85427011D01*
X179626359Y-85357853D01*
X179655384Y-85294297D01*
X179661416Y-85287819D01*
X181728082Y-83221153D01*
X183814662Y-81134572D01*
X183875983Y-81101089D01*
X183878150Y-81100638D01*
X183936085Y-81089113D01*
X184033497Y-81069737D01*
X184179179Y-81009394D01*
X184310289Y-80921789D01*
X184421789Y-80810289D01*
X184509394Y-80679179D01*
X184511075Y-80675122D01*
X184569735Y-80533501D01*
X184569737Y-80533497D01*
X184600500Y-80378842D01*
X184600500Y-80221158D01*
X184600500Y-80221155D01*
X184600499Y-80221153D01*
X184569738Y-80066510D01*
X184569737Y-80066503D01*
X184569735Y-80066498D01*
X184509397Y-79920827D01*
X184509390Y-79920814D01*
X184421789Y-79789711D01*
X184421786Y-79789707D01*
X184310292Y-79678213D01*
X184310288Y-79678210D01*
X184179185Y-79590609D01*
X184179172Y-79590602D01*
X184033501Y-79530264D01*
X184033489Y-79530261D01*
X183878845Y-79499500D01*
X183878842Y-79499500D01*
X183721158Y-79499500D01*
X183721155Y-79499500D01*
X183566510Y-79530261D01*
X183566498Y-79530264D01*
X183420827Y-79590602D01*
X183420814Y-79590609D01*
X183289711Y-79678210D01*
X183289706Y-79678214D01*
X183236855Y-79731065D01*
X183175532Y-79764549D01*
X183105840Y-79759564D01*
X183057819Y-79727229D01*
X183051369Y-79720201D01*
X183027952Y-79685155D01*
X182923417Y-79580620D01*
X182921526Y-79578729D01*
X182921516Y-79578718D01*
X182886818Y-79544019D01*
X182853333Y-79482695D01*
X182850500Y-79456339D01*
X182850500Y-76121153D01*
X183399500Y-76121153D01*
X183399500Y-76278846D01*
X183430261Y-76433489D01*
X183430264Y-76433501D01*
X183490602Y-76579172D01*
X183490609Y-76579185D01*
X183578210Y-76710288D01*
X183578213Y-76710292D01*
X183689707Y-76821786D01*
X183689711Y-76821789D01*
X183820814Y-76909390D01*
X183820827Y-76909397D01*
X183966498Y-76969735D01*
X183966503Y-76969737D01*
X184121153Y-77000499D01*
X184121156Y-77000500D01*
X184121158Y-77000500D01*
X184278844Y-77000500D01*
X184278845Y-77000499D01*
X184433497Y-76969737D01*
X184579179Y-76909394D01*
X184631110Y-76874694D01*
X184697785Y-76853816D01*
X184765165Y-76872300D01*
X184768863Y-76874676D01*
X184820821Y-76909394D01*
X184820823Y-76909395D01*
X184820825Y-76909396D01*
X184966498Y-76969735D01*
X184966503Y-76969737D01*
X185121153Y-77000499D01*
X185121156Y-77000500D01*
X185121158Y-77000500D01*
X185278844Y-77000500D01*
X185278845Y-77000499D01*
X185433497Y-76969737D01*
X185579179Y-76909394D01*
X185631110Y-76874694D01*
X185697785Y-76853816D01*
X185765165Y-76872300D01*
X185768863Y-76874676D01*
X185820821Y-76909394D01*
X185820823Y-76909395D01*
X185820825Y-76909396D01*
X185893662Y-76939565D01*
X185966503Y-76969737D01*
X186050694Y-76986483D01*
X186112602Y-77018867D01*
X186147176Y-77079583D01*
X186150500Y-77108100D01*
X186150500Y-82191899D01*
X186130815Y-82258938D01*
X186078011Y-82304693D01*
X186050692Y-82313516D01*
X185966508Y-82330261D01*
X185966498Y-82330264D01*
X185820827Y-82390602D01*
X185820814Y-82390609D01*
X185689711Y-82478210D01*
X185689707Y-82478213D01*
X185578213Y-82589707D01*
X185578210Y-82589711D01*
X185490609Y-82720814D01*
X185490602Y-82720827D01*
X185430264Y-82866498D01*
X185430261Y-82866510D01*
X185399500Y-83021153D01*
X185399500Y-83178846D01*
X185430261Y-83333489D01*
X185430264Y-83333501D01*
X185490602Y-83479172D01*
X185490609Y-83479185D01*
X185578210Y-83610288D01*
X185578213Y-83610292D01*
X185689707Y-83721786D01*
X185689711Y-83721789D01*
X185820814Y-83809390D01*
X185820827Y-83809397D01*
X185966498Y-83869735D01*
X185966503Y-83869737D01*
X186121153Y-83900499D01*
X186121156Y-83900500D01*
X186121158Y-83900500D01*
X186278844Y-83900500D01*
X186278845Y-83900499D01*
X186433497Y-83869737D01*
X186579179Y-83809394D01*
X186710289Y-83721789D01*
X186821789Y-83610289D01*
X186909394Y-83479179D01*
X186969737Y-83333497D01*
X186992083Y-83221158D01*
X187000638Y-83178151D01*
X187033023Y-83116240D01*
X187034574Y-83114661D01*
X187097971Y-83051264D01*
X187231520Y-82917716D01*
X187310577Y-82780784D01*
X187351501Y-82628057D01*
X187351501Y-82469942D01*
X187351501Y-82462347D01*
X187351500Y-82462329D01*
X187351500Y-75271945D01*
X187351500Y-75271943D01*
X187310577Y-75119216D01*
X187299851Y-75100638D01*
X187231524Y-74982290D01*
X187231521Y-74982286D01*
X187231520Y-74982284D01*
X187119716Y-74870480D01*
X187119715Y-74870479D01*
X187115385Y-74866149D01*
X187115374Y-74866139D01*
X186534574Y-74285339D01*
X186501089Y-74224016D01*
X186500638Y-74221849D01*
X186473149Y-74083658D01*
X186469737Y-74066503D01*
X186429832Y-73970163D01*
X186409397Y-73920827D01*
X186409390Y-73920814D01*
X186321789Y-73789711D01*
X186321786Y-73789707D01*
X186210292Y-73678213D01*
X186210288Y-73678210D01*
X186079185Y-73590609D01*
X186079172Y-73590602D01*
X185933501Y-73530264D01*
X185933489Y-73530261D01*
X185778845Y-73499500D01*
X185778842Y-73499500D01*
X185621158Y-73499500D01*
X185621155Y-73499500D01*
X185466510Y-73530261D01*
X185466498Y-73530264D01*
X185320827Y-73590602D01*
X185320814Y-73590609D01*
X185189711Y-73678210D01*
X185189707Y-73678213D01*
X185078213Y-73789707D01*
X185078210Y-73789711D01*
X184990609Y-73920814D01*
X184990602Y-73920827D01*
X184930264Y-74066498D01*
X184930261Y-74066510D01*
X184899500Y-74221153D01*
X184899500Y-74378846D01*
X184930261Y-74533489D01*
X184930264Y-74533501D01*
X184990602Y-74679172D01*
X184990609Y-74679185D01*
X185078210Y-74810288D01*
X185078213Y-74810292D01*
X185189707Y-74921786D01*
X185189711Y-74921789D01*
X185320814Y-75009390D01*
X185320827Y-75009397D01*
X185466498Y-75069735D01*
X185466503Y-75069737D01*
X185531147Y-75082595D01*
X185621849Y-75100638D01*
X185624383Y-75101963D01*
X185627244Y-75101836D01*
X185667408Y-75124469D01*
X185683760Y-75133023D01*
X185684602Y-75134159D01*
X185685339Y-75134574D01*
X185846322Y-75295557D01*
X185879807Y-75356880D01*
X185874823Y-75426572D01*
X185832951Y-75482505D01*
X185825784Y-75487068D01*
X185825886Y-75487221D01*
X185768891Y-75525304D01*
X185753434Y-75530143D01*
X185740214Y-75539500D01*
X185720778Y-75540369D01*
X185702214Y-75546182D01*
X185686595Y-75541897D01*
X185670414Y-75542621D01*
X185653595Y-75532844D01*
X185634833Y-75527698D01*
X185631109Y-75525304D01*
X185579185Y-75490609D01*
X185579172Y-75490602D01*
X185433501Y-75430264D01*
X185433489Y-75430261D01*
X185278845Y-75399500D01*
X185278842Y-75399500D01*
X185121158Y-75399500D01*
X185121155Y-75399500D01*
X184966510Y-75430261D01*
X184966498Y-75430264D01*
X184820827Y-75490602D01*
X184820814Y-75490609D01*
X184768891Y-75525304D01*
X184702214Y-75546182D01*
X184634833Y-75527698D01*
X184631109Y-75525304D01*
X184579185Y-75490609D01*
X184579172Y-75490602D01*
X184433501Y-75430264D01*
X184433489Y-75430261D01*
X184278845Y-75399500D01*
X184278842Y-75399500D01*
X184121158Y-75399500D01*
X184121155Y-75399500D01*
X183966510Y-75430261D01*
X183966498Y-75430264D01*
X183820827Y-75490602D01*
X183820814Y-75490609D01*
X183689711Y-75578210D01*
X183689707Y-75578213D01*
X183578213Y-75689707D01*
X183578210Y-75689711D01*
X183490609Y-75820814D01*
X183490602Y-75820827D01*
X183430264Y-75966498D01*
X183430261Y-75966510D01*
X183399500Y-76121153D01*
X182850500Y-76121153D01*
X182850500Y-62137229D01*
X182870185Y-62070190D01*
X182886819Y-62049548D01*
X183415297Y-61521069D01*
X183455522Y-61494192D01*
X183479179Y-61484394D01*
X183610289Y-61396789D01*
X183721789Y-61285289D01*
X183809394Y-61154179D01*
X183869737Y-61008497D01*
X183900500Y-60853842D01*
X183900500Y-60696158D01*
X183900500Y-60696155D01*
X183900499Y-60696153D01*
X183869738Y-60541510D01*
X183869737Y-60541503D01*
X183869735Y-60541498D01*
X183809397Y-60395827D01*
X183809390Y-60395814D01*
X183761705Y-60324449D01*
X183752216Y-60294147D01*
X183741122Y-60264394D01*
X183741851Y-60261043D01*
X183740827Y-60257772D01*
X183749227Y-60227149D01*
X183755980Y-60196122D01*
X183758756Y-60192413D01*
X183759311Y-60190392D01*
X183777129Y-60167874D01*
X183783192Y-60161812D01*
X183844518Y-60128332D01*
X183870866Y-60125500D01*
X184295396Y-60125500D01*
X184342844Y-60134937D01*
X184366503Y-60144737D01*
X184366508Y-60144738D01*
X184366511Y-60144739D01*
X184521153Y-60175499D01*
X184521156Y-60175500D01*
X184521158Y-60175500D01*
X184678844Y-60175500D01*
X184678845Y-60175499D01*
X184833497Y-60144737D01*
X184979179Y-60084394D01*
X185110289Y-59996789D01*
X185221789Y-59885289D01*
X185309394Y-59754179D01*
X185369737Y-59608497D01*
X185400500Y-59453842D01*
X185400500Y-59296158D01*
X185400500Y-59296155D01*
X185400499Y-59296153D01*
X185369738Y-59141510D01*
X185369737Y-59141503D01*
X185369735Y-59141498D01*
X185309397Y-58995827D01*
X185309390Y-58995814D01*
X185221789Y-58864711D01*
X185221786Y-58864707D01*
X185110292Y-58753213D01*
X185110288Y-58753210D01*
X184979185Y-58665609D01*
X184979172Y-58665602D01*
X184833501Y-58605264D01*
X184833489Y-58605261D01*
X184678845Y-58574500D01*
X184678842Y-58574500D01*
X184521158Y-58574500D01*
X184521155Y-58574500D01*
X184366511Y-58605260D01*
X184366506Y-58605262D01*
X184366504Y-58605262D01*
X184366503Y-58605263D01*
X184342844Y-58615062D01*
X184295396Y-58624500D01*
X183434716Y-58624500D01*
X183289728Y-58653340D01*
X183289722Y-58653342D01*
X183153144Y-58709914D01*
X183153132Y-58709921D01*
X183103905Y-58742813D01*
X183030224Y-58792044D01*
X183030216Y-58792050D01*
X180587054Y-61235213D01*
X180587052Y-61235215D01*
X180556948Y-61280273D01*
X180556946Y-61280276D01*
X180504926Y-61358128D01*
X180504919Y-61358140D01*
X180448350Y-61494711D01*
X180448347Y-61494721D01*
X180419507Y-61639708D01*
X180419507Y-61639711D01*
X180419507Y-80089653D01*
X180419507Y-80237489D01*
X180419507Y-80237491D01*
X180419506Y-80237491D01*
X180448347Y-80382478D01*
X180448350Y-80382488D01*
X180504919Y-80519059D01*
X180504926Y-80519072D01*
X180587055Y-80641986D01*
X180587058Y-80641990D01*
X180691587Y-80746519D01*
X180691591Y-80746522D01*
X180814505Y-80828651D01*
X180814518Y-80828658D01*
X180951089Y-80885227D01*
X180951094Y-80885229D01*
X180951098Y-80885229D01*
X180951099Y-80885230D01*
X181096086Y-80914071D01*
X181096089Y-80914071D01*
X181243927Y-80914071D01*
X181341469Y-80894667D01*
X181388920Y-80885229D01*
X181525502Y-80828655D01*
X181648423Y-80746522D01*
X181719824Y-80675120D01*
X181781145Y-80641637D01*
X181850837Y-80646621D01*
X181895183Y-80675120D01*
X181966582Y-80746519D01*
X181966586Y-80746523D01*
X182089499Y-80828651D01*
X182089512Y-80828658D01*
X182153238Y-80855054D01*
X182207642Y-80898895D01*
X182229707Y-80965189D01*
X182212428Y-81032888D01*
X182193467Y-81057296D01*
X179112181Y-84138583D01*
X179050858Y-84172068D01*
X178981166Y-84167084D01*
X178925233Y-84125212D01*
X178900816Y-84059748D01*
X178900500Y-84050902D01*
X178900500Y-83489060D01*
X178900501Y-83489047D01*
X178900501Y-83320944D01*
X178900501Y-83320943D01*
X178859577Y-83168216D01*
X178829569Y-83116240D01*
X178780524Y-83031290D01*
X178780518Y-83031282D01*
X178306819Y-82557583D01*
X178273334Y-82496260D01*
X178270500Y-82469902D01*
X178270500Y-74742265D01*
X178290185Y-74675226D01*
X178291398Y-74673374D01*
X178379390Y-74541685D01*
X178379390Y-74541684D01*
X178379394Y-74541679D01*
X178439737Y-74395997D01*
X178470500Y-74241342D01*
X178470500Y-74083658D01*
X178470500Y-74083655D01*
X178470499Y-74083653D01*
X178447924Y-73970163D01*
X178439737Y-73929003D01*
X178439735Y-73928998D01*
X178379397Y-73783327D01*
X178379390Y-73783314D01*
X178291789Y-73652211D01*
X178291786Y-73652207D01*
X178180292Y-73540713D01*
X178180288Y-73540710D01*
X178049185Y-73453109D01*
X178049172Y-73453102D01*
X177903501Y-73392764D01*
X177903489Y-73392761D01*
X177748845Y-73362000D01*
X177748842Y-73362000D01*
X177591158Y-73362000D01*
X177591155Y-73362000D01*
X177436510Y-73392761D01*
X177436498Y-73392764D01*
X177290827Y-73453102D01*
X177290814Y-73453109D01*
X177159711Y-73540710D01*
X177159707Y-73540713D01*
X177048213Y-73652207D01*
X177048210Y-73652211D01*
X176973102Y-73764618D01*
X176919490Y-73809423D01*
X176850165Y-73818130D01*
X176787137Y-73787975D01*
X176766898Y-73764618D01*
X176691789Y-73652211D01*
X176691786Y-73652207D01*
X176580292Y-73540713D01*
X176580288Y-73540710D01*
X176449185Y-73453109D01*
X176449172Y-73453102D01*
X176303501Y-73392764D01*
X176303489Y-73392761D01*
X176148845Y-73362000D01*
X176148842Y-73362000D01*
X175991158Y-73362000D01*
X175991155Y-73362000D01*
X175836510Y-73392761D01*
X175836498Y-73392764D01*
X175690827Y-73453102D01*
X175690814Y-73453109D01*
X175559711Y-73540710D01*
X175559707Y-73540713D01*
X175448213Y-73652207D01*
X175448210Y-73652211D01*
X175360609Y-73783314D01*
X175360602Y-73783327D01*
X175300264Y-73928998D01*
X175300261Y-73929010D01*
X175269500Y-74083653D01*
X175269500Y-74241346D01*
X175300261Y-74395989D01*
X175300264Y-74396001D01*
X175360602Y-74541672D01*
X175360609Y-74541685D01*
X175448602Y-74673374D01*
X175469480Y-74740051D01*
X175469500Y-74742265D01*
X175469500Y-81983330D01*
X175469499Y-81983348D01*
X175469499Y-82149054D01*
X175469498Y-82149054D01*
X175510423Y-82301787D01*
X175519332Y-82317216D01*
X175519331Y-82317216D01*
X175519333Y-82317218D01*
X175589475Y-82438709D01*
X175589481Y-82438717D01*
X175708349Y-82557585D01*
X175708355Y-82557590D01*
X176763181Y-83612416D01*
X176796666Y-83673739D01*
X176799500Y-83700097D01*
X176799500Y-84420234D01*
X176779815Y-84487273D01*
X176778602Y-84489125D01*
X176690609Y-84620814D01*
X176690602Y-84620827D01*
X176630264Y-84766498D01*
X176630261Y-84766510D01*
X176599500Y-84921153D01*
X176599500Y-84975500D01*
X176579815Y-85042539D01*
X176527011Y-85088294D01*
X176475500Y-85099500D01*
X174149098Y-85099500D01*
X174082059Y-85079815D01*
X174036304Y-85027011D01*
X174026360Y-84957853D01*
X174055385Y-84894297D01*
X174061417Y-84887819D01*
X174329028Y-84620208D01*
X174814664Y-84134571D01*
X174875985Y-84101088D01*
X174878152Y-84100637D01*
X174878841Y-84100500D01*
X174878842Y-84100500D01*
X175033497Y-84069737D01*
X175179179Y-84009394D01*
X175310289Y-83921789D01*
X175421789Y-83810289D01*
X175509394Y-83679179D01*
X175569737Y-83533497D01*
X175600500Y-83378842D01*
X175600500Y-83221158D01*
X175600500Y-83221155D01*
X175600499Y-83221153D01*
X175592978Y-83183343D01*
X175569737Y-83066503D01*
X175563425Y-83051264D01*
X175509397Y-82920827D01*
X175509390Y-82920814D01*
X175421789Y-82789711D01*
X175421786Y-82789707D01*
X175310292Y-82678213D01*
X175310288Y-82678210D01*
X175179185Y-82590609D01*
X175179172Y-82590602D01*
X175033501Y-82530264D01*
X175033489Y-82530261D01*
X174878845Y-82499500D01*
X174878842Y-82499500D01*
X174721158Y-82499500D01*
X174721155Y-82499500D01*
X174566510Y-82530261D01*
X174566498Y-82530264D01*
X174420827Y-82590602D01*
X174420814Y-82590609D01*
X174289711Y-82678210D01*
X174289707Y-82678213D01*
X174178213Y-82789707D01*
X174178210Y-82789711D01*
X174090609Y-82920814D01*
X174090602Y-82920827D01*
X174030264Y-83066498D01*
X174030261Y-83066508D01*
X173999362Y-83221848D01*
X173966977Y-83283759D01*
X173965426Y-83285337D01*
X167987584Y-89263181D01*
X167926261Y-89296666D01*
X167899903Y-89299500D01*
X140400097Y-89299500D01*
X140370656Y-89290855D01*
X140340670Y-89284332D01*
X140335654Y-89280577D01*
X140333058Y-89279815D01*
X140312416Y-89263181D01*
X140209743Y-89160508D01*
X140176258Y-89099185D01*
X140175818Y-89097076D01*
X140169737Y-89066503D01*
X140125006Y-88958511D01*
X140120425Y-88947452D01*
X140112956Y-88877983D01*
X140120425Y-88852548D01*
X140136287Y-88814251D01*
X140169737Y-88733497D01*
X140192149Y-88620827D01*
X140196231Y-88600308D01*
X140228616Y-88538397D01*
X140289332Y-88503823D01*
X140317848Y-88500500D01*
X167413331Y-88500500D01*
X167413347Y-88500501D01*
X167420943Y-88500501D01*
X167579054Y-88500501D01*
X167579057Y-88500501D01*
X167731785Y-88459577D01*
X167798328Y-88421158D01*
X167868716Y-88380520D01*
X167980520Y-88268716D01*
X167980520Y-88268714D01*
X167990724Y-88258511D01*
X167990727Y-88258506D01*
X172314662Y-83934572D01*
X172375983Y-83901089D01*
X172378150Y-83900638D01*
X172436085Y-83889113D01*
X172533497Y-83869737D01*
X172679179Y-83809394D01*
X172810289Y-83721789D01*
X172921789Y-83610289D01*
X173009394Y-83479179D01*
X173069737Y-83333497D01*
X173100500Y-83178842D01*
X173100500Y-83021158D01*
X173100500Y-83021155D01*
X173100499Y-83021153D01*
X173080543Y-82920827D01*
X173069737Y-82866503D01*
X173037929Y-82789711D01*
X173009397Y-82720827D01*
X173009390Y-82720814D01*
X172921789Y-82589711D01*
X172921786Y-82589707D01*
X172810292Y-82478213D01*
X172810288Y-82478210D01*
X172679185Y-82390609D01*
X172679172Y-82390602D01*
X172533501Y-82330264D01*
X172533489Y-82330261D01*
X172378845Y-82299500D01*
X172378842Y-82299500D01*
X172221158Y-82299500D01*
X172221155Y-82299500D01*
X172066510Y-82330261D01*
X172066498Y-82330264D01*
X171920827Y-82390602D01*
X171920814Y-82390609D01*
X171789711Y-82478210D01*
X171789707Y-82478213D01*
X171678213Y-82589707D01*
X171678210Y-82589711D01*
X171590609Y-82720814D01*
X171590602Y-82720827D01*
X171530264Y-82866498D01*
X171530261Y-82866508D01*
X171499361Y-83021850D01*
X171466976Y-83083761D01*
X171465425Y-83085339D01*
X167287584Y-87263181D01*
X167226261Y-87296666D01*
X167199903Y-87299500D01*
X140079057Y-87299500D01*
X139920943Y-87299500D01*
X139768215Y-87340423D01*
X139768214Y-87340423D01*
X139768212Y-87340424D01*
X139768209Y-87340425D01*
X139718096Y-87369359D01*
X139718095Y-87369360D01*
X139674689Y-87394420D01*
X139631285Y-87419479D01*
X139631282Y-87419481D01*
X139519480Y-87531283D01*
X139519480Y-87531284D01*
X139519478Y-87531286D01*
X139444849Y-87605915D01*
X139385337Y-87665427D01*
X139324014Y-87698911D01*
X139321848Y-87699362D01*
X139166508Y-87730261D01*
X139166498Y-87730264D01*
X139020827Y-87790602D01*
X139020814Y-87790609D01*
X138889711Y-87878210D01*
X138889707Y-87878213D01*
X138778213Y-87989707D01*
X138778210Y-87989711D01*
X138690609Y-88120814D01*
X138690602Y-88120827D01*
X138630264Y-88266498D01*
X138630261Y-88266510D01*
X138599500Y-88421153D01*
X138599500Y-88578846D01*
X138630261Y-88733489D01*
X138630264Y-88733501D01*
X138679574Y-88852548D01*
X138687043Y-88922018D01*
X138679574Y-88947452D01*
X138630264Y-89066498D01*
X138630261Y-89066510D01*
X138599500Y-89221153D01*
X138599500Y-89378846D01*
X138630261Y-89533489D01*
X138630264Y-89533501D01*
X138690602Y-89679172D01*
X138690609Y-89679185D01*
X138778210Y-89810288D01*
X138778213Y-89810292D01*
X138889707Y-89921786D01*
X138889711Y-89921789D01*
X139020814Y-90009390D01*
X139020827Y-90009397D01*
X139166498Y-90069735D01*
X139166503Y-90069737D01*
X139321153Y-90100499D01*
X139321156Y-90100500D01*
X139321158Y-90100500D01*
X139399903Y-90100500D01*
X139429343Y-90109144D01*
X139459330Y-90115668D01*
X139464345Y-90119422D01*
X139466942Y-90120185D01*
X139487584Y-90136819D01*
X139615139Y-90264374D01*
X139615149Y-90264385D01*
X139619479Y-90268715D01*
X139619480Y-90268716D01*
X139731284Y-90380520D01*
X139754136Y-90393713D01*
X139818095Y-90430639D01*
X139818097Y-90430641D01*
X139853819Y-90451265D01*
X139868215Y-90459577D01*
X140020943Y-90500500D01*
X140179057Y-90500500D01*
X144750902Y-90500500D01*
X144817941Y-90520185D01*
X144863696Y-90572989D01*
X144873640Y-90642147D01*
X144844615Y-90705703D01*
X144838583Y-90712181D01*
X137385339Y-98165425D01*
X137324016Y-98198910D01*
X137321850Y-98199361D01*
X137166508Y-98230261D01*
X137166498Y-98230264D01*
X137020827Y-98290602D01*
X137020814Y-98290609D01*
X136889711Y-98378210D01*
X136889707Y-98378213D01*
X136778213Y-98489707D01*
X136778210Y-98489711D01*
X136690609Y-98620814D01*
X136690602Y-98620827D01*
X136630264Y-98766498D01*
X136630261Y-98766510D01*
X136599500Y-98921153D01*
X120000500Y-98921153D01*
X120000500Y-85393713D01*
X122724500Y-85393713D01*
X122724500Y-85606286D01*
X122757753Y-85816239D01*
X122823444Y-86018414D01*
X122919951Y-86207820D01*
X123044890Y-86379786D01*
X123195209Y-86530105D01*
X123195214Y-86530109D01*
X123359793Y-86649682D01*
X123402459Y-86705011D01*
X123408438Y-86774625D01*
X123375833Y-86836420D01*
X123359793Y-86850318D01*
X123195214Y-86969890D01*
X123195209Y-86969894D01*
X123044890Y-87120213D01*
X122919951Y-87292179D01*
X122823444Y-87481585D01*
X122757753Y-87683760D01*
X122724500Y-87893713D01*
X122724500Y-88106286D01*
X122748608Y-88258501D01*
X122757754Y-88316243D01*
X122817623Y-88500501D01*
X122823444Y-88518414D01*
X122919951Y-88707820D01*
X123044890Y-88879786D01*
X123195209Y-89030105D01*
X123195214Y-89030109D01*
X123359793Y-89149682D01*
X123402459Y-89205011D01*
X123408438Y-89274625D01*
X123375833Y-89336420D01*
X123359793Y-89350318D01*
X123195214Y-89469890D01*
X123195209Y-89469894D01*
X123044890Y-89620213D01*
X122919951Y-89792179D01*
X122823444Y-89981585D01*
X122757753Y-90183760D01*
X122726590Y-90380520D01*
X122724500Y-90393713D01*
X122724500Y-90606287D01*
X122757754Y-90816243D01*
X122805137Y-90962073D01*
X122823444Y-91018414D01*
X122919951Y-91207820D01*
X123044890Y-91379786D01*
X123195213Y-91530109D01*
X123367179Y-91655048D01*
X123367181Y-91655049D01*
X123367184Y-91655051D01*
X123556588Y-91751557D01*
X123758757Y-91817246D01*
X123968713Y-91850500D01*
X123968714Y-91850500D01*
X124431286Y-91850500D01*
X124431287Y-91850500D01*
X124641243Y-91817246D01*
X124843412Y-91751557D01*
X125032816Y-91655051D01*
X125107900Y-91600500D01*
X125204786Y-91530109D01*
X125204788Y-91530106D01*
X125204792Y-91530104D01*
X125355104Y-91379792D01*
X125355106Y-91379788D01*
X125355109Y-91379786D01*
X125480048Y-91207820D01*
X125480047Y-91207820D01*
X125480051Y-91207816D01*
X125576557Y-91018412D01*
X125642246Y-90816243D01*
X125675500Y-90606287D01*
X125675500Y-90393713D01*
X125642246Y-90183757D01*
X125576557Y-89981588D01*
X125480051Y-89792184D01*
X125480049Y-89792181D01*
X125480048Y-89792179D01*
X125355109Y-89620213D01*
X125204792Y-89469896D01*
X125204784Y-89469890D01*
X125040204Y-89350316D01*
X124997540Y-89294989D01*
X124991561Y-89225376D01*
X125024166Y-89163580D01*
X125040199Y-89149686D01*
X125204792Y-89030104D01*
X125355104Y-88879792D01*
X125355106Y-88879788D01*
X125355109Y-88879786D01*
X125480048Y-88707820D01*
X125480047Y-88707820D01*
X125480051Y-88707816D01*
X125576557Y-88518412D01*
X125642246Y-88316243D01*
X125675500Y-88106287D01*
X125675500Y-87893713D01*
X125642246Y-87683757D01*
X125576557Y-87481588D01*
X125480051Y-87292184D01*
X125480049Y-87292181D01*
X125480048Y-87292179D01*
X125355109Y-87120213D01*
X125204792Y-86969896D01*
X125204784Y-86969890D01*
X125040204Y-86850316D01*
X124997540Y-86794989D01*
X124991561Y-86725376D01*
X125024166Y-86663580D01*
X125040199Y-86649686D01*
X125204792Y-86530104D01*
X125355104Y-86379792D01*
X125355106Y-86379788D01*
X125355109Y-86379786D01*
X125480048Y-86207820D01*
X125480047Y-86207820D01*
X125480051Y-86207816D01*
X125576557Y-86018412D01*
X125642246Y-85816243D01*
X125675500Y-85606287D01*
X125675500Y-85393713D01*
X125642246Y-85183757D01*
X125576557Y-84981588D01*
X125480051Y-84792184D01*
X125480049Y-84792181D01*
X125480048Y-84792179D01*
X125355109Y-84620213D01*
X125215931Y-84481035D01*
X125182446Y-84419712D01*
X125187430Y-84350020D01*
X125229302Y-84294087D01*
X125238516Y-84287815D01*
X125393343Y-84192317D01*
X125517315Y-84068345D01*
X125609356Y-83919124D01*
X125609358Y-83919119D01*
X125664505Y-83752697D01*
X125664506Y-83752690D01*
X125674999Y-83649986D01*
X125675000Y-83649973D01*
X125675000Y-83250000D01*
X124604146Y-83250000D01*
X124642630Y-83183343D01*
X124675000Y-83062535D01*
X124675000Y-82937465D01*
X124642630Y-82816657D01*
X124604146Y-82750000D01*
X125674999Y-82750000D01*
X125674999Y-82350028D01*
X125674998Y-82350013D01*
X125664505Y-82247302D01*
X125609358Y-82080880D01*
X125609356Y-82080875D01*
X125517315Y-81931654D01*
X125393345Y-81807684D01*
X125244124Y-81715643D01*
X125244119Y-81715641D01*
X125077697Y-81660494D01*
X125077690Y-81660493D01*
X124974986Y-81650000D01*
X124450000Y-81650000D01*
X124450000Y-82595854D01*
X124383343Y-82557370D01*
X124262535Y-82525000D01*
X124137465Y-82525000D01*
X124016657Y-82557370D01*
X123950000Y-82595854D01*
X123950000Y-81650000D01*
X123425028Y-81650000D01*
X123425012Y-81650001D01*
X123322302Y-81660494D01*
X123155880Y-81715641D01*
X123155875Y-81715643D01*
X123006654Y-81807684D01*
X122882684Y-81931654D01*
X122790643Y-82080875D01*
X122790641Y-82080880D01*
X122735494Y-82247302D01*
X122735493Y-82247309D01*
X122725000Y-82350013D01*
X122725000Y-82750000D01*
X123795854Y-82750000D01*
X123757370Y-82816657D01*
X123725000Y-82937465D01*
X123725000Y-83062535D01*
X123757370Y-83183343D01*
X123795854Y-83250000D01*
X122725001Y-83250000D01*
X122725001Y-83649986D01*
X122735494Y-83752697D01*
X122790641Y-83919119D01*
X122790643Y-83919124D01*
X122882684Y-84068345D01*
X123006654Y-84192315D01*
X123161484Y-84287815D01*
X123208208Y-84339763D01*
X123219431Y-84408726D01*
X123191587Y-84472808D01*
X123184069Y-84481035D01*
X123044889Y-84620215D01*
X122919951Y-84792179D01*
X122823444Y-84981585D01*
X122757753Y-85183760D01*
X122724500Y-85393713D01*
X120000500Y-85393713D01*
X120000500Y-75717961D01*
X148164880Y-75717961D01*
X148164880Y-75717962D01*
X148168429Y-75720334D01*
X148295813Y-75773097D01*
X148295823Y-75773100D01*
X148431053Y-75800000D01*
X148568946Y-75800000D01*
X148704176Y-75773100D01*
X148704186Y-75773097D01*
X148831570Y-75720334D01*
X148831572Y-75720332D01*
X148835119Y-75717961D01*
X148500001Y-75382842D01*
X148500000Y-75382842D01*
X148164880Y-75717961D01*
X120000500Y-75717961D01*
X120000500Y-75168946D01*
X147799999Y-75168946D01*
X147826899Y-75304176D01*
X147826901Y-75304182D01*
X147879668Y-75431573D01*
X147879668Y-75431574D01*
X147882037Y-75435119D01*
X148217157Y-75100000D01*
X148187320Y-75070163D01*
X148350000Y-75070163D01*
X148350000Y-75129837D01*
X148372836Y-75184968D01*
X148415032Y-75227164D01*
X148470163Y-75250000D01*
X148529837Y-75250000D01*
X148584968Y-75227164D01*
X148627164Y-75184968D01*
X148650000Y-75129837D01*
X148650000Y-75100000D01*
X148782842Y-75100000D01*
X149117961Y-75435119D01*
X149120332Y-75431572D01*
X149120334Y-75431570D01*
X149173097Y-75304186D01*
X149173100Y-75304176D01*
X149200000Y-75168946D01*
X149200000Y-75031053D01*
X149173100Y-74895823D01*
X149173097Y-74895813D01*
X149120334Y-74768429D01*
X149117961Y-74764880D01*
X148782842Y-75100000D01*
X148650000Y-75100000D01*
X148650000Y-75070163D01*
X148627164Y-75015032D01*
X148584968Y-74972836D01*
X148529837Y-74950000D01*
X148470163Y-74950000D01*
X148415032Y-74972836D01*
X148372836Y-75015032D01*
X148350000Y-75070163D01*
X148187320Y-75070163D01*
X147882037Y-74764880D01*
X147882036Y-74764880D01*
X147879667Y-74768427D01*
X147879666Y-74768428D01*
X147826902Y-74895813D01*
X147826899Y-74895823D01*
X147800000Y-75031053D01*
X147800000Y-75168946D01*
X147799999Y-75168946D01*
X120000500Y-75168946D01*
X120000500Y-74550000D01*
X148232842Y-74550000D01*
X148500000Y-74817157D01*
X148500001Y-74817157D01*
X148767157Y-74550001D01*
X148767157Y-74549999D01*
X148500001Y-74282842D01*
X148500000Y-74282842D01*
X148232842Y-74550000D01*
X120000500Y-74550000D01*
X120000500Y-74068946D01*
X147799999Y-74068946D01*
X147826899Y-74204176D01*
X147826901Y-74204182D01*
X147879668Y-74331573D01*
X147879668Y-74331574D01*
X147882037Y-74335119D01*
X148217157Y-74000000D01*
X148187320Y-73970163D01*
X148350000Y-73970163D01*
X148350000Y-74029837D01*
X148372836Y-74084968D01*
X148415032Y-74127164D01*
X148470163Y-74150000D01*
X148529837Y-74150000D01*
X148584968Y-74127164D01*
X148627164Y-74084968D01*
X148650000Y-74029837D01*
X148650000Y-74000000D01*
X148782842Y-74000000D01*
X149117961Y-74335119D01*
X149120332Y-74331572D01*
X149120334Y-74331570D01*
X149173097Y-74204186D01*
X149173100Y-74204176D01*
X149200000Y-74068946D01*
X149200000Y-73931053D01*
X149173100Y-73795823D01*
X149173097Y-73795813D01*
X149120334Y-73668429D01*
X149117961Y-73664880D01*
X148782842Y-74000000D01*
X148650000Y-74000000D01*
X148650000Y-73970163D01*
X148627164Y-73915032D01*
X148584968Y-73872836D01*
X148529837Y-73850000D01*
X148470163Y-73850000D01*
X148415032Y-73872836D01*
X148372836Y-73915032D01*
X148350000Y-73970163D01*
X148187320Y-73970163D01*
X147882037Y-73664880D01*
X147882036Y-73664880D01*
X147879667Y-73668427D01*
X147879666Y-73668428D01*
X147826902Y-73795813D01*
X147826899Y-73795823D01*
X147800000Y-73931053D01*
X147800000Y-74068946D01*
X147799999Y-74068946D01*
X120000500Y-74068946D01*
X120000500Y-73382036D01*
X148164880Y-73382036D01*
X148164880Y-73382037D01*
X148500000Y-73717157D01*
X148500001Y-73717157D01*
X148835119Y-73382037D01*
X148831574Y-73379668D01*
X148704182Y-73326901D01*
X148704176Y-73326899D01*
X148568946Y-73300000D01*
X148431054Y-73300000D01*
X148295823Y-73326899D01*
X148295813Y-73326902D01*
X148168428Y-73379666D01*
X148168427Y-73379667D01*
X148164880Y-73382036D01*
X120000500Y-73382036D01*
X120000500Y-70121153D01*
X147049500Y-70121153D01*
X147049500Y-70278846D01*
X147080261Y-70433489D01*
X147080264Y-70433501D01*
X147140602Y-70579172D01*
X147140609Y-70579185D01*
X147228210Y-70710288D01*
X147228213Y-70710292D01*
X147339707Y-70821786D01*
X147339711Y-70821789D01*
X147470814Y-70909390D01*
X147470827Y-70909397D01*
X147616498Y-70969735D01*
X147616503Y-70969737D01*
X147771153Y-71000499D01*
X147771156Y-71000500D01*
X147771158Y-71000500D01*
X147928844Y-71000500D01*
X147928845Y-71000499D01*
X148083497Y-70969737D01*
X148229179Y-70909394D01*
X148360289Y-70821789D01*
X148400000Y-70782078D01*
X148462319Y-70719760D01*
X148523642Y-70686275D01*
X148593334Y-70691259D01*
X148637681Y-70719760D01*
X148739707Y-70821786D01*
X148739711Y-70821789D01*
X148870814Y-70909390D01*
X148870827Y-70909397D01*
X149016498Y-70969735D01*
X149016503Y-70969737D01*
X149171153Y-71000499D01*
X149171156Y-71000500D01*
X149171158Y-71000500D01*
X149328844Y-71000500D01*
X149328845Y-71000499D01*
X149483497Y-70969737D01*
X149629179Y-70909394D01*
X149731111Y-70841284D01*
X149797786Y-70820408D01*
X149865166Y-70838892D01*
X149868847Y-70841257D01*
X149970821Y-70909394D01*
X149970823Y-70909395D01*
X149970827Y-70909397D01*
X150116498Y-70969735D01*
X150116503Y-70969737D01*
X150271153Y-71000499D01*
X150271156Y-71000500D01*
X150271158Y-71000500D01*
X150428844Y-71000500D01*
X150428845Y-71000499D01*
X150583497Y-70969737D01*
X150729179Y-70909394D01*
X150860289Y-70821789D01*
X150971789Y-70710289D01*
X151059394Y-70579179D01*
X151119737Y-70433497D01*
X151150500Y-70278842D01*
X151150500Y-70121158D01*
X151150500Y-70121155D01*
X151150499Y-70121153D01*
X151119738Y-69966510D01*
X151119737Y-69966503D01*
X151119735Y-69966498D01*
X151059397Y-69820827D01*
X151059390Y-69820814D01*
X150971789Y-69689711D01*
X150971786Y-69689707D01*
X150860292Y-69578213D01*
X150860288Y-69578210D01*
X150729185Y-69490609D01*
X150729172Y-69490602D01*
X150583501Y-69430264D01*
X150583489Y-69430261D01*
X150428845Y-69399500D01*
X150428842Y-69399500D01*
X150271158Y-69399500D01*
X150271155Y-69399500D01*
X150116510Y-69430261D01*
X150116498Y-69430264D01*
X149970827Y-69490602D01*
X149970814Y-69490609D01*
X149868891Y-69558713D01*
X149802213Y-69579591D01*
X149734833Y-69561107D01*
X149731109Y-69558713D01*
X149629185Y-69490609D01*
X149629172Y-69490602D01*
X149483501Y-69430264D01*
X149483489Y-69430261D01*
X149328845Y-69399500D01*
X149328842Y-69399500D01*
X149171158Y-69399500D01*
X149171155Y-69399500D01*
X149016510Y-69430261D01*
X149016498Y-69430264D01*
X148870827Y-69490602D01*
X148870814Y-69490609D01*
X148739711Y-69578210D01*
X148739707Y-69578213D01*
X148637681Y-69680240D01*
X148576358Y-69713725D01*
X148506666Y-69708741D01*
X148462319Y-69680240D01*
X148360292Y-69578213D01*
X148360288Y-69578210D01*
X148229185Y-69490609D01*
X148229172Y-69490602D01*
X148083501Y-69430264D01*
X148083489Y-69430261D01*
X147928845Y-69399500D01*
X147928842Y-69399500D01*
X147771158Y-69399500D01*
X147771155Y-69399500D01*
X147616510Y-69430261D01*
X147616498Y-69430264D01*
X147470827Y-69490602D01*
X147470814Y-69490609D01*
X147339711Y-69578210D01*
X147339707Y-69578213D01*
X147228213Y-69689707D01*
X147228210Y-69689711D01*
X147140609Y-69820814D01*
X147140602Y-69820827D01*
X147080264Y-69966498D01*
X147080261Y-69966510D01*
X147049500Y-70121153D01*
X120000500Y-70121153D01*
X120000500Y-57706806D01*
X178430977Y-57706806D01*
X178430977Y-57864499D01*
X178461738Y-58019142D01*
X178461741Y-58019154D01*
X178522079Y-58164825D01*
X178522086Y-58164838D01*
X178609687Y-58295941D01*
X178609690Y-58295945D01*
X178721184Y-58407439D01*
X178721188Y-58407442D01*
X178852291Y-58495043D01*
X178852304Y-58495050D01*
X178997975Y-58555388D01*
X178997980Y-58555390D01*
X179152630Y-58586152D01*
X179152633Y-58586153D01*
X179152635Y-58586153D01*
X179310321Y-58586153D01*
X179310322Y-58586152D01*
X179464974Y-58555390D01*
X179610656Y-58495047D01*
X179610662Y-58495043D01*
X179742352Y-58407051D01*
X179809030Y-58386173D01*
X179811243Y-58386153D01*
X180827678Y-58386153D01*
X180827694Y-58386154D01*
X180835290Y-58386154D01*
X180993401Y-58386154D01*
X180993404Y-58386154D01*
X181146132Y-58345230D01*
X181196251Y-58316292D01*
X181283063Y-58266173D01*
X181394867Y-58154369D01*
X181394867Y-58154367D01*
X181405075Y-58144160D01*
X181405076Y-58144157D01*
X185312416Y-54236819D01*
X185373739Y-54203334D01*
X185400097Y-54200500D01*
X186013331Y-54200500D01*
X186013347Y-54200501D01*
X186020943Y-54200501D01*
X186179054Y-54200501D01*
X186179057Y-54200501D01*
X186331785Y-54159577D01*
X186381904Y-54130639D01*
X186468716Y-54080520D01*
X186580520Y-53968716D01*
X186580520Y-53968714D01*
X186590728Y-53958507D01*
X186590729Y-53958504D01*
X187014662Y-53534572D01*
X187075983Y-53501089D01*
X187078150Y-53500638D01*
X187136085Y-53489113D01*
X187233497Y-53469737D01*
X187379179Y-53409394D01*
X187510289Y-53321789D01*
X187621789Y-53210289D01*
X187709394Y-53079179D01*
X187769737Y-52933497D01*
X187800500Y-52778842D01*
X187800500Y-52621158D01*
X187800500Y-52621155D01*
X187800499Y-52621153D01*
X187769738Y-52466510D01*
X187769737Y-52466503D01*
X187756062Y-52433489D01*
X187709397Y-52320827D01*
X187709390Y-52320814D01*
X187621789Y-52189711D01*
X187621786Y-52189707D01*
X187510292Y-52078213D01*
X187510288Y-52078210D01*
X187379185Y-51990609D01*
X187379172Y-51990602D01*
X187233501Y-51930264D01*
X187233489Y-51930261D01*
X187078845Y-51899500D01*
X187078842Y-51899500D01*
X187024838Y-51899500D01*
X186957799Y-51879815D01*
X186912044Y-51827011D01*
X186910275Y-51822949D01*
X186909394Y-51820821D01*
X186909391Y-51820816D01*
X186909390Y-51820814D01*
X186821789Y-51689711D01*
X186821786Y-51689707D01*
X186710292Y-51578213D01*
X186710288Y-51578210D01*
X186579185Y-51490609D01*
X186579172Y-51490602D01*
X186433501Y-51430264D01*
X186433489Y-51430261D01*
X186278845Y-51399500D01*
X186278842Y-51399500D01*
X186121158Y-51399500D01*
X186121155Y-51399500D01*
X185966510Y-51430261D01*
X185966498Y-51430264D01*
X185820827Y-51490602D01*
X185820814Y-51490609D01*
X185689711Y-51578210D01*
X185689707Y-51578213D01*
X185578213Y-51689707D01*
X185578210Y-51689711D01*
X185490609Y-51820814D01*
X185490602Y-51820827D01*
X185430264Y-51966498D01*
X185430261Y-51966510D01*
X185399500Y-52121153D01*
X185399500Y-52278846D01*
X185430261Y-52433489D01*
X185430264Y-52433501D01*
X185490602Y-52579172D01*
X185490609Y-52579185D01*
X185578210Y-52710288D01*
X185578213Y-52710292D01*
X185655740Y-52787819D01*
X185689225Y-52849142D01*
X185684241Y-52918834D01*
X185642369Y-52974767D01*
X185576905Y-52999184D01*
X185568059Y-52999500D01*
X185020942Y-52999500D01*
X184868214Y-53040423D01*
X184819213Y-53068715D01*
X184819211Y-53068715D01*
X184731290Y-53119475D01*
X184731282Y-53119481D01*
X184619478Y-53231286D01*
X180701931Y-57148834D01*
X180640608Y-57182319D01*
X180614250Y-57185153D01*
X179811243Y-57185153D01*
X179744204Y-57165468D01*
X179742352Y-57164255D01*
X179610662Y-57076262D01*
X179610649Y-57076255D01*
X179464978Y-57015917D01*
X179464966Y-57015914D01*
X179310322Y-56985153D01*
X179310319Y-56985153D01*
X179152635Y-56985153D01*
X179152632Y-56985153D01*
X178997987Y-57015914D01*
X178997975Y-57015917D01*
X178852304Y-57076255D01*
X178852291Y-57076262D01*
X178721188Y-57163863D01*
X178721184Y-57163866D01*
X178609690Y-57275360D01*
X178609687Y-57275364D01*
X178522086Y-57406467D01*
X178522079Y-57406480D01*
X178461741Y-57552151D01*
X178461738Y-57552163D01*
X178430977Y-57706806D01*
X120000500Y-57706806D01*
X120000500Y-50124500D01*
X120020185Y-50057461D01*
X120072989Y-50011706D01*
X120124500Y-50000500D01*
X183868059Y-50000500D01*
X183935098Y-50020185D01*
G37*
G04 #@! TD.AperFunction*
M02*
