%TF.GenerationSoftware,KiCad,Pcbnew,9.0.2*%
%TF.CreationDate,2026-02-17T19:29:26+01:00*%
%TF.ProjectId,LumiCtrl,4c756d69-4374-4726-9c2e-6b696361645f,rev11*%
%TF.SameCoordinates,Original*%
%TF.FileFunction,Legend,Top*%
%TF.FilePolarity,Positive*%
%FSLAX46Y46*%
G04 Gerber Fmt 4.6, Leading zero omitted, Abs format (unit mm)*
G04 Created by KiCad (PCBNEW 9.0.2) date 2026-02-17 19:29:26*
%MOMM*%
%LPD*%
G01*
G04 APERTURE LIST*
%ADD10C,0.150000*%
%ADD11C,0.120000*%
%ADD12C,0.127000*%
%ADD13C,0.200000*%
%ADD14C,0.152400*%
%ADD15C,0.250000*%
G04 APERTURE END LIST*
D10*
X68657142Y-78559580D02*
X68609523Y-78607200D01*
X68609523Y-78607200D02*
X68466666Y-78654819D01*
X68466666Y-78654819D02*
X68371428Y-78654819D01*
X68371428Y-78654819D02*
X68228571Y-78607200D01*
X68228571Y-78607200D02*
X68133333Y-78511961D01*
X68133333Y-78511961D02*
X68085714Y-78416723D01*
X68085714Y-78416723D02*
X68038095Y-78226247D01*
X68038095Y-78226247D02*
X68038095Y-78083390D01*
X68038095Y-78083390D02*
X68085714Y-77892914D01*
X68085714Y-77892914D02*
X68133333Y-77797676D01*
X68133333Y-77797676D02*
X68228571Y-77702438D01*
X68228571Y-77702438D02*
X68371428Y-77654819D01*
X68371428Y-77654819D02*
X68466666Y-77654819D01*
X68466666Y-77654819D02*
X68609523Y-77702438D01*
X68609523Y-77702438D02*
X68657142Y-77750057D01*
X69038095Y-77750057D02*
X69085714Y-77702438D01*
X69085714Y-77702438D02*
X69180952Y-77654819D01*
X69180952Y-77654819D02*
X69419047Y-77654819D01*
X69419047Y-77654819D02*
X69514285Y-77702438D01*
X69514285Y-77702438D02*
X69561904Y-77750057D01*
X69561904Y-77750057D02*
X69609523Y-77845295D01*
X69609523Y-77845295D02*
X69609523Y-77940533D01*
X69609523Y-77940533D02*
X69561904Y-78083390D01*
X69561904Y-78083390D02*
X68990476Y-78654819D01*
X68990476Y-78654819D02*
X69609523Y-78654819D01*
X70561904Y-78654819D02*
X69990476Y-78654819D01*
X70276190Y-78654819D02*
X70276190Y-77654819D01*
X70276190Y-77654819D02*
X70180952Y-77797676D01*
X70180952Y-77797676D02*
X70085714Y-77892914D01*
X70085714Y-77892914D02*
X69990476Y-77940533D01*
X70280952Y-107854819D02*
X69709524Y-107854819D01*
X69995238Y-107854819D02*
X69995238Y-106854819D01*
X69995238Y-106854819D02*
X69900000Y-106997676D01*
X69900000Y-106997676D02*
X69804762Y-107092914D01*
X69804762Y-107092914D02*
X69709524Y-107140533D01*
X70566667Y-106854819D02*
X70900000Y-107854819D01*
X70900000Y-107854819D02*
X71233333Y-106854819D01*
X71709524Y-107283390D02*
X71614286Y-107235771D01*
X71614286Y-107235771D02*
X71566667Y-107188152D01*
X71566667Y-107188152D02*
X71519048Y-107092914D01*
X71519048Y-107092914D02*
X71519048Y-107045295D01*
X71519048Y-107045295D02*
X71566667Y-106950057D01*
X71566667Y-106950057D02*
X71614286Y-106902438D01*
X71614286Y-106902438D02*
X71709524Y-106854819D01*
X71709524Y-106854819D02*
X71900000Y-106854819D01*
X71900000Y-106854819D02*
X71995238Y-106902438D01*
X71995238Y-106902438D02*
X72042857Y-106950057D01*
X72042857Y-106950057D02*
X72090476Y-107045295D01*
X72090476Y-107045295D02*
X72090476Y-107092914D01*
X72090476Y-107092914D02*
X72042857Y-107188152D01*
X72042857Y-107188152D02*
X71995238Y-107235771D01*
X71995238Y-107235771D02*
X71900000Y-107283390D01*
X71900000Y-107283390D02*
X71709524Y-107283390D01*
X71709524Y-107283390D02*
X71614286Y-107331009D01*
X71614286Y-107331009D02*
X71566667Y-107378628D01*
X71566667Y-107378628D02*
X71519048Y-107473866D01*
X71519048Y-107473866D02*
X71519048Y-107664342D01*
X71519048Y-107664342D02*
X71566667Y-107759580D01*
X71566667Y-107759580D02*
X71614286Y-107807200D01*
X71614286Y-107807200D02*
X71709524Y-107854819D01*
X71709524Y-107854819D02*
X71900000Y-107854819D01*
X71900000Y-107854819D02*
X71995238Y-107807200D01*
X71995238Y-107807200D02*
X72042857Y-107759580D01*
X72042857Y-107759580D02*
X72090476Y-107664342D01*
X72090476Y-107664342D02*
X72090476Y-107473866D01*
X72090476Y-107473866D02*
X72042857Y-107378628D01*
X72042857Y-107378628D02*
X71995238Y-107331009D01*
X71995238Y-107331009D02*
X71900000Y-107283390D01*
X90857142Y-132604819D02*
X90523809Y-132128628D01*
X90285714Y-132604819D02*
X90285714Y-131604819D01*
X90285714Y-131604819D02*
X90666666Y-131604819D01*
X90666666Y-131604819D02*
X90761904Y-131652438D01*
X90761904Y-131652438D02*
X90809523Y-131700057D01*
X90809523Y-131700057D02*
X90857142Y-131795295D01*
X90857142Y-131795295D02*
X90857142Y-131938152D01*
X90857142Y-131938152D02*
X90809523Y-132033390D01*
X90809523Y-132033390D02*
X90761904Y-132081009D01*
X90761904Y-132081009D02*
X90666666Y-132128628D01*
X90666666Y-132128628D02*
X90285714Y-132128628D01*
X91190476Y-131604819D02*
X91809523Y-131604819D01*
X91809523Y-131604819D02*
X91476190Y-131985771D01*
X91476190Y-131985771D02*
X91619047Y-131985771D01*
X91619047Y-131985771D02*
X91714285Y-132033390D01*
X91714285Y-132033390D02*
X91761904Y-132081009D01*
X91761904Y-132081009D02*
X91809523Y-132176247D01*
X91809523Y-132176247D02*
X91809523Y-132414342D01*
X91809523Y-132414342D02*
X91761904Y-132509580D01*
X91761904Y-132509580D02*
X91714285Y-132557200D01*
X91714285Y-132557200D02*
X91619047Y-132604819D01*
X91619047Y-132604819D02*
X91333333Y-132604819D01*
X91333333Y-132604819D02*
X91238095Y-132557200D01*
X91238095Y-132557200D02*
X91190476Y-132509580D01*
X92380952Y-132033390D02*
X92285714Y-131985771D01*
X92285714Y-131985771D02*
X92238095Y-131938152D01*
X92238095Y-131938152D02*
X92190476Y-131842914D01*
X92190476Y-131842914D02*
X92190476Y-131795295D01*
X92190476Y-131795295D02*
X92238095Y-131700057D01*
X92238095Y-131700057D02*
X92285714Y-131652438D01*
X92285714Y-131652438D02*
X92380952Y-131604819D01*
X92380952Y-131604819D02*
X92571428Y-131604819D01*
X92571428Y-131604819D02*
X92666666Y-131652438D01*
X92666666Y-131652438D02*
X92714285Y-131700057D01*
X92714285Y-131700057D02*
X92761904Y-131795295D01*
X92761904Y-131795295D02*
X92761904Y-131842914D01*
X92761904Y-131842914D02*
X92714285Y-131938152D01*
X92714285Y-131938152D02*
X92666666Y-131985771D01*
X92666666Y-131985771D02*
X92571428Y-132033390D01*
X92571428Y-132033390D02*
X92380952Y-132033390D01*
X92380952Y-132033390D02*
X92285714Y-132081009D01*
X92285714Y-132081009D02*
X92238095Y-132128628D01*
X92238095Y-132128628D02*
X92190476Y-132223866D01*
X92190476Y-132223866D02*
X92190476Y-132414342D01*
X92190476Y-132414342D02*
X92238095Y-132509580D01*
X92238095Y-132509580D02*
X92285714Y-132557200D01*
X92285714Y-132557200D02*
X92380952Y-132604819D01*
X92380952Y-132604819D02*
X92571428Y-132604819D01*
X92571428Y-132604819D02*
X92666666Y-132557200D01*
X92666666Y-132557200D02*
X92714285Y-132509580D01*
X92714285Y-132509580D02*
X92761904Y-132414342D01*
X92761904Y-132414342D02*
X92761904Y-132223866D01*
X92761904Y-132223866D02*
X92714285Y-132128628D01*
X92714285Y-132128628D02*
X92666666Y-132081009D01*
X92666666Y-132081009D02*
X92571428Y-132033390D01*
X70264523Y-111604819D02*
X69788333Y-111604819D01*
X69788333Y-111604819D02*
X69740714Y-112081009D01*
X69740714Y-112081009D02*
X69788333Y-112033390D01*
X69788333Y-112033390D02*
X69883571Y-111985771D01*
X69883571Y-111985771D02*
X70121666Y-111985771D01*
X70121666Y-111985771D02*
X70216904Y-112033390D01*
X70216904Y-112033390D02*
X70264523Y-112081009D01*
X70264523Y-112081009D02*
X70312142Y-112176247D01*
X70312142Y-112176247D02*
X70312142Y-112414342D01*
X70312142Y-112414342D02*
X70264523Y-112509580D01*
X70264523Y-112509580D02*
X70216904Y-112557200D01*
X70216904Y-112557200D02*
X70121666Y-112604819D01*
X70121666Y-112604819D02*
X69883571Y-112604819D01*
X69883571Y-112604819D02*
X69788333Y-112557200D01*
X69788333Y-112557200D02*
X69740714Y-112509580D01*
X70597857Y-111604819D02*
X70931190Y-112604819D01*
X70931190Y-112604819D02*
X71264523Y-111604819D01*
X126238095Y-76454819D02*
X126238095Y-75454819D01*
X126238095Y-75931009D02*
X126809523Y-75931009D01*
X126809523Y-76454819D02*
X126809523Y-75454819D01*
X127809523Y-76454819D02*
X127238095Y-76454819D01*
X127523809Y-76454819D02*
X127523809Y-75454819D01*
X127523809Y-75454819D02*
X127428571Y-75597676D01*
X127428571Y-75597676D02*
X127333333Y-75692914D01*
X127333333Y-75692914D02*
X127238095Y-75740533D01*
X116124348Y-127568161D02*
X115578166Y-127369281D01*
X115656261Y-127895919D02*
X115082685Y-127076767D01*
X115082685Y-127076767D02*
X115394743Y-126858262D01*
X115394743Y-126858262D02*
X115500070Y-126842643D01*
X115500070Y-126842643D02*
X115566391Y-126854337D01*
X115566391Y-126854337D02*
X115660024Y-126905038D01*
X115660024Y-126905038D02*
X115741964Y-127022060D01*
X115741964Y-127022060D02*
X115757583Y-127127388D01*
X115757583Y-127127388D02*
X115745889Y-127193708D01*
X115745889Y-127193708D02*
X115695187Y-127287342D01*
X115695187Y-127287342D02*
X115383130Y-127505847D01*
X115823822Y-126557817D02*
X116330916Y-126202746D01*
X116330916Y-126202746D02*
X116276371Y-126705996D01*
X116276371Y-126705996D02*
X116393393Y-126624057D01*
X116393393Y-126624057D02*
X116498720Y-126608437D01*
X116498720Y-126608437D02*
X116565041Y-126620132D01*
X116565041Y-126620132D02*
X116658674Y-126670833D01*
X116658674Y-126670833D02*
X116795240Y-126865869D01*
X116795240Y-126865869D02*
X116810859Y-126971197D01*
X116810859Y-126971197D02*
X116799165Y-127037517D01*
X116799165Y-127037517D02*
X116748464Y-127131151D01*
X116748464Y-127131151D02*
X116514420Y-127295030D01*
X116514420Y-127295030D02*
X116409093Y-127310649D01*
X116409093Y-127310649D02*
X116342772Y-127298955D01*
X117769722Y-129990147D02*
X117758028Y-130056467D01*
X117758028Y-130056467D02*
X117668319Y-130177414D01*
X117668319Y-130177414D02*
X117590305Y-130232040D01*
X117590305Y-130232040D02*
X117445970Y-130274972D01*
X117445970Y-130274972D02*
X117313329Y-130251584D01*
X117313329Y-130251584D02*
X117219695Y-130200883D01*
X117219695Y-130200883D02*
X117071435Y-130072167D01*
X117071435Y-130072167D02*
X116989496Y-129955145D01*
X116989496Y-129955145D02*
X116919251Y-129771803D01*
X116919251Y-129771803D02*
X116903631Y-129666476D01*
X116903631Y-129666476D02*
X116927020Y-129533835D01*
X116927020Y-129533835D02*
X117016728Y-129412888D01*
X117016728Y-129412888D02*
X117094743Y-129358262D01*
X117094743Y-129358262D02*
X117239078Y-129315330D01*
X117239078Y-129315330D02*
X117305398Y-129327024D01*
X118144094Y-129030423D02*
X118526478Y-129576524D01*
X117730553Y-128854931D02*
X117945214Y-129576605D01*
X117945214Y-129576605D02*
X118452308Y-129221534D01*
X87388734Y-79659590D02*
X87745877Y-80278179D01*
X87745877Y-80278179D02*
X87776066Y-80425707D01*
X87776066Y-80425707D02*
X87741206Y-80555804D01*
X87741206Y-80555804D02*
X87641298Y-80668472D01*
X87641298Y-80668472D02*
X87558819Y-80716091D01*
X88754759Y-80025615D02*
X88259888Y-80311329D01*
X88507324Y-80168472D02*
X88007324Y-79302447D01*
X88007324Y-79302447D02*
X87996274Y-79473784D01*
X87996274Y-79473784D02*
X87961414Y-79603881D01*
X87961414Y-79603881D02*
X87902745Y-79692740D01*
X65957142Y-82954819D02*
X65623809Y-82478628D01*
X65385714Y-82954819D02*
X65385714Y-81954819D01*
X65385714Y-81954819D02*
X65766666Y-81954819D01*
X65766666Y-81954819D02*
X65861904Y-82002438D01*
X65861904Y-82002438D02*
X65909523Y-82050057D01*
X65909523Y-82050057D02*
X65957142Y-82145295D01*
X65957142Y-82145295D02*
X65957142Y-82288152D01*
X65957142Y-82288152D02*
X65909523Y-82383390D01*
X65909523Y-82383390D02*
X65861904Y-82431009D01*
X65861904Y-82431009D02*
X65766666Y-82478628D01*
X65766666Y-82478628D02*
X65385714Y-82478628D01*
X66338095Y-82050057D02*
X66385714Y-82002438D01*
X66385714Y-82002438D02*
X66480952Y-81954819D01*
X66480952Y-81954819D02*
X66719047Y-81954819D01*
X66719047Y-81954819D02*
X66814285Y-82002438D01*
X66814285Y-82002438D02*
X66861904Y-82050057D01*
X66861904Y-82050057D02*
X66909523Y-82145295D01*
X66909523Y-82145295D02*
X66909523Y-82240533D01*
X66909523Y-82240533D02*
X66861904Y-82383390D01*
X66861904Y-82383390D02*
X66290476Y-82954819D01*
X66290476Y-82954819D02*
X66909523Y-82954819D01*
X67766666Y-81954819D02*
X67576190Y-81954819D01*
X67576190Y-81954819D02*
X67480952Y-82002438D01*
X67480952Y-82002438D02*
X67433333Y-82050057D01*
X67433333Y-82050057D02*
X67338095Y-82192914D01*
X67338095Y-82192914D02*
X67290476Y-82383390D01*
X67290476Y-82383390D02*
X67290476Y-82764342D01*
X67290476Y-82764342D02*
X67338095Y-82859580D01*
X67338095Y-82859580D02*
X67385714Y-82907200D01*
X67385714Y-82907200D02*
X67480952Y-82954819D01*
X67480952Y-82954819D02*
X67671428Y-82954819D01*
X67671428Y-82954819D02*
X67766666Y-82907200D01*
X67766666Y-82907200D02*
X67814285Y-82859580D01*
X67814285Y-82859580D02*
X67861904Y-82764342D01*
X67861904Y-82764342D02*
X67861904Y-82526247D01*
X67861904Y-82526247D02*
X67814285Y-82431009D01*
X67814285Y-82431009D02*
X67766666Y-82383390D01*
X67766666Y-82383390D02*
X67671428Y-82335771D01*
X67671428Y-82335771D02*
X67480952Y-82335771D01*
X67480952Y-82335771D02*
X67385714Y-82383390D01*
X67385714Y-82383390D02*
X67338095Y-82431009D01*
X67338095Y-82431009D02*
X67290476Y-82526247D01*
X71859580Y-99642857D02*
X71907200Y-99690476D01*
X71907200Y-99690476D02*
X71954819Y-99833333D01*
X71954819Y-99833333D02*
X71954819Y-99928571D01*
X71954819Y-99928571D02*
X71907200Y-100071428D01*
X71907200Y-100071428D02*
X71811961Y-100166666D01*
X71811961Y-100166666D02*
X71716723Y-100214285D01*
X71716723Y-100214285D02*
X71526247Y-100261904D01*
X71526247Y-100261904D02*
X71383390Y-100261904D01*
X71383390Y-100261904D02*
X71192914Y-100214285D01*
X71192914Y-100214285D02*
X71097676Y-100166666D01*
X71097676Y-100166666D02*
X71002438Y-100071428D01*
X71002438Y-100071428D02*
X70954819Y-99928571D01*
X70954819Y-99928571D02*
X70954819Y-99833333D01*
X70954819Y-99833333D02*
X71002438Y-99690476D01*
X71002438Y-99690476D02*
X71050057Y-99642857D01*
X71050057Y-99261904D02*
X71002438Y-99214285D01*
X71002438Y-99214285D02*
X70954819Y-99119047D01*
X70954819Y-99119047D02*
X70954819Y-98880952D01*
X70954819Y-98880952D02*
X71002438Y-98785714D01*
X71002438Y-98785714D02*
X71050057Y-98738095D01*
X71050057Y-98738095D02*
X71145295Y-98690476D01*
X71145295Y-98690476D02*
X71240533Y-98690476D01*
X71240533Y-98690476D02*
X71383390Y-98738095D01*
X71383390Y-98738095D02*
X71954819Y-99309523D01*
X71954819Y-99309523D02*
X71954819Y-98690476D01*
X71288152Y-97833333D02*
X71954819Y-97833333D01*
X70907200Y-98071428D02*
X71621485Y-98309523D01*
X71621485Y-98309523D02*
X71621485Y-97690476D01*
X112857142Y-69059580D02*
X112809523Y-69107200D01*
X112809523Y-69107200D02*
X112666666Y-69154819D01*
X112666666Y-69154819D02*
X112571428Y-69154819D01*
X112571428Y-69154819D02*
X112428571Y-69107200D01*
X112428571Y-69107200D02*
X112333333Y-69011961D01*
X112333333Y-69011961D02*
X112285714Y-68916723D01*
X112285714Y-68916723D02*
X112238095Y-68726247D01*
X112238095Y-68726247D02*
X112238095Y-68583390D01*
X112238095Y-68583390D02*
X112285714Y-68392914D01*
X112285714Y-68392914D02*
X112333333Y-68297676D01*
X112333333Y-68297676D02*
X112428571Y-68202438D01*
X112428571Y-68202438D02*
X112571428Y-68154819D01*
X112571428Y-68154819D02*
X112666666Y-68154819D01*
X112666666Y-68154819D02*
X112809523Y-68202438D01*
X112809523Y-68202438D02*
X112857142Y-68250057D01*
X113809523Y-69154819D02*
X113238095Y-69154819D01*
X113523809Y-69154819D02*
X113523809Y-68154819D01*
X113523809Y-68154819D02*
X113428571Y-68297676D01*
X113428571Y-68297676D02*
X113333333Y-68392914D01*
X113333333Y-68392914D02*
X113238095Y-68440533D01*
X114761904Y-69154819D02*
X114190476Y-69154819D01*
X114476190Y-69154819D02*
X114476190Y-68154819D01*
X114476190Y-68154819D02*
X114380952Y-68297676D01*
X114380952Y-68297676D02*
X114285714Y-68392914D01*
X114285714Y-68392914D02*
X114190476Y-68440533D01*
X110679819Y-77271666D02*
X110679819Y-77747856D01*
X110679819Y-77747856D02*
X109679819Y-77747856D01*
X110679819Y-76414523D02*
X110679819Y-76985951D01*
X110679819Y-76700237D02*
X109679819Y-76700237D01*
X109679819Y-76700237D02*
X109822676Y-76795475D01*
X109822676Y-76795475D02*
X109917914Y-76890713D01*
X109917914Y-76890713D02*
X109965533Y-76985951D01*
X92654819Y-135042857D02*
X92178628Y-135376190D01*
X92654819Y-135614285D02*
X91654819Y-135614285D01*
X91654819Y-135614285D02*
X91654819Y-135233333D01*
X91654819Y-135233333D02*
X91702438Y-135138095D01*
X91702438Y-135138095D02*
X91750057Y-135090476D01*
X91750057Y-135090476D02*
X91845295Y-135042857D01*
X91845295Y-135042857D02*
X91988152Y-135042857D01*
X91988152Y-135042857D02*
X92083390Y-135090476D01*
X92083390Y-135090476D02*
X92131009Y-135138095D01*
X92131009Y-135138095D02*
X92178628Y-135233333D01*
X92178628Y-135233333D02*
X92178628Y-135614285D01*
X91654819Y-134709523D02*
X91654819Y-134090476D01*
X91654819Y-134090476D02*
X92035771Y-134423809D01*
X92035771Y-134423809D02*
X92035771Y-134280952D01*
X92035771Y-134280952D02*
X92083390Y-134185714D01*
X92083390Y-134185714D02*
X92131009Y-134138095D01*
X92131009Y-134138095D02*
X92226247Y-134090476D01*
X92226247Y-134090476D02*
X92464342Y-134090476D01*
X92464342Y-134090476D02*
X92559580Y-134138095D01*
X92559580Y-134138095D02*
X92607200Y-134185714D01*
X92607200Y-134185714D02*
X92654819Y-134280952D01*
X92654819Y-134280952D02*
X92654819Y-134566666D01*
X92654819Y-134566666D02*
X92607200Y-134661904D01*
X92607200Y-134661904D02*
X92559580Y-134709523D01*
X91654819Y-133757142D02*
X91654819Y-133090476D01*
X91654819Y-133090476D02*
X92654819Y-133519047D01*
X100254819Y-127817857D02*
X99778628Y-128151190D01*
X100254819Y-128389285D02*
X99254819Y-128389285D01*
X99254819Y-128389285D02*
X99254819Y-128008333D01*
X99254819Y-128008333D02*
X99302438Y-127913095D01*
X99302438Y-127913095D02*
X99350057Y-127865476D01*
X99350057Y-127865476D02*
X99445295Y-127817857D01*
X99445295Y-127817857D02*
X99588152Y-127817857D01*
X99588152Y-127817857D02*
X99683390Y-127865476D01*
X99683390Y-127865476D02*
X99731009Y-127913095D01*
X99731009Y-127913095D02*
X99778628Y-128008333D01*
X99778628Y-128008333D02*
X99778628Y-128389285D01*
X99254819Y-127484523D02*
X99254819Y-126865476D01*
X99254819Y-126865476D02*
X99635771Y-127198809D01*
X99635771Y-127198809D02*
X99635771Y-127055952D01*
X99635771Y-127055952D02*
X99683390Y-126960714D01*
X99683390Y-126960714D02*
X99731009Y-126913095D01*
X99731009Y-126913095D02*
X99826247Y-126865476D01*
X99826247Y-126865476D02*
X100064342Y-126865476D01*
X100064342Y-126865476D02*
X100159580Y-126913095D01*
X100159580Y-126913095D02*
X100207200Y-126960714D01*
X100207200Y-126960714D02*
X100254819Y-127055952D01*
X100254819Y-127055952D02*
X100254819Y-127341666D01*
X100254819Y-127341666D02*
X100207200Y-127436904D01*
X100207200Y-127436904D02*
X100159580Y-127484523D01*
X100254819Y-126389285D02*
X100254819Y-126198809D01*
X100254819Y-126198809D02*
X100207200Y-126103571D01*
X100207200Y-126103571D02*
X100159580Y-126055952D01*
X100159580Y-126055952D02*
X100016723Y-125960714D01*
X100016723Y-125960714D02*
X99826247Y-125913095D01*
X99826247Y-125913095D02*
X99445295Y-125913095D01*
X99445295Y-125913095D02*
X99350057Y-125960714D01*
X99350057Y-125960714D02*
X99302438Y-126008333D01*
X99302438Y-126008333D02*
X99254819Y-126103571D01*
X99254819Y-126103571D02*
X99254819Y-126294047D01*
X99254819Y-126294047D02*
X99302438Y-126389285D01*
X99302438Y-126389285D02*
X99350057Y-126436904D01*
X99350057Y-126436904D02*
X99445295Y-126484523D01*
X99445295Y-126484523D02*
X99683390Y-126484523D01*
X99683390Y-126484523D02*
X99778628Y-126436904D01*
X99778628Y-126436904D02*
X99826247Y-126389285D01*
X99826247Y-126389285D02*
X99873866Y-126294047D01*
X99873866Y-126294047D02*
X99873866Y-126103571D01*
X99873866Y-126103571D02*
X99826247Y-126008333D01*
X99826247Y-126008333D02*
X99778628Y-125960714D01*
X99778628Y-125960714D02*
X99683390Y-125913095D01*
X69716667Y-110054819D02*
X70050000Y-111054819D01*
X70050000Y-111054819D02*
X70383333Y-110054819D01*
X71050000Y-110531009D02*
X71192857Y-110578628D01*
X71192857Y-110578628D02*
X71240476Y-110626247D01*
X71240476Y-110626247D02*
X71288095Y-110721485D01*
X71288095Y-110721485D02*
X71288095Y-110864342D01*
X71288095Y-110864342D02*
X71240476Y-110959580D01*
X71240476Y-110959580D02*
X71192857Y-111007200D01*
X71192857Y-111007200D02*
X71097619Y-111054819D01*
X71097619Y-111054819D02*
X70716667Y-111054819D01*
X70716667Y-111054819D02*
X70716667Y-110054819D01*
X70716667Y-110054819D02*
X71050000Y-110054819D01*
X71050000Y-110054819D02*
X71145238Y-110102438D01*
X71145238Y-110102438D02*
X71192857Y-110150057D01*
X71192857Y-110150057D02*
X71240476Y-110245295D01*
X71240476Y-110245295D02*
X71240476Y-110340533D01*
X71240476Y-110340533D02*
X71192857Y-110435771D01*
X71192857Y-110435771D02*
X71145238Y-110483390D01*
X71145238Y-110483390D02*
X71050000Y-110531009D01*
X71050000Y-110531009D02*
X70716667Y-110531009D01*
X71716667Y-110054819D02*
X71716667Y-110864342D01*
X71716667Y-110864342D02*
X71764286Y-110959580D01*
X71764286Y-110959580D02*
X71811905Y-111007200D01*
X71811905Y-111007200D02*
X71907143Y-111054819D01*
X71907143Y-111054819D02*
X72097619Y-111054819D01*
X72097619Y-111054819D02*
X72192857Y-111007200D01*
X72192857Y-111007200D02*
X72240476Y-110959580D01*
X72240476Y-110959580D02*
X72288095Y-110864342D01*
X72288095Y-110864342D02*
X72288095Y-110054819D01*
X72716667Y-111007200D02*
X72859524Y-111054819D01*
X72859524Y-111054819D02*
X73097619Y-111054819D01*
X73097619Y-111054819D02*
X73192857Y-111007200D01*
X73192857Y-111007200D02*
X73240476Y-110959580D01*
X73240476Y-110959580D02*
X73288095Y-110864342D01*
X73288095Y-110864342D02*
X73288095Y-110769104D01*
X73288095Y-110769104D02*
X73240476Y-110673866D01*
X73240476Y-110673866D02*
X73192857Y-110626247D01*
X73192857Y-110626247D02*
X73097619Y-110578628D01*
X73097619Y-110578628D02*
X72907143Y-110531009D01*
X72907143Y-110531009D02*
X72811905Y-110483390D01*
X72811905Y-110483390D02*
X72764286Y-110435771D01*
X72764286Y-110435771D02*
X72716667Y-110340533D01*
X72716667Y-110340533D02*
X72716667Y-110245295D01*
X72716667Y-110245295D02*
X72764286Y-110150057D01*
X72764286Y-110150057D02*
X72811905Y-110102438D01*
X72811905Y-110102438D02*
X72907143Y-110054819D01*
X72907143Y-110054819D02*
X73145238Y-110054819D01*
X73145238Y-110054819D02*
X73288095Y-110102438D01*
X122354819Y-117942857D02*
X121878628Y-118276190D01*
X122354819Y-118514285D02*
X121354819Y-118514285D01*
X121354819Y-118514285D02*
X121354819Y-118133333D01*
X121354819Y-118133333D02*
X121402438Y-118038095D01*
X121402438Y-118038095D02*
X121450057Y-117990476D01*
X121450057Y-117990476D02*
X121545295Y-117942857D01*
X121545295Y-117942857D02*
X121688152Y-117942857D01*
X121688152Y-117942857D02*
X121783390Y-117990476D01*
X121783390Y-117990476D02*
X121831009Y-118038095D01*
X121831009Y-118038095D02*
X121878628Y-118133333D01*
X121878628Y-118133333D02*
X121878628Y-118514285D01*
X121354819Y-117085714D02*
X121354819Y-117276190D01*
X121354819Y-117276190D02*
X121402438Y-117371428D01*
X121402438Y-117371428D02*
X121450057Y-117419047D01*
X121450057Y-117419047D02*
X121592914Y-117514285D01*
X121592914Y-117514285D02*
X121783390Y-117561904D01*
X121783390Y-117561904D02*
X122164342Y-117561904D01*
X122164342Y-117561904D02*
X122259580Y-117514285D01*
X122259580Y-117514285D02*
X122307200Y-117466666D01*
X122307200Y-117466666D02*
X122354819Y-117371428D01*
X122354819Y-117371428D02*
X122354819Y-117180952D01*
X122354819Y-117180952D02*
X122307200Y-117085714D01*
X122307200Y-117085714D02*
X122259580Y-117038095D01*
X122259580Y-117038095D02*
X122164342Y-116990476D01*
X122164342Y-116990476D02*
X121926247Y-116990476D01*
X121926247Y-116990476D02*
X121831009Y-117038095D01*
X121831009Y-117038095D02*
X121783390Y-117085714D01*
X121783390Y-117085714D02*
X121735771Y-117180952D01*
X121735771Y-117180952D02*
X121735771Y-117371428D01*
X121735771Y-117371428D02*
X121783390Y-117466666D01*
X121783390Y-117466666D02*
X121831009Y-117514285D01*
X121831009Y-117514285D02*
X121926247Y-117561904D01*
X122354819Y-116038095D02*
X122354819Y-116609523D01*
X122354819Y-116323809D02*
X121354819Y-116323809D01*
X121354819Y-116323809D02*
X121497676Y-116419047D01*
X121497676Y-116419047D02*
X121592914Y-116514285D01*
X121592914Y-116514285D02*
X121640533Y-116609523D01*
X124245125Y-126630741D02*
X124379812Y-126563398D01*
X124379812Y-126563398D02*
X124548170Y-126395039D01*
X124548170Y-126395039D02*
X124581842Y-126294024D01*
X124581842Y-126294024D02*
X124581842Y-126226680D01*
X124581842Y-126226680D02*
X124548170Y-126125665D01*
X124548170Y-126125665D02*
X124480827Y-126058321D01*
X124480827Y-126058321D02*
X124379812Y-126024650D01*
X124379812Y-126024650D02*
X124312468Y-126024650D01*
X124312468Y-126024650D02*
X124211453Y-126058321D01*
X124211453Y-126058321D02*
X124043094Y-126159337D01*
X124043094Y-126159337D02*
X123942079Y-126193008D01*
X123942079Y-126193008D02*
X123874735Y-126193008D01*
X123874735Y-126193008D02*
X123773720Y-126159337D01*
X123773720Y-126159337D02*
X123706377Y-126091993D01*
X123706377Y-126091993D02*
X123672705Y-125990978D01*
X123672705Y-125990978D02*
X123672705Y-125923634D01*
X123672705Y-125923634D02*
X123706377Y-125822619D01*
X123706377Y-125822619D02*
X123874735Y-125654260D01*
X123874735Y-125654260D02*
X124009422Y-125586917D01*
X124211453Y-125317543D02*
X125086919Y-125856291D01*
X125086919Y-125856291D02*
X124716529Y-125216527D01*
X124716529Y-125216527D02*
X125356293Y-125586917D01*
X125356293Y-125586917D02*
X124817545Y-124711451D01*
X126164414Y-124778795D02*
X125760353Y-125182856D01*
X125962384Y-124980825D02*
X125255277Y-124273719D01*
X125255277Y-124273719D02*
X125288949Y-124442077D01*
X125288949Y-124442077D02*
X125288949Y-124576764D01*
X125288949Y-124576764D02*
X125255277Y-124677780D01*
X106538095Y-61104819D02*
X106538095Y-61914342D01*
X106538095Y-61914342D02*
X106585714Y-62009580D01*
X106585714Y-62009580D02*
X106633333Y-62057200D01*
X106633333Y-62057200D02*
X106728571Y-62104819D01*
X106728571Y-62104819D02*
X106919047Y-62104819D01*
X106919047Y-62104819D02*
X107014285Y-62057200D01*
X107014285Y-62057200D02*
X107061904Y-62009580D01*
X107061904Y-62009580D02*
X107109523Y-61914342D01*
X107109523Y-61914342D02*
X107109523Y-61104819D01*
X107490476Y-61104819D02*
X108109523Y-61104819D01*
X108109523Y-61104819D02*
X107776190Y-61485771D01*
X107776190Y-61485771D02*
X107919047Y-61485771D01*
X107919047Y-61485771D02*
X108014285Y-61533390D01*
X108014285Y-61533390D02*
X108061904Y-61581009D01*
X108061904Y-61581009D02*
X108109523Y-61676247D01*
X108109523Y-61676247D02*
X108109523Y-61914342D01*
X108109523Y-61914342D02*
X108061904Y-62009580D01*
X108061904Y-62009580D02*
X108014285Y-62057200D01*
X108014285Y-62057200D02*
X107919047Y-62104819D01*
X107919047Y-62104819D02*
X107633333Y-62104819D01*
X107633333Y-62104819D02*
X107538095Y-62057200D01*
X107538095Y-62057200D02*
X107490476Y-62009580D01*
X122211905Y-112554819D02*
X122211905Y-111554819D01*
X122211905Y-111554819D02*
X122450000Y-111554819D01*
X122450000Y-111554819D02*
X122592857Y-111602438D01*
X122592857Y-111602438D02*
X122688095Y-111697676D01*
X122688095Y-111697676D02*
X122735714Y-111792914D01*
X122735714Y-111792914D02*
X122783333Y-111983390D01*
X122783333Y-111983390D02*
X122783333Y-112126247D01*
X122783333Y-112126247D02*
X122735714Y-112316723D01*
X122735714Y-112316723D02*
X122688095Y-112411961D01*
X122688095Y-112411961D02*
X122592857Y-112507200D01*
X122592857Y-112507200D02*
X122450000Y-112554819D01*
X122450000Y-112554819D02*
X122211905Y-112554819D01*
X123735714Y-112554819D02*
X123164286Y-112554819D01*
X123450000Y-112554819D02*
X123450000Y-111554819D01*
X123450000Y-111554819D02*
X123354762Y-111697676D01*
X123354762Y-111697676D02*
X123259524Y-111792914D01*
X123259524Y-111792914D02*
X123164286Y-111840533D01*
X88512380Y-124362295D02*
X88512380Y-125009914D01*
X88512380Y-125009914D02*
X88542857Y-125086104D01*
X88542857Y-125086104D02*
X88573333Y-125124200D01*
X88573333Y-125124200D02*
X88634285Y-125162295D01*
X88634285Y-125162295D02*
X88756190Y-125162295D01*
X88756190Y-125162295D02*
X88817142Y-125124200D01*
X88817142Y-125124200D02*
X88847619Y-125086104D01*
X88847619Y-125086104D02*
X88878095Y-125009914D01*
X88878095Y-125009914D02*
X88878095Y-124362295D01*
X89152380Y-124438485D02*
X89182856Y-124400390D01*
X89182856Y-124400390D02*
X89243809Y-124362295D01*
X89243809Y-124362295D02*
X89396190Y-124362295D01*
X89396190Y-124362295D02*
X89457142Y-124400390D01*
X89457142Y-124400390D02*
X89487618Y-124438485D01*
X89487618Y-124438485D02*
X89518095Y-124514676D01*
X89518095Y-124514676D02*
X89518095Y-124590866D01*
X89518095Y-124590866D02*
X89487618Y-124705152D01*
X89487618Y-124705152D02*
X89121904Y-125162295D01*
X89121904Y-125162295D02*
X89518095Y-125162295D01*
X62061905Y-103306819D02*
X62633333Y-103306819D01*
X62347619Y-104306819D02*
X62347619Y-103306819D01*
X62966667Y-104306819D02*
X62966667Y-103306819D01*
X62966667Y-103306819D02*
X63347619Y-103306819D01*
X63347619Y-103306819D02*
X63442857Y-103354438D01*
X63442857Y-103354438D02*
X63490476Y-103402057D01*
X63490476Y-103402057D02*
X63538095Y-103497295D01*
X63538095Y-103497295D02*
X63538095Y-103640152D01*
X63538095Y-103640152D02*
X63490476Y-103735390D01*
X63490476Y-103735390D02*
X63442857Y-103783009D01*
X63442857Y-103783009D02*
X63347619Y-103830628D01*
X63347619Y-103830628D02*
X62966667Y-103830628D01*
X64490476Y-104306819D02*
X63919048Y-104306819D01*
X64204762Y-104306819D02*
X64204762Y-103306819D01*
X64204762Y-103306819D02*
X64109524Y-103449676D01*
X64109524Y-103449676D02*
X64014286Y-103544914D01*
X64014286Y-103544914D02*
X63919048Y-103592533D01*
X65109524Y-103306819D02*
X65204762Y-103306819D01*
X65204762Y-103306819D02*
X65300000Y-103354438D01*
X65300000Y-103354438D02*
X65347619Y-103402057D01*
X65347619Y-103402057D02*
X65395238Y-103497295D01*
X65395238Y-103497295D02*
X65442857Y-103687771D01*
X65442857Y-103687771D02*
X65442857Y-103925866D01*
X65442857Y-103925866D02*
X65395238Y-104116342D01*
X65395238Y-104116342D02*
X65347619Y-104211580D01*
X65347619Y-104211580D02*
X65300000Y-104259200D01*
X65300000Y-104259200D02*
X65204762Y-104306819D01*
X65204762Y-104306819D02*
X65109524Y-104306819D01*
X65109524Y-104306819D02*
X65014286Y-104259200D01*
X65014286Y-104259200D02*
X64966667Y-104211580D01*
X64966667Y-104211580D02*
X64919048Y-104116342D01*
X64919048Y-104116342D02*
X64871429Y-103925866D01*
X64871429Y-103925866D02*
X64871429Y-103687771D01*
X64871429Y-103687771D02*
X64919048Y-103497295D01*
X64919048Y-103497295D02*
X64966667Y-103402057D01*
X64966667Y-103402057D02*
X65014286Y-103354438D01*
X65014286Y-103354438D02*
X65109524Y-103306819D01*
X130769642Y-111054819D02*
X130436309Y-110578628D01*
X130198214Y-111054819D02*
X130198214Y-110054819D01*
X130198214Y-110054819D02*
X130579166Y-110054819D01*
X130579166Y-110054819D02*
X130674404Y-110102438D01*
X130674404Y-110102438D02*
X130722023Y-110150057D01*
X130722023Y-110150057D02*
X130769642Y-110245295D01*
X130769642Y-110245295D02*
X130769642Y-110388152D01*
X130769642Y-110388152D02*
X130722023Y-110483390D01*
X130722023Y-110483390D02*
X130674404Y-110531009D01*
X130674404Y-110531009D02*
X130579166Y-110578628D01*
X130579166Y-110578628D02*
X130198214Y-110578628D01*
X131150595Y-110150057D02*
X131198214Y-110102438D01*
X131198214Y-110102438D02*
X131293452Y-110054819D01*
X131293452Y-110054819D02*
X131531547Y-110054819D01*
X131531547Y-110054819D02*
X131626785Y-110102438D01*
X131626785Y-110102438D02*
X131674404Y-110150057D01*
X131674404Y-110150057D02*
X131722023Y-110245295D01*
X131722023Y-110245295D02*
X131722023Y-110340533D01*
X131722023Y-110340533D02*
X131674404Y-110483390D01*
X131674404Y-110483390D02*
X131102976Y-111054819D01*
X131102976Y-111054819D02*
X131722023Y-111054819D01*
X132198214Y-111054819D02*
X132388690Y-111054819D01*
X132388690Y-111054819D02*
X132483928Y-111007200D01*
X132483928Y-111007200D02*
X132531547Y-110959580D01*
X132531547Y-110959580D02*
X132626785Y-110816723D01*
X132626785Y-110816723D02*
X132674404Y-110626247D01*
X132674404Y-110626247D02*
X132674404Y-110245295D01*
X132674404Y-110245295D02*
X132626785Y-110150057D01*
X132626785Y-110150057D02*
X132579166Y-110102438D01*
X132579166Y-110102438D02*
X132483928Y-110054819D01*
X132483928Y-110054819D02*
X132293452Y-110054819D01*
X132293452Y-110054819D02*
X132198214Y-110102438D01*
X132198214Y-110102438D02*
X132150595Y-110150057D01*
X132150595Y-110150057D02*
X132102976Y-110245295D01*
X132102976Y-110245295D02*
X132102976Y-110483390D01*
X132102976Y-110483390D02*
X132150595Y-110578628D01*
X132150595Y-110578628D02*
X132198214Y-110626247D01*
X132198214Y-110626247D02*
X132293452Y-110673866D01*
X132293452Y-110673866D02*
X132483928Y-110673866D01*
X132483928Y-110673866D02*
X132579166Y-110626247D01*
X132579166Y-110626247D02*
X132626785Y-110578628D01*
X132626785Y-110578628D02*
X132674404Y-110483390D01*
X75038095Y-120004819D02*
X75038095Y-119004819D01*
X75038095Y-119481009D02*
X75609523Y-119481009D01*
X75609523Y-120004819D02*
X75609523Y-119004819D01*
X76038095Y-119100057D02*
X76085714Y-119052438D01*
X76085714Y-119052438D02*
X76180952Y-119004819D01*
X76180952Y-119004819D02*
X76419047Y-119004819D01*
X76419047Y-119004819D02*
X76514285Y-119052438D01*
X76514285Y-119052438D02*
X76561904Y-119100057D01*
X76561904Y-119100057D02*
X76609523Y-119195295D01*
X76609523Y-119195295D02*
X76609523Y-119290533D01*
X76609523Y-119290533D02*
X76561904Y-119433390D01*
X76561904Y-119433390D02*
X75990476Y-120004819D01*
X75990476Y-120004819D02*
X76609523Y-120004819D01*
X108754819Y-70938094D02*
X107754819Y-70938094D01*
X107754819Y-70938094D02*
X107754819Y-70699999D01*
X107754819Y-70699999D02*
X107802438Y-70557142D01*
X107802438Y-70557142D02*
X107897676Y-70461904D01*
X107897676Y-70461904D02*
X107992914Y-70414285D01*
X107992914Y-70414285D02*
X108183390Y-70366666D01*
X108183390Y-70366666D02*
X108326247Y-70366666D01*
X108326247Y-70366666D02*
X108516723Y-70414285D01*
X108516723Y-70414285D02*
X108611961Y-70461904D01*
X108611961Y-70461904D02*
X108707200Y-70557142D01*
X108707200Y-70557142D02*
X108754819Y-70699999D01*
X108754819Y-70699999D02*
X108754819Y-70938094D01*
X107754819Y-70033332D02*
X107754819Y-69366666D01*
X107754819Y-69366666D02*
X108754819Y-69795237D01*
X77457142Y-89709580D02*
X77409523Y-89757200D01*
X77409523Y-89757200D02*
X77266666Y-89804819D01*
X77266666Y-89804819D02*
X77171428Y-89804819D01*
X77171428Y-89804819D02*
X77028571Y-89757200D01*
X77028571Y-89757200D02*
X76933333Y-89661961D01*
X76933333Y-89661961D02*
X76885714Y-89566723D01*
X76885714Y-89566723D02*
X76838095Y-89376247D01*
X76838095Y-89376247D02*
X76838095Y-89233390D01*
X76838095Y-89233390D02*
X76885714Y-89042914D01*
X76885714Y-89042914D02*
X76933333Y-88947676D01*
X76933333Y-88947676D02*
X77028571Y-88852438D01*
X77028571Y-88852438D02*
X77171428Y-88804819D01*
X77171428Y-88804819D02*
X77266666Y-88804819D01*
X77266666Y-88804819D02*
X77409523Y-88852438D01*
X77409523Y-88852438D02*
X77457142Y-88900057D01*
X77838095Y-88900057D02*
X77885714Y-88852438D01*
X77885714Y-88852438D02*
X77980952Y-88804819D01*
X77980952Y-88804819D02*
X78219047Y-88804819D01*
X78219047Y-88804819D02*
X78314285Y-88852438D01*
X78314285Y-88852438D02*
X78361904Y-88900057D01*
X78361904Y-88900057D02*
X78409523Y-88995295D01*
X78409523Y-88995295D02*
X78409523Y-89090533D01*
X78409523Y-89090533D02*
X78361904Y-89233390D01*
X78361904Y-89233390D02*
X77790476Y-89804819D01*
X77790476Y-89804819D02*
X78409523Y-89804819D01*
X78790476Y-88900057D02*
X78838095Y-88852438D01*
X78838095Y-88852438D02*
X78933333Y-88804819D01*
X78933333Y-88804819D02*
X79171428Y-88804819D01*
X79171428Y-88804819D02*
X79266666Y-88852438D01*
X79266666Y-88852438D02*
X79314285Y-88900057D01*
X79314285Y-88900057D02*
X79361904Y-88995295D01*
X79361904Y-88995295D02*
X79361904Y-89090533D01*
X79361904Y-89090533D02*
X79314285Y-89233390D01*
X79314285Y-89233390D02*
X78742857Y-89804819D01*
X78742857Y-89804819D02*
X79361904Y-89804819D01*
X64547695Y-101304818D02*
X64547695Y-102114341D01*
X64547695Y-102114341D02*
X64595314Y-102209579D01*
X64595314Y-102209579D02*
X64642933Y-102257199D01*
X64642933Y-102257199D02*
X64738171Y-102304818D01*
X64738171Y-102304818D02*
X64928647Y-102304818D01*
X64928647Y-102304818D02*
X65023885Y-102257199D01*
X65023885Y-102257199D02*
X65071504Y-102209579D01*
X65071504Y-102209579D02*
X65119123Y-102114341D01*
X65119123Y-102114341D02*
X65119123Y-101304818D01*
X65500076Y-101304818D02*
X66166742Y-101304818D01*
X66166742Y-101304818D02*
X65738171Y-102304818D01*
X66409600Y-99554819D02*
X66409600Y-99792914D01*
X66171505Y-99697676D02*
X66409600Y-99792914D01*
X66409600Y-99792914D02*
X66647695Y-99697676D01*
X66266743Y-99983390D02*
X66409600Y-99792914D01*
X66409600Y-99792914D02*
X66552457Y-99983390D01*
X66409600Y-100154819D02*
X66409600Y-100392914D01*
X66171505Y-100297676D02*
X66409600Y-100392914D01*
X66409600Y-100392914D02*
X66647695Y-100297676D01*
X66266743Y-100583390D02*
X66409600Y-100392914D01*
X66409600Y-100392914D02*
X66552457Y-100583390D01*
X128033333Y-89759580D02*
X127985714Y-89807200D01*
X127985714Y-89807200D02*
X127842857Y-89854819D01*
X127842857Y-89854819D02*
X127747619Y-89854819D01*
X127747619Y-89854819D02*
X127604762Y-89807200D01*
X127604762Y-89807200D02*
X127509524Y-89711961D01*
X127509524Y-89711961D02*
X127461905Y-89616723D01*
X127461905Y-89616723D02*
X127414286Y-89426247D01*
X127414286Y-89426247D02*
X127414286Y-89283390D01*
X127414286Y-89283390D02*
X127461905Y-89092914D01*
X127461905Y-89092914D02*
X127509524Y-88997676D01*
X127509524Y-88997676D02*
X127604762Y-88902438D01*
X127604762Y-88902438D02*
X127747619Y-88854819D01*
X127747619Y-88854819D02*
X127842857Y-88854819D01*
X127842857Y-88854819D02*
X127985714Y-88902438D01*
X127985714Y-88902438D02*
X128033333Y-88950057D01*
X128985714Y-89854819D02*
X128414286Y-89854819D01*
X128700000Y-89854819D02*
X128700000Y-88854819D01*
X128700000Y-88854819D02*
X128604762Y-88997676D01*
X128604762Y-88997676D02*
X128509524Y-89092914D01*
X128509524Y-89092914D02*
X128414286Y-89140533D01*
X130124405Y-112554819D02*
X130124405Y-111554819D01*
X130124405Y-111554819D02*
X130362500Y-111554819D01*
X130362500Y-111554819D02*
X130505357Y-111602438D01*
X130505357Y-111602438D02*
X130600595Y-111697676D01*
X130600595Y-111697676D02*
X130648214Y-111792914D01*
X130648214Y-111792914D02*
X130695833Y-111983390D01*
X130695833Y-111983390D02*
X130695833Y-112126247D01*
X130695833Y-112126247D02*
X130648214Y-112316723D01*
X130648214Y-112316723D02*
X130600595Y-112411961D01*
X130600595Y-112411961D02*
X130505357Y-112507200D01*
X130505357Y-112507200D02*
X130362500Y-112554819D01*
X130362500Y-112554819D02*
X130124405Y-112554819D01*
X131076786Y-111650057D02*
X131124405Y-111602438D01*
X131124405Y-111602438D02*
X131219643Y-111554819D01*
X131219643Y-111554819D02*
X131457738Y-111554819D01*
X131457738Y-111554819D02*
X131552976Y-111602438D01*
X131552976Y-111602438D02*
X131600595Y-111650057D01*
X131600595Y-111650057D02*
X131648214Y-111745295D01*
X131648214Y-111745295D02*
X131648214Y-111840533D01*
X131648214Y-111840533D02*
X131600595Y-111983390D01*
X131600595Y-111983390D02*
X131029167Y-112554819D01*
X131029167Y-112554819D02*
X131648214Y-112554819D01*
X113258475Y-118614494D02*
X112712293Y-118415614D01*
X112790388Y-118942252D02*
X112216812Y-118123100D01*
X112216812Y-118123100D02*
X112528870Y-117904595D01*
X112528870Y-117904595D02*
X112634197Y-117888976D01*
X112634197Y-117888976D02*
X112700518Y-117900670D01*
X112700518Y-117900670D02*
X112794151Y-117951371D01*
X112794151Y-117951371D02*
X112876091Y-118068393D01*
X112876091Y-118068393D02*
X112891710Y-118173720D01*
X112891710Y-118173720D02*
X112880016Y-118240041D01*
X112880016Y-118240041D02*
X112829315Y-118333674D01*
X112829315Y-118333674D02*
X112517257Y-118552180D01*
X113426036Y-117276392D02*
X113035964Y-117549524D01*
X113035964Y-117549524D02*
X113270088Y-117966909D01*
X113270088Y-117966909D02*
X113281782Y-117900589D01*
X113281782Y-117900589D02*
X113332484Y-117806955D01*
X113332484Y-117806955D02*
X113527520Y-117670389D01*
X113527520Y-117670389D02*
X113632848Y-117654770D01*
X113632848Y-117654770D02*
X113699168Y-117666464D01*
X113699168Y-117666464D02*
X113792802Y-117717166D01*
X113792802Y-117717166D02*
X113929367Y-117912202D01*
X113929367Y-117912202D02*
X113944986Y-118017530D01*
X113944986Y-118017530D02*
X113933292Y-118083850D01*
X113933292Y-118083850D02*
X113882591Y-118177484D01*
X113882591Y-118177484D02*
X113687555Y-118314049D01*
X113687555Y-118314049D02*
X113582227Y-118329668D01*
X113582227Y-118329668D02*
X113515907Y-118317974D01*
X114178949Y-117272386D02*
X114073621Y-117288005D01*
X114073621Y-117288005D02*
X114007301Y-117276311D01*
X114007301Y-117276311D02*
X113913667Y-117225610D01*
X113913667Y-117225610D02*
X113886354Y-117186602D01*
X113886354Y-117186602D02*
X113870735Y-117081275D01*
X113870735Y-117081275D02*
X113882429Y-117014954D01*
X113882429Y-117014954D02*
X113933130Y-116921321D01*
X113933130Y-116921321D02*
X114089159Y-116812068D01*
X114089159Y-116812068D02*
X114194487Y-116796449D01*
X114194487Y-116796449D02*
X114260808Y-116808143D01*
X114260808Y-116808143D02*
X114354441Y-116858845D01*
X114354441Y-116858845D02*
X114381754Y-116897852D01*
X114381754Y-116897852D02*
X114397373Y-117003179D01*
X114397373Y-117003179D02*
X114385679Y-117069500D01*
X114385679Y-117069500D02*
X114334978Y-117163133D01*
X114334978Y-117163133D02*
X114178949Y-117272386D01*
X114178949Y-117272386D02*
X114128248Y-117366020D01*
X114128248Y-117366020D02*
X114116554Y-117432340D01*
X114116554Y-117432340D02*
X114132173Y-117537668D01*
X114132173Y-117537668D02*
X114241425Y-117693697D01*
X114241425Y-117693697D02*
X114335059Y-117744398D01*
X114335059Y-117744398D02*
X114401379Y-117756092D01*
X114401379Y-117756092D02*
X114506707Y-117740473D01*
X114506707Y-117740473D02*
X114662736Y-117631220D01*
X114662736Y-117631220D02*
X114713437Y-117537587D01*
X114713437Y-117537587D02*
X114725131Y-117471266D01*
X114725131Y-117471266D02*
X114709512Y-117365939D01*
X114709512Y-117365939D02*
X114600260Y-117209910D01*
X114600260Y-117209910D02*
X114506626Y-117159208D01*
X114506626Y-117159208D02*
X114440306Y-117147514D01*
X114440306Y-117147514D02*
X114334978Y-117163133D01*
X131338095Y-84406819D02*
X131909523Y-84406819D01*
X131623809Y-85406819D02*
X131623809Y-84406819D01*
X132242857Y-85406819D02*
X132242857Y-84406819D01*
X132242857Y-84406819D02*
X132623809Y-84406819D01*
X132623809Y-84406819D02*
X132719047Y-84454438D01*
X132719047Y-84454438D02*
X132766666Y-84502057D01*
X132766666Y-84502057D02*
X132814285Y-84597295D01*
X132814285Y-84597295D02*
X132814285Y-84740152D01*
X132814285Y-84740152D02*
X132766666Y-84835390D01*
X132766666Y-84835390D02*
X132719047Y-84883009D01*
X132719047Y-84883009D02*
X132623809Y-84930628D01*
X132623809Y-84930628D02*
X132242857Y-84930628D01*
X133290476Y-85406819D02*
X133480952Y-85406819D01*
X133480952Y-85406819D02*
X133576190Y-85359200D01*
X133576190Y-85359200D02*
X133623809Y-85311580D01*
X133623809Y-85311580D02*
X133719047Y-85168723D01*
X133719047Y-85168723D02*
X133766666Y-84978247D01*
X133766666Y-84978247D02*
X133766666Y-84597295D01*
X133766666Y-84597295D02*
X133719047Y-84502057D01*
X133719047Y-84502057D02*
X133671428Y-84454438D01*
X133671428Y-84454438D02*
X133576190Y-84406819D01*
X133576190Y-84406819D02*
X133385714Y-84406819D01*
X133385714Y-84406819D02*
X133290476Y-84454438D01*
X133290476Y-84454438D02*
X133242857Y-84502057D01*
X133242857Y-84502057D02*
X133195238Y-84597295D01*
X133195238Y-84597295D02*
X133195238Y-84835390D01*
X133195238Y-84835390D02*
X133242857Y-84930628D01*
X133242857Y-84930628D02*
X133290476Y-84978247D01*
X133290476Y-84978247D02*
X133385714Y-85025866D01*
X133385714Y-85025866D02*
X133576190Y-85025866D01*
X133576190Y-85025866D02*
X133671428Y-84978247D01*
X133671428Y-84978247D02*
X133719047Y-84930628D01*
X133719047Y-84930628D02*
X133766666Y-84835390D01*
X92257142Y-127059580D02*
X92209523Y-127107200D01*
X92209523Y-127107200D02*
X92066666Y-127154819D01*
X92066666Y-127154819D02*
X91971428Y-127154819D01*
X91971428Y-127154819D02*
X91828571Y-127107200D01*
X91828571Y-127107200D02*
X91733333Y-127011961D01*
X91733333Y-127011961D02*
X91685714Y-126916723D01*
X91685714Y-126916723D02*
X91638095Y-126726247D01*
X91638095Y-126726247D02*
X91638095Y-126583390D01*
X91638095Y-126583390D02*
X91685714Y-126392914D01*
X91685714Y-126392914D02*
X91733333Y-126297676D01*
X91733333Y-126297676D02*
X91828571Y-126202438D01*
X91828571Y-126202438D02*
X91971428Y-126154819D01*
X91971428Y-126154819D02*
X92066666Y-126154819D01*
X92066666Y-126154819D02*
X92209523Y-126202438D01*
X92209523Y-126202438D02*
X92257142Y-126250057D01*
X92638095Y-126250057D02*
X92685714Y-126202438D01*
X92685714Y-126202438D02*
X92780952Y-126154819D01*
X92780952Y-126154819D02*
X93019047Y-126154819D01*
X93019047Y-126154819D02*
X93114285Y-126202438D01*
X93114285Y-126202438D02*
X93161904Y-126250057D01*
X93161904Y-126250057D02*
X93209523Y-126345295D01*
X93209523Y-126345295D02*
X93209523Y-126440533D01*
X93209523Y-126440533D02*
X93161904Y-126583390D01*
X93161904Y-126583390D02*
X92590476Y-127154819D01*
X92590476Y-127154819D02*
X93209523Y-127154819D01*
X93542857Y-126154819D02*
X94209523Y-126154819D01*
X94209523Y-126154819D02*
X93780952Y-127154819D01*
X65857142Y-81454819D02*
X65523809Y-80978628D01*
X65285714Y-81454819D02*
X65285714Y-80454819D01*
X65285714Y-80454819D02*
X65666666Y-80454819D01*
X65666666Y-80454819D02*
X65761904Y-80502438D01*
X65761904Y-80502438D02*
X65809523Y-80550057D01*
X65809523Y-80550057D02*
X65857142Y-80645295D01*
X65857142Y-80645295D02*
X65857142Y-80788152D01*
X65857142Y-80788152D02*
X65809523Y-80883390D01*
X65809523Y-80883390D02*
X65761904Y-80931009D01*
X65761904Y-80931009D02*
X65666666Y-80978628D01*
X65666666Y-80978628D02*
X65285714Y-80978628D01*
X66238095Y-80550057D02*
X66285714Y-80502438D01*
X66285714Y-80502438D02*
X66380952Y-80454819D01*
X66380952Y-80454819D02*
X66619047Y-80454819D01*
X66619047Y-80454819D02*
X66714285Y-80502438D01*
X66714285Y-80502438D02*
X66761904Y-80550057D01*
X66761904Y-80550057D02*
X66809523Y-80645295D01*
X66809523Y-80645295D02*
X66809523Y-80740533D01*
X66809523Y-80740533D02*
X66761904Y-80883390D01*
X66761904Y-80883390D02*
X66190476Y-81454819D01*
X66190476Y-81454819D02*
X66809523Y-81454819D01*
X67142857Y-80454819D02*
X67809523Y-80454819D01*
X67809523Y-80454819D02*
X67380952Y-81454819D01*
X96233333Y-121954819D02*
X95757143Y-121954819D01*
X95757143Y-121954819D02*
X95757143Y-120954819D01*
X96519048Y-121050057D02*
X96566667Y-121002438D01*
X96566667Y-121002438D02*
X96661905Y-120954819D01*
X96661905Y-120954819D02*
X96900000Y-120954819D01*
X96900000Y-120954819D02*
X96995238Y-121002438D01*
X96995238Y-121002438D02*
X97042857Y-121050057D01*
X97042857Y-121050057D02*
X97090476Y-121145295D01*
X97090476Y-121145295D02*
X97090476Y-121240533D01*
X97090476Y-121240533D02*
X97042857Y-121383390D01*
X97042857Y-121383390D02*
X96471429Y-121954819D01*
X96471429Y-121954819D02*
X97090476Y-121954819D01*
X100254819Y-131142857D02*
X99778628Y-131476190D01*
X100254819Y-131714285D02*
X99254819Y-131714285D01*
X99254819Y-131714285D02*
X99254819Y-131333333D01*
X99254819Y-131333333D02*
X99302438Y-131238095D01*
X99302438Y-131238095D02*
X99350057Y-131190476D01*
X99350057Y-131190476D02*
X99445295Y-131142857D01*
X99445295Y-131142857D02*
X99588152Y-131142857D01*
X99588152Y-131142857D02*
X99683390Y-131190476D01*
X99683390Y-131190476D02*
X99731009Y-131238095D01*
X99731009Y-131238095D02*
X99778628Y-131333333D01*
X99778628Y-131333333D02*
X99778628Y-131714285D01*
X99588152Y-130285714D02*
X100254819Y-130285714D01*
X99207200Y-130523809D02*
X99921485Y-130761904D01*
X99921485Y-130761904D02*
X99921485Y-130142857D01*
X99350057Y-129809523D02*
X99302438Y-129761904D01*
X99302438Y-129761904D02*
X99254819Y-129666666D01*
X99254819Y-129666666D02*
X99254819Y-129428571D01*
X99254819Y-129428571D02*
X99302438Y-129333333D01*
X99302438Y-129333333D02*
X99350057Y-129285714D01*
X99350057Y-129285714D02*
X99445295Y-129238095D01*
X99445295Y-129238095D02*
X99540533Y-129238095D01*
X99540533Y-129238095D02*
X99683390Y-129285714D01*
X99683390Y-129285714D02*
X100254819Y-129857142D01*
X100254819Y-129857142D02*
X100254819Y-129238095D01*
X65757142Y-85954819D02*
X65423809Y-85478628D01*
X65185714Y-85954819D02*
X65185714Y-84954819D01*
X65185714Y-84954819D02*
X65566666Y-84954819D01*
X65566666Y-84954819D02*
X65661904Y-85002438D01*
X65661904Y-85002438D02*
X65709523Y-85050057D01*
X65709523Y-85050057D02*
X65757142Y-85145295D01*
X65757142Y-85145295D02*
X65757142Y-85288152D01*
X65757142Y-85288152D02*
X65709523Y-85383390D01*
X65709523Y-85383390D02*
X65661904Y-85431009D01*
X65661904Y-85431009D02*
X65566666Y-85478628D01*
X65566666Y-85478628D02*
X65185714Y-85478628D01*
X66090476Y-84954819D02*
X66709523Y-84954819D01*
X66709523Y-84954819D02*
X66376190Y-85335771D01*
X66376190Y-85335771D02*
X66519047Y-85335771D01*
X66519047Y-85335771D02*
X66614285Y-85383390D01*
X66614285Y-85383390D02*
X66661904Y-85431009D01*
X66661904Y-85431009D02*
X66709523Y-85526247D01*
X66709523Y-85526247D02*
X66709523Y-85764342D01*
X66709523Y-85764342D02*
X66661904Y-85859580D01*
X66661904Y-85859580D02*
X66614285Y-85907200D01*
X66614285Y-85907200D02*
X66519047Y-85954819D01*
X66519047Y-85954819D02*
X66233333Y-85954819D01*
X66233333Y-85954819D02*
X66138095Y-85907200D01*
X66138095Y-85907200D02*
X66090476Y-85859580D01*
X67661904Y-85954819D02*
X67090476Y-85954819D01*
X67376190Y-85954819D02*
X67376190Y-84954819D01*
X67376190Y-84954819D02*
X67280952Y-85097676D01*
X67280952Y-85097676D02*
X67185714Y-85192914D01*
X67185714Y-85192914D02*
X67090476Y-85240533D01*
X113938095Y-63656819D02*
X114509523Y-63656819D01*
X114223809Y-64656819D02*
X114223809Y-63656819D01*
X114842857Y-64656819D02*
X114842857Y-63656819D01*
X114842857Y-63656819D02*
X115223809Y-63656819D01*
X115223809Y-63656819D02*
X115319047Y-63704438D01*
X115319047Y-63704438D02*
X115366666Y-63752057D01*
X115366666Y-63752057D02*
X115414285Y-63847295D01*
X115414285Y-63847295D02*
X115414285Y-63990152D01*
X115414285Y-63990152D02*
X115366666Y-64085390D01*
X115366666Y-64085390D02*
X115319047Y-64133009D01*
X115319047Y-64133009D02*
X115223809Y-64180628D01*
X115223809Y-64180628D02*
X114842857Y-64180628D01*
X116319047Y-63656819D02*
X115842857Y-63656819D01*
X115842857Y-63656819D02*
X115795238Y-64133009D01*
X115795238Y-64133009D02*
X115842857Y-64085390D01*
X115842857Y-64085390D02*
X115938095Y-64037771D01*
X115938095Y-64037771D02*
X116176190Y-64037771D01*
X116176190Y-64037771D02*
X116271428Y-64085390D01*
X116271428Y-64085390D02*
X116319047Y-64133009D01*
X116319047Y-64133009D02*
X116366666Y-64228247D01*
X116366666Y-64228247D02*
X116366666Y-64466342D01*
X116366666Y-64466342D02*
X116319047Y-64561580D01*
X116319047Y-64561580D02*
X116271428Y-64609200D01*
X116271428Y-64609200D02*
X116176190Y-64656819D01*
X116176190Y-64656819D02*
X115938095Y-64656819D01*
X115938095Y-64656819D02*
X115842857Y-64609200D01*
X115842857Y-64609200D02*
X115795238Y-64561580D01*
X121059580Y-77742857D02*
X121107200Y-77790476D01*
X121107200Y-77790476D02*
X121154819Y-77933333D01*
X121154819Y-77933333D02*
X121154819Y-78028571D01*
X121154819Y-78028571D02*
X121107200Y-78171428D01*
X121107200Y-78171428D02*
X121011961Y-78266666D01*
X121011961Y-78266666D02*
X120916723Y-78314285D01*
X120916723Y-78314285D02*
X120726247Y-78361904D01*
X120726247Y-78361904D02*
X120583390Y-78361904D01*
X120583390Y-78361904D02*
X120392914Y-78314285D01*
X120392914Y-78314285D02*
X120297676Y-78266666D01*
X120297676Y-78266666D02*
X120202438Y-78171428D01*
X120202438Y-78171428D02*
X120154819Y-78028571D01*
X120154819Y-78028571D02*
X120154819Y-77933333D01*
X120154819Y-77933333D02*
X120202438Y-77790476D01*
X120202438Y-77790476D02*
X120250057Y-77742857D01*
X121154819Y-76790476D02*
X121154819Y-77361904D01*
X121154819Y-77076190D02*
X120154819Y-77076190D01*
X120154819Y-77076190D02*
X120297676Y-77171428D01*
X120297676Y-77171428D02*
X120392914Y-77266666D01*
X120392914Y-77266666D02*
X120440533Y-77361904D01*
X120154819Y-75885714D02*
X120154819Y-76361904D01*
X120154819Y-76361904D02*
X120631009Y-76409523D01*
X120631009Y-76409523D02*
X120583390Y-76361904D01*
X120583390Y-76361904D02*
X120535771Y-76266666D01*
X120535771Y-76266666D02*
X120535771Y-76028571D01*
X120535771Y-76028571D02*
X120583390Y-75933333D01*
X120583390Y-75933333D02*
X120631009Y-75885714D01*
X120631009Y-75885714D02*
X120726247Y-75838095D01*
X120726247Y-75838095D02*
X120964342Y-75838095D01*
X120964342Y-75838095D02*
X121059580Y-75885714D01*
X121059580Y-75885714D02*
X121107200Y-75933333D01*
X121107200Y-75933333D02*
X121154819Y-76028571D01*
X121154819Y-76028571D02*
X121154819Y-76266666D01*
X121154819Y-76266666D02*
X121107200Y-76361904D01*
X121107200Y-76361904D02*
X121059580Y-76409523D01*
X114769722Y-119190147D02*
X114758028Y-119256467D01*
X114758028Y-119256467D02*
X114668319Y-119377414D01*
X114668319Y-119377414D02*
X114590305Y-119432040D01*
X114590305Y-119432040D02*
X114445970Y-119474972D01*
X114445970Y-119474972D02*
X114313329Y-119451584D01*
X114313329Y-119451584D02*
X114219695Y-119400883D01*
X114219695Y-119400883D02*
X114071435Y-119272167D01*
X114071435Y-119272167D02*
X113989496Y-119155145D01*
X113989496Y-119155145D02*
X113919251Y-118971803D01*
X113919251Y-118971803D02*
X113903631Y-118866476D01*
X113903631Y-118866476D02*
X113927020Y-118733835D01*
X113927020Y-118733835D02*
X114016728Y-118612888D01*
X114016728Y-118612888D02*
X114094743Y-118558262D01*
X114094743Y-118558262D02*
X114239078Y-118515330D01*
X114239078Y-118515330D02*
X114305398Y-118527024D01*
X114523822Y-118257817D02*
X115069924Y-117875433D01*
X115069924Y-117875433D02*
X115292435Y-118940403D01*
X117163181Y-121490424D02*
X117627504Y-122153547D01*
X117627504Y-122153547D02*
X117721138Y-122204248D01*
X117721138Y-122204248D02*
X117787458Y-122215943D01*
X117787458Y-122215943D02*
X117892786Y-122200323D01*
X117892786Y-122200323D02*
X118048815Y-122091071D01*
X118048815Y-122091071D02*
X118099516Y-121997437D01*
X118099516Y-121997437D02*
X118111210Y-121931117D01*
X118111210Y-121931117D02*
X118095591Y-121825789D01*
X118095591Y-121825789D02*
X117631268Y-121162666D01*
X118563597Y-120916767D02*
X118945982Y-121462868D01*
X118150056Y-120741275D02*
X118364717Y-121462949D01*
X118364717Y-121462949D02*
X118871811Y-121107878D01*
X114157142Y-83059580D02*
X114109523Y-83107200D01*
X114109523Y-83107200D02*
X113966666Y-83154819D01*
X113966666Y-83154819D02*
X113871428Y-83154819D01*
X113871428Y-83154819D02*
X113728571Y-83107200D01*
X113728571Y-83107200D02*
X113633333Y-83011961D01*
X113633333Y-83011961D02*
X113585714Y-82916723D01*
X113585714Y-82916723D02*
X113538095Y-82726247D01*
X113538095Y-82726247D02*
X113538095Y-82583390D01*
X113538095Y-82583390D02*
X113585714Y-82392914D01*
X113585714Y-82392914D02*
X113633333Y-82297676D01*
X113633333Y-82297676D02*
X113728571Y-82202438D01*
X113728571Y-82202438D02*
X113871428Y-82154819D01*
X113871428Y-82154819D02*
X113966666Y-82154819D01*
X113966666Y-82154819D02*
X114109523Y-82202438D01*
X114109523Y-82202438D02*
X114157142Y-82250057D01*
X115109523Y-83154819D02*
X114538095Y-83154819D01*
X114823809Y-83154819D02*
X114823809Y-82154819D01*
X114823809Y-82154819D02*
X114728571Y-82297676D01*
X114728571Y-82297676D02*
X114633333Y-82392914D01*
X114633333Y-82392914D02*
X114538095Y-82440533D01*
X115442857Y-82154819D02*
X116061904Y-82154819D01*
X116061904Y-82154819D02*
X115728571Y-82535771D01*
X115728571Y-82535771D02*
X115871428Y-82535771D01*
X115871428Y-82535771D02*
X115966666Y-82583390D01*
X115966666Y-82583390D02*
X116014285Y-82631009D01*
X116014285Y-82631009D02*
X116061904Y-82726247D01*
X116061904Y-82726247D02*
X116061904Y-82964342D01*
X116061904Y-82964342D02*
X116014285Y-83059580D01*
X116014285Y-83059580D02*
X115966666Y-83107200D01*
X115966666Y-83107200D02*
X115871428Y-83154819D01*
X115871428Y-83154819D02*
X115585714Y-83154819D01*
X115585714Y-83154819D02*
X115490476Y-83107200D01*
X115490476Y-83107200D02*
X115442857Y-83059580D01*
X104484819Y-127817857D02*
X104008628Y-128151190D01*
X104484819Y-128389285D02*
X103484819Y-128389285D01*
X103484819Y-128389285D02*
X103484819Y-128008333D01*
X103484819Y-128008333D02*
X103532438Y-127913095D01*
X103532438Y-127913095D02*
X103580057Y-127865476D01*
X103580057Y-127865476D02*
X103675295Y-127817857D01*
X103675295Y-127817857D02*
X103818152Y-127817857D01*
X103818152Y-127817857D02*
X103913390Y-127865476D01*
X103913390Y-127865476D02*
X103961009Y-127913095D01*
X103961009Y-127913095D02*
X104008628Y-128008333D01*
X104008628Y-128008333D02*
X104008628Y-128389285D01*
X103818152Y-126960714D02*
X104484819Y-126960714D01*
X103437200Y-127198809D02*
X104151485Y-127436904D01*
X104151485Y-127436904D02*
X104151485Y-126817857D01*
X103484819Y-126246428D02*
X103484819Y-126151190D01*
X103484819Y-126151190D02*
X103532438Y-126055952D01*
X103532438Y-126055952D02*
X103580057Y-126008333D01*
X103580057Y-126008333D02*
X103675295Y-125960714D01*
X103675295Y-125960714D02*
X103865771Y-125913095D01*
X103865771Y-125913095D02*
X104103866Y-125913095D01*
X104103866Y-125913095D02*
X104294342Y-125960714D01*
X104294342Y-125960714D02*
X104389580Y-126008333D01*
X104389580Y-126008333D02*
X104437200Y-126055952D01*
X104437200Y-126055952D02*
X104484819Y-126151190D01*
X104484819Y-126151190D02*
X104484819Y-126246428D01*
X104484819Y-126246428D02*
X104437200Y-126341666D01*
X104437200Y-126341666D02*
X104389580Y-126389285D01*
X104389580Y-126389285D02*
X104294342Y-126436904D01*
X104294342Y-126436904D02*
X104103866Y-126484523D01*
X104103866Y-126484523D02*
X103865771Y-126484523D01*
X103865771Y-126484523D02*
X103675295Y-126436904D01*
X103675295Y-126436904D02*
X103580057Y-126389285D01*
X103580057Y-126389285D02*
X103532438Y-126341666D01*
X103532438Y-126341666D02*
X103484819Y-126246428D01*
X74054819Y-99742857D02*
X73578628Y-100076190D01*
X74054819Y-100314285D02*
X73054819Y-100314285D01*
X73054819Y-100314285D02*
X73054819Y-99933333D01*
X73054819Y-99933333D02*
X73102438Y-99838095D01*
X73102438Y-99838095D02*
X73150057Y-99790476D01*
X73150057Y-99790476D02*
X73245295Y-99742857D01*
X73245295Y-99742857D02*
X73388152Y-99742857D01*
X73388152Y-99742857D02*
X73483390Y-99790476D01*
X73483390Y-99790476D02*
X73531009Y-99838095D01*
X73531009Y-99838095D02*
X73578628Y-99933333D01*
X73578628Y-99933333D02*
X73578628Y-100314285D01*
X73054819Y-99409523D02*
X73054819Y-98790476D01*
X73054819Y-98790476D02*
X73435771Y-99123809D01*
X73435771Y-99123809D02*
X73435771Y-98980952D01*
X73435771Y-98980952D02*
X73483390Y-98885714D01*
X73483390Y-98885714D02*
X73531009Y-98838095D01*
X73531009Y-98838095D02*
X73626247Y-98790476D01*
X73626247Y-98790476D02*
X73864342Y-98790476D01*
X73864342Y-98790476D02*
X73959580Y-98838095D01*
X73959580Y-98838095D02*
X74007200Y-98885714D01*
X74007200Y-98885714D02*
X74054819Y-98980952D01*
X74054819Y-98980952D02*
X74054819Y-99266666D01*
X74054819Y-99266666D02*
X74007200Y-99361904D01*
X74007200Y-99361904D02*
X73959580Y-99409523D01*
X73388152Y-97933333D02*
X74054819Y-97933333D01*
X73007200Y-98171428D02*
X73721485Y-98409523D01*
X73721485Y-98409523D02*
X73721485Y-97790476D01*
X76013479Y-80429818D02*
X76013479Y-81239341D01*
X76013479Y-81239341D02*
X76061098Y-81334579D01*
X76061098Y-81334579D02*
X76108717Y-81382199D01*
X76108717Y-81382199D02*
X76203955Y-81429818D01*
X76203955Y-81429818D02*
X76394431Y-81429818D01*
X76394431Y-81429818D02*
X76489669Y-81382199D01*
X76489669Y-81382199D02*
X76537288Y-81334579D01*
X76537288Y-81334579D02*
X76584907Y-81239341D01*
X76584907Y-81239341D02*
X76584907Y-80429818D01*
X77489669Y-80429818D02*
X77299193Y-80429818D01*
X77299193Y-80429818D02*
X77203955Y-80477437D01*
X77203955Y-80477437D02*
X77156336Y-80525056D01*
X77156336Y-80525056D02*
X77061098Y-80667913D01*
X77061098Y-80667913D02*
X77013479Y-80858389D01*
X77013479Y-80858389D02*
X77013479Y-81239341D01*
X77013479Y-81239341D02*
X77061098Y-81334579D01*
X77061098Y-81334579D02*
X77108717Y-81382199D01*
X77108717Y-81382199D02*
X77203955Y-81429818D01*
X77203955Y-81429818D02*
X77394431Y-81429818D01*
X77394431Y-81429818D02*
X77489669Y-81382199D01*
X77489669Y-81382199D02*
X77537288Y-81334579D01*
X77537288Y-81334579D02*
X77584907Y-81239341D01*
X77584907Y-81239341D02*
X77584907Y-81001246D01*
X77584907Y-81001246D02*
X77537288Y-80906008D01*
X77537288Y-80906008D02*
X77489669Y-80858389D01*
X77489669Y-80858389D02*
X77394431Y-80810770D01*
X77394431Y-80810770D02*
X77203955Y-80810770D01*
X77203955Y-80810770D02*
X77108717Y-80858389D01*
X77108717Y-80858389D02*
X77061098Y-80906008D01*
X77061098Y-80906008D02*
X77013479Y-81001246D01*
X120154819Y-87942857D02*
X119678628Y-88276190D01*
X120154819Y-88514285D02*
X119154819Y-88514285D01*
X119154819Y-88514285D02*
X119154819Y-88133333D01*
X119154819Y-88133333D02*
X119202438Y-88038095D01*
X119202438Y-88038095D02*
X119250057Y-87990476D01*
X119250057Y-87990476D02*
X119345295Y-87942857D01*
X119345295Y-87942857D02*
X119488152Y-87942857D01*
X119488152Y-87942857D02*
X119583390Y-87990476D01*
X119583390Y-87990476D02*
X119631009Y-88038095D01*
X119631009Y-88038095D02*
X119678628Y-88133333D01*
X119678628Y-88133333D02*
X119678628Y-88514285D01*
X120154819Y-86990476D02*
X120154819Y-87561904D01*
X120154819Y-87276190D02*
X119154819Y-87276190D01*
X119154819Y-87276190D02*
X119297676Y-87371428D01*
X119297676Y-87371428D02*
X119392914Y-87466666D01*
X119392914Y-87466666D02*
X119440533Y-87561904D01*
X119154819Y-86371428D02*
X119154819Y-86276190D01*
X119154819Y-86276190D02*
X119202438Y-86180952D01*
X119202438Y-86180952D02*
X119250057Y-86133333D01*
X119250057Y-86133333D02*
X119345295Y-86085714D01*
X119345295Y-86085714D02*
X119535771Y-86038095D01*
X119535771Y-86038095D02*
X119773866Y-86038095D01*
X119773866Y-86038095D02*
X119964342Y-86085714D01*
X119964342Y-86085714D02*
X120059580Y-86133333D01*
X120059580Y-86133333D02*
X120107200Y-86180952D01*
X120107200Y-86180952D02*
X120154819Y-86276190D01*
X120154819Y-86276190D02*
X120154819Y-86371428D01*
X120154819Y-86371428D02*
X120107200Y-86466666D01*
X120107200Y-86466666D02*
X120059580Y-86514285D01*
X120059580Y-86514285D02*
X119964342Y-86561904D01*
X119964342Y-86561904D02*
X119773866Y-86609523D01*
X119773866Y-86609523D02*
X119535771Y-86609523D01*
X119535771Y-86609523D02*
X119345295Y-86561904D01*
X119345295Y-86561904D02*
X119250057Y-86514285D01*
X119250057Y-86514285D02*
X119202438Y-86466666D01*
X119202438Y-86466666D02*
X119154819Y-86371428D01*
X107600699Y-120444470D02*
X107799579Y-119898288D01*
X107272941Y-119976383D02*
X108092093Y-119402807D01*
X108092093Y-119402807D02*
X108310598Y-119714865D01*
X108310598Y-119714865D02*
X108326217Y-119820192D01*
X108326217Y-119820192D02*
X108314523Y-119886513D01*
X108314523Y-119886513D02*
X108263822Y-119980146D01*
X108263822Y-119980146D02*
X108146800Y-120062086D01*
X108146800Y-120062086D02*
X108041473Y-120077705D01*
X108041473Y-120077705D02*
X107975152Y-120066011D01*
X107975152Y-120066011D02*
X107881519Y-120015310D01*
X107881519Y-120015310D02*
X107663013Y-119703252D01*
X108938801Y-120612031D02*
X108665669Y-120221959D01*
X108665669Y-120221959D02*
X108248284Y-120456083D01*
X108248284Y-120456083D02*
X108314604Y-120467777D01*
X108314604Y-120467777D02*
X108408238Y-120518479D01*
X108408238Y-120518479D02*
X108544804Y-120713515D01*
X108544804Y-120713515D02*
X108560423Y-120818843D01*
X108560423Y-120818843D02*
X108548729Y-120885163D01*
X108548729Y-120885163D02*
X108498027Y-120978797D01*
X108498027Y-120978797D02*
X108302991Y-121115362D01*
X108302991Y-121115362D02*
X108197663Y-121130981D01*
X108197663Y-121130981D02*
X108131343Y-121119287D01*
X108131343Y-121119287D02*
X108037709Y-121068586D01*
X108037709Y-121068586D02*
X107901144Y-120873550D01*
X107901144Y-120873550D02*
X107885525Y-120768222D01*
X107885525Y-120768222D02*
X107897219Y-120701902D01*
X108420094Y-121614687D02*
X108529346Y-121770716D01*
X108529346Y-121770716D02*
X108622980Y-121821418D01*
X108622980Y-121821418D02*
X108689300Y-121833112D01*
X108689300Y-121833112D02*
X108860948Y-121829187D01*
X108860948Y-121829187D02*
X109044291Y-121758941D01*
X109044291Y-121758941D02*
X109356348Y-121540436D01*
X109356348Y-121540436D02*
X109407050Y-121446803D01*
X109407050Y-121446803D02*
X109418744Y-121380482D01*
X109418744Y-121380482D02*
X109403125Y-121275154D01*
X109403125Y-121275154D02*
X109293872Y-121119125D01*
X109293872Y-121119125D02*
X109200239Y-121068424D01*
X109200239Y-121068424D02*
X109133918Y-121056730D01*
X109133918Y-121056730D02*
X109028591Y-121072349D01*
X109028591Y-121072349D02*
X108833554Y-121208915D01*
X108833554Y-121208915D02*
X108782853Y-121302549D01*
X108782853Y-121302549D02*
X108771159Y-121368869D01*
X108771159Y-121368869D02*
X108786778Y-121474197D01*
X108786778Y-121474197D02*
X108896031Y-121630226D01*
X108896031Y-121630226D02*
X108989664Y-121680927D01*
X108989664Y-121680927D02*
X109055985Y-121692621D01*
X109055985Y-121692621D02*
X109161312Y-121677002D01*
X121857142Y-111054819D02*
X121523809Y-110578628D01*
X121285714Y-111054819D02*
X121285714Y-110054819D01*
X121285714Y-110054819D02*
X121666666Y-110054819D01*
X121666666Y-110054819D02*
X121761904Y-110102438D01*
X121761904Y-110102438D02*
X121809523Y-110150057D01*
X121809523Y-110150057D02*
X121857142Y-110245295D01*
X121857142Y-110245295D02*
X121857142Y-110388152D01*
X121857142Y-110388152D02*
X121809523Y-110483390D01*
X121809523Y-110483390D02*
X121761904Y-110531009D01*
X121761904Y-110531009D02*
X121666666Y-110578628D01*
X121666666Y-110578628D02*
X121285714Y-110578628D01*
X122190476Y-110054819D02*
X122809523Y-110054819D01*
X122809523Y-110054819D02*
X122476190Y-110435771D01*
X122476190Y-110435771D02*
X122619047Y-110435771D01*
X122619047Y-110435771D02*
X122714285Y-110483390D01*
X122714285Y-110483390D02*
X122761904Y-110531009D01*
X122761904Y-110531009D02*
X122809523Y-110626247D01*
X122809523Y-110626247D02*
X122809523Y-110864342D01*
X122809523Y-110864342D02*
X122761904Y-110959580D01*
X122761904Y-110959580D02*
X122714285Y-111007200D01*
X122714285Y-111007200D02*
X122619047Y-111054819D01*
X122619047Y-111054819D02*
X122333333Y-111054819D01*
X122333333Y-111054819D02*
X122238095Y-111007200D01*
X122238095Y-111007200D02*
X122190476Y-110959580D01*
X123428571Y-110054819D02*
X123523809Y-110054819D01*
X123523809Y-110054819D02*
X123619047Y-110102438D01*
X123619047Y-110102438D02*
X123666666Y-110150057D01*
X123666666Y-110150057D02*
X123714285Y-110245295D01*
X123714285Y-110245295D02*
X123761904Y-110435771D01*
X123761904Y-110435771D02*
X123761904Y-110673866D01*
X123761904Y-110673866D02*
X123714285Y-110864342D01*
X123714285Y-110864342D02*
X123666666Y-110959580D01*
X123666666Y-110959580D02*
X123619047Y-111007200D01*
X123619047Y-111007200D02*
X123523809Y-111054819D01*
X123523809Y-111054819D02*
X123428571Y-111054819D01*
X123428571Y-111054819D02*
X123333333Y-111007200D01*
X123333333Y-111007200D02*
X123285714Y-110959580D01*
X123285714Y-110959580D02*
X123238095Y-110864342D01*
X123238095Y-110864342D02*
X123190476Y-110673866D01*
X123190476Y-110673866D02*
X123190476Y-110435771D01*
X123190476Y-110435771D02*
X123238095Y-110245295D01*
X123238095Y-110245295D02*
X123285714Y-110150057D01*
X123285714Y-110150057D02*
X123333333Y-110102438D01*
X123333333Y-110102438D02*
X123428571Y-110054819D01*
X104454819Y-131142857D02*
X103978628Y-131476190D01*
X104454819Y-131714285D02*
X103454819Y-131714285D01*
X103454819Y-131714285D02*
X103454819Y-131333333D01*
X103454819Y-131333333D02*
X103502438Y-131238095D01*
X103502438Y-131238095D02*
X103550057Y-131190476D01*
X103550057Y-131190476D02*
X103645295Y-131142857D01*
X103645295Y-131142857D02*
X103788152Y-131142857D01*
X103788152Y-131142857D02*
X103883390Y-131190476D01*
X103883390Y-131190476D02*
X103931009Y-131238095D01*
X103931009Y-131238095D02*
X103978628Y-131333333D01*
X103978628Y-131333333D02*
X103978628Y-131714285D01*
X103454819Y-130238095D02*
X103454819Y-130714285D01*
X103454819Y-130714285D02*
X103931009Y-130761904D01*
X103931009Y-130761904D02*
X103883390Y-130714285D01*
X103883390Y-130714285D02*
X103835771Y-130619047D01*
X103835771Y-130619047D02*
X103835771Y-130380952D01*
X103835771Y-130380952D02*
X103883390Y-130285714D01*
X103883390Y-130285714D02*
X103931009Y-130238095D01*
X103931009Y-130238095D02*
X104026247Y-130190476D01*
X104026247Y-130190476D02*
X104264342Y-130190476D01*
X104264342Y-130190476D02*
X104359580Y-130238095D01*
X104359580Y-130238095D02*
X104407200Y-130285714D01*
X104407200Y-130285714D02*
X104454819Y-130380952D01*
X104454819Y-130380952D02*
X104454819Y-130619047D01*
X104454819Y-130619047D02*
X104407200Y-130714285D01*
X104407200Y-130714285D02*
X104359580Y-130761904D01*
X103454819Y-129857142D02*
X103454819Y-129238095D01*
X103454819Y-129238095D02*
X103835771Y-129571428D01*
X103835771Y-129571428D02*
X103835771Y-129428571D01*
X103835771Y-129428571D02*
X103883390Y-129333333D01*
X103883390Y-129333333D02*
X103931009Y-129285714D01*
X103931009Y-129285714D02*
X104026247Y-129238095D01*
X104026247Y-129238095D02*
X104264342Y-129238095D01*
X104264342Y-129238095D02*
X104359580Y-129285714D01*
X104359580Y-129285714D02*
X104407200Y-129333333D01*
X104407200Y-129333333D02*
X104454819Y-129428571D01*
X104454819Y-129428571D02*
X104454819Y-129714285D01*
X104454819Y-129714285D02*
X104407200Y-129809523D01*
X104407200Y-129809523D02*
X104359580Y-129857142D01*
X107838095Y-80256819D02*
X108409523Y-80256819D01*
X108123809Y-81256819D02*
X108123809Y-80256819D01*
X108742857Y-81256819D02*
X108742857Y-80256819D01*
X108742857Y-80256819D02*
X109123809Y-80256819D01*
X109123809Y-80256819D02*
X109219047Y-80304438D01*
X109219047Y-80304438D02*
X109266666Y-80352057D01*
X109266666Y-80352057D02*
X109314285Y-80447295D01*
X109314285Y-80447295D02*
X109314285Y-80590152D01*
X109314285Y-80590152D02*
X109266666Y-80685390D01*
X109266666Y-80685390D02*
X109219047Y-80733009D01*
X109219047Y-80733009D02*
X109123809Y-80780628D01*
X109123809Y-80780628D02*
X108742857Y-80780628D01*
X109885714Y-80685390D02*
X109790476Y-80637771D01*
X109790476Y-80637771D02*
X109742857Y-80590152D01*
X109742857Y-80590152D02*
X109695238Y-80494914D01*
X109695238Y-80494914D02*
X109695238Y-80447295D01*
X109695238Y-80447295D02*
X109742857Y-80352057D01*
X109742857Y-80352057D02*
X109790476Y-80304438D01*
X109790476Y-80304438D02*
X109885714Y-80256819D01*
X109885714Y-80256819D02*
X110076190Y-80256819D01*
X110076190Y-80256819D02*
X110171428Y-80304438D01*
X110171428Y-80304438D02*
X110219047Y-80352057D01*
X110219047Y-80352057D02*
X110266666Y-80447295D01*
X110266666Y-80447295D02*
X110266666Y-80494914D01*
X110266666Y-80494914D02*
X110219047Y-80590152D01*
X110219047Y-80590152D02*
X110171428Y-80637771D01*
X110171428Y-80637771D02*
X110076190Y-80685390D01*
X110076190Y-80685390D02*
X109885714Y-80685390D01*
X109885714Y-80685390D02*
X109790476Y-80733009D01*
X109790476Y-80733009D02*
X109742857Y-80780628D01*
X109742857Y-80780628D02*
X109695238Y-80875866D01*
X109695238Y-80875866D02*
X109695238Y-81066342D01*
X109695238Y-81066342D02*
X109742857Y-81161580D01*
X109742857Y-81161580D02*
X109790476Y-81209200D01*
X109790476Y-81209200D02*
X109885714Y-81256819D01*
X109885714Y-81256819D02*
X110076190Y-81256819D01*
X110076190Y-81256819D02*
X110171428Y-81209200D01*
X110171428Y-81209200D02*
X110219047Y-81161580D01*
X110219047Y-81161580D02*
X110266666Y-81066342D01*
X110266666Y-81066342D02*
X110266666Y-80875866D01*
X110266666Y-80875866D02*
X110219047Y-80780628D01*
X110219047Y-80780628D02*
X110171428Y-80733009D01*
X110171428Y-80733009D02*
X110076190Y-80685390D01*
X106861905Y-75104819D02*
X106861905Y-74104819D01*
X106861905Y-74104819D02*
X107100000Y-74104819D01*
X107100000Y-74104819D02*
X107242857Y-74152438D01*
X107242857Y-74152438D02*
X107338095Y-74247676D01*
X107338095Y-74247676D02*
X107385714Y-74342914D01*
X107385714Y-74342914D02*
X107433333Y-74533390D01*
X107433333Y-74533390D02*
X107433333Y-74676247D01*
X107433333Y-74676247D02*
X107385714Y-74866723D01*
X107385714Y-74866723D02*
X107338095Y-74961961D01*
X107338095Y-74961961D02*
X107242857Y-75057200D01*
X107242857Y-75057200D02*
X107100000Y-75104819D01*
X107100000Y-75104819D02*
X106861905Y-75104819D01*
X108290476Y-74104819D02*
X108100000Y-74104819D01*
X108100000Y-74104819D02*
X108004762Y-74152438D01*
X108004762Y-74152438D02*
X107957143Y-74200057D01*
X107957143Y-74200057D02*
X107861905Y-74342914D01*
X107861905Y-74342914D02*
X107814286Y-74533390D01*
X107814286Y-74533390D02*
X107814286Y-74914342D01*
X107814286Y-74914342D02*
X107861905Y-75009580D01*
X107861905Y-75009580D02*
X107909524Y-75057200D01*
X107909524Y-75057200D02*
X108004762Y-75104819D01*
X108004762Y-75104819D02*
X108195238Y-75104819D01*
X108195238Y-75104819D02*
X108290476Y-75057200D01*
X108290476Y-75057200D02*
X108338095Y-75009580D01*
X108338095Y-75009580D02*
X108385714Y-74914342D01*
X108385714Y-74914342D02*
X108385714Y-74676247D01*
X108385714Y-74676247D02*
X108338095Y-74581009D01*
X108338095Y-74581009D02*
X108290476Y-74533390D01*
X108290476Y-74533390D02*
X108195238Y-74485771D01*
X108195238Y-74485771D02*
X108004762Y-74485771D01*
X108004762Y-74485771D02*
X107909524Y-74533390D01*
X107909524Y-74533390D02*
X107861905Y-74581009D01*
X107861905Y-74581009D02*
X107814286Y-74676247D01*
X69761905Y-108454819D02*
X70380952Y-108454819D01*
X70380952Y-108454819D02*
X70047619Y-108835771D01*
X70047619Y-108835771D02*
X70190476Y-108835771D01*
X70190476Y-108835771D02*
X70285714Y-108883390D01*
X70285714Y-108883390D02*
X70333333Y-108931009D01*
X70333333Y-108931009D02*
X70380952Y-109026247D01*
X70380952Y-109026247D02*
X70380952Y-109264342D01*
X70380952Y-109264342D02*
X70333333Y-109359580D01*
X70333333Y-109359580D02*
X70285714Y-109407200D01*
X70285714Y-109407200D02*
X70190476Y-109454819D01*
X70190476Y-109454819D02*
X69904762Y-109454819D01*
X69904762Y-109454819D02*
X69809524Y-109407200D01*
X69809524Y-109407200D02*
X69761905Y-109359580D01*
X70666667Y-108454819D02*
X71000000Y-109454819D01*
X71000000Y-109454819D02*
X71333333Y-108454819D01*
X71571429Y-108454819D02*
X72190476Y-108454819D01*
X72190476Y-108454819D02*
X71857143Y-108835771D01*
X71857143Y-108835771D02*
X72000000Y-108835771D01*
X72000000Y-108835771D02*
X72095238Y-108883390D01*
X72095238Y-108883390D02*
X72142857Y-108931009D01*
X72142857Y-108931009D02*
X72190476Y-109026247D01*
X72190476Y-109026247D02*
X72190476Y-109264342D01*
X72190476Y-109264342D02*
X72142857Y-109359580D01*
X72142857Y-109359580D02*
X72095238Y-109407200D01*
X72095238Y-109407200D02*
X72000000Y-109454819D01*
X72000000Y-109454819D02*
X71714286Y-109454819D01*
X71714286Y-109454819D02*
X71619048Y-109407200D01*
X71619048Y-109407200D02*
X71571429Y-109359580D01*
X93857142Y-128959580D02*
X93809523Y-129007200D01*
X93809523Y-129007200D02*
X93666666Y-129054819D01*
X93666666Y-129054819D02*
X93571428Y-129054819D01*
X93571428Y-129054819D02*
X93428571Y-129007200D01*
X93428571Y-129007200D02*
X93333333Y-128911961D01*
X93333333Y-128911961D02*
X93285714Y-128816723D01*
X93285714Y-128816723D02*
X93238095Y-128626247D01*
X93238095Y-128626247D02*
X93238095Y-128483390D01*
X93238095Y-128483390D02*
X93285714Y-128292914D01*
X93285714Y-128292914D02*
X93333333Y-128197676D01*
X93333333Y-128197676D02*
X93428571Y-128102438D01*
X93428571Y-128102438D02*
X93571428Y-128054819D01*
X93571428Y-128054819D02*
X93666666Y-128054819D01*
X93666666Y-128054819D02*
X93809523Y-128102438D01*
X93809523Y-128102438D02*
X93857142Y-128150057D01*
X94190476Y-128054819D02*
X94809523Y-128054819D01*
X94809523Y-128054819D02*
X94476190Y-128435771D01*
X94476190Y-128435771D02*
X94619047Y-128435771D01*
X94619047Y-128435771D02*
X94714285Y-128483390D01*
X94714285Y-128483390D02*
X94761904Y-128531009D01*
X94761904Y-128531009D02*
X94809523Y-128626247D01*
X94809523Y-128626247D02*
X94809523Y-128864342D01*
X94809523Y-128864342D02*
X94761904Y-128959580D01*
X94761904Y-128959580D02*
X94714285Y-129007200D01*
X94714285Y-129007200D02*
X94619047Y-129054819D01*
X94619047Y-129054819D02*
X94333333Y-129054819D01*
X94333333Y-129054819D02*
X94238095Y-129007200D01*
X94238095Y-129007200D02*
X94190476Y-128959580D01*
X95428571Y-128054819D02*
X95523809Y-128054819D01*
X95523809Y-128054819D02*
X95619047Y-128102438D01*
X95619047Y-128102438D02*
X95666666Y-128150057D01*
X95666666Y-128150057D02*
X95714285Y-128245295D01*
X95714285Y-128245295D02*
X95761904Y-128435771D01*
X95761904Y-128435771D02*
X95761904Y-128673866D01*
X95761904Y-128673866D02*
X95714285Y-128864342D01*
X95714285Y-128864342D02*
X95666666Y-128959580D01*
X95666666Y-128959580D02*
X95619047Y-129007200D01*
X95619047Y-129007200D02*
X95523809Y-129054819D01*
X95523809Y-129054819D02*
X95428571Y-129054819D01*
X95428571Y-129054819D02*
X95333333Y-129007200D01*
X95333333Y-129007200D02*
X95285714Y-128959580D01*
X95285714Y-128959580D02*
X95238095Y-128864342D01*
X95238095Y-128864342D02*
X95190476Y-128673866D01*
X95190476Y-128673866D02*
X95190476Y-128435771D01*
X95190476Y-128435771D02*
X95238095Y-128245295D01*
X95238095Y-128245295D02*
X95285714Y-128150057D01*
X95285714Y-128150057D02*
X95333333Y-128102438D01*
X95333333Y-128102438D02*
X95428571Y-128054819D01*
X85638095Y-120506819D02*
X86209523Y-120506819D01*
X85923809Y-121506819D02*
X85923809Y-120506819D01*
X86542857Y-121506819D02*
X86542857Y-120506819D01*
X86542857Y-120506819D02*
X86923809Y-120506819D01*
X86923809Y-120506819D02*
X87019047Y-120554438D01*
X87019047Y-120554438D02*
X87066666Y-120602057D01*
X87066666Y-120602057D02*
X87114285Y-120697295D01*
X87114285Y-120697295D02*
X87114285Y-120840152D01*
X87114285Y-120840152D02*
X87066666Y-120935390D01*
X87066666Y-120935390D02*
X87019047Y-120983009D01*
X87019047Y-120983009D02*
X86923809Y-121030628D01*
X86923809Y-121030628D02*
X86542857Y-121030628D01*
X87971428Y-120506819D02*
X87780952Y-120506819D01*
X87780952Y-120506819D02*
X87685714Y-120554438D01*
X87685714Y-120554438D02*
X87638095Y-120602057D01*
X87638095Y-120602057D02*
X87542857Y-120744914D01*
X87542857Y-120744914D02*
X87495238Y-120935390D01*
X87495238Y-120935390D02*
X87495238Y-121316342D01*
X87495238Y-121316342D02*
X87542857Y-121411580D01*
X87542857Y-121411580D02*
X87590476Y-121459200D01*
X87590476Y-121459200D02*
X87685714Y-121506819D01*
X87685714Y-121506819D02*
X87876190Y-121506819D01*
X87876190Y-121506819D02*
X87971428Y-121459200D01*
X87971428Y-121459200D02*
X88019047Y-121411580D01*
X88019047Y-121411580D02*
X88066666Y-121316342D01*
X88066666Y-121316342D02*
X88066666Y-121078247D01*
X88066666Y-121078247D02*
X88019047Y-120983009D01*
X88019047Y-120983009D02*
X87971428Y-120935390D01*
X87971428Y-120935390D02*
X87876190Y-120887771D01*
X87876190Y-120887771D02*
X87685714Y-120887771D01*
X87685714Y-120887771D02*
X87590476Y-120935390D01*
X87590476Y-120935390D02*
X87542857Y-120983009D01*
X87542857Y-120983009D02*
X87495238Y-121078247D01*
X119741358Y-130298326D02*
X119885692Y-130255394D01*
X119885692Y-130255394D02*
X120080729Y-130118828D01*
X120080729Y-130118828D02*
X120131430Y-130025195D01*
X120131430Y-130025195D02*
X120143124Y-129958874D01*
X120143124Y-129958874D02*
X120127505Y-129853547D01*
X120127505Y-129853547D02*
X120072879Y-129775532D01*
X120072879Y-129775532D02*
X119979245Y-129724831D01*
X119979245Y-129724831D02*
X119912925Y-129713137D01*
X119912925Y-129713137D02*
X119807597Y-129728756D01*
X119807597Y-129728756D02*
X119624255Y-129799001D01*
X119624255Y-129799001D02*
X119518927Y-129814621D01*
X119518927Y-129814621D02*
X119452607Y-129802926D01*
X119452607Y-129802926D02*
X119358973Y-129752225D01*
X119358973Y-129752225D02*
X119304347Y-129674211D01*
X119304347Y-129674211D02*
X119288728Y-129568883D01*
X119288728Y-129568883D02*
X119300422Y-129502563D01*
X119300422Y-129502563D02*
X119351123Y-129408929D01*
X119351123Y-129408929D02*
X119546159Y-129272363D01*
X119546159Y-129272363D02*
X119690494Y-129229431D01*
X119936232Y-128999232D02*
X120704844Y-129681818D01*
X120704844Y-129681818D02*
X120451176Y-128987457D01*
X120451176Y-128987457D02*
X121016902Y-129463312D01*
X121016902Y-129463312D02*
X120638362Y-128507595D01*
X120966039Y-128394417D02*
X120977733Y-128328097D01*
X120977733Y-128328097D02*
X121028434Y-128234463D01*
X121028434Y-128234463D02*
X121223471Y-128097897D01*
X121223471Y-128097897D02*
X121328798Y-128082278D01*
X121328798Y-128082278D02*
X121395119Y-128093972D01*
X121395119Y-128093972D02*
X121488752Y-128144674D01*
X121488752Y-128144674D02*
X121543379Y-128222688D01*
X121543379Y-128222688D02*
X121586311Y-128367023D01*
X121586311Y-128367023D02*
X121445982Y-129162868D01*
X121445982Y-129162868D02*
X121953076Y-128807797D01*
X66957142Y-98609579D02*
X66909523Y-98657199D01*
X66909523Y-98657199D02*
X66766666Y-98704818D01*
X66766666Y-98704818D02*
X66671428Y-98704818D01*
X66671428Y-98704818D02*
X66528571Y-98657199D01*
X66528571Y-98657199D02*
X66433333Y-98561960D01*
X66433333Y-98561960D02*
X66385714Y-98466722D01*
X66385714Y-98466722D02*
X66338095Y-98276246D01*
X66338095Y-98276246D02*
X66338095Y-98133389D01*
X66338095Y-98133389D02*
X66385714Y-97942913D01*
X66385714Y-97942913D02*
X66433333Y-97847675D01*
X66433333Y-97847675D02*
X66528571Y-97752437D01*
X66528571Y-97752437D02*
X66671428Y-97704818D01*
X66671428Y-97704818D02*
X66766666Y-97704818D01*
X66766666Y-97704818D02*
X66909523Y-97752437D01*
X66909523Y-97752437D02*
X66957142Y-97800056D01*
X67909523Y-98704818D02*
X67338095Y-98704818D01*
X67623809Y-98704818D02*
X67623809Y-97704818D01*
X67623809Y-97704818D02*
X67528571Y-97847675D01*
X67528571Y-97847675D02*
X67433333Y-97942913D01*
X67433333Y-97942913D02*
X67338095Y-97990532D01*
X68480952Y-98133389D02*
X68385714Y-98085770D01*
X68385714Y-98085770D02*
X68338095Y-98038151D01*
X68338095Y-98038151D02*
X68290476Y-97942913D01*
X68290476Y-97942913D02*
X68290476Y-97895294D01*
X68290476Y-97895294D02*
X68338095Y-97800056D01*
X68338095Y-97800056D02*
X68385714Y-97752437D01*
X68385714Y-97752437D02*
X68480952Y-97704818D01*
X68480952Y-97704818D02*
X68671428Y-97704818D01*
X68671428Y-97704818D02*
X68766666Y-97752437D01*
X68766666Y-97752437D02*
X68814285Y-97800056D01*
X68814285Y-97800056D02*
X68861904Y-97895294D01*
X68861904Y-97895294D02*
X68861904Y-97942913D01*
X68861904Y-97942913D02*
X68814285Y-98038151D01*
X68814285Y-98038151D02*
X68766666Y-98085770D01*
X68766666Y-98085770D02*
X68671428Y-98133389D01*
X68671428Y-98133389D02*
X68480952Y-98133389D01*
X68480952Y-98133389D02*
X68385714Y-98181008D01*
X68385714Y-98181008D02*
X68338095Y-98228627D01*
X68338095Y-98228627D02*
X68290476Y-98323865D01*
X68290476Y-98323865D02*
X68290476Y-98514341D01*
X68290476Y-98514341D02*
X68338095Y-98609579D01*
X68338095Y-98609579D02*
X68385714Y-98657199D01*
X68385714Y-98657199D02*
X68480952Y-98704818D01*
X68480952Y-98704818D02*
X68671428Y-98704818D01*
X68671428Y-98704818D02*
X68766666Y-98657199D01*
X68766666Y-98657199D02*
X68814285Y-98609579D01*
X68814285Y-98609579D02*
X68861904Y-98514341D01*
X68861904Y-98514341D02*
X68861904Y-98323865D01*
X68861904Y-98323865D02*
X68814285Y-98228627D01*
X68814285Y-98228627D02*
X68766666Y-98181008D01*
X68766666Y-98181008D02*
X68671428Y-98133389D01*
X123854819Y-117942857D02*
X123378628Y-118276190D01*
X123854819Y-118514285D02*
X122854819Y-118514285D01*
X122854819Y-118514285D02*
X122854819Y-118133333D01*
X122854819Y-118133333D02*
X122902438Y-118038095D01*
X122902438Y-118038095D02*
X122950057Y-117990476D01*
X122950057Y-117990476D02*
X123045295Y-117942857D01*
X123045295Y-117942857D02*
X123188152Y-117942857D01*
X123188152Y-117942857D02*
X123283390Y-117990476D01*
X123283390Y-117990476D02*
X123331009Y-118038095D01*
X123331009Y-118038095D02*
X123378628Y-118133333D01*
X123378628Y-118133333D02*
X123378628Y-118514285D01*
X122854819Y-117085714D02*
X122854819Y-117276190D01*
X122854819Y-117276190D02*
X122902438Y-117371428D01*
X122902438Y-117371428D02*
X122950057Y-117419047D01*
X122950057Y-117419047D02*
X123092914Y-117514285D01*
X123092914Y-117514285D02*
X123283390Y-117561904D01*
X123283390Y-117561904D02*
X123664342Y-117561904D01*
X123664342Y-117561904D02*
X123759580Y-117514285D01*
X123759580Y-117514285D02*
X123807200Y-117466666D01*
X123807200Y-117466666D02*
X123854819Y-117371428D01*
X123854819Y-117371428D02*
X123854819Y-117180952D01*
X123854819Y-117180952D02*
X123807200Y-117085714D01*
X123807200Y-117085714D02*
X123759580Y-117038095D01*
X123759580Y-117038095D02*
X123664342Y-116990476D01*
X123664342Y-116990476D02*
X123426247Y-116990476D01*
X123426247Y-116990476D02*
X123331009Y-117038095D01*
X123331009Y-117038095D02*
X123283390Y-117085714D01*
X123283390Y-117085714D02*
X123235771Y-117180952D01*
X123235771Y-117180952D02*
X123235771Y-117371428D01*
X123235771Y-117371428D02*
X123283390Y-117466666D01*
X123283390Y-117466666D02*
X123331009Y-117514285D01*
X123331009Y-117514285D02*
X123426247Y-117561904D01*
X122950057Y-116609523D02*
X122902438Y-116561904D01*
X122902438Y-116561904D02*
X122854819Y-116466666D01*
X122854819Y-116466666D02*
X122854819Y-116228571D01*
X122854819Y-116228571D02*
X122902438Y-116133333D01*
X122902438Y-116133333D02*
X122950057Y-116085714D01*
X122950057Y-116085714D02*
X123045295Y-116038095D01*
X123045295Y-116038095D02*
X123140533Y-116038095D01*
X123140533Y-116038095D02*
X123283390Y-116085714D01*
X123283390Y-116085714D02*
X123854819Y-116657142D01*
X123854819Y-116657142D02*
X123854819Y-116038095D01*
X121357142Y-73654819D02*
X121023809Y-73178628D01*
X120785714Y-73654819D02*
X120785714Y-72654819D01*
X120785714Y-72654819D02*
X121166666Y-72654819D01*
X121166666Y-72654819D02*
X121261904Y-72702438D01*
X121261904Y-72702438D02*
X121309523Y-72750057D01*
X121309523Y-72750057D02*
X121357142Y-72845295D01*
X121357142Y-72845295D02*
X121357142Y-72988152D01*
X121357142Y-72988152D02*
X121309523Y-73083390D01*
X121309523Y-73083390D02*
X121261904Y-73131009D01*
X121261904Y-73131009D02*
X121166666Y-73178628D01*
X121166666Y-73178628D02*
X120785714Y-73178628D01*
X121738095Y-72750057D02*
X121785714Y-72702438D01*
X121785714Y-72702438D02*
X121880952Y-72654819D01*
X121880952Y-72654819D02*
X122119047Y-72654819D01*
X122119047Y-72654819D02*
X122214285Y-72702438D01*
X122214285Y-72702438D02*
X122261904Y-72750057D01*
X122261904Y-72750057D02*
X122309523Y-72845295D01*
X122309523Y-72845295D02*
X122309523Y-72940533D01*
X122309523Y-72940533D02*
X122261904Y-73083390D01*
X122261904Y-73083390D02*
X121690476Y-73654819D01*
X121690476Y-73654819D02*
X122309523Y-73654819D01*
X122928571Y-72654819D02*
X123023809Y-72654819D01*
X123023809Y-72654819D02*
X123119047Y-72702438D01*
X123119047Y-72702438D02*
X123166666Y-72750057D01*
X123166666Y-72750057D02*
X123214285Y-72845295D01*
X123214285Y-72845295D02*
X123261904Y-73035771D01*
X123261904Y-73035771D02*
X123261904Y-73273866D01*
X123261904Y-73273866D02*
X123214285Y-73464342D01*
X123214285Y-73464342D02*
X123166666Y-73559580D01*
X123166666Y-73559580D02*
X123119047Y-73607200D01*
X123119047Y-73607200D02*
X123023809Y-73654819D01*
X123023809Y-73654819D02*
X122928571Y-73654819D01*
X122928571Y-73654819D02*
X122833333Y-73607200D01*
X122833333Y-73607200D02*
X122785714Y-73559580D01*
X122785714Y-73559580D02*
X122738095Y-73464342D01*
X122738095Y-73464342D02*
X122690476Y-73273866D01*
X122690476Y-73273866D02*
X122690476Y-73035771D01*
X122690476Y-73035771D02*
X122738095Y-72845295D01*
X122738095Y-72845295D02*
X122785714Y-72750057D01*
X122785714Y-72750057D02*
X122833333Y-72702438D01*
X122833333Y-72702438D02*
X122928571Y-72654819D01*
X77038095Y-91406819D02*
X77609523Y-91406819D01*
X77323809Y-92406819D02*
X77323809Y-91406819D01*
X77942857Y-92406819D02*
X77942857Y-91406819D01*
X77942857Y-91406819D02*
X78323809Y-91406819D01*
X78323809Y-91406819D02*
X78419047Y-91454438D01*
X78419047Y-91454438D02*
X78466666Y-91502057D01*
X78466666Y-91502057D02*
X78514285Y-91597295D01*
X78514285Y-91597295D02*
X78514285Y-91740152D01*
X78514285Y-91740152D02*
X78466666Y-91835390D01*
X78466666Y-91835390D02*
X78419047Y-91883009D01*
X78419047Y-91883009D02*
X78323809Y-91930628D01*
X78323809Y-91930628D02*
X77942857Y-91930628D01*
X78847619Y-91406819D02*
X79466666Y-91406819D01*
X79466666Y-91406819D02*
X79133333Y-91787771D01*
X79133333Y-91787771D02*
X79276190Y-91787771D01*
X79276190Y-91787771D02*
X79371428Y-91835390D01*
X79371428Y-91835390D02*
X79419047Y-91883009D01*
X79419047Y-91883009D02*
X79466666Y-91978247D01*
X79466666Y-91978247D02*
X79466666Y-92216342D01*
X79466666Y-92216342D02*
X79419047Y-92311580D01*
X79419047Y-92311580D02*
X79371428Y-92359200D01*
X79371428Y-92359200D02*
X79276190Y-92406819D01*
X79276190Y-92406819D02*
X78990476Y-92406819D01*
X78990476Y-92406819D02*
X78895238Y-92359200D01*
X78895238Y-92359200D02*
X78847619Y-92311580D01*
X124730489Y-123233809D02*
X124663145Y-123233809D01*
X124663145Y-123233809D02*
X124528458Y-123166465D01*
X124528458Y-123166465D02*
X124461115Y-123099122D01*
X124461115Y-123099122D02*
X124393771Y-122964435D01*
X124393771Y-122964435D02*
X124393771Y-122829748D01*
X124393771Y-122829748D02*
X124427443Y-122728733D01*
X124427443Y-122728733D02*
X124528458Y-122560374D01*
X124528458Y-122560374D02*
X124629473Y-122459359D01*
X124629473Y-122459359D02*
X124797832Y-122358343D01*
X124797832Y-122358343D02*
X124898847Y-122324672D01*
X124898847Y-122324672D02*
X125033534Y-122324672D01*
X125033534Y-122324672D02*
X125168221Y-122392015D01*
X125168221Y-122392015D02*
X125235565Y-122459359D01*
X125235565Y-122459359D02*
X125302908Y-122594046D01*
X125302908Y-122594046D02*
X125302908Y-122661389D01*
X125605954Y-122829748D02*
X126043687Y-123267481D01*
X126043687Y-123267481D02*
X125538611Y-123301152D01*
X125538611Y-123301152D02*
X125639626Y-123402168D01*
X125639626Y-123402168D02*
X125673298Y-123503183D01*
X125673298Y-123503183D02*
X125673298Y-123570526D01*
X125673298Y-123570526D02*
X125639626Y-123671542D01*
X125639626Y-123671542D02*
X125471267Y-123839900D01*
X125471267Y-123839900D02*
X125370252Y-123873572D01*
X125370252Y-123873572D02*
X125302908Y-123873572D01*
X125302908Y-123873572D02*
X125201893Y-123839900D01*
X125201893Y-123839900D02*
X124999863Y-123637870D01*
X124999863Y-123637870D02*
X124966191Y-123536855D01*
X124966191Y-123536855D02*
X124966191Y-123469511D01*
X99646666Y-68974819D02*
X99646666Y-69689104D01*
X99646666Y-69689104D02*
X99599047Y-69831961D01*
X99599047Y-69831961D02*
X99503809Y-69927200D01*
X99503809Y-69927200D02*
X99360952Y-69974819D01*
X99360952Y-69974819D02*
X99265714Y-69974819D01*
X100551428Y-69308152D02*
X100551428Y-69974819D01*
X100313333Y-68927200D02*
X100075238Y-69641485D01*
X100075238Y-69641485D02*
X100694285Y-69641485D01*
X107259580Y-135142857D02*
X107307200Y-135190476D01*
X107307200Y-135190476D02*
X107354819Y-135333333D01*
X107354819Y-135333333D02*
X107354819Y-135428571D01*
X107354819Y-135428571D02*
X107307200Y-135571428D01*
X107307200Y-135571428D02*
X107211961Y-135666666D01*
X107211961Y-135666666D02*
X107116723Y-135714285D01*
X107116723Y-135714285D02*
X106926247Y-135761904D01*
X106926247Y-135761904D02*
X106783390Y-135761904D01*
X106783390Y-135761904D02*
X106592914Y-135714285D01*
X106592914Y-135714285D02*
X106497676Y-135666666D01*
X106497676Y-135666666D02*
X106402438Y-135571428D01*
X106402438Y-135571428D02*
X106354819Y-135428571D01*
X106354819Y-135428571D02*
X106354819Y-135333333D01*
X106354819Y-135333333D02*
X106402438Y-135190476D01*
X106402438Y-135190476D02*
X106450057Y-135142857D01*
X106450057Y-134761904D02*
X106402438Y-134714285D01*
X106402438Y-134714285D02*
X106354819Y-134619047D01*
X106354819Y-134619047D02*
X106354819Y-134380952D01*
X106354819Y-134380952D02*
X106402438Y-134285714D01*
X106402438Y-134285714D02*
X106450057Y-134238095D01*
X106450057Y-134238095D02*
X106545295Y-134190476D01*
X106545295Y-134190476D02*
X106640533Y-134190476D01*
X106640533Y-134190476D02*
X106783390Y-134238095D01*
X106783390Y-134238095D02*
X107354819Y-134809523D01*
X107354819Y-134809523D02*
X107354819Y-134190476D01*
X107354819Y-133714285D02*
X107354819Y-133523809D01*
X107354819Y-133523809D02*
X107307200Y-133428571D01*
X107307200Y-133428571D02*
X107259580Y-133380952D01*
X107259580Y-133380952D02*
X107116723Y-133285714D01*
X107116723Y-133285714D02*
X106926247Y-133238095D01*
X106926247Y-133238095D02*
X106545295Y-133238095D01*
X106545295Y-133238095D02*
X106450057Y-133285714D01*
X106450057Y-133285714D02*
X106402438Y-133333333D01*
X106402438Y-133333333D02*
X106354819Y-133428571D01*
X106354819Y-133428571D02*
X106354819Y-133619047D01*
X106354819Y-133619047D02*
X106402438Y-133714285D01*
X106402438Y-133714285D02*
X106450057Y-133761904D01*
X106450057Y-133761904D02*
X106545295Y-133809523D01*
X106545295Y-133809523D02*
X106783390Y-133809523D01*
X106783390Y-133809523D02*
X106878628Y-133761904D01*
X106878628Y-133761904D02*
X106926247Y-133714285D01*
X106926247Y-133714285D02*
X106973866Y-133619047D01*
X106973866Y-133619047D02*
X106973866Y-133428571D01*
X106973866Y-133428571D02*
X106926247Y-133333333D01*
X106926247Y-133333333D02*
X106878628Y-133285714D01*
X106878628Y-133285714D02*
X106783390Y-133238095D01*
X121845180Y-99238095D02*
X121035657Y-99238095D01*
X121035657Y-99238095D02*
X120940419Y-99285714D01*
X120940419Y-99285714D02*
X120892800Y-99333333D01*
X120892800Y-99333333D02*
X120845180Y-99428571D01*
X120845180Y-99428571D02*
X120845180Y-99619047D01*
X120845180Y-99619047D02*
X120892800Y-99714285D01*
X120892800Y-99714285D02*
X120940419Y-99761904D01*
X120940419Y-99761904D02*
X121035657Y-99809523D01*
X121035657Y-99809523D02*
X121845180Y-99809523D01*
X120845180Y-100809523D02*
X120845180Y-100238095D01*
X120845180Y-100523809D02*
X121845180Y-100523809D01*
X121845180Y-100523809D02*
X121702323Y-100428571D01*
X121702323Y-100428571D02*
X121607085Y-100333333D01*
X121607085Y-100333333D02*
X121559466Y-100238095D01*
X64324819Y-99942857D02*
X63848628Y-100276190D01*
X64324819Y-100514285D02*
X63324819Y-100514285D01*
X63324819Y-100514285D02*
X63324819Y-100133333D01*
X63324819Y-100133333D02*
X63372438Y-100038095D01*
X63372438Y-100038095D02*
X63420057Y-99990476D01*
X63420057Y-99990476D02*
X63515295Y-99942857D01*
X63515295Y-99942857D02*
X63658152Y-99942857D01*
X63658152Y-99942857D02*
X63753390Y-99990476D01*
X63753390Y-99990476D02*
X63801009Y-100038095D01*
X63801009Y-100038095D02*
X63848628Y-100133333D01*
X63848628Y-100133333D02*
X63848628Y-100514285D01*
X63324819Y-99609523D02*
X63324819Y-98990476D01*
X63324819Y-98990476D02*
X63705771Y-99323809D01*
X63705771Y-99323809D02*
X63705771Y-99180952D01*
X63705771Y-99180952D02*
X63753390Y-99085714D01*
X63753390Y-99085714D02*
X63801009Y-99038095D01*
X63801009Y-99038095D02*
X63896247Y-98990476D01*
X63896247Y-98990476D02*
X64134342Y-98990476D01*
X64134342Y-98990476D02*
X64229580Y-99038095D01*
X64229580Y-99038095D02*
X64277200Y-99085714D01*
X64277200Y-99085714D02*
X64324819Y-99180952D01*
X64324819Y-99180952D02*
X64324819Y-99466666D01*
X64324819Y-99466666D02*
X64277200Y-99561904D01*
X64277200Y-99561904D02*
X64229580Y-99609523D01*
X63324819Y-98085714D02*
X63324819Y-98561904D01*
X63324819Y-98561904D02*
X63801009Y-98609523D01*
X63801009Y-98609523D02*
X63753390Y-98561904D01*
X63753390Y-98561904D02*
X63705771Y-98466666D01*
X63705771Y-98466666D02*
X63705771Y-98228571D01*
X63705771Y-98228571D02*
X63753390Y-98133333D01*
X63753390Y-98133333D02*
X63801009Y-98085714D01*
X63801009Y-98085714D02*
X63896247Y-98038095D01*
X63896247Y-98038095D02*
X64134342Y-98038095D01*
X64134342Y-98038095D02*
X64229580Y-98085714D01*
X64229580Y-98085714D02*
X64277200Y-98133333D01*
X64277200Y-98133333D02*
X64324819Y-98228571D01*
X64324819Y-98228571D02*
X64324819Y-98466666D01*
X64324819Y-98466666D02*
X64277200Y-98561904D01*
X64277200Y-98561904D02*
X64229580Y-98609523D01*
X103804166Y-71181009D02*
X103470833Y-71181009D01*
X103470833Y-71704819D02*
X103470833Y-70704819D01*
X103470833Y-70704819D02*
X103947023Y-70704819D01*
X104661309Y-71181009D02*
X104804166Y-71228628D01*
X104804166Y-71228628D02*
X104851785Y-71276247D01*
X104851785Y-71276247D02*
X104899404Y-71371485D01*
X104899404Y-71371485D02*
X104899404Y-71514342D01*
X104899404Y-71514342D02*
X104851785Y-71609580D01*
X104851785Y-71609580D02*
X104804166Y-71657200D01*
X104804166Y-71657200D02*
X104708928Y-71704819D01*
X104708928Y-71704819D02*
X104327976Y-71704819D01*
X104327976Y-71704819D02*
X104327976Y-70704819D01*
X104327976Y-70704819D02*
X104661309Y-70704819D01*
X104661309Y-70704819D02*
X104756547Y-70752438D01*
X104756547Y-70752438D02*
X104804166Y-70800057D01*
X104804166Y-70800057D02*
X104851785Y-70895295D01*
X104851785Y-70895295D02*
X104851785Y-70990533D01*
X104851785Y-70990533D02*
X104804166Y-71085771D01*
X104804166Y-71085771D02*
X104756547Y-71133390D01*
X104756547Y-71133390D02*
X104661309Y-71181009D01*
X104661309Y-71181009D02*
X104327976Y-71181009D01*
X105851785Y-71704819D02*
X105280357Y-71704819D01*
X105566071Y-71704819D02*
X105566071Y-70704819D01*
X105566071Y-70704819D02*
X105470833Y-70847676D01*
X105470833Y-70847676D02*
X105375595Y-70942914D01*
X105375595Y-70942914D02*
X105280357Y-70990533D01*
X115350595Y-73004819D02*
X115350595Y-73814342D01*
X115350595Y-73814342D02*
X115398214Y-73909580D01*
X115398214Y-73909580D02*
X115445833Y-73957200D01*
X115445833Y-73957200D02*
X115541071Y-74004819D01*
X115541071Y-74004819D02*
X115731547Y-74004819D01*
X115731547Y-74004819D02*
X115826785Y-73957200D01*
X115826785Y-73957200D02*
X115874404Y-73909580D01*
X115874404Y-73909580D02*
X115922023Y-73814342D01*
X115922023Y-73814342D02*
X115922023Y-73004819D01*
X116874404Y-73004819D02*
X116398214Y-73004819D01*
X116398214Y-73004819D02*
X116350595Y-73481009D01*
X116350595Y-73481009D02*
X116398214Y-73433390D01*
X116398214Y-73433390D02*
X116493452Y-73385771D01*
X116493452Y-73385771D02*
X116731547Y-73385771D01*
X116731547Y-73385771D02*
X116826785Y-73433390D01*
X116826785Y-73433390D02*
X116874404Y-73481009D01*
X116874404Y-73481009D02*
X116922023Y-73576247D01*
X116922023Y-73576247D02*
X116922023Y-73814342D01*
X116922023Y-73814342D02*
X116874404Y-73909580D01*
X116874404Y-73909580D02*
X116826785Y-73957200D01*
X116826785Y-73957200D02*
X116731547Y-74004819D01*
X116731547Y-74004819D02*
X116493452Y-74004819D01*
X116493452Y-74004819D02*
X116398214Y-73957200D01*
X116398214Y-73957200D02*
X116350595Y-73909580D01*
X65857142Y-84459580D02*
X65809523Y-84507200D01*
X65809523Y-84507200D02*
X65666666Y-84554819D01*
X65666666Y-84554819D02*
X65571428Y-84554819D01*
X65571428Y-84554819D02*
X65428571Y-84507200D01*
X65428571Y-84507200D02*
X65333333Y-84411961D01*
X65333333Y-84411961D02*
X65285714Y-84316723D01*
X65285714Y-84316723D02*
X65238095Y-84126247D01*
X65238095Y-84126247D02*
X65238095Y-83983390D01*
X65238095Y-83983390D02*
X65285714Y-83792914D01*
X65285714Y-83792914D02*
X65333333Y-83697676D01*
X65333333Y-83697676D02*
X65428571Y-83602438D01*
X65428571Y-83602438D02*
X65571428Y-83554819D01*
X65571428Y-83554819D02*
X65666666Y-83554819D01*
X65666666Y-83554819D02*
X65809523Y-83602438D01*
X65809523Y-83602438D02*
X65857142Y-83650057D01*
X66809523Y-84554819D02*
X66238095Y-84554819D01*
X66523809Y-84554819D02*
X66523809Y-83554819D01*
X66523809Y-83554819D02*
X66428571Y-83697676D01*
X66428571Y-83697676D02*
X66333333Y-83792914D01*
X66333333Y-83792914D02*
X66238095Y-83840533D01*
X67285714Y-84554819D02*
X67476190Y-84554819D01*
X67476190Y-84554819D02*
X67571428Y-84507200D01*
X67571428Y-84507200D02*
X67619047Y-84459580D01*
X67619047Y-84459580D02*
X67714285Y-84316723D01*
X67714285Y-84316723D02*
X67761904Y-84126247D01*
X67761904Y-84126247D02*
X67761904Y-83745295D01*
X67761904Y-83745295D02*
X67714285Y-83650057D01*
X67714285Y-83650057D02*
X67666666Y-83602438D01*
X67666666Y-83602438D02*
X67571428Y-83554819D01*
X67571428Y-83554819D02*
X67380952Y-83554819D01*
X67380952Y-83554819D02*
X67285714Y-83602438D01*
X67285714Y-83602438D02*
X67238095Y-83650057D01*
X67238095Y-83650057D02*
X67190476Y-83745295D01*
X67190476Y-83745295D02*
X67190476Y-83983390D01*
X67190476Y-83983390D02*
X67238095Y-84078628D01*
X67238095Y-84078628D02*
X67285714Y-84126247D01*
X67285714Y-84126247D02*
X67380952Y-84173866D01*
X67380952Y-84173866D02*
X67571428Y-84173866D01*
X67571428Y-84173866D02*
X67666666Y-84126247D01*
X67666666Y-84126247D02*
X67714285Y-84078628D01*
X67714285Y-84078628D02*
X67761904Y-83983390D01*
X90483333Y-120109580D02*
X90435714Y-120157200D01*
X90435714Y-120157200D02*
X90292857Y-120204819D01*
X90292857Y-120204819D02*
X90197619Y-120204819D01*
X90197619Y-120204819D02*
X90054762Y-120157200D01*
X90054762Y-120157200D02*
X89959524Y-120061961D01*
X89959524Y-120061961D02*
X89911905Y-119966723D01*
X89911905Y-119966723D02*
X89864286Y-119776247D01*
X89864286Y-119776247D02*
X89864286Y-119633390D01*
X89864286Y-119633390D02*
X89911905Y-119442914D01*
X89911905Y-119442914D02*
X89959524Y-119347676D01*
X89959524Y-119347676D02*
X90054762Y-119252438D01*
X90054762Y-119252438D02*
X90197619Y-119204819D01*
X90197619Y-119204819D02*
X90292857Y-119204819D01*
X90292857Y-119204819D02*
X90435714Y-119252438D01*
X90435714Y-119252438D02*
X90483333Y-119300057D01*
X91340476Y-119204819D02*
X91150000Y-119204819D01*
X91150000Y-119204819D02*
X91054762Y-119252438D01*
X91054762Y-119252438D02*
X91007143Y-119300057D01*
X91007143Y-119300057D02*
X90911905Y-119442914D01*
X90911905Y-119442914D02*
X90864286Y-119633390D01*
X90864286Y-119633390D02*
X90864286Y-120014342D01*
X90864286Y-120014342D02*
X90911905Y-120109580D01*
X90911905Y-120109580D02*
X90959524Y-120157200D01*
X90959524Y-120157200D02*
X91054762Y-120204819D01*
X91054762Y-120204819D02*
X91245238Y-120204819D01*
X91245238Y-120204819D02*
X91340476Y-120157200D01*
X91340476Y-120157200D02*
X91388095Y-120109580D01*
X91388095Y-120109580D02*
X91435714Y-120014342D01*
X91435714Y-120014342D02*
X91435714Y-119776247D01*
X91435714Y-119776247D02*
X91388095Y-119681009D01*
X91388095Y-119681009D02*
X91340476Y-119633390D01*
X91340476Y-119633390D02*
X91245238Y-119585771D01*
X91245238Y-119585771D02*
X91054762Y-119585771D01*
X91054762Y-119585771D02*
X90959524Y-119633390D01*
X90959524Y-119633390D02*
X90911905Y-119681009D01*
X90911905Y-119681009D02*
X90864286Y-119776247D01*
X107483333Y-67404819D02*
X107150000Y-66928628D01*
X106911905Y-67404819D02*
X106911905Y-66404819D01*
X106911905Y-66404819D02*
X107292857Y-66404819D01*
X107292857Y-66404819D02*
X107388095Y-66452438D01*
X107388095Y-66452438D02*
X107435714Y-66500057D01*
X107435714Y-66500057D02*
X107483333Y-66595295D01*
X107483333Y-66595295D02*
X107483333Y-66738152D01*
X107483333Y-66738152D02*
X107435714Y-66833390D01*
X107435714Y-66833390D02*
X107388095Y-66881009D01*
X107388095Y-66881009D02*
X107292857Y-66928628D01*
X107292857Y-66928628D02*
X106911905Y-66928628D01*
X108054762Y-66833390D02*
X107959524Y-66785771D01*
X107959524Y-66785771D02*
X107911905Y-66738152D01*
X107911905Y-66738152D02*
X107864286Y-66642914D01*
X107864286Y-66642914D02*
X107864286Y-66595295D01*
X107864286Y-66595295D02*
X107911905Y-66500057D01*
X107911905Y-66500057D02*
X107959524Y-66452438D01*
X107959524Y-66452438D02*
X108054762Y-66404819D01*
X108054762Y-66404819D02*
X108245238Y-66404819D01*
X108245238Y-66404819D02*
X108340476Y-66452438D01*
X108340476Y-66452438D02*
X108388095Y-66500057D01*
X108388095Y-66500057D02*
X108435714Y-66595295D01*
X108435714Y-66595295D02*
X108435714Y-66642914D01*
X108435714Y-66642914D02*
X108388095Y-66738152D01*
X108388095Y-66738152D02*
X108340476Y-66785771D01*
X108340476Y-66785771D02*
X108245238Y-66833390D01*
X108245238Y-66833390D02*
X108054762Y-66833390D01*
X108054762Y-66833390D02*
X107959524Y-66881009D01*
X107959524Y-66881009D02*
X107911905Y-66928628D01*
X107911905Y-66928628D02*
X107864286Y-67023866D01*
X107864286Y-67023866D02*
X107864286Y-67214342D01*
X107864286Y-67214342D02*
X107911905Y-67309580D01*
X107911905Y-67309580D02*
X107959524Y-67357200D01*
X107959524Y-67357200D02*
X108054762Y-67404819D01*
X108054762Y-67404819D02*
X108245238Y-67404819D01*
X108245238Y-67404819D02*
X108340476Y-67357200D01*
X108340476Y-67357200D02*
X108388095Y-67309580D01*
X108388095Y-67309580D02*
X108435714Y-67214342D01*
X108435714Y-67214342D02*
X108435714Y-67023866D01*
X108435714Y-67023866D02*
X108388095Y-66928628D01*
X108388095Y-66928628D02*
X108340476Y-66881009D01*
X108340476Y-66881009D02*
X108245238Y-66833390D01*
X90857142Y-131104819D02*
X90523809Y-130628628D01*
X90285714Y-131104819D02*
X90285714Y-130104819D01*
X90285714Y-130104819D02*
X90666666Y-130104819D01*
X90666666Y-130104819D02*
X90761904Y-130152438D01*
X90761904Y-130152438D02*
X90809523Y-130200057D01*
X90809523Y-130200057D02*
X90857142Y-130295295D01*
X90857142Y-130295295D02*
X90857142Y-130438152D01*
X90857142Y-130438152D02*
X90809523Y-130533390D01*
X90809523Y-130533390D02*
X90761904Y-130581009D01*
X90761904Y-130581009D02*
X90666666Y-130628628D01*
X90666666Y-130628628D02*
X90285714Y-130628628D01*
X91190476Y-130104819D02*
X91809523Y-130104819D01*
X91809523Y-130104819D02*
X91476190Y-130485771D01*
X91476190Y-130485771D02*
X91619047Y-130485771D01*
X91619047Y-130485771D02*
X91714285Y-130533390D01*
X91714285Y-130533390D02*
X91761904Y-130581009D01*
X91761904Y-130581009D02*
X91809523Y-130676247D01*
X91809523Y-130676247D02*
X91809523Y-130914342D01*
X91809523Y-130914342D02*
X91761904Y-131009580D01*
X91761904Y-131009580D02*
X91714285Y-131057200D01*
X91714285Y-131057200D02*
X91619047Y-131104819D01*
X91619047Y-131104819D02*
X91333333Y-131104819D01*
X91333333Y-131104819D02*
X91238095Y-131057200D01*
X91238095Y-131057200D02*
X91190476Y-131009580D01*
X92666666Y-130104819D02*
X92476190Y-130104819D01*
X92476190Y-130104819D02*
X92380952Y-130152438D01*
X92380952Y-130152438D02*
X92333333Y-130200057D01*
X92333333Y-130200057D02*
X92238095Y-130342914D01*
X92238095Y-130342914D02*
X92190476Y-130533390D01*
X92190476Y-130533390D02*
X92190476Y-130914342D01*
X92190476Y-130914342D02*
X92238095Y-131009580D01*
X92238095Y-131009580D02*
X92285714Y-131057200D01*
X92285714Y-131057200D02*
X92380952Y-131104819D01*
X92380952Y-131104819D02*
X92571428Y-131104819D01*
X92571428Y-131104819D02*
X92666666Y-131057200D01*
X92666666Y-131057200D02*
X92714285Y-131009580D01*
X92714285Y-131009580D02*
X92761904Y-130914342D01*
X92761904Y-130914342D02*
X92761904Y-130676247D01*
X92761904Y-130676247D02*
X92714285Y-130581009D01*
X92714285Y-130581009D02*
X92666666Y-130533390D01*
X92666666Y-130533390D02*
X92571428Y-130485771D01*
X92571428Y-130485771D02*
X92380952Y-130485771D01*
X92380952Y-130485771D02*
X92285714Y-130533390D01*
X92285714Y-130533390D02*
X92238095Y-130581009D01*
X92238095Y-130581009D02*
X92190476Y-130676247D01*
X109358706Y-120334275D02*
X109557586Y-119788093D01*
X109030948Y-119866188D02*
X109850100Y-119292612D01*
X109850100Y-119292612D02*
X110068605Y-119604670D01*
X110068605Y-119604670D02*
X110084224Y-119709997D01*
X110084224Y-119709997D02*
X110072530Y-119776318D01*
X110072530Y-119776318D02*
X110021829Y-119869951D01*
X110021829Y-119869951D02*
X109904807Y-119951891D01*
X109904807Y-119951891D02*
X109799480Y-119967510D01*
X109799480Y-119967510D02*
X109733159Y-119955816D01*
X109733159Y-119955816D02*
X109639526Y-119905115D01*
X109639526Y-119905115D02*
X109421020Y-119593057D01*
X110669495Y-120462829D02*
X110560242Y-120306800D01*
X110560242Y-120306800D02*
X110466609Y-120256099D01*
X110466609Y-120256099D02*
X110400288Y-120244405D01*
X110400288Y-120244405D02*
X110228640Y-120248330D01*
X110228640Y-120248330D02*
X110045298Y-120318575D01*
X110045298Y-120318575D02*
X109733240Y-120537080D01*
X109733240Y-120537080D02*
X109682539Y-120630714D01*
X109682539Y-120630714D02*
X109670845Y-120697034D01*
X109670845Y-120697034D02*
X109686464Y-120802362D01*
X109686464Y-120802362D02*
X109795716Y-120958391D01*
X109795716Y-120958391D02*
X109889350Y-121009092D01*
X109889350Y-121009092D02*
X109955670Y-121020786D01*
X109955670Y-121020786D02*
X110060998Y-121005167D01*
X110060998Y-121005167D02*
X110256034Y-120868602D01*
X110256034Y-120868602D02*
X110306736Y-120774968D01*
X110306736Y-120774968D02*
X110318430Y-120708648D01*
X110318430Y-120708648D02*
X110302811Y-120603320D01*
X110302811Y-120603320D02*
X110193558Y-120447291D01*
X110193558Y-120447291D02*
X110099924Y-120396590D01*
X110099924Y-120396590D02*
X110033604Y-120384896D01*
X110033604Y-120384896D02*
X109928276Y-120400515D01*
X111079192Y-121047938D02*
X111133819Y-121125952D01*
X111133819Y-121125952D02*
X111149438Y-121231280D01*
X111149438Y-121231280D02*
X111137744Y-121297600D01*
X111137744Y-121297600D02*
X111087042Y-121391234D01*
X111087042Y-121391234D02*
X110958327Y-121539494D01*
X110958327Y-121539494D02*
X110763290Y-121676060D01*
X110763290Y-121676060D02*
X110579948Y-121746305D01*
X110579948Y-121746305D02*
X110474621Y-121761924D01*
X110474621Y-121761924D02*
X110408300Y-121750230D01*
X110408300Y-121750230D02*
X110314667Y-121699529D01*
X110314667Y-121699529D02*
X110260040Y-121621514D01*
X110260040Y-121621514D02*
X110244421Y-121516187D01*
X110244421Y-121516187D02*
X110256115Y-121449866D01*
X110256115Y-121449866D02*
X110306817Y-121356233D01*
X110306817Y-121356233D02*
X110435532Y-121207973D01*
X110435532Y-121207973D02*
X110630569Y-121071407D01*
X110630569Y-121071407D02*
X110813911Y-121001161D01*
X110813911Y-121001161D02*
X110919238Y-120985542D01*
X110919238Y-120985542D02*
X110985559Y-120997236D01*
X110985559Y-120997236D02*
X111079192Y-121047938D01*
X125654819Y-90366666D02*
X125178628Y-90699999D01*
X125654819Y-90938094D02*
X124654819Y-90938094D01*
X124654819Y-90938094D02*
X124654819Y-90557142D01*
X124654819Y-90557142D02*
X124702438Y-90461904D01*
X124702438Y-90461904D02*
X124750057Y-90414285D01*
X124750057Y-90414285D02*
X124845295Y-90366666D01*
X124845295Y-90366666D02*
X124988152Y-90366666D01*
X124988152Y-90366666D02*
X125083390Y-90414285D01*
X125083390Y-90414285D02*
X125131009Y-90461904D01*
X125131009Y-90461904D02*
X125178628Y-90557142D01*
X125178628Y-90557142D02*
X125178628Y-90938094D01*
X124750057Y-89985713D02*
X124702438Y-89938094D01*
X124702438Y-89938094D02*
X124654819Y-89842856D01*
X124654819Y-89842856D02*
X124654819Y-89604761D01*
X124654819Y-89604761D02*
X124702438Y-89509523D01*
X124702438Y-89509523D02*
X124750057Y-89461904D01*
X124750057Y-89461904D02*
X124845295Y-89414285D01*
X124845295Y-89414285D02*
X124940533Y-89414285D01*
X124940533Y-89414285D02*
X125083390Y-89461904D01*
X125083390Y-89461904D02*
X125654819Y-90033332D01*
X125654819Y-90033332D02*
X125654819Y-89414285D01*
X121357142Y-70654819D02*
X121023809Y-70178628D01*
X120785714Y-70654819D02*
X120785714Y-69654819D01*
X120785714Y-69654819D02*
X121166666Y-69654819D01*
X121166666Y-69654819D02*
X121261904Y-69702438D01*
X121261904Y-69702438D02*
X121309523Y-69750057D01*
X121309523Y-69750057D02*
X121357142Y-69845295D01*
X121357142Y-69845295D02*
X121357142Y-69988152D01*
X121357142Y-69988152D02*
X121309523Y-70083390D01*
X121309523Y-70083390D02*
X121261904Y-70131009D01*
X121261904Y-70131009D02*
X121166666Y-70178628D01*
X121166666Y-70178628D02*
X120785714Y-70178628D01*
X121738095Y-69750057D02*
X121785714Y-69702438D01*
X121785714Y-69702438D02*
X121880952Y-69654819D01*
X121880952Y-69654819D02*
X122119047Y-69654819D01*
X122119047Y-69654819D02*
X122214285Y-69702438D01*
X122214285Y-69702438D02*
X122261904Y-69750057D01*
X122261904Y-69750057D02*
X122309523Y-69845295D01*
X122309523Y-69845295D02*
X122309523Y-69940533D01*
X122309523Y-69940533D02*
X122261904Y-70083390D01*
X122261904Y-70083390D02*
X121690476Y-70654819D01*
X121690476Y-70654819D02*
X122309523Y-70654819D01*
X123261904Y-70654819D02*
X122690476Y-70654819D01*
X122976190Y-70654819D02*
X122976190Y-69654819D01*
X122976190Y-69654819D02*
X122880952Y-69797676D01*
X122880952Y-69797676D02*
X122785714Y-69892914D01*
X122785714Y-69892914D02*
X122690476Y-69940533D01*
X70330952Y-114254819D02*
X69759524Y-114254819D01*
X70045238Y-114254819D02*
X70045238Y-113254819D01*
X70045238Y-113254819D02*
X69950000Y-113397676D01*
X69950000Y-113397676D02*
X69854762Y-113492914D01*
X69854762Y-113492914D02*
X69759524Y-113540533D01*
X70711905Y-113350057D02*
X70759524Y-113302438D01*
X70759524Y-113302438D02*
X70854762Y-113254819D01*
X70854762Y-113254819D02*
X71092857Y-113254819D01*
X71092857Y-113254819D02*
X71188095Y-113302438D01*
X71188095Y-113302438D02*
X71235714Y-113350057D01*
X71235714Y-113350057D02*
X71283333Y-113445295D01*
X71283333Y-113445295D02*
X71283333Y-113540533D01*
X71283333Y-113540533D02*
X71235714Y-113683390D01*
X71235714Y-113683390D02*
X70664286Y-114254819D01*
X70664286Y-114254819D02*
X71283333Y-114254819D01*
X71569048Y-113254819D02*
X71902381Y-114254819D01*
X71902381Y-114254819D02*
X72235714Y-113254819D01*
X127258333Y-86954819D02*
X126925000Y-86478628D01*
X126686905Y-86954819D02*
X126686905Y-85954819D01*
X126686905Y-85954819D02*
X127067857Y-85954819D01*
X127067857Y-85954819D02*
X127163095Y-86002438D01*
X127163095Y-86002438D02*
X127210714Y-86050057D01*
X127210714Y-86050057D02*
X127258333Y-86145295D01*
X127258333Y-86145295D02*
X127258333Y-86288152D01*
X127258333Y-86288152D02*
X127210714Y-86383390D01*
X127210714Y-86383390D02*
X127163095Y-86431009D01*
X127163095Y-86431009D02*
X127067857Y-86478628D01*
X127067857Y-86478628D02*
X126686905Y-86478628D01*
X128210714Y-86954819D02*
X127639286Y-86954819D01*
X127925000Y-86954819D02*
X127925000Y-85954819D01*
X127925000Y-85954819D02*
X127829762Y-86097676D01*
X127829762Y-86097676D02*
X127734524Y-86192914D01*
X127734524Y-86192914D02*
X127639286Y-86240533D01*
X96657142Y-130559580D02*
X96609523Y-130607200D01*
X96609523Y-130607200D02*
X96466666Y-130654819D01*
X96466666Y-130654819D02*
X96371428Y-130654819D01*
X96371428Y-130654819D02*
X96228571Y-130607200D01*
X96228571Y-130607200D02*
X96133333Y-130511961D01*
X96133333Y-130511961D02*
X96085714Y-130416723D01*
X96085714Y-130416723D02*
X96038095Y-130226247D01*
X96038095Y-130226247D02*
X96038095Y-130083390D01*
X96038095Y-130083390D02*
X96085714Y-129892914D01*
X96085714Y-129892914D02*
X96133333Y-129797676D01*
X96133333Y-129797676D02*
X96228571Y-129702438D01*
X96228571Y-129702438D02*
X96371428Y-129654819D01*
X96371428Y-129654819D02*
X96466666Y-129654819D01*
X96466666Y-129654819D02*
X96609523Y-129702438D01*
X96609523Y-129702438D02*
X96657142Y-129750057D01*
X97038095Y-129750057D02*
X97085714Y-129702438D01*
X97085714Y-129702438D02*
X97180952Y-129654819D01*
X97180952Y-129654819D02*
X97419047Y-129654819D01*
X97419047Y-129654819D02*
X97514285Y-129702438D01*
X97514285Y-129702438D02*
X97561904Y-129750057D01*
X97561904Y-129750057D02*
X97609523Y-129845295D01*
X97609523Y-129845295D02*
X97609523Y-129940533D01*
X97609523Y-129940533D02*
X97561904Y-130083390D01*
X97561904Y-130083390D02*
X96990476Y-130654819D01*
X96990476Y-130654819D02*
X97609523Y-130654819D01*
X98180952Y-130083390D02*
X98085714Y-130035771D01*
X98085714Y-130035771D02*
X98038095Y-129988152D01*
X98038095Y-129988152D02*
X97990476Y-129892914D01*
X97990476Y-129892914D02*
X97990476Y-129845295D01*
X97990476Y-129845295D02*
X98038095Y-129750057D01*
X98038095Y-129750057D02*
X98085714Y-129702438D01*
X98085714Y-129702438D02*
X98180952Y-129654819D01*
X98180952Y-129654819D02*
X98371428Y-129654819D01*
X98371428Y-129654819D02*
X98466666Y-129702438D01*
X98466666Y-129702438D02*
X98514285Y-129750057D01*
X98514285Y-129750057D02*
X98561904Y-129845295D01*
X98561904Y-129845295D02*
X98561904Y-129892914D01*
X98561904Y-129892914D02*
X98514285Y-129988152D01*
X98514285Y-129988152D02*
X98466666Y-130035771D01*
X98466666Y-130035771D02*
X98371428Y-130083390D01*
X98371428Y-130083390D02*
X98180952Y-130083390D01*
X98180952Y-130083390D02*
X98085714Y-130131009D01*
X98085714Y-130131009D02*
X98038095Y-130178628D01*
X98038095Y-130178628D02*
X97990476Y-130273866D01*
X97990476Y-130273866D02*
X97990476Y-130464342D01*
X97990476Y-130464342D02*
X98038095Y-130559580D01*
X98038095Y-130559580D02*
X98085714Y-130607200D01*
X98085714Y-130607200D02*
X98180952Y-130654819D01*
X98180952Y-130654819D02*
X98371428Y-130654819D01*
X98371428Y-130654819D02*
X98466666Y-130607200D01*
X98466666Y-130607200D02*
X98514285Y-130559580D01*
X98514285Y-130559580D02*
X98561904Y-130464342D01*
X98561904Y-130464342D02*
X98561904Y-130273866D01*
X98561904Y-130273866D02*
X98514285Y-130178628D01*
X98514285Y-130178628D02*
X98466666Y-130131009D01*
X98466666Y-130131009D02*
X98371428Y-130083390D01*
X94738095Y-133454819D02*
X94738095Y-134264342D01*
X94738095Y-134264342D02*
X94785714Y-134359580D01*
X94785714Y-134359580D02*
X94833333Y-134407200D01*
X94833333Y-134407200D02*
X94928571Y-134454819D01*
X94928571Y-134454819D02*
X95119047Y-134454819D01*
X95119047Y-134454819D02*
X95214285Y-134407200D01*
X95214285Y-134407200D02*
X95261904Y-134359580D01*
X95261904Y-134359580D02*
X95309523Y-134264342D01*
X95309523Y-134264342D02*
X95309523Y-133454819D01*
X95833333Y-134454819D02*
X96023809Y-134454819D01*
X96023809Y-134454819D02*
X96119047Y-134407200D01*
X96119047Y-134407200D02*
X96166666Y-134359580D01*
X96166666Y-134359580D02*
X96261904Y-134216723D01*
X96261904Y-134216723D02*
X96309523Y-134026247D01*
X96309523Y-134026247D02*
X96309523Y-133645295D01*
X96309523Y-133645295D02*
X96261904Y-133550057D01*
X96261904Y-133550057D02*
X96214285Y-133502438D01*
X96214285Y-133502438D02*
X96119047Y-133454819D01*
X96119047Y-133454819D02*
X95928571Y-133454819D01*
X95928571Y-133454819D02*
X95833333Y-133502438D01*
X95833333Y-133502438D02*
X95785714Y-133550057D01*
X95785714Y-133550057D02*
X95738095Y-133645295D01*
X95738095Y-133645295D02*
X95738095Y-133883390D01*
X95738095Y-133883390D02*
X95785714Y-133978628D01*
X95785714Y-133978628D02*
X95833333Y-134026247D01*
X95833333Y-134026247D02*
X95928571Y-134073866D01*
X95928571Y-134073866D02*
X96119047Y-134073866D01*
X96119047Y-134073866D02*
X96214285Y-134026247D01*
X96214285Y-134026247D02*
X96261904Y-133978628D01*
X96261904Y-133978628D02*
X96309523Y-133883390D01*
X97500000Y-132754819D02*
X97500000Y-132992914D01*
X97261905Y-132897676D02*
X97500000Y-132992914D01*
X97500000Y-132992914D02*
X97738095Y-132897676D01*
X97357143Y-133183390D02*
X97500000Y-132992914D01*
X97500000Y-132992914D02*
X97642857Y-133183390D01*
X96813999Y-133216681D02*
X96813999Y-132978586D01*
X97052094Y-133073824D02*
X96813999Y-132978586D01*
X96813999Y-132978586D02*
X96575904Y-133073824D01*
X96956856Y-132788110D02*
X96813999Y-132978586D01*
X96813999Y-132978586D02*
X96671142Y-132788110D01*
X116033333Y-67754819D02*
X115700000Y-67278628D01*
X115461905Y-67754819D02*
X115461905Y-66754819D01*
X115461905Y-66754819D02*
X115842857Y-66754819D01*
X115842857Y-66754819D02*
X115938095Y-66802438D01*
X115938095Y-66802438D02*
X115985714Y-66850057D01*
X115985714Y-66850057D02*
X116033333Y-66945295D01*
X116033333Y-66945295D02*
X116033333Y-67088152D01*
X116033333Y-67088152D02*
X115985714Y-67183390D01*
X115985714Y-67183390D02*
X115938095Y-67231009D01*
X115938095Y-67231009D02*
X115842857Y-67278628D01*
X115842857Y-67278628D02*
X115461905Y-67278628D01*
X116509524Y-67754819D02*
X116700000Y-67754819D01*
X116700000Y-67754819D02*
X116795238Y-67707200D01*
X116795238Y-67707200D02*
X116842857Y-67659580D01*
X116842857Y-67659580D02*
X116938095Y-67516723D01*
X116938095Y-67516723D02*
X116985714Y-67326247D01*
X116985714Y-67326247D02*
X116985714Y-66945295D01*
X116985714Y-66945295D02*
X116938095Y-66850057D01*
X116938095Y-66850057D02*
X116890476Y-66802438D01*
X116890476Y-66802438D02*
X116795238Y-66754819D01*
X116795238Y-66754819D02*
X116604762Y-66754819D01*
X116604762Y-66754819D02*
X116509524Y-66802438D01*
X116509524Y-66802438D02*
X116461905Y-66850057D01*
X116461905Y-66850057D02*
X116414286Y-66945295D01*
X116414286Y-66945295D02*
X116414286Y-67183390D01*
X116414286Y-67183390D02*
X116461905Y-67278628D01*
X116461905Y-67278628D02*
X116509524Y-67326247D01*
X116509524Y-67326247D02*
X116604762Y-67373866D01*
X116604762Y-67373866D02*
X116795238Y-67373866D01*
X116795238Y-67373866D02*
X116890476Y-67326247D01*
X116890476Y-67326247D02*
X116938095Y-67278628D01*
X116938095Y-67278628D02*
X116985714Y-67183390D01*
X121357142Y-72059580D02*
X121309523Y-72107200D01*
X121309523Y-72107200D02*
X121166666Y-72154819D01*
X121166666Y-72154819D02*
X121071428Y-72154819D01*
X121071428Y-72154819D02*
X120928571Y-72107200D01*
X120928571Y-72107200D02*
X120833333Y-72011961D01*
X120833333Y-72011961D02*
X120785714Y-71916723D01*
X120785714Y-71916723D02*
X120738095Y-71726247D01*
X120738095Y-71726247D02*
X120738095Y-71583390D01*
X120738095Y-71583390D02*
X120785714Y-71392914D01*
X120785714Y-71392914D02*
X120833333Y-71297676D01*
X120833333Y-71297676D02*
X120928571Y-71202438D01*
X120928571Y-71202438D02*
X121071428Y-71154819D01*
X121071428Y-71154819D02*
X121166666Y-71154819D01*
X121166666Y-71154819D02*
X121309523Y-71202438D01*
X121309523Y-71202438D02*
X121357142Y-71250057D01*
X122309523Y-72154819D02*
X121738095Y-72154819D01*
X122023809Y-72154819D02*
X122023809Y-71154819D01*
X122023809Y-71154819D02*
X121928571Y-71297676D01*
X121928571Y-71297676D02*
X121833333Y-71392914D01*
X121833333Y-71392914D02*
X121738095Y-71440533D01*
X123166666Y-71488152D02*
X123166666Y-72154819D01*
X122928571Y-71107200D02*
X122690476Y-71821485D01*
X122690476Y-71821485D02*
X123309523Y-71821485D01*
X111933333Y-72564580D02*
X111885714Y-72612200D01*
X111885714Y-72612200D02*
X111742857Y-72659819D01*
X111742857Y-72659819D02*
X111647619Y-72659819D01*
X111647619Y-72659819D02*
X111504762Y-72612200D01*
X111504762Y-72612200D02*
X111409524Y-72516961D01*
X111409524Y-72516961D02*
X111361905Y-72421723D01*
X111361905Y-72421723D02*
X111314286Y-72231247D01*
X111314286Y-72231247D02*
X111314286Y-72088390D01*
X111314286Y-72088390D02*
X111361905Y-71897914D01*
X111361905Y-71897914D02*
X111409524Y-71802676D01*
X111409524Y-71802676D02*
X111504762Y-71707438D01*
X111504762Y-71707438D02*
X111647619Y-71659819D01*
X111647619Y-71659819D02*
X111742857Y-71659819D01*
X111742857Y-71659819D02*
X111885714Y-71707438D01*
X111885714Y-71707438D02*
X111933333Y-71755057D01*
X112409524Y-72659819D02*
X112600000Y-72659819D01*
X112600000Y-72659819D02*
X112695238Y-72612200D01*
X112695238Y-72612200D02*
X112742857Y-72564580D01*
X112742857Y-72564580D02*
X112838095Y-72421723D01*
X112838095Y-72421723D02*
X112885714Y-72231247D01*
X112885714Y-72231247D02*
X112885714Y-71850295D01*
X112885714Y-71850295D02*
X112838095Y-71755057D01*
X112838095Y-71755057D02*
X112790476Y-71707438D01*
X112790476Y-71707438D02*
X112695238Y-71659819D01*
X112695238Y-71659819D02*
X112504762Y-71659819D01*
X112504762Y-71659819D02*
X112409524Y-71707438D01*
X112409524Y-71707438D02*
X112361905Y-71755057D01*
X112361905Y-71755057D02*
X112314286Y-71850295D01*
X112314286Y-71850295D02*
X112314286Y-72088390D01*
X112314286Y-72088390D02*
X112361905Y-72183628D01*
X112361905Y-72183628D02*
X112409524Y-72231247D01*
X112409524Y-72231247D02*
X112504762Y-72278866D01*
X112504762Y-72278866D02*
X112695238Y-72278866D01*
X112695238Y-72278866D02*
X112790476Y-72231247D01*
X112790476Y-72231247D02*
X112838095Y-72183628D01*
X112838095Y-72183628D02*
X112885714Y-72088390D01*
X117024348Y-128768161D02*
X116478166Y-128569281D01*
X116556261Y-129095919D02*
X115982685Y-128276767D01*
X115982685Y-128276767D02*
X116294743Y-128058262D01*
X116294743Y-128058262D02*
X116400070Y-128042643D01*
X116400070Y-128042643D02*
X116466391Y-128054337D01*
X116466391Y-128054337D02*
X116560024Y-128105038D01*
X116560024Y-128105038D02*
X116641964Y-128222060D01*
X116641964Y-128222060D02*
X116657583Y-128327388D01*
X116657583Y-128327388D02*
X116645889Y-128393708D01*
X116645889Y-128393708D02*
X116595187Y-128487342D01*
X116595187Y-128487342D02*
X116283130Y-128705847D01*
X117344094Y-127730423D02*
X117726478Y-128276524D01*
X116930553Y-127554931D02*
X117145214Y-128276605D01*
X117145214Y-128276605D02*
X117652308Y-127921534D01*
X71954819Y-103133333D02*
X72669104Y-103133333D01*
X72669104Y-103133333D02*
X72811961Y-103180952D01*
X72811961Y-103180952D02*
X72907200Y-103276190D01*
X72907200Y-103276190D02*
X72954819Y-103419047D01*
X72954819Y-103419047D02*
X72954819Y-103514285D01*
X72954819Y-102657142D02*
X71954819Y-102657142D01*
X71954819Y-102657142D02*
X71954819Y-102276190D01*
X71954819Y-102276190D02*
X72002438Y-102180952D01*
X72002438Y-102180952D02*
X72050057Y-102133333D01*
X72050057Y-102133333D02*
X72145295Y-102085714D01*
X72145295Y-102085714D02*
X72288152Y-102085714D01*
X72288152Y-102085714D02*
X72383390Y-102133333D01*
X72383390Y-102133333D02*
X72431009Y-102180952D01*
X72431009Y-102180952D02*
X72478628Y-102276190D01*
X72478628Y-102276190D02*
X72478628Y-102657142D01*
X72050057Y-101704761D02*
X72002438Y-101657142D01*
X72002438Y-101657142D02*
X71954819Y-101561904D01*
X71954819Y-101561904D02*
X71954819Y-101323809D01*
X71954819Y-101323809D02*
X72002438Y-101228571D01*
X72002438Y-101228571D02*
X72050057Y-101180952D01*
X72050057Y-101180952D02*
X72145295Y-101133333D01*
X72145295Y-101133333D02*
X72240533Y-101133333D01*
X72240533Y-101133333D02*
X72383390Y-101180952D01*
X72383390Y-101180952D02*
X72954819Y-101752380D01*
X72954819Y-101752380D02*
X72954819Y-101133333D01*
X121654819Y-88042857D02*
X121178628Y-88376190D01*
X121654819Y-88614285D02*
X120654819Y-88614285D01*
X120654819Y-88614285D02*
X120654819Y-88233333D01*
X120654819Y-88233333D02*
X120702438Y-88138095D01*
X120702438Y-88138095D02*
X120750057Y-88090476D01*
X120750057Y-88090476D02*
X120845295Y-88042857D01*
X120845295Y-88042857D02*
X120988152Y-88042857D01*
X120988152Y-88042857D02*
X121083390Y-88090476D01*
X121083390Y-88090476D02*
X121131009Y-88138095D01*
X121131009Y-88138095D02*
X121178628Y-88233333D01*
X121178628Y-88233333D02*
X121178628Y-88614285D01*
X121654819Y-87090476D02*
X121654819Y-87661904D01*
X121654819Y-87376190D02*
X120654819Y-87376190D01*
X120654819Y-87376190D02*
X120797676Y-87471428D01*
X120797676Y-87471428D02*
X120892914Y-87566666D01*
X120892914Y-87566666D02*
X120940533Y-87661904D01*
X120654819Y-86757142D02*
X120654819Y-86090476D01*
X120654819Y-86090476D02*
X121654819Y-86519047D01*
X128733333Y-91659580D02*
X128685714Y-91707200D01*
X128685714Y-91707200D02*
X128542857Y-91754819D01*
X128542857Y-91754819D02*
X128447619Y-91754819D01*
X128447619Y-91754819D02*
X128304762Y-91707200D01*
X128304762Y-91707200D02*
X128209524Y-91611961D01*
X128209524Y-91611961D02*
X128161905Y-91516723D01*
X128161905Y-91516723D02*
X128114286Y-91326247D01*
X128114286Y-91326247D02*
X128114286Y-91183390D01*
X128114286Y-91183390D02*
X128161905Y-90992914D01*
X128161905Y-90992914D02*
X128209524Y-90897676D01*
X128209524Y-90897676D02*
X128304762Y-90802438D01*
X128304762Y-90802438D02*
X128447619Y-90754819D01*
X128447619Y-90754819D02*
X128542857Y-90754819D01*
X128542857Y-90754819D02*
X128685714Y-90802438D01*
X128685714Y-90802438D02*
X128733333Y-90850057D01*
X129114286Y-90850057D02*
X129161905Y-90802438D01*
X129161905Y-90802438D02*
X129257143Y-90754819D01*
X129257143Y-90754819D02*
X129495238Y-90754819D01*
X129495238Y-90754819D02*
X129590476Y-90802438D01*
X129590476Y-90802438D02*
X129638095Y-90850057D01*
X129638095Y-90850057D02*
X129685714Y-90945295D01*
X129685714Y-90945295D02*
X129685714Y-91040533D01*
X129685714Y-91040533D02*
X129638095Y-91183390D01*
X129638095Y-91183390D02*
X129066667Y-91754819D01*
X129066667Y-91754819D02*
X129685714Y-91754819D01*
X98738095Y-120506819D02*
X99309523Y-120506819D01*
X99023809Y-121506819D02*
X99023809Y-120506819D01*
X99642857Y-121506819D02*
X99642857Y-120506819D01*
X99642857Y-120506819D02*
X100023809Y-120506819D01*
X100023809Y-120506819D02*
X100119047Y-120554438D01*
X100119047Y-120554438D02*
X100166666Y-120602057D01*
X100166666Y-120602057D02*
X100214285Y-120697295D01*
X100214285Y-120697295D02*
X100214285Y-120840152D01*
X100214285Y-120840152D02*
X100166666Y-120935390D01*
X100166666Y-120935390D02*
X100119047Y-120983009D01*
X100119047Y-120983009D02*
X100023809Y-121030628D01*
X100023809Y-121030628D02*
X99642857Y-121030628D01*
X100547619Y-120506819D02*
X101214285Y-120506819D01*
X101214285Y-120506819D02*
X100785714Y-121506819D01*
X101433333Y-138959580D02*
X101385714Y-139007200D01*
X101385714Y-139007200D02*
X101242857Y-139054819D01*
X101242857Y-139054819D02*
X101147619Y-139054819D01*
X101147619Y-139054819D02*
X101004762Y-139007200D01*
X101004762Y-139007200D02*
X100909524Y-138911961D01*
X100909524Y-138911961D02*
X100861905Y-138816723D01*
X100861905Y-138816723D02*
X100814286Y-138626247D01*
X100814286Y-138626247D02*
X100814286Y-138483390D01*
X100814286Y-138483390D02*
X100861905Y-138292914D01*
X100861905Y-138292914D02*
X100909524Y-138197676D01*
X100909524Y-138197676D02*
X101004762Y-138102438D01*
X101004762Y-138102438D02*
X101147619Y-138054819D01*
X101147619Y-138054819D02*
X101242857Y-138054819D01*
X101242857Y-138054819D02*
X101385714Y-138102438D01*
X101385714Y-138102438D02*
X101433333Y-138150057D01*
X102338095Y-138054819D02*
X101861905Y-138054819D01*
X101861905Y-138054819D02*
X101814286Y-138531009D01*
X101814286Y-138531009D02*
X101861905Y-138483390D01*
X101861905Y-138483390D02*
X101957143Y-138435771D01*
X101957143Y-138435771D02*
X102195238Y-138435771D01*
X102195238Y-138435771D02*
X102290476Y-138483390D01*
X102290476Y-138483390D02*
X102338095Y-138531009D01*
X102338095Y-138531009D02*
X102385714Y-138626247D01*
X102385714Y-138626247D02*
X102385714Y-138864342D01*
X102385714Y-138864342D02*
X102338095Y-138959580D01*
X102338095Y-138959580D02*
X102290476Y-139007200D01*
X102290476Y-139007200D02*
X102195238Y-139054819D01*
X102195238Y-139054819D02*
X101957143Y-139054819D01*
X101957143Y-139054819D02*
X101861905Y-139007200D01*
X101861905Y-139007200D02*
X101814286Y-138959580D01*
D11*
%TO.C,C21*%
X69440580Y-78990000D02*
X69159420Y-78990000D01*
X69440580Y-80010000D02*
X69159420Y-80010000D01*
%TO.C,1V8*%
X66590000Y-106675000D02*
X66590000Y-108145000D01*
X66590000Y-108145000D02*
X68875000Y-108145000D01*
X68875000Y-106675000D02*
X66590000Y-106675000D01*
%TO.C,R38*%
X94062742Y-131627500D02*
X94537258Y-131627500D01*
X94062742Y-132672500D02*
X94537258Y-132672500D01*
%TO.C,5V*%
X66615000Y-111465000D02*
X66615000Y-112935000D01*
X66615000Y-112935000D02*
X68900000Y-112935000D01*
X68900000Y-111465000D02*
X66615000Y-111465000D01*
%TO.C,R3*%
X117870166Y-125072468D02*
X117481466Y-125344640D01*
X118469554Y-125928482D02*
X118080854Y-126200654D01*
%TO.C,C4*%
X119292320Y-127762866D02*
X119522632Y-127601599D01*
X119877368Y-128598401D02*
X120107680Y-128437134D01*
%TO.C,J1*%
X75816283Y-68148849D02*
X83783717Y-63548849D01*
X80116285Y-75596668D02*
X75816283Y-68148849D01*
X83066285Y-80706218D02*
X82416283Y-79580385D01*
X83783717Y-63548849D02*
X91033717Y-76106218D01*
X84798333Y-79706217D02*
X83066285Y-80706218D01*
X89971281Y-77066025D02*
X91443524Y-76216026D01*
X91033717Y-76106218D02*
X89301666Y-77106218D01*
X91443524Y-76216026D02*
X90793524Y-75090193D01*
%TO.C,R26*%
X69062742Y-81977500D02*
X69537258Y-81977500D01*
X69062742Y-83022500D02*
X69537258Y-83022500D01*
%TO.C,C24*%
X69490000Y-99140580D02*
X69490000Y-98859420D01*
X70510000Y-99140580D02*
X70510000Y-98859420D01*
%TO.C,C11*%
X113013748Y-69395000D02*
X114436252Y-69395000D01*
X113013748Y-71215000D02*
X114436252Y-71215000D01*
%TO.C,L1*%
X111325000Y-74905000D02*
X111325000Y-79305000D01*
X113925000Y-74905000D02*
X113925000Y-79305000D01*
%TO.C,R37*%
X92977500Y-134162742D02*
X92977500Y-134637258D01*
X94022500Y-134162742D02*
X94022500Y-134637258D01*
%TO.C,R39*%
X100577500Y-126937742D02*
X100577500Y-127412258D01*
X101622500Y-126937742D02*
X101622500Y-127412258D01*
%TO.C,VBUS*%
X66615000Y-109865000D02*
X66615000Y-111335000D01*
X66615000Y-111335000D02*
X68900000Y-111335000D01*
X68900000Y-109865000D02*
X66615000Y-109865000D01*
%TO.C,R61*%
X121377500Y-120337258D02*
X121377500Y-119862742D01*
X122422500Y-120337258D02*
X122422500Y-119862742D01*
%TO.C,SW1*%
X124925126Y-128835534D02*
X124995836Y-128906245D01*
X126056497Y-129966905D02*
X129167767Y-126855635D01*
X126975735Y-124663603D02*
X123864465Y-127774873D01*
X128036396Y-125724263D02*
X128107106Y-125794974D01*
%TO.C,U3*%
X108925001Y-62640000D02*
X108125001Y-62640000D01*
X108925001Y-62640000D02*
X109725001Y-62640000D01*
X108925001Y-65760000D02*
X108125001Y-65760000D01*
X108925001Y-65760000D02*
X109725001Y-65760000D01*
X107625001Y-62690000D02*
X107385001Y-62360000D01*
X107865001Y-62360000D01*
X107625001Y-62690000D01*
G36*
X107625001Y-62690000D02*
G01*
X107385001Y-62360000D01*
X107865001Y-62360000D01*
X107625001Y-62690000D01*
G37*
%TO.C,D1*%
X124550000Y-112835000D02*
X126835000Y-112835000D01*
X126835000Y-111365000D02*
X124550000Y-111365000D01*
X126835000Y-112835000D02*
X126835000Y-111365000D01*
D12*
%TO.C,U2*%
X90285000Y-122940000D02*
X92285000Y-122940000D01*
X90285000Y-125360000D02*
X92285000Y-125360000D01*
D13*
X89460000Y-123400000D02*
G75*
G02*
X89260000Y-123400000I-100000J0D01*
G01*
X89260000Y-123400000D02*
G75*
G02*
X89460000Y-123400000I100000J0D01*
G01*
D11*
%TO.C,TP10*%
X64500000Y-105300000D02*
G75*
G02*
X63100000Y-105300000I-700000J0D01*
G01*
X63100000Y-105300000D02*
G75*
G02*
X64500000Y-105300000I700000J0D01*
G01*
%TO.C,R29*%
X128275242Y-110077500D02*
X128749758Y-110077500D01*
X128275242Y-111122500D02*
X128749758Y-111122500D01*
%TO.C,D7*%
X109250000Y-70960000D02*
X109250000Y-68300000D01*
X109250000Y-70960000D02*
X110950000Y-70960000D01*
X110950000Y-70960000D02*
X110950000Y-68300000D01*
%TO.C,C22*%
X75059420Y-88840000D02*
X75340580Y-88840000D01*
X75059420Y-89860000D02*
X75340580Y-89860000D01*
D14*
%TO.C,U7*%
X67249000Y-103081899D02*
X68849200Y-103081899D01*
X68849200Y-100618099D02*
X67249000Y-100618099D01*
X68849200Y-102014858D02*
X68849200Y-101685140D01*
D11*
%TO.C,C1*%
X130588748Y-88490000D02*
X132011252Y-88490000D01*
X130588748Y-90310000D02*
X132011252Y-90310000D01*
%TO.C,D2*%
X127077500Y-111365000D02*
X127077500Y-112835000D01*
X127077500Y-112835000D02*
X129362500Y-112835000D01*
X129362500Y-111365000D02*
X127077500Y-111365000D01*
%TO.C,R58*%
X115718858Y-115609108D02*
X115330156Y-115881280D01*
X116318244Y-116465122D02*
X115929542Y-116737294D01*
%TO.C,TP9*%
X133300000Y-86400000D02*
G75*
G02*
X131900000Y-86400000I-700000J0D01*
G01*
X131900000Y-86400000D02*
G75*
G02*
X133300000Y-86400000I700000J0D01*
G01*
%TO.C,C27*%
X97311252Y-125790000D02*
X95888748Y-125790000D01*
X97311252Y-127610000D02*
X95888748Y-127610000D01*
%TO.C,R27*%
X69537258Y-80477500D02*
X69062742Y-80477500D01*
X69537258Y-81522500D02*
X69062742Y-81522500D01*
%TO.C,L2*%
X94800000Y-122640000D02*
X98000000Y-122640000D01*
X98000000Y-125360000D02*
X94800000Y-125360000D01*
%TO.C,R42*%
X100577500Y-130270781D02*
X100577500Y-130745297D01*
X101622500Y-130270781D02*
X101622500Y-130745297D01*
%TO.C,R31*%
X69537258Y-84977500D02*
X69062742Y-84977500D01*
X69537258Y-86022500D02*
X69062742Y-86022500D01*
%TO.C,TP5*%
X113650000Y-64200000D02*
G75*
G02*
X112250000Y-64200000I-700000J0D01*
G01*
X112250000Y-64200000D02*
G75*
G02*
X113650000Y-64200000I700000J0D01*
G01*
%TO.C,C15*%
X118790000Y-77240580D02*
X118790000Y-76959420D01*
X119810000Y-77240580D02*
X119810000Y-76959420D01*
%TO.C,C7*%
X116522632Y-116901599D02*
X116292320Y-117062866D01*
X117107680Y-117737134D02*
X116877368Y-117898401D01*
D12*
%TO.C,U4*%
X115185725Y-119564047D02*
X117069774Y-118244820D01*
X116568044Y-121538202D02*
X118452093Y-120218975D01*
D13*
X114420367Y-120725427D02*
G75*
G02*
X114220369Y-120725427I-99999J0D01*
G01*
X114220369Y-120725427D02*
G75*
G02*
X114420367Y-120725427I99999J0D01*
G01*
D11*
%TO.C,C13*%
X114088748Y-79890000D02*
X115511252Y-79890000D01*
X114088748Y-81710000D02*
X115511252Y-81710000D01*
%TO.C,R40*%
X102077500Y-126937742D02*
X102077500Y-127412258D01*
X103122500Y-126937742D02*
X103122500Y-127412258D01*
%TO.C,R34*%
X74477500Y-98862742D02*
X74477500Y-99337258D01*
X75522500Y-98862742D02*
X75522500Y-99337258D01*
D10*
%TO.C,U6*%
X78525383Y-81874999D02*
X75025385Y-81874999D01*
X78525383Y-86874999D02*
X75025385Y-86874999D01*
D15*
X81350386Y-86649998D02*
G75*
G02*
X81100384Y-86649998I-125001J0D01*
G01*
X81100384Y-86649998D02*
G75*
G02*
X81350386Y-86649998I125001J0D01*
G01*
D11*
%TO.C,R10*%
X119177500Y-90437258D02*
X119177500Y-89962742D01*
X120222500Y-90437258D02*
X120222500Y-89962742D01*
%TO.C,R59*%
X109750072Y-123504239D02*
X109477900Y-123115537D01*
X110606086Y-122904853D02*
X110333914Y-122516151D01*
%TO.C,R30*%
X125162742Y-110077500D02*
X125637258Y-110077500D01*
X125162742Y-111122500D02*
X125637258Y-111122500D01*
%TO.C,R53*%
X102076235Y-130262742D02*
X102076235Y-130737258D01*
X103121235Y-130262742D02*
X103121235Y-130737258D01*
%TO.C,TP8*%
X112100000Y-80800000D02*
G75*
G02*
X110700000Y-80800000I-700000J0D01*
G01*
X110700000Y-80800000D02*
G75*
G02*
X112100000Y-80800000I700000J0D01*
G01*
%TO.C,D6*%
X109210000Y-71950000D02*
X106550000Y-71950000D01*
X109210000Y-73650000D02*
X106550000Y-73650000D01*
X109210000Y-73650000D02*
X109210000Y-71950000D01*
%TO.C,3V3*%
X66615000Y-108265000D02*
X66615000Y-109735000D01*
X66615000Y-109735000D02*
X68900000Y-109735000D01*
X68900000Y-108265000D02*
X66615000Y-108265000D01*
%TO.C,C30*%
X97540580Y-128090000D02*
X97259420Y-128090000D01*
X97540580Y-129110000D02*
X97259420Y-129110000D01*
%TO.C,TP6*%
X87600000Y-122500000D02*
G75*
G02*
X86200000Y-122500000I-700000J0D01*
G01*
X86200000Y-122500000D02*
G75*
G02*
X87600000Y-122500000I700000J0D01*
G01*
%TO.C,SW2*%
X120226544Y-132402825D02*
X120169187Y-132320911D01*
X121086908Y-133631553D02*
X124691177Y-131107818D01*
X122913092Y-128568447D02*
X119308823Y-131092182D01*
X123830813Y-129879089D02*
X123773456Y-129797175D01*
%TO.C,C18*%
X62520001Y-92599000D02*
X62520001Y-91401000D01*
X62560000Y-92862000D02*
X62560000Y-91138000D01*
X62600001Y-93062000D02*
X62600001Y-90938000D01*
X62640000Y-93230000D02*
X62640000Y-90770000D01*
X62680000Y-93377000D02*
X62680000Y-90623000D01*
X62720000Y-93509000D02*
X62720000Y-90491000D01*
X62760000Y-93630000D02*
X62760000Y-90370000D01*
X62800000Y-93742001D02*
X62800000Y-90257999D01*
X62840000Y-93846000D02*
X62840000Y-90154000D01*
X62880000Y-93944001D02*
X62880000Y-90055999D01*
X62920000Y-94037000D02*
X62920000Y-89963000D01*
X62960000Y-94124000D02*
X62960000Y-89876000D01*
X63000000Y-94208000D02*
X63000000Y-89792000D01*
X63040000Y-94288000D02*
X63040000Y-89712000D01*
X63080000Y-94365000D02*
X63080000Y-89635000D01*
X63120000Y-94439000D02*
X63120000Y-89561000D01*
X63160000Y-94510000D02*
X63160000Y-89490000D01*
X63200000Y-94578000D02*
X63200000Y-91240000D01*
X63240000Y-94644000D02*
X63240000Y-91240000D01*
X63280000Y-94708000D02*
X63280000Y-91240000D01*
X63320000Y-94770000D02*
X63320000Y-91240000D01*
X63360000Y-94830000D02*
X63360000Y-91240000D01*
X63400000Y-94888000D02*
X63400000Y-91240000D01*
X63440000Y-94945000D02*
X63440000Y-91240000D01*
X63480000Y-95000000D02*
X63480000Y-91240000D01*
X63519999Y-95053000D02*
X63520000Y-91240000D01*
X63560000Y-95105000D02*
X63560000Y-91240000D01*
X63600000Y-95156000D02*
X63600000Y-91240000D01*
X63640000Y-95205000D02*
X63640000Y-91240000D01*
X63680000Y-95254000D02*
X63680000Y-91240000D01*
X63720000Y-88760000D02*
X63720000Y-88699000D01*
X63720000Y-95301000D02*
X63720000Y-91240000D01*
X63760000Y-88760000D02*
X63760000Y-88653001D01*
X63760000Y-95346999D02*
X63760000Y-91240000D01*
X63800000Y-88760000D02*
X63800000Y-88609000D01*
X63800000Y-95391000D02*
X63800000Y-91240000D01*
X63840000Y-95435000D02*
X63840000Y-91240000D01*
X63840001Y-88760000D02*
X63840000Y-88565000D01*
X63880000Y-88760000D02*
X63880000Y-88522000D01*
X63880000Y-95478000D02*
X63880000Y-93240000D01*
X63920000Y-88760000D02*
X63920000Y-88480000D01*
X63920000Y-95520000D02*
X63920001Y-93240000D01*
X63959999Y-88760000D02*
X63960000Y-88439000D01*
X63960000Y-95561000D02*
X63960000Y-93240000D01*
X64000000Y-95601000D02*
X64000000Y-93240000D01*
X64000001Y-88760000D02*
X64000000Y-88399000D01*
X64040000Y-88760000D02*
X64040000Y-88360000D01*
X64040000Y-95640000D02*
X64039999Y-93240000D01*
X64080000Y-88760000D02*
X64080000Y-88322000D01*
X64080000Y-95678000D02*
X64080000Y-93240000D01*
X64119999Y-88760000D02*
X64120000Y-88284000D01*
X64120000Y-95716000D02*
X64120000Y-93240000D01*
X64160000Y-88760000D02*
X64160000Y-88248000D01*
X64160000Y-95752000D02*
X64160000Y-93240000D01*
X64200000Y-88760000D02*
X64200000Y-88212001D01*
X64200000Y-95787999D02*
X64200000Y-93239999D01*
X64240000Y-88760000D02*
X64240000Y-88177000D01*
X64240000Y-95823000D02*
X64240000Y-93240000D01*
X64280000Y-95857999D02*
X64280000Y-93240000D01*
X64280001Y-88760000D02*
X64280000Y-88142001D01*
X64320000Y-88760000D02*
X64320000Y-88109000D01*
X64320000Y-95891000D02*
X64320000Y-93240000D01*
X64360000Y-88760000D02*
X64360000Y-88076000D01*
X64360000Y-95924000D02*
X64360000Y-93239999D01*
X64400000Y-88760000D02*
X64400000Y-88043000D01*
X64400000Y-95957000D02*
X64400000Y-93240000D01*
X64440000Y-95988000D02*
X64440000Y-93240000D01*
X64440001Y-88760000D02*
X64440000Y-88012000D01*
X64480000Y-88760000D02*
X64480000Y-87980000D01*
X64480000Y-96020000D02*
X64479999Y-93240000D01*
X64520000Y-88760000D02*
X64520000Y-87950000D01*
X64520000Y-96050000D02*
X64520000Y-93240000D01*
X64559999Y-88760000D02*
X64560000Y-87920000D01*
X64560000Y-96080000D02*
X64560000Y-93240000D01*
X64600000Y-88760000D02*
X64600000Y-87891000D01*
X64600000Y-96109000D02*
X64600000Y-93240000D01*
X64640000Y-88760000D02*
X64640000Y-87862000D01*
X64640000Y-96138000D02*
X64640000Y-93239999D01*
X64680000Y-88760000D02*
X64680000Y-87834000D01*
X64680000Y-96166000D02*
X64680000Y-93240000D01*
X64720000Y-88760001D02*
X64720000Y-87807000D01*
X64720000Y-96193000D02*
X64720000Y-93240000D01*
X64760000Y-88760000D02*
X64760000Y-87780000D01*
X64760000Y-96220000D02*
X64760000Y-93240000D01*
X64800000Y-88760000D02*
X64800001Y-87753000D01*
X64800001Y-96247000D02*
X64800000Y-93239999D01*
X64840000Y-88760000D02*
X64840000Y-87728000D01*
X64840000Y-96272000D02*
X64840000Y-93240000D01*
X64880001Y-88760000D02*
X64880001Y-87702000D01*
X64880001Y-96298000D02*
X64880000Y-93240000D01*
X64919999Y-96323000D02*
X64919999Y-93240000D01*
X64920000Y-88760000D02*
X64919999Y-87677000D01*
X64960000Y-88760000D02*
X64960000Y-87653000D01*
X64960000Y-96347000D02*
X64960001Y-93240000D01*
X64999999Y-88760000D02*
X65000000Y-87629000D01*
X65000000Y-96371000D02*
X65000000Y-93240000D01*
X65040000Y-88760000D02*
X65040000Y-87606000D01*
X65040000Y-96394000D02*
X65040000Y-93240000D01*
X65080000Y-88760000D02*
X65080000Y-87583000D01*
X65080000Y-96417000D02*
X65080000Y-93239999D01*
X65120000Y-88760000D02*
X65120000Y-87561000D01*
X65120000Y-96439000D02*
X65120000Y-93240000D01*
X65160000Y-88760001D02*
X65160000Y-87539000D01*
X65160000Y-96461000D02*
X65160000Y-93240000D01*
X65200000Y-88760000D02*
X65200000Y-87517000D01*
X65200000Y-96483000D02*
X65200000Y-93240000D01*
X65240000Y-88760000D02*
X65240000Y-87496000D01*
X65240000Y-96504000D02*
X65240000Y-93239999D01*
X65280000Y-88760000D02*
X65280000Y-87476000D01*
X65280000Y-96524000D02*
X65280000Y-93240000D01*
X65320000Y-96544000D02*
X65320000Y-93240000D01*
X65320001Y-88760000D02*
X65320000Y-87456000D01*
X65360000Y-88760000D02*
X65360000Y-87436000D01*
X65360000Y-96564000D02*
X65359999Y-93240000D01*
X65400000Y-88760000D02*
X65400001Y-87417000D01*
X65400001Y-96583000D02*
X65400001Y-93240000D01*
X65439999Y-88760000D02*
X65440000Y-87398000D01*
X65440000Y-96602000D02*
X65440000Y-93240000D01*
X65480000Y-88760000D02*
X65480000Y-87380000D01*
X65480000Y-96620000D02*
X65480000Y-93240000D01*
X65520000Y-88760000D02*
X65520000Y-87362000D01*
X65520000Y-96638000D02*
X65520000Y-93239999D01*
X65560000Y-88760000D02*
X65560000Y-87344000D01*
X65560000Y-96656000D02*
X65560000Y-93240000D01*
X65599999Y-96673000D02*
X65600000Y-93240000D01*
X65600000Y-88760001D02*
X65599999Y-87327000D01*
X65640000Y-88760000D02*
X65640000Y-87310000D01*
X65640000Y-96690000D02*
X65640000Y-93240000D01*
X65680000Y-90760001D02*
X65680001Y-87294000D01*
X65680001Y-96706000D02*
X65680000Y-93239999D01*
X65720000Y-90760000D02*
X65720000Y-87278000D01*
X65720000Y-96722000D02*
X65720000Y-93240000D01*
X65760000Y-90760000D02*
X65760000Y-87262001D01*
X65760000Y-96737999D02*
X65760000Y-93240000D01*
X65800000Y-90760000D02*
X65800000Y-87247000D01*
X65800000Y-96753000D02*
X65800000Y-93240000D01*
X65840000Y-96768000D02*
X65840001Y-93240000D01*
X65840001Y-90760000D02*
X65840000Y-87232000D01*
X65880000Y-90760000D02*
X65880000Y-87218000D01*
X65880000Y-96782000D02*
X65880000Y-93240000D01*
X65920000Y-90760000D02*
X65920000Y-87203000D01*
X65920000Y-96797000D02*
X65920000Y-93240000D01*
X65960000Y-90760001D02*
X65960000Y-87189999D01*
X65960000Y-96810001D02*
X65960000Y-93239999D01*
X66000000Y-90760000D02*
X66000000Y-87176000D01*
X66000000Y-96824000D02*
X66000000Y-93240000D01*
X66040000Y-90760000D02*
X66040000Y-87163000D01*
X66040000Y-96837000D02*
X66040000Y-93240000D01*
X66080000Y-90760000D02*
X66080000Y-87151000D01*
X66080000Y-96849000D02*
X66080000Y-93240000D01*
X66120000Y-90760001D02*
X66120000Y-87139000D01*
X66120000Y-96861000D02*
X66120000Y-93239999D01*
X66160000Y-90760000D02*
X66160000Y-87127000D01*
X66160000Y-96873000D02*
X66160000Y-93240000D01*
X66200000Y-90760000D02*
X66200000Y-87115000D01*
X66200000Y-96885000D02*
X66200000Y-93240000D01*
X66240000Y-90760000D02*
X66240000Y-87104000D01*
X66240000Y-96896000D02*
X66240000Y-93240000D01*
X66280000Y-96907000D02*
X66280001Y-93240000D01*
X66280001Y-90760000D02*
X66280000Y-87093000D01*
X66319999Y-96917000D02*
X66320000Y-93240000D01*
X66320000Y-90760000D02*
X66319999Y-87083000D01*
X66360000Y-96928000D02*
X66360000Y-87072000D01*
X66400000Y-96937000D02*
X66400000Y-87063000D01*
X66440000Y-96947000D02*
X66440000Y-87053000D01*
X66480000Y-96956000D02*
X66480000Y-87044000D01*
X66520000Y-96965000D02*
X66520000Y-87035000D01*
X66560000Y-96973000D02*
X66560000Y-87027000D01*
X66600000Y-96981000D02*
X66600000Y-87019000D01*
X66640000Y-96989000D02*
X66640000Y-87011000D01*
X66680000Y-96997000D02*
X66680000Y-87003000D01*
X66720000Y-97004000D02*
X66720000Y-86996000D01*
X66760000Y-97011000D02*
X66760000Y-86989000D01*
X66800000Y-97017000D02*
X66800000Y-86983000D01*
X66840000Y-97022999D02*
X66840000Y-86977001D01*
X66880000Y-97029000D02*
X66880000Y-86971000D01*
X66920000Y-97035000D02*
X66920000Y-86965000D01*
X66960000Y-97040000D02*
X66960000Y-86960000D01*
X67000000Y-97045000D02*
X67000000Y-86955000D01*
X67040000Y-97049000D02*
X67040000Y-86951000D01*
X67080000Y-97054000D02*
X67080000Y-86946000D01*
X67120000Y-97057000D02*
X67120000Y-86943000D01*
X67160000Y-97060999D02*
X67160000Y-86939001D01*
X67200000Y-97064000D02*
X67200000Y-86936000D01*
X67240001Y-97067000D02*
X67240001Y-86933000D01*
X67279999Y-97070000D02*
X67279999Y-86930000D01*
X67320000Y-97072000D02*
X67320000Y-86928000D01*
X67360000Y-97074000D02*
X67360000Y-86926000D01*
X67400000Y-97076000D02*
X67400000Y-86924000D01*
X67440000Y-97077000D02*
X67440000Y-86923000D01*
X67480000Y-97079000D02*
X67480000Y-86921000D01*
X67520000Y-97079000D02*
X67520000Y-86921000D01*
X67560000Y-97080000D02*
X67560000Y-86920000D01*
X67600000Y-97079999D02*
X67600000Y-86920001D01*
X72579646Y-95375000D02*
X72579646Y-94375000D01*
X73079646Y-94875000D02*
X72079646Y-94875000D01*
X71548012Y-95260000D02*
G75*
G02*
X72424904Y-93713098I-3948012J3260000D01*
G01*
%TO.C,R62*%
X122877500Y-119862742D02*
X122877500Y-120337258D01*
X123922500Y-119862742D02*
X123922500Y-120337258D01*
%TO.C,R20*%
X119437258Y-72677500D02*
X118962742Y-72677500D01*
X119437258Y-73722500D02*
X118962742Y-73722500D01*
%TO.C,TP3*%
X79000000Y-93400000D02*
G75*
G02*
X77600000Y-93400000I-700000J0D01*
G01*
X77600000Y-93400000D02*
G75*
G02*
X79000000Y-93400000I700000J0D01*
G01*
%TO.C,C3*%
X123139970Y-124338781D02*
X123338781Y-124139970D01*
X123861219Y-125060030D02*
X124060030Y-124861219D01*
%TO.C,J4*%
X95310000Y-64120000D02*
X95310000Y-65820000D01*
X104650000Y-64120000D02*
X104650000Y-65820000D01*
%TO.C,C29*%
X104990000Y-134640580D02*
X104990000Y-134359420D01*
X106010000Y-134640580D02*
X106010000Y-134359420D01*
%TO.C,U1*%
X122450000Y-93250000D02*
X139350000Y-93250000D01*
X122450000Y-106750000D02*
X122450000Y-93250000D01*
X139350000Y-93250000D02*
X139350000Y-106750000D01*
X139350000Y-106750000D02*
X122450000Y-106750000D01*
X132200000Y-92900000D02*
X131960000Y-92564000D01*
X132440000Y-92564000D01*
X132200000Y-92900000D01*
G36*
X132200000Y-92900000D02*
G01*
X131960000Y-92564000D01*
X132440000Y-92564000D01*
X132200000Y-92900000D01*
G37*
%TO.C,R35*%
X64777500Y-99537258D02*
X64777500Y-99062742D01*
X65822500Y-99537258D02*
X65822500Y-99062742D01*
%TO.C,FB1*%
X105887221Y-69340000D02*
X106212779Y-69340000D01*
X105887221Y-70360000D02*
X106212779Y-70360000D01*
%TO.C,U5*%
X116112500Y-74265000D02*
X115512500Y-74265000D01*
X116112500Y-74265000D02*
X116712500Y-74265000D01*
X116112500Y-76135000D02*
X115512500Y-76135000D01*
X116112500Y-76135000D02*
X116712500Y-76135000D01*
X114802500Y-74700000D02*
X114472500Y-74940000D01*
X114472500Y-74460000D01*
X114802500Y-74700000D01*
G36*
X114802500Y-74700000D02*
G01*
X114472500Y-74940000D01*
X114472500Y-74460000D01*
X114802500Y-74700000D01*
G37*
%TO.C,C19*%
X69159420Y-83490000D02*
X69440580Y-83490000D01*
X69159420Y-84510000D02*
X69440580Y-84510000D01*
%TO.C,C6*%
X91361252Y-120640000D02*
X89938748Y-120640000D01*
X91361252Y-122460000D02*
X89938748Y-122460000D01*
%TO.C,R8*%
X107412742Y-67727500D02*
X107887258Y-67727500D01*
X107412742Y-68772500D02*
X107887258Y-68772500D01*
%TO.C,R36*%
X94062742Y-130127500D02*
X94537258Y-130127500D01*
X94062742Y-131172500D02*
X94537258Y-131172500D01*
%TO.C,R60*%
X111235907Y-123005342D02*
X111508079Y-123394044D01*
X112091921Y-122405956D02*
X112364093Y-122794658D01*
%TO.C,R2*%
X126077500Y-89962742D02*
X126077500Y-90437258D01*
X127122500Y-89962742D02*
X127122500Y-90437258D01*
%TO.C,R21*%
X118962742Y-69677500D02*
X119437258Y-69677500D01*
X118962742Y-70722500D02*
X119437258Y-70722500D01*
%TO.C,12V*%
X66627500Y-113065000D02*
X66627500Y-114535000D01*
X66627500Y-114535000D02*
X68912500Y-114535000D01*
X68912500Y-113065000D02*
X66627500Y-113065000D01*
%TO.C,R1*%
X127662258Y-87377500D02*
X127187742Y-87377500D01*
X127662258Y-88422500D02*
X127187742Y-88422500D01*
%TO.C,C28*%
X97440580Y-130990000D02*
X97159420Y-130990000D01*
X97440580Y-132010000D02*
X97159420Y-132010000D01*
D14*
%TO.C,U9*%
X96658000Y-133600502D02*
X96658000Y-136914500D01*
X96658000Y-136914500D02*
X103342000Y-136914500D01*
X103342000Y-133600502D02*
X96658000Y-133600502D01*
X103342000Y-136914500D02*
X103342000Y-133600502D01*
D11*
%TO.C,R9*%
X113662742Y-66777500D02*
X114137258Y-66777500D01*
X113662742Y-67822500D02*
X114137258Y-67822500D01*
%TO.C,C14*%
X119340580Y-71190000D02*
X119059420Y-71190000D01*
X119340580Y-72210000D02*
X119059420Y-72210000D01*
%TO.C,C9*%
X114384420Y-71695000D02*
X114665580Y-71695000D01*
X114384420Y-72715000D02*
X114665580Y-72715000D01*
%TO.C,R4*%
X118340633Y-126566980D02*
X118729335Y-126294808D01*
X118940019Y-127422994D02*
X119328721Y-127150822D01*
%TO.C,JP2*%
X73400000Y-100950000D02*
X75400000Y-100950000D01*
X73400000Y-103750000D02*
X73400000Y-100950000D01*
X75400000Y-100950000D02*
X75400000Y-103750000D01*
X75400000Y-103750000D02*
X73400000Y-103750000D01*
%TO.C,R17*%
X120677500Y-90437258D02*
X120677500Y-89962742D01*
X121722500Y-90437258D02*
X121722500Y-89962742D01*
%TO.C,C2*%
X131159420Y-90790000D02*
X131440580Y-90790000D01*
X131159420Y-91810000D02*
X131440580Y-91810000D01*
%TO.C,TP7*%
X100700000Y-122500000D02*
G75*
G02*
X99300000Y-122500000I-700000J0D01*
G01*
X99300000Y-122500000D02*
G75*
G02*
X100700000Y-122500000I700000J0D01*
G01*
%TO.C,C5*%
X99340580Y-138090000D02*
X99059420Y-138090000D01*
X99340580Y-139110000D02*
X99059420Y-139110000D01*
%TD*%
M02*
