%TF.GenerationSoftware,KiCad,Pcbnew,9.0.2*%
%TF.CreationDate,2026-02-17T19:29:26+01:00*%
%TF.ProjectId,LumiCtrl,4c756d69-4374-4726-9c2e-6b696361645f,rev11*%
%TF.SameCoordinates,Original*%
%TF.FileFunction,Soldermask,Bot*%
%TF.FilePolarity,Negative*%
%FSLAX46Y46*%
G04 Gerber Fmt 4.6, Leading zero omitted, Abs format (unit mm)*
G04 Created by KiCad (PCBNEW 9.0.2) date 2026-02-17 19:29:26*
%MOMM*%
%LPD*%
G01*
G04 APERTURE LIST*
G04 Aperture macros list*
%AMRoundRect*
0 Rectangle with rounded corners*
0 $1 Rounding radius*
0 $2 $3 $4 $5 $6 $7 $8 $9 X,Y pos of 4 corners*
0 Add a 4 corners polygon primitive as box body*
4,1,4,$2,$3,$4,$5,$6,$7,$8,$9,$2,$3,0*
0 Add four circle primitives for the rounded corners*
1,1,$1+$1,$2,$3*
1,1,$1+$1,$4,$5*
1,1,$1+$1,$6,$7*
1,1,$1+$1,$8,$9*
0 Add four rect primitives between the rounded corners*
20,1,$1+$1,$2,$3,$4,$5,0*
20,1,$1+$1,$4,$5,$6,$7,0*
20,1,$1+$1,$6,$7,$8,$9,0*
20,1,$1+$1,$8,$9,$2,$3,0*%
%AMHorizOval*
0 Thick line with rounded ends*
0 $1 width*
0 $2 $3 position (X,Y) of the first rounded end (center of the circle)*
0 $4 $5 position (X,Y) of the second rounded end (center of the circle)*
0 Add line between two ends*
20,1,$1,$2,$3,$4,$5,0*
0 Add two circle primitives to create the rounded ends*
1,1,$1,$2,$3*
1,1,$1,$4,$5*%
%AMRotRect*
0 Rectangle, with rotation*
0 The origin of the aperture is its center*
0 $1 length*
0 $2 width*
0 $3 Rotation angle, in degrees counterclockwise*
0 Add horizontal line*
21,1,$1,$2,0,0,$3*%
G04 Aperture macros list end*
%ADD10C,3.200000*%
%ADD11RotRect,4.600000X2.000000X210.000000*%
%ADD12HorizOval,2.000000X-0.952628X-0.550000X0.952628X0.550000X0*%
%ADD13HorizOval,2.000000X-0.550000X0.952628X0.550000X-0.952628X0*%
%ADD14RoundRect,0.250000X0.750000X0.750000X-0.750000X0.750000X-0.750000X-0.750000X0.750000X-0.750000X0*%
%ADD15C,2.000000*%
%ADD16C,0.650000*%
%ADD17O,1.000000X2.100000*%
%ADD18O,1.000000X1.800000*%
%ADD19RoundRect,0.250000X0.650000X-0.325000X0.650000X0.325000X-0.650000X0.325000X-0.650000X-0.325000X0*%
%ADD20RoundRect,0.200000X0.200000X0.275000X-0.200000X0.275000X-0.200000X-0.275000X0.200000X-0.275000X0*%
%ADD21RoundRect,0.200000X-0.023558X0.339220X-0.329975X0.082105X0.023558X-0.339220X0.329975X-0.082105X0*%
%ADD22RoundRect,0.200000X0.275000X-0.200000X0.275000X0.200000X-0.275000X0.200000X-0.275000X-0.200000X0*%
%ADD23RoundRect,0.200000X-0.275000X0.200000X-0.275000X-0.200000X0.275000X-0.200000X0.275000X0.200000X0*%
%ADD24RoundRect,0.200000X-0.200000X-0.275000X0.200000X-0.275000X0.200000X0.275000X-0.200000X0.275000X0*%
%ADD25RoundRect,0.250000X0.325000X0.650000X-0.325000X0.650000X-0.325000X-0.650000X0.325000X-0.650000X0*%
%ADD26RoundRect,0.225000X-0.225000X-0.250000X0.225000X-0.250000X0.225000X0.250000X-0.225000X0.250000X0*%
%ADD27RoundRect,0.200000X0.023558X-0.339220X0.329975X-0.082105X-0.023558X0.339220X-0.329975X0.082105X0*%
%ADD28R,1.000000X1.500000*%
%ADD29RoundRect,0.250000X0.012260X0.728766X-0.637260X0.353766X-0.012260X-0.728766X0.637260X-0.353766X0*%
%ADD30RoundRect,0.225000X0.225000X0.250000X-0.225000X0.250000X-0.225000X-0.250000X0.225000X-0.250000X0*%
%ADD31RoundRect,0.225000X-0.069856X-0.329006X0.319856X-0.104006X0.069856X0.329006X-0.319856X0.104006X0*%
%ADD32RoundRect,0.250000X0.725000X-0.600000X0.725000X0.600000X-0.725000X0.600000X-0.725000X-0.600000X0*%
%ADD33O,1.950000X1.700000*%
%ADD34RoundRect,0.150000X0.587500X0.150000X-0.587500X0.150000X-0.587500X-0.150000X0.587500X-0.150000X0*%
G04 APERTURE END LIST*
%TO.C,JP1*%
G36*
X77650000Y-78450000D02*
G01*
X77350000Y-78450000D01*
X77350000Y-79950000D01*
X77650000Y-79950000D01*
X77650000Y-78450000D01*
G37*
%TD*%
D10*
%TO.C,H1*%
X126900000Y-79300000D03*
%TD*%
D11*
%TO.C,J1*%
X86700000Y-77800000D03*
D12*
X83550000Y-72344040D03*
D13*
X81093078Y-77688526D03*
%TD*%
D10*
%TO.C,H2*%
X75800000Y-122800000D03*
%TD*%
D14*
%TO.C,C18*%
X70772144Y-94000000D03*
X70100000Y-92000000D03*
D15*
X65100000Y-92000000D03*
X64427856Y-90000000D03*
%TD*%
D16*
%TO.C,J4*%
X102870000Y-66625000D03*
X97090000Y-66625000D03*
D17*
X104300000Y-67125000D03*
D18*
X104300000Y-62945000D03*
D17*
X95660000Y-67125000D03*
D18*
X95660000Y-62945000D03*
%TD*%
D19*
%TO.C,C12*%
X118900000Y-74875000D03*
X118900000Y-71925000D03*
%TD*%
D20*
%TO.C,R45*%
X125146916Y-103003722D03*
X123496916Y-103003722D03*
%TD*%
%TO.C,R46*%
X125145894Y-104500000D03*
X123495894Y-104500000D03*
%TD*%
D21*
%TO.C,R24*%
X85931987Y-82769700D03*
X84668013Y-83830300D03*
%TD*%
D22*
%TO.C,R19*%
X117000000Y-73425000D03*
X117000000Y-71775000D03*
%TD*%
D23*
%TO.C,R28*%
X99000000Y-73075000D03*
X99000000Y-74725000D03*
%TD*%
D24*
%TO.C,R52*%
X123500000Y-101500000D03*
X125150000Y-101500000D03*
%TD*%
D22*
%TO.C,R5*%
X98300000Y-136825000D03*
X98300000Y-135175000D03*
%TD*%
D25*
%TO.C,C25*%
X68550000Y-95500000D03*
X65600000Y-95500000D03*
%TD*%
D24*
%TO.C,R6*%
X94275000Y-124500000D03*
X95925000Y-124500000D03*
%TD*%
%TO.C,R22*%
X67275000Y-109000000D03*
X68925000Y-109000000D03*
%TD*%
D26*
%TO.C,C20*%
X68525000Y-84000000D03*
X70075000Y-84000000D03*
%TD*%
D27*
%TO.C,R23*%
X83727620Y-82700001D03*
X84991592Y-81639399D03*
%TD*%
D23*
%TO.C,R11*%
X98200000Y-63195000D03*
X98200000Y-64845000D03*
%TD*%
D24*
%TO.C,R33*%
X78147382Y-110090000D03*
X79797382Y-110090000D03*
%TD*%
D27*
%TO.C,R25*%
X85640208Y-84989479D03*
X86904182Y-83928879D03*
%TD*%
D23*
%TO.C,R47*%
X126900000Y-104775000D03*
X126900000Y-106425000D03*
%TD*%
D24*
%TO.C,R51*%
X123500000Y-100000000D03*
X125150000Y-100000000D03*
%TD*%
D22*
%TO.C,R7*%
X96800000Y-136825000D03*
X96800000Y-135175000D03*
%TD*%
D28*
%TO.C,JP1*%
X78150000Y-79200000D03*
X76850000Y-79200000D03*
%TD*%
D29*
%TO.C,F1*%
X79562436Y-73100000D03*
X77137564Y-74500000D03*
%TD*%
D23*
%TO.C,R48*%
X128403722Y-104775399D03*
X128403722Y-106425399D03*
%TD*%
D20*
%TO.C,R54*%
X68825000Y-107400000D03*
X67175000Y-107400000D03*
%TD*%
D30*
%TO.C,C23*%
X79747382Y-108600000D03*
X78197382Y-108600000D03*
%TD*%
D20*
%TO.C,R32*%
X79797382Y-111600000D03*
X78147382Y-111600000D03*
%TD*%
D24*
%TO.C,R41*%
X123500000Y-97000000D03*
X125150000Y-97000000D03*
%TD*%
D20*
%TO.C,R15*%
X68925000Y-110600000D03*
X67275000Y-110600000D03*
%TD*%
D24*
%TO.C,R49*%
X123500000Y-94000000D03*
X125150000Y-94000000D03*
%TD*%
D31*
%TO.C,C10*%
X85278830Y-75387500D03*
X86621170Y-74612500D03*
%TD*%
D23*
%TO.C,R12*%
X101200000Y-63275000D03*
X101200000Y-64925000D03*
%TD*%
D24*
%TO.C,R50*%
X123500000Y-95500000D03*
X125150000Y-95500000D03*
%TD*%
D25*
%TO.C,C26*%
X69524100Y-101849999D03*
X66574100Y-101849999D03*
%TD*%
D23*
%TO.C,R18*%
X115500000Y-71775000D03*
X115500000Y-73425000D03*
%TD*%
D32*
%TO.C,J3*%
X77125000Y-103600000D03*
D33*
X77125000Y-101100000D03*
X77125000Y-98600000D03*
X77125000Y-96100000D03*
%TD*%
D24*
%TO.C,R43*%
X123500000Y-98499274D03*
X125150000Y-98499274D03*
%TD*%
D34*
%TO.C,Q1*%
X97200000Y-72900000D03*
X97200000Y-74800000D03*
X95325000Y-73850000D03*
%TD*%
D24*
%TO.C,R44*%
X123525000Y-92500000D03*
X125175000Y-92500000D03*
%TD*%
D20*
%TO.C,R57*%
X68925000Y-112200000D03*
X67275000Y-112200000D03*
%TD*%
%TO.C,R16*%
X68937500Y-113800000D03*
X67287500Y-113800000D03*
%TD*%
D34*
%TO.C,U8*%
X69700000Y-97500000D03*
X69700000Y-99400000D03*
X67825000Y-98450000D03*
%TD*%
M02*
