%TF.GenerationSoftware,KiCad,Pcbnew,9.0.2*%
%TF.CreationDate,2026-02-20T22:05:31+01:00*%
%TF.ProjectId,LumiCtrl,4c756d69-4374-4726-9c2e-6b696361645f,rev11*%
%TF.SameCoordinates,Original*%
%TF.FileFunction,Legend,Bot*%
%TF.FilePolarity,Positive*%
%FSLAX46Y46*%
G04 Gerber Fmt 4.6, Leading zero omitted, Abs format (unit mm)*
G04 Created by KiCad (PCBNEW 9.0.2) date 2026-02-20 22:05:31*
%MOMM*%
%LPD*%
G01*
G04 APERTURE LIST*
%ADD10C,0.150000*%
%ADD11C,0.120000*%
G04 APERTURE END LIST*
D10*
X121109580Y-72757142D02*
X121157200Y-72709523D01*
X121157200Y-72709523D02*
X121204819Y-72566666D01*
X121204819Y-72566666D02*
X121204819Y-72471428D01*
X121204819Y-72471428D02*
X121157200Y-72328571D01*
X121157200Y-72328571D02*
X121061961Y-72233333D01*
X121061961Y-72233333D02*
X120966723Y-72185714D01*
X120966723Y-72185714D02*
X120776247Y-72138095D01*
X120776247Y-72138095D02*
X120633390Y-72138095D01*
X120633390Y-72138095D02*
X120442914Y-72185714D01*
X120442914Y-72185714D02*
X120347676Y-72233333D01*
X120347676Y-72233333D02*
X120252438Y-72328571D01*
X120252438Y-72328571D02*
X120204819Y-72471428D01*
X120204819Y-72471428D02*
X120204819Y-72566666D01*
X120204819Y-72566666D02*
X120252438Y-72709523D01*
X120252438Y-72709523D02*
X120300057Y-72757142D01*
X121204819Y-73709523D02*
X121204819Y-73138095D01*
X121204819Y-73423809D02*
X120204819Y-73423809D01*
X120204819Y-73423809D02*
X120347676Y-73328571D01*
X120347676Y-73328571D02*
X120442914Y-73233333D01*
X120442914Y-73233333D02*
X120490533Y-73138095D01*
X120300057Y-74090476D02*
X120252438Y-74138095D01*
X120252438Y-74138095D02*
X120204819Y-74233333D01*
X120204819Y-74233333D02*
X120204819Y-74471428D01*
X120204819Y-74471428D02*
X120252438Y-74566666D01*
X120252438Y-74566666D02*
X120300057Y-74614285D01*
X120300057Y-74614285D02*
X120395295Y-74661904D01*
X120395295Y-74661904D02*
X120490533Y-74661904D01*
X120490533Y-74661904D02*
X120633390Y-74614285D01*
X120633390Y-74614285D02*
X121204819Y-74042857D01*
X121204819Y-74042857D02*
X121204819Y-74661904D01*
X122064773Y-103458541D02*
X122398106Y-102982350D01*
X122636201Y-103458541D02*
X122636201Y-102458541D01*
X122636201Y-102458541D02*
X122255249Y-102458541D01*
X122255249Y-102458541D02*
X122160011Y-102506160D01*
X122160011Y-102506160D02*
X122112392Y-102553779D01*
X122112392Y-102553779D02*
X122064773Y-102649017D01*
X122064773Y-102649017D02*
X122064773Y-102791874D01*
X122064773Y-102791874D02*
X122112392Y-102887112D01*
X122112392Y-102887112D02*
X122160011Y-102934731D01*
X122160011Y-102934731D02*
X122255249Y-102982350D01*
X122255249Y-102982350D02*
X122636201Y-102982350D01*
X121207630Y-102791874D02*
X121207630Y-103458541D01*
X121445725Y-102410922D02*
X121683820Y-103125207D01*
X121683820Y-103125207D02*
X121064773Y-103125207D01*
X120207630Y-102458541D02*
X120683820Y-102458541D01*
X120683820Y-102458541D02*
X120731439Y-102934731D01*
X120731439Y-102934731D02*
X120683820Y-102887112D01*
X120683820Y-102887112D02*
X120588582Y-102839493D01*
X120588582Y-102839493D02*
X120350487Y-102839493D01*
X120350487Y-102839493D02*
X120255249Y-102887112D01*
X120255249Y-102887112D02*
X120207630Y-102934731D01*
X120207630Y-102934731D02*
X120160011Y-103029969D01*
X120160011Y-103029969D02*
X120160011Y-103268064D01*
X120160011Y-103268064D02*
X120207630Y-103363302D01*
X120207630Y-103363302D02*
X120255249Y-103410922D01*
X120255249Y-103410922D02*
X120350487Y-103458541D01*
X120350487Y-103458541D02*
X120588582Y-103458541D01*
X120588582Y-103458541D02*
X120683820Y-103410922D01*
X120683820Y-103410922D02*
X120731439Y-103363302D01*
X122163751Y-104954819D02*
X122497084Y-104478628D01*
X122735179Y-104954819D02*
X122735179Y-103954819D01*
X122735179Y-103954819D02*
X122354227Y-103954819D01*
X122354227Y-103954819D02*
X122258989Y-104002438D01*
X122258989Y-104002438D02*
X122211370Y-104050057D01*
X122211370Y-104050057D02*
X122163751Y-104145295D01*
X122163751Y-104145295D02*
X122163751Y-104288152D01*
X122163751Y-104288152D02*
X122211370Y-104383390D01*
X122211370Y-104383390D02*
X122258989Y-104431009D01*
X122258989Y-104431009D02*
X122354227Y-104478628D01*
X122354227Y-104478628D02*
X122735179Y-104478628D01*
X121306608Y-104288152D02*
X121306608Y-104954819D01*
X121544703Y-103907200D02*
X121782798Y-104621485D01*
X121782798Y-104621485D02*
X121163751Y-104621485D01*
X120354227Y-103954819D02*
X120544703Y-103954819D01*
X120544703Y-103954819D02*
X120639941Y-104002438D01*
X120639941Y-104002438D02*
X120687560Y-104050057D01*
X120687560Y-104050057D02*
X120782798Y-104192914D01*
X120782798Y-104192914D02*
X120830417Y-104383390D01*
X120830417Y-104383390D02*
X120830417Y-104764342D01*
X120830417Y-104764342D02*
X120782798Y-104859580D01*
X120782798Y-104859580D02*
X120735179Y-104907200D01*
X120735179Y-104907200D02*
X120639941Y-104954819D01*
X120639941Y-104954819D02*
X120449465Y-104954819D01*
X120449465Y-104954819D02*
X120354227Y-104907200D01*
X120354227Y-104907200D02*
X120306608Y-104859580D01*
X120306608Y-104859580D02*
X120258989Y-104764342D01*
X120258989Y-104764342D02*
X120258989Y-104526247D01*
X120258989Y-104526247D02*
X120306608Y-104431009D01*
X120306608Y-104431009D02*
X120354227Y-104383390D01*
X120354227Y-104383390D02*
X120449465Y-104335771D01*
X120449465Y-104335771D02*
X120639941Y-104335771D01*
X120639941Y-104335771D02*
X120735179Y-104383390D01*
X120735179Y-104383390D02*
X120782798Y-104431009D01*
X120782798Y-104431009D02*
X120830417Y-104526247D01*
X88284809Y-81335190D02*
X88234068Y-80756145D01*
X88722548Y-80967883D02*
X88079761Y-80201839D01*
X88079761Y-80201839D02*
X87787934Y-80446710D01*
X87787934Y-80446710D02*
X87745587Y-80544406D01*
X87745587Y-80544406D02*
X87739717Y-80611494D01*
X87739717Y-80611494D02*
X87764457Y-80715059D01*
X87764457Y-80715059D02*
X87856284Y-80824494D01*
X87856284Y-80824494D02*
X87953980Y-80866842D01*
X87953980Y-80866842D02*
X88021067Y-80872711D01*
X88021067Y-80872711D02*
X88124633Y-80847972D01*
X88124633Y-80847972D02*
X88416459Y-80603100D01*
X87411413Y-80886974D02*
X87344325Y-80881105D01*
X87344325Y-80881105D02*
X87240760Y-80905844D01*
X87240760Y-80905844D02*
X87058368Y-81058889D01*
X87058368Y-81058889D02*
X87016021Y-81156585D01*
X87016021Y-81156585D02*
X87010151Y-81223672D01*
X87010151Y-81223672D02*
X87034891Y-81327238D01*
X87034891Y-81327238D02*
X87096109Y-81400195D01*
X87096109Y-81400195D02*
X87224414Y-81479021D01*
X87224414Y-81479021D02*
X88029461Y-81549453D01*
X88029461Y-81549453D02*
X87555243Y-81947369D01*
X86470108Y-81987634D02*
X86898633Y-82498330D01*
X86407628Y-81542763D02*
X87049154Y-81936892D01*
X87049154Y-81936892D02*
X86574936Y-82334809D01*
X117454819Y-74757142D02*
X116978628Y-74423809D01*
X117454819Y-74185714D02*
X116454819Y-74185714D01*
X116454819Y-74185714D02*
X116454819Y-74566666D01*
X116454819Y-74566666D02*
X116502438Y-74661904D01*
X116502438Y-74661904D02*
X116550057Y-74709523D01*
X116550057Y-74709523D02*
X116645295Y-74757142D01*
X116645295Y-74757142D02*
X116788152Y-74757142D01*
X116788152Y-74757142D02*
X116883390Y-74709523D01*
X116883390Y-74709523D02*
X116931009Y-74661904D01*
X116931009Y-74661904D02*
X116978628Y-74566666D01*
X116978628Y-74566666D02*
X116978628Y-74185714D01*
X117454819Y-75709523D02*
X117454819Y-75138095D01*
X117454819Y-75423809D02*
X116454819Y-75423809D01*
X116454819Y-75423809D02*
X116597676Y-75328571D01*
X116597676Y-75328571D02*
X116692914Y-75233333D01*
X116692914Y-75233333D02*
X116740533Y-75138095D01*
X117454819Y-76185714D02*
X117454819Y-76376190D01*
X117454819Y-76376190D02*
X117407200Y-76471428D01*
X117407200Y-76471428D02*
X117359580Y-76519047D01*
X117359580Y-76519047D02*
X117216723Y-76614285D01*
X117216723Y-76614285D02*
X117026247Y-76661904D01*
X117026247Y-76661904D02*
X116645295Y-76661904D01*
X116645295Y-76661904D02*
X116550057Y-76614285D01*
X116550057Y-76614285D02*
X116502438Y-76566666D01*
X116502438Y-76566666D02*
X116454819Y-76471428D01*
X116454819Y-76471428D02*
X116454819Y-76280952D01*
X116454819Y-76280952D02*
X116502438Y-76185714D01*
X116502438Y-76185714D02*
X116550057Y-76138095D01*
X116550057Y-76138095D02*
X116645295Y-76090476D01*
X116645295Y-76090476D02*
X116883390Y-76090476D01*
X116883390Y-76090476D02*
X116978628Y-76138095D01*
X116978628Y-76138095D02*
X117026247Y-76185714D01*
X117026247Y-76185714D02*
X117073866Y-76280952D01*
X117073866Y-76280952D02*
X117073866Y-76471428D01*
X117073866Y-76471428D02*
X117026247Y-76566666D01*
X117026247Y-76566666D02*
X116978628Y-76614285D01*
X116978628Y-76614285D02*
X116883390Y-76661904D01*
X131542857Y-97754819D02*
X131876190Y-97278628D01*
X132114285Y-97754819D02*
X132114285Y-96754819D01*
X132114285Y-96754819D02*
X131733333Y-96754819D01*
X131733333Y-96754819D02*
X131638095Y-96802438D01*
X131638095Y-96802438D02*
X131590476Y-96850057D01*
X131590476Y-96850057D02*
X131542857Y-96945295D01*
X131542857Y-96945295D02*
X131542857Y-97088152D01*
X131542857Y-97088152D02*
X131590476Y-97183390D01*
X131590476Y-97183390D02*
X131638095Y-97231009D01*
X131638095Y-97231009D02*
X131733333Y-97278628D01*
X131733333Y-97278628D02*
X132114285Y-97278628D01*
X130685714Y-97088152D02*
X130685714Y-97754819D01*
X130923809Y-96707200D02*
X131161904Y-97421485D01*
X131161904Y-97421485D02*
X130542857Y-97421485D01*
X129733333Y-97088152D02*
X129733333Y-97754819D01*
X129971428Y-96707200D02*
X130209523Y-97421485D01*
X130209523Y-97421485D02*
X129590476Y-97421485D01*
X100854819Y-73257142D02*
X100378628Y-72923809D01*
X100854819Y-72685714D02*
X99854819Y-72685714D01*
X99854819Y-72685714D02*
X99854819Y-73066666D01*
X99854819Y-73066666D02*
X99902438Y-73161904D01*
X99902438Y-73161904D02*
X99950057Y-73209523D01*
X99950057Y-73209523D02*
X100045295Y-73257142D01*
X100045295Y-73257142D02*
X100188152Y-73257142D01*
X100188152Y-73257142D02*
X100283390Y-73209523D01*
X100283390Y-73209523D02*
X100331009Y-73161904D01*
X100331009Y-73161904D02*
X100378628Y-73066666D01*
X100378628Y-73066666D02*
X100378628Y-72685714D01*
X99950057Y-73638095D02*
X99902438Y-73685714D01*
X99902438Y-73685714D02*
X99854819Y-73780952D01*
X99854819Y-73780952D02*
X99854819Y-74019047D01*
X99854819Y-74019047D02*
X99902438Y-74114285D01*
X99902438Y-74114285D02*
X99950057Y-74161904D01*
X99950057Y-74161904D02*
X100045295Y-74209523D01*
X100045295Y-74209523D02*
X100140533Y-74209523D01*
X100140533Y-74209523D02*
X100283390Y-74161904D01*
X100283390Y-74161904D02*
X100854819Y-73590476D01*
X100854819Y-73590476D02*
X100854819Y-74209523D01*
X100283390Y-74780952D02*
X100235771Y-74685714D01*
X100235771Y-74685714D02*
X100188152Y-74638095D01*
X100188152Y-74638095D02*
X100092914Y-74590476D01*
X100092914Y-74590476D02*
X100045295Y-74590476D01*
X100045295Y-74590476D02*
X99950057Y-74638095D01*
X99950057Y-74638095D02*
X99902438Y-74685714D01*
X99902438Y-74685714D02*
X99854819Y-74780952D01*
X99854819Y-74780952D02*
X99854819Y-74971428D01*
X99854819Y-74971428D02*
X99902438Y-75066666D01*
X99902438Y-75066666D02*
X99950057Y-75114285D01*
X99950057Y-75114285D02*
X100045295Y-75161904D01*
X100045295Y-75161904D02*
X100092914Y-75161904D01*
X100092914Y-75161904D02*
X100188152Y-75114285D01*
X100188152Y-75114285D02*
X100235771Y-75066666D01*
X100235771Y-75066666D02*
X100283390Y-74971428D01*
X100283390Y-74971428D02*
X100283390Y-74780952D01*
X100283390Y-74780952D02*
X100331009Y-74685714D01*
X100331009Y-74685714D02*
X100378628Y-74638095D01*
X100378628Y-74638095D02*
X100473866Y-74590476D01*
X100473866Y-74590476D02*
X100664342Y-74590476D01*
X100664342Y-74590476D02*
X100759580Y-74638095D01*
X100759580Y-74638095D02*
X100807200Y-74685714D01*
X100807200Y-74685714D02*
X100854819Y-74780952D01*
X100854819Y-74780952D02*
X100854819Y-74971428D01*
X100854819Y-74971428D02*
X100807200Y-75066666D01*
X100807200Y-75066666D02*
X100759580Y-75114285D01*
X100759580Y-75114285D02*
X100664342Y-75161904D01*
X100664342Y-75161904D02*
X100473866Y-75161904D01*
X100473866Y-75161904D02*
X100378628Y-75114285D01*
X100378628Y-75114285D02*
X100331009Y-75066666D01*
X100331009Y-75066666D02*
X100283390Y-74971428D01*
X122167857Y-101954819D02*
X122501190Y-101478628D01*
X122739285Y-101954819D02*
X122739285Y-100954819D01*
X122739285Y-100954819D02*
X122358333Y-100954819D01*
X122358333Y-100954819D02*
X122263095Y-101002438D01*
X122263095Y-101002438D02*
X122215476Y-101050057D01*
X122215476Y-101050057D02*
X122167857Y-101145295D01*
X122167857Y-101145295D02*
X122167857Y-101288152D01*
X122167857Y-101288152D02*
X122215476Y-101383390D01*
X122215476Y-101383390D02*
X122263095Y-101431009D01*
X122263095Y-101431009D02*
X122358333Y-101478628D01*
X122358333Y-101478628D02*
X122739285Y-101478628D01*
X121263095Y-100954819D02*
X121739285Y-100954819D01*
X121739285Y-100954819D02*
X121786904Y-101431009D01*
X121786904Y-101431009D02*
X121739285Y-101383390D01*
X121739285Y-101383390D02*
X121644047Y-101335771D01*
X121644047Y-101335771D02*
X121405952Y-101335771D01*
X121405952Y-101335771D02*
X121310714Y-101383390D01*
X121310714Y-101383390D02*
X121263095Y-101431009D01*
X121263095Y-101431009D02*
X121215476Y-101526247D01*
X121215476Y-101526247D02*
X121215476Y-101764342D01*
X121215476Y-101764342D02*
X121263095Y-101859580D01*
X121263095Y-101859580D02*
X121310714Y-101907200D01*
X121310714Y-101907200D02*
X121405952Y-101954819D01*
X121405952Y-101954819D02*
X121644047Y-101954819D01*
X121644047Y-101954819D02*
X121739285Y-101907200D01*
X121739285Y-101907200D02*
X121786904Y-101859580D01*
X120834523Y-101050057D02*
X120786904Y-101002438D01*
X120786904Y-101002438D02*
X120691666Y-100954819D01*
X120691666Y-100954819D02*
X120453571Y-100954819D01*
X120453571Y-100954819D02*
X120358333Y-101002438D01*
X120358333Y-101002438D02*
X120310714Y-101050057D01*
X120310714Y-101050057D02*
X120263095Y-101145295D01*
X120263095Y-101145295D02*
X120263095Y-101240533D01*
X120263095Y-101240533D02*
X120310714Y-101383390D01*
X120310714Y-101383390D02*
X120882142Y-101954819D01*
X120882142Y-101954819D02*
X120263095Y-101954819D01*
X98754819Y-133433333D02*
X98278628Y-133100000D01*
X98754819Y-132861905D02*
X97754819Y-132861905D01*
X97754819Y-132861905D02*
X97754819Y-133242857D01*
X97754819Y-133242857D02*
X97802438Y-133338095D01*
X97802438Y-133338095D02*
X97850057Y-133385714D01*
X97850057Y-133385714D02*
X97945295Y-133433333D01*
X97945295Y-133433333D02*
X98088152Y-133433333D01*
X98088152Y-133433333D02*
X98183390Y-133385714D01*
X98183390Y-133385714D02*
X98231009Y-133338095D01*
X98231009Y-133338095D02*
X98278628Y-133242857D01*
X98278628Y-133242857D02*
X98278628Y-132861905D01*
X97754819Y-134338095D02*
X97754819Y-133861905D01*
X97754819Y-133861905D02*
X98231009Y-133814286D01*
X98231009Y-133814286D02*
X98183390Y-133861905D01*
X98183390Y-133861905D02*
X98135771Y-133957143D01*
X98135771Y-133957143D02*
X98135771Y-134195238D01*
X98135771Y-134195238D02*
X98183390Y-134290476D01*
X98183390Y-134290476D02*
X98231009Y-134338095D01*
X98231009Y-134338095D02*
X98326247Y-134385714D01*
X98326247Y-134385714D02*
X98564342Y-134385714D01*
X98564342Y-134385714D02*
X98659580Y-134338095D01*
X98659580Y-134338095D02*
X98707200Y-134290476D01*
X98707200Y-134290476D02*
X98754819Y-134195238D01*
X98754819Y-134195238D02*
X98754819Y-133957143D01*
X98754819Y-133957143D02*
X98707200Y-133861905D01*
X98707200Y-133861905D02*
X98659580Y-133814286D01*
X67717857Y-94009580D02*
X67765476Y-94057200D01*
X67765476Y-94057200D02*
X67908333Y-94104819D01*
X67908333Y-94104819D02*
X68003571Y-94104819D01*
X68003571Y-94104819D02*
X68146428Y-94057200D01*
X68146428Y-94057200D02*
X68241666Y-93961961D01*
X68241666Y-93961961D02*
X68289285Y-93866723D01*
X68289285Y-93866723D02*
X68336904Y-93676247D01*
X68336904Y-93676247D02*
X68336904Y-93533390D01*
X68336904Y-93533390D02*
X68289285Y-93342914D01*
X68289285Y-93342914D02*
X68241666Y-93247676D01*
X68241666Y-93247676D02*
X68146428Y-93152438D01*
X68146428Y-93152438D02*
X68003571Y-93104819D01*
X68003571Y-93104819D02*
X67908333Y-93104819D01*
X67908333Y-93104819D02*
X67765476Y-93152438D01*
X67765476Y-93152438D02*
X67717857Y-93200057D01*
X67336904Y-93200057D02*
X67289285Y-93152438D01*
X67289285Y-93152438D02*
X67194047Y-93104819D01*
X67194047Y-93104819D02*
X66955952Y-93104819D01*
X66955952Y-93104819D02*
X66860714Y-93152438D01*
X66860714Y-93152438D02*
X66813095Y-93200057D01*
X66813095Y-93200057D02*
X66765476Y-93295295D01*
X66765476Y-93295295D02*
X66765476Y-93390533D01*
X66765476Y-93390533D02*
X66813095Y-93533390D01*
X66813095Y-93533390D02*
X67384523Y-94104819D01*
X67384523Y-94104819D02*
X66765476Y-94104819D01*
X65860714Y-93104819D02*
X66336904Y-93104819D01*
X66336904Y-93104819D02*
X66384523Y-93581009D01*
X66384523Y-93581009D02*
X66336904Y-93533390D01*
X66336904Y-93533390D02*
X66241666Y-93485771D01*
X66241666Y-93485771D02*
X66003571Y-93485771D01*
X66003571Y-93485771D02*
X65908333Y-93533390D01*
X65908333Y-93533390D02*
X65860714Y-93581009D01*
X65860714Y-93581009D02*
X65813095Y-93676247D01*
X65813095Y-93676247D02*
X65813095Y-93914342D01*
X65813095Y-93914342D02*
X65860714Y-94009580D01*
X65860714Y-94009580D02*
X65908333Y-94057200D01*
X65908333Y-94057200D02*
X66003571Y-94104819D01*
X66003571Y-94104819D02*
X66241666Y-94104819D01*
X66241666Y-94104819D02*
X66336904Y-94057200D01*
X66336904Y-94057200D02*
X66384523Y-94009580D01*
X97666666Y-124854819D02*
X97999999Y-124378628D01*
X98238094Y-124854819D02*
X98238094Y-123854819D01*
X98238094Y-123854819D02*
X97857142Y-123854819D01*
X97857142Y-123854819D02*
X97761904Y-123902438D01*
X97761904Y-123902438D02*
X97714285Y-123950057D01*
X97714285Y-123950057D02*
X97666666Y-124045295D01*
X97666666Y-124045295D02*
X97666666Y-124188152D01*
X97666666Y-124188152D02*
X97714285Y-124283390D01*
X97714285Y-124283390D02*
X97761904Y-124331009D01*
X97761904Y-124331009D02*
X97857142Y-124378628D01*
X97857142Y-124378628D02*
X98238094Y-124378628D01*
X96809523Y-123854819D02*
X96999999Y-123854819D01*
X96999999Y-123854819D02*
X97095237Y-123902438D01*
X97095237Y-123902438D02*
X97142856Y-123950057D01*
X97142856Y-123950057D02*
X97238094Y-124092914D01*
X97238094Y-124092914D02*
X97285713Y-124283390D01*
X97285713Y-124283390D02*
X97285713Y-124664342D01*
X97285713Y-124664342D02*
X97238094Y-124759580D01*
X97238094Y-124759580D02*
X97190475Y-124807200D01*
X97190475Y-124807200D02*
X97095237Y-124854819D01*
X97095237Y-124854819D02*
X96904761Y-124854819D01*
X96904761Y-124854819D02*
X96809523Y-124807200D01*
X96809523Y-124807200D02*
X96761904Y-124759580D01*
X96761904Y-124759580D02*
X96714285Y-124664342D01*
X96714285Y-124664342D02*
X96714285Y-124426247D01*
X96714285Y-124426247D02*
X96761904Y-124331009D01*
X96761904Y-124331009D02*
X96809523Y-124283390D01*
X96809523Y-124283390D02*
X96904761Y-124235771D01*
X96904761Y-124235771D02*
X97095237Y-124235771D01*
X97095237Y-124235771D02*
X97190475Y-124283390D01*
X97190475Y-124283390D02*
X97238094Y-124331009D01*
X97238094Y-124331009D02*
X97285713Y-124426247D01*
X65855357Y-109504819D02*
X66188690Y-109028628D01*
X66426785Y-109504819D02*
X66426785Y-108504819D01*
X66426785Y-108504819D02*
X66045833Y-108504819D01*
X66045833Y-108504819D02*
X65950595Y-108552438D01*
X65950595Y-108552438D02*
X65902976Y-108600057D01*
X65902976Y-108600057D02*
X65855357Y-108695295D01*
X65855357Y-108695295D02*
X65855357Y-108838152D01*
X65855357Y-108838152D02*
X65902976Y-108933390D01*
X65902976Y-108933390D02*
X65950595Y-108981009D01*
X65950595Y-108981009D02*
X66045833Y-109028628D01*
X66045833Y-109028628D02*
X66426785Y-109028628D01*
X65474404Y-108600057D02*
X65426785Y-108552438D01*
X65426785Y-108552438D02*
X65331547Y-108504819D01*
X65331547Y-108504819D02*
X65093452Y-108504819D01*
X65093452Y-108504819D02*
X64998214Y-108552438D01*
X64998214Y-108552438D02*
X64950595Y-108600057D01*
X64950595Y-108600057D02*
X64902976Y-108695295D01*
X64902976Y-108695295D02*
X64902976Y-108790533D01*
X64902976Y-108790533D02*
X64950595Y-108933390D01*
X64950595Y-108933390D02*
X65522023Y-109504819D01*
X65522023Y-109504819D02*
X64902976Y-109504819D01*
X64522023Y-108600057D02*
X64474404Y-108552438D01*
X64474404Y-108552438D02*
X64379166Y-108504819D01*
X64379166Y-108504819D02*
X64141071Y-108504819D01*
X64141071Y-108504819D02*
X64045833Y-108552438D01*
X64045833Y-108552438D02*
X63998214Y-108600057D01*
X63998214Y-108600057D02*
X63950595Y-108695295D01*
X63950595Y-108695295D02*
X63950595Y-108790533D01*
X63950595Y-108790533D02*
X63998214Y-108933390D01*
X63998214Y-108933390D02*
X64569642Y-109504819D01*
X64569642Y-109504819D02*
X63950595Y-109504819D01*
X67142857Y-84259580D02*
X67190476Y-84307200D01*
X67190476Y-84307200D02*
X67333333Y-84354819D01*
X67333333Y-84354819D02*
X67428571Y-84354819D01*
X67428571Y-84354819D02*
X67571428Y-84307200D01*
X67571428Y-84307200D02*
X67666666Y-84211961D01*
X67666666Y-84211961D02*
X67714285Y-84116723D01*
X67714285Y-84116723D02*
X67761904Y-83926247D01*
X67761904Y-83926247D02*
X67761904Y-83783390D01*
X67761904Y-83783390D02*
X67714285Y-83592914D01*
X67714285Y-83592914D02*
X67666666Y-83497676D01*
X67666666Y-83497676D02*
X67571428Y-83402438D01*
X67571428Y-83402438D02*
X67428571Y-83354819D01*
X67428571Y-83354819D02*
X67333333Y-83354819D01*
X67333333Y-83354819D02*
X67190476Y-83402438D01*
X67190476Y-83402438D02*
X67142857Y-83450057D01*
X66761904Y-83450057D02*
X66714285Y-83402438D01*
X66714285Y-83402438D02*
X66619047Y-83354819D01*
X66619047Y-83354819D02*
X66380952Y-83354819D01*
X66380952Y-83354819D02*
X66285714Y-83402438D01*
X66285714Y-83402438D02*
X66238095Y-83450057D01*
X66238095Y-83450057D02*
X66190476Y-83545295D01*
X66190476Y-83545295D02*
X66190476Y-83640533D01*
X66190476Y-83640533D02*
X66238095Y-83783390D01*
X66238095Y-83783390D02*
X66809523Y-84354819D01*
X66809523Y-84354819D02*
X66190476Y-84354819D01*
X65571428Y-83354819D02*
X65476190Y-83354819D01*
X65476190Y-83354819D02*
X65380952Y-83402438D01*
X65380952Y-83402438D02*
X65333333Y-83450057D01*
X65333333Y-83450057D02*
X65285714Y-83545295D01*
X65285714Y-83545295D02*
X65238095Y-83735771D01*
X65238095Y-83735771D02*
X65238095Y-83973866D01*
X65238095Y-83973866D02*
X65285714Y-84164342D01*
X65285714Y-84164342D02*
X65333333Y-84259580D01*
X65333333Y-84259580D02*
X65380952Y-84307200D01*
X65380952Y-84307200D02*
X65476190Y-84354819D01*
X65476190Y-84354819D02*
X65571428Y-84354819D01*
X65571428Y-84354819D02*
X65666666Y-84307200D01*
X65666666Y-84307200D02*
X65714285Y-84259580D01*
X65714285Y-84259580D02*
X65761904Y-84164342D01*
X65761904Y-84164342D02*
X65809523Y-83973866D01*
X65809523Y-83973866D02*
X65809523Y-83735771D01*
X65809523Y-83735771D02*
X65761904Y-83545295D01*
X65761904Y-83545295D02*
X65714285Y-83450057D01*
X65714285Y-83450057D02*
X65666666Y-83402438D01*
X65666666Y-83402438D02*
X65571428Y-83354819D01*
X87412429Y-80335189D02*
X87361688Y-79756144D01*
X87850168Y-79967882D02*
X87207381Y-79201838D01*
X87207381Y-79201838D02*
X86915554Y-79446709D01*
X86915554Y-79446709D02*
X86873207Y-79544405D01*
X86873207Y-79544405D02*
X86867337Y-79611493D01*
X86867337Y-79611493D02*
X86892077Y-79715058D01*
X86892077Y-79715058D02*
X86983904Y-79824493D01*
X86983904Y-79824493D02*
X87081600Y-79866841D01*
X87081600Y-79866841D02*
X87148687Y-79872710D01*
X87148687Y-79872710D02*
X87252253Y-79847971D01*
X87252253Y-79847971D02*
X87544079Y-79603099D01*
X86539033Y-79886973D02*
X86471945Y-79881104D01*
X86471945Y-79881104D02*
X86368380Y-79905843D01*
X86368380Y-79905843D02*
X86185988Y-80058888D01*
X86185988Y-80058888D02*
X86143641Y-80156584D01*
X86143641Y-80156584D02*
X86137771Y-80223671D01*
X86137771Y-80223671D02*
X86162511Y-80327237D01*
X86162511Y-80327237D02*
X86223729Y-80400194D01*
X86223729Y-80400194D02*
X86352034Y-80479020D01*
X86352034Y-80479020D02*
X87157081Y-80549452D01*
X87157081Y-80549452D02*
X86682863Y-80947368D01*
X85784727Y-80395586D02*
X85310509Y-80793502D01*
X85310509Y-80793502D02*
X85810728Y-80871066D01*
X85810728Y-80871066D02*
X85701294Y-80962893D01*
X85701294Y-80962893D02*
X85658946Y-81060589D01*
X85658946Y-81060589D02*
X85653076Y-81127677D01*
X85653076Y-81127677D02*
X85677816Y-81231242D01*
X85677816Y-81231242D02*
X85830861Y-81413634D01*
X85830861Y-81413634D02*
X85928557Y-81455981D01*
X85928557Y-81455981D02*
X85995644Y-81461851D01*
X85995644Y-81461851D02*
X86099210Y-81437111D01*
X86099210Y-81437111D02*
X86318079Y-81253458D01*
X86318079Y-81253458D02*
X86360427Y-81155761D01*
X86360427Y-81155761D02*
X86366297Y-81088674D01*
X97404819Y-63457142D02*
X96928628Y-63123809D01*
X97404819Y-62885714D02*
X96404819Y-62885714D01*
X96404819Y-62885714D02*
X96404819Y-63266666D01*
X96404819Y-63266666D02*
X96452438Y-63361904D01*
X96452438Y-63361904D02*
X96500057Y-63409523D01*
X96500057Y-63409523D02*
X96595295Y-63457142D01*
X96595295Y-63457142D02*
X96738152Y-63457142D01*
X96738152Y-63457142D02*
X96833390Y-63409523D01*
X96833390Y-63409523D02*
X96881009Y-63361904D01*
X96881009Y-63361904D02*
X96928628Y-63266666D01*
X96928628Y-63266666D02*
X96928628Y-62885714D01*
X97404819Y-64409523D02*
X97404819Y-63838095D01*
X97404819Y-64123809D02*
X96404819Y-64123809D01*
X96404819Y-64123809D02*
X96547676Y-64028571D01*
X96547676Y-64028571D02*
X96642914Y-63933333D01*
X96642914Y-63933333D02*
X96690533Y-63838095D01*
X97404819Y-65361904D02*
X97404819Y-64790476D01*
X97404819Y-65076190D02*
X96404819Y-65076190D01*
X96404819Y-65076190D02*
X96547676Y-64980952D01*
X96547676Y-64980952D02*
X96642914Y-64885714D01*
X96642914Y-64885714D02*
X96690533Y-64790476D01*
X128684819Y-103407142D02*
X128208628Y-103073809D01*
X128684819Y-102835714D02*
X127684819Y-102835714D01*
X127684819Y-102835714D02*
X127684819Y-103216666D01*
X127684819Y-103216666D02*
X127732438Y-103311904D01*
X127732438Y-103311904D02*
X127780057Y-103359523D01*
X127780057Y-103359523D02*
X127875295Y-103407142D01*
X127875295Y-103407142D02*
X128018152Y-103407142D01*
X128018152Y-103407142D02*
X128113390Y-103359523D01*
X128113390Y-103359523D02*
X128161009Y-103311904D01*
X128161009Y-103311904D02*
X128208628Y-103216666D01*
X128208628Y-103216666D02*
X128208628Y-102835714D01*
X127684819Y-103740476D02*
X127684819Y-104407142D01*
X127684819Y-104407142D02*
X128684819Y-103978571D01*
X127684819Y-104978571D02*
X127684819Y-105073809D01*
X127684819Y-105073809D02*
X127732438Y-105169047D01*
X127732438Y-105169047D02*
X127780057Y-105216666D01*
X127780057Y-105216666D02*
X127875295Y-105264285D01*
X127875295Y-105264285D02*
X128065771Y-105311904D01*
X128065771Y-105311904D02*
X128303866Y-105311904D01*
X128303866Y-105311904D02*
X128494342Y-105264285D01*
X128494342Y-105264285D02*
X128589580Y-105216666D01*
X128589580Y-105216666D02*
X128637200Y-105169047D01*
X128637200Y-105169047D02*
X128684819Y-105073809D01*
X128684819Y-105073809D02*
X128684819Y-104978571D01*
X128684819Y-104978571D02*
X128637200Y-104883333D01*
X128637200Y-104883333D02*
X128589580Y-104835714D01*
X128589580Y-104835714D02*
X128494342Y-104788095D01*
X128494342Y-104788095D02*
X128303866Y-104740476D01*
X128303866Y-104740476D02*
X128065771Y-104740476D01*
X128065771Y-104740476D02*
X127875295Y-104788095D01*
X127875295Y-104788095D02*
X127780057Y-104835714D01*
X127780057Y-104835714D02*
X127732438Y-104883333D01*
X127732438Y-104883333D02*
X127684819Y-104978571D01*
X76715239Y-110554819D02*
X77048572Y-110078628D01*
X77286667Y-110554819D02*
X77286667Y-109554819D01*
X77286667Y-109554819D02*
X76905715Y-109554819D01*
X76905715Y-109554819D02*
X76810477Y-109602438D01*
X76810477Y-109602438D02*
X76762858Y-109650057D01*
X76762858Y-109650057D02*
X76715239Y-109745295D01*
X76715239Y-109745295D02*
X76715239Y-109888152D01*
X76715239Y-109888152D02*
X76762858Y-109983390D01*
X76762858Y-109983390D02*
X76810477Y-110031009D01*
X76810477Y-110031009D02*
X76905715Y-110078628D01*
X76905715Y-110078628D02*
X77286667Y-110078628D01*
X76381905Y-109554819D02*
X75762858Y-109554819D01*
X75762858Y-109554819D02*
X76096191Y-109935771D01*
X76096191Y-109935771D02*
X75953334Y-109935771D01*
X75953334Y-109935771D02*
X75858096Y-109983390D01*
X75858096Y-109983390D02*
X75810477Y-110031009D01*
X75810477Y-110031009D02*
X75762858Y-110126247D01*
X75762858Y-110126247D02*
X75762858Y-110364342D01*
X75762858Y-110364342D02*
X75810477Y-110459580D01*
X75810477Y-110459580D02*
X75858096Y-110507200D01*
X75858096Y-110507200D02*
X75953334Y-110554819D01*
X75953334Y-110554819D02*
X76239048Y-110554819D01*
X76239048Y-110554819D02*
X76334286Y-110507200D01*
X76334286Y-110507200D02*
X76381905Y-110459580D01*
X75429524Y-109554819D02*
X74810477Y-109554819D01*
X74810477Y-109554819D02*
X75143810Y-109935771D01*
X75143810Y-109935771D02*
X75000953Y-109935771D01*
X75000953Y-109935771D02*
X74905715Y-109983390D01*
X74905715Y-109983390D02*
X74858096Y-110031009D01*
X74858096Y-110031009D02*
X74810477Y-110126247D01*
X74810477Y-110126247D02*
X74810477Y-110364342D01*
X74810477Y-110364342D02*
X74858096Y-110459580D01*
X74858096Y-110459580D02*
X74905715Y-110507200D01*
X74905715Y-110507200D02*
X75000953Y-110554819D01*
X75000953Y-110554819D02*
X75286667Y-110554819D01*
X75286667Y-110554819D02*
X75381905Y-110507200D01*
X75381905Y-110507200D02*
X75429524Y-110459580D01*
X89257004Y-82494369D02*
X89206263Y-81915324D01*
X89694743Y-82127062D02*
X89051956Y-81361018D01*
X89051956Y-81361018D02*
X88760129Y-81605889D01*
X88760129Y-81605889D02*
X88717782Y-81703585D01*
X88717782Y-81703585D02*
X88711912Y-81770673D01*
X88711912Y-81770673D02*
X88736652Y-81874238D01*
X88736652Y-81874238D02*
X88828479Y-81983673D01*
X88828479Y-81983673D02*
X88926175Y-82026021D01*
X88926175Y-82026021D02*
X88993262Y-82031890D01*
X88993262Y-82031890D02*
X89096828Y-82007151D01*
X89096828Y-82007151D02*
X89388654Y-81762279D01*
X88383608Y-82046153D02*
X88316520Y-82040284D01*
X88316520Y-82040284D02*
X88212955Y-82065023D01*
X88212955Y-82065023D02*
X88030563Y-82218068D01*
X88030563Y-82218068D02*
X87988216Y-82315764D01*
X87988216Y-82315764D02*
X87982346Y-82382851D01*
X87982346Y-82382851D02*
X88007086Y-82486417D01*
X88007086Y-82486417D02*
X88068304Y-82559374D01*
X88068304Y-82559374D02*
X88196609Y-82638200D01*
X88196609Y-82638200D02*
X89001656Y-82708632D01*
X89001656Y-82708632D02*
X88527438Y-83106548D01*
X87191562Y-82922073D02*
X87556345Y-82615984D01*
X87556345Y-82615984D02*
X87898913Y-82950158D01*
X87898913Y-82950158D02*
X87831826Y-82944289D01*
X87831826Y-82944289D02*
X87728260Y-82969028D01*
X87728260Y-82969028D02*
X87545869Y-83122073D01*
X87545869Y-83122073D02*
X87503521Y-83219769D01*
X87503521Y-83219769D02*
X87497651Y-83286857D01*
X87497651Y-83286857D02*
X87522391Y-83390422D01*
X87522391Y-83390422D02*
X87675436Y-83572814D01*
X87675436Y-83572814D02*
X87773132Y-83615161D01*
X87773132Y-83615161D02*
X87840219Y-83621031D01*
X87840219Y-83621031D02*
X87943785Y-83596291D01*
X87943785Y-83596291D02*
X88126176Y-83443246D01*
X88126176Y-83443246D02*
X88168524Y-83345550D01*
X88168524Y-83345550D02*
X88174393Y-83278463D01*
X122167857Y-100554819D02*
X122501190Y-100078628D01*
X122739285Y-100554819D02*
X122739285Y-99554819D01*
X122739285Y-99554819D02*
X122358333Y-99554819D01*
X122358333Y-99554819D02*
X122263095Y-99602438D01*
X122263095Y-99602438D02*
X122215476Y-99650057D01*
X122215476Y-99650057D02*
X122167857Y-99745295D01*
X122167857Y-99745295D02*
X122167857Y-99888152D01*
X122167857Y-99888152D02*
X122215476Y-99983390D01*
X122215476Y-99983390D02*
X122263095Y-100031009D01*
X122263095Y-100031009D02*
X122358333Y-100078628D01*
X122358333Y-100078628D02*
X122739285Y-100078628D01*
X121263095Y-99554819D02*
X121739285Y-99554819D01*
X121739285Y-99554819D02*
X121786904Y-100031009D01*
X121786904Y-100031009D02*
X121739285Y-99983390D01*
X121739285Y-99983390D02*
X121644047Y-99935771D01*
X121644047Y-99935771D02*
X121405952Y-99935771D01*
X121405952Y-99935771D02*
X121310714Y-99983390D01*
X121310714Y-99983390D02*
X121263095Y-100031009D01*
X121263095Y-100031009D02*
X121215476Y-100126247D01*
X121215476Y-100126247D02*
X121215476Y-100364342D01*
X121215476Y-100364342D02*
X121263095Y-100459580D01*
X121263095Y-100459580D02*
X121310714Y-100507200D01*
X121310714Y-100507200D02*
X121405952Y-100554819D01*
X121405952Y-100554819D02*
X121644047Y-100554819D01*
X121644047Y-100554819D02*
X121739285Y-100507200D01*
X121739285Y-100507200D02*
X121786904Y-100459580D01*
X120263095Y-100554819D02*
X120834523Y-100554819D01*
X120548809Y-100554819D02*
X120548809Y-99554819D01*
X120548809Y-99554819D02*
X120644047Y-99697676D01*
X120644047Y-99697676D02*
X120739285Y-99792914D01*
X120739285Y-99792914D02*
X120834523Y-99840533D01*
X97254819Y-133333333D02*
X96778628Y-133000000D01*
X97254819Y-132761905D02*
X96254819Y-132761905D01*
X96254819Y-132761905D02*
X96254819Y-133142857D01*
X96254819Y-133142857D02*
X96302438Y-133238095D01*
X96302438Y-133238095D02*
X96350057Y-133285714D01*
X96350057Y-133285714D02*
X96445295Y-133333333D01*
X96445295Y-133333333D02*
X96588152Y-133333333D01*
X96588152Y-133333333D02*
X96683390Y-133285714D01*
X96683390Y-133285714D02*
X96731009Y-133238095D01*
X96731009Y-133238095D02*
X96778628Y-133142857D01*
X96778628Y-133142857D02*
X96778628Y-132761905D01*
X96254819Y-133666667D02*
X96254819Y-134333333D01*
X96254819Y-134333333D02*
X97254819Y-133904762D01*
X78333333Y-76854819D02*
X78333333Y-77569104D01*
X78333333Y-77569104D02*
X78380952Y-77711961D01*
X78380952Y-77711961D02*
X78476190Y-77807200D01*
X78476190Y-77807200D02*
X78619047Y-77854819D01*
X78619047Y-77854819D02*
X78714285Y-77854819D01*
X77857142Y-77854819D02*
X77857142Y-76854819D01*
X77857142Y-76854819D02*
X77476190Y-76854819D01*
X77476190Y-76854819D02*
X77380952Y-76902438D01*
X77380952Y-76902438D02*
X77333333Y-76950057D01*
X77333333Y-76950057D02*
X77285714Y-77045295D01*
X77285714Y-77045295D02*
X77285714Y-77188152D01*
X77285714Y-77188152D02*
X77333333Y-77283390D01*
X77333333Y-77283390D02*
X77380952Y-77331009D01*
X77380952Y-77331009D02*
X77476190Y-77378628D01*
X77476190Y-77378628D02*
X77857142Y-77378628D01*
X76333333Y-77854819D02*
X76904761Y-77854819D01*
X76619047Y-77854819D02*
X76619047Y-76854819D01*
X76619047Y-76854819D02*
X76714285Y-76997676D01*
X76714285Y-76997676D02*
X76809523Y-77092914D01*
X76809523Y-77092914D02*
X76904761Y-77140533D01*
X76454178Y-72723585D02*
X76742854Y-72556919D01*
X77004758Y-73010551D02*
X76504758Y-72144526D01*
X76504758Y-72144526D02*
X76092365Y-72382621D01*
X75808818Y-73701027D02*
X76303690Y-73415313D01*
X76056254Y-73558170D02*
X75556254Y-72692145D01*
X75556254Y-72692145D02*
X75710161Y-72768244D01*
X75710161Y-72768244D02*
X75840259Y-72803103D01*
X75840259Y-72803103D02*
X75946547Y-72796723D01*
X127251097Y-110606743D02*
X126774906Y-110273410D01*
X127251097Y-110035315D02*
X126251097Y-110035315D01*
X126251097Y-110035315D02*
X126251097Y-110416267D01*
X126251097Y-110416267D02*
X126298716Y-110511505D01*
X126298716Y-110511505D02*
X126346335Y-110559124D01*
X126346335Y-110559124D02*
X126441573Y-110606743D01*
X126441573Y-110606743D02*
X126584430Y-110606743D01*
X126584430Y-110606743D02*
X126679668Y-110559124D01*
X126679668Y-110559124D02*
X126727287Y-110511505D01*
X126727287Y-110511505D02*
X126774906Y-110416267D01*
X126774906Y-110416267D02*
X126774906Y-110035315D01*
X126584430Y-111463886D02*
X127251097Y-111463886D01*
X126203478Y-111225791D02*
X126917763Y-110987696D01*
X126917763Y-110987696D02*
X126917763Y-111606743D01*
X126679668Y-112130553D02*
X126632049Y-112035315D01*
X126632049Y-112035315D02*
X126584430Y-111987696D01*
X126584430Y-111987696D02*
X126489192Y-111940077D01*
X126489192Y-111940077D02*
X126441573Y-111940077D01*
X126441573Y-111940077D02*
X126346335Y-111987696D01*
X126346335Y-111987696D02*
X126298716Y-112035315D01*
X126298716Y-112035315D02*
X126251097Y-112130553D01*
X126251097Y-112130553D02*
X126251097Y-112321029D01*
X126251097Y-112321029D02*
X126298716Y-112416267D01*
X126298716Y-112416267D02*
X126346335Y-112463886D01*
X126346335Y-112463886D02*
X126441573Y-112511505D01*
X126441573Y-112511505D02*
X126489192Y-112511505D01*
X126489192Y-112511505D02*
X126584430Y-112463886D01*
X126584430Y-112463886D02*
X126632049Y-112416267D01*
X126632049Y-112416267D02*
X126679668Y-112321029D01*
X126679668Y-112321029D02*
X126679668Y-112130553D01*
X126679668Y-112130553D02*
X126727287Y-112035315D01*
X126727287Y-112035315D02*
X126774906Y-111987696D01*
X126774906Y-111987696D02*
X126870144Y-111940077D01*
X126870144Y-111940077D02*
X127060620Y-111940077D01*
X127060620Y-111940077D02*
X127155858Y-111987696D01*
X127155858Y-111987696D02*
X127203478Y-112035315D01*
X127203478Y-112035315D02*
X127251097Y-112130553D01*
X127251097Y-112130553D02*
X127251097Y-112321029D01*
X127251097Y-112321029D02*
X127203478Y-112416267D01*
X127203478Y-112416267D02*
X127155858Y-112463886D01*
X127155858Y-112463886D02*
X127060620Y-112511505D01*
X127060620Y-112511505D02*
X126870144Y-112511505D01*
X126870144Y-112511505D02*
X126774906Y-112463886D01*
X126774906Y-112463886D02*
X126727287Y-112416267D01*
X126727287Y-112416267D02*
X126679668Y-112321029D01*
X65817857Y-107864819D02*
X66151190Y-107388628D01*
X66389285Y-107864819D02*
X66389285Y-106864819D01*
X66389285Y-106864819D02*
X66008333Y-106864819D01*
X66008333Y-106864819D02*
X65913095Y-106912438D01*
X65913095Y-106912438D02*
X65865476Y-106960057D01*
X65865476Y-106960057D02*
X65817857Y-107055295D01*
X65817857Y-107055295D02*
X65817857Y-107198152D01*
X65817857Y-107198152D02*
X65865476Y-107293390D01*
X65865476Y-107293390D02*
X65913095Y-107341009D01*
X65913095Y-107341009D02*
X66008333Y-107388628D01*
X66008333Y-107388628D02*
X66389285Y-107388628D01*
X64913095Y-106864819D02*
X65389285Y-106864819D01*
X65389285Y-106864819D02*
X65436904Y-107341009D01*
X65436904Y-107341009D02*
X65389285Y-107293390D01*
X65389285Y-107293390D02*
X65294047Y-107245771D01*
X65294047Y-107245771D02*
X65055952Y-107245771D01*
X65055952Y-107245771D02*
X64960714Y-107293390D01*
X64960714Y-107293390D02*
X64913095Y-107341009D01*
X64913095Y-107341009D02*
X64865476Y-107436247D01*
X64865476Y-107436247D02*
X64865476Y-107674342D01*
X64865476Y-107674342D02*
X64913095Y-107769580D01*
X64913095Y-107769580D02*
X64960714Y-107817200D01*
X64960714Y-107817200D02*
X65055952Y-107864819D01*
X65055952Y-107864819D02*
X65294047Y-107864819D01*
X65294047Y-107864819D02*
X65389285Y-107817200D01*
X65389285Y-107817200D02*
X65436904Y-107769580D01*
X64008333Y-107198152D02*
X64008333Y-107864819D01*
X64246428Y-106817200D02*
X64484523Y-107531485D01*
X64484523Y-107531485D02*
X63865476Y-107531485D01*
X76715239Y-108959580D02*
X76762858Y-109007200D01*
X76762858Y-109007200D02*
X76905715Y-109054819D01*
X76905715Y-109054819D02*
X77000953Y-109054819D01*
X77000953Y-109054819D02*
X77143810Y-109007200D01*
X77143810Y-109007200D02*
X77239048Y-108911961D01*
X77239048Y-108911961D02*
X77286667Y-108816723D01*
X77286667Y-108816723D02*
X77334286Y-108626247D01*
X77334286Y-108626247D02*
X77334286Y-108483390D01*
X77334286Y-108483390D02*
X77286667Y-108292914D01*
X77286667Y-108292914D02*
X77239048Y-108197676D01*
X77239048Y-108197676D02*
X77143810Y-108102438D01*
X77143810Y-108102438D02*
X77000953Y-108054819D01*
X77000953Y-108054819D02*
X76905715Y-108054819D01*
X76905715Y-108054819D02*
X76762858Y-108102438D01*
X76762858Y-108102438D02*
X76715239Y-108150057D01*
X76334286Y-108150057D02*
X76286667Y-108102438D01*
X76286667Y-108102438D02*
X76191429Y-108054819D01*
X76191429Y-108054819D02*
X75953334Y-108054819D01*
X75953334Y-108054819D02*
X75858096Y-108102438D01*
X75858096Y-108102438D02*
X75810477Y-108150057D01*
X75810477Y-108150057D02*
X75762858Y-108245295D01*
X75762858Y-108245295D02*
X75762858Y-108340533D01*
X75762858Y-108340533D02*
X75810477Y-108483390D01*
X75810477Y-108483390D02*
X76381905Y-109054819D01*
X76381905Y-109054819D02*
X75762858Y-109054819D01*
X75429524Y-108054819D02*
X74810477Y-108054819D01*
X74810477Y-108054819D02*
X75143810Y-108435771D01*
X75143810Y-108435771D02*
X75000953Y-108435771D01*
X75000953Y-108435771D02*
X74905715Y-108483390D01*
X74905715Y-108483390D02*
X74858096Y-108531009D01*
X74858096Y-108531009D02*
X74810477Y-108626247D01*
X74810477Y-108626247D02*
X74810477Y-108864342D01*
X74810477Y-108864342D02*
X74858096Y-108959580D01*
X74858096Y-108959580D02*
X74905715Y-109007200D01*
X74905715Y-109007200D02*
X75000953Y-109054819D01*
X75000953Y-109054819D02*
X75286667Y-109054819D01*
X75286667Y-109054819D02*
X75381905Y-109007200D01*
X75381905Y-109007200D02*
X75429524Y-108959580D01*
X76715239Y-112054819D02*
X77048572Y-111578628D01*
X77286667Y-112054819D02*
X77286667Y-111054819D01*
X77286667Y-111054819D02*
X76905715Y-111054819D01*
X76905715Y-111054819D02*
X76810477Y-111102438D01*
X76810477Y-111102438D02*
X76762858Y-111150057D01*
X76762858Y-111150057D02*
X76715239Y-111245295D01*
X76715239Y-111245295D02*
X76715239Y-111388152D01*
X76715239Y-111388152D02*
X76762858Y-111483390D01*
X76762858Y-111483390D02*
X76810477Y-111531009D01*
X76810477Y-111531009D02*
X76905715Y-111578628D01*
X76905715Y-111578628D02*
X77286667Y-111578628D01*
X76381905Y-111054819D02*
X75762858Y-111054819D01*
X75762858Y-111054819D02*
X76096191Y-111435771D01*
X76096191Y-111435771D02*
X75953334Y-111435771D01*
X75953334Y-111435771D02*
X75858096Y-111483390D01*
X75858096Y-111483390D02*
X75810477Y-111531009D01*
X75810477Y-111531009D02*
X75762858Y-111626247D01*
X75762858Y-111626247D02*
X75762858Y-111864342D01*
X75762858Y-111864342D02*
X75810477Y-111959580D01*
X75810477Y-111959580D02*
X75858096Y-112007200D01*
X75858096Y-112007200D02*
X75953334Y-112054819D01*
X75953334Y-112054819D02*
X76239048Y-112054819D01*
X76239048Y-112054819D02*
X76334286Y-112007200D01*
X76334286Y-112007200D02*
X76381905Y-111959580D01*
X75381905Y-111150057D02*
X75334286Y-111102438D01*
X75334286Y-111102438D02*
X75239048Y-111054819D01*
X75239048Y-111054819D02*
X75000953Y-111054819D01*
X75000953Y-111054819D02*
X74905715Y-111102438D01*
X74905715Y-111102438D02*
X74858096Y-111150057D01*
X74858096Y-111150057D02*
X74810477Y-111245295D01*
X74810477Y-111245295D02*
X74810477Y-111340533D01*
X74810477Y-111340533D02*
X74858096Y-111483390D01*
X74858096Y-111483390D02*
X75429524Y-112054819D01*
X75429524Y-112054819D02*
X74810477Y-112054819D01*
X122142857Y-97464901D02*
X122476190Y-96988710D01*
X122714285Y-97464901D02*
X122714285Y-96464901D01*
X122714285Y-96464901D02*
X122333333Y-96464901D01*
X122333333Y-96464901D02*
X122238095Y-96512520D01*
X122238095Y-96512520D02*
X122190476Y-96560139D01*
X122190476Y-96560139D02*
X122142857Y-96655377D01*
X122142857Y-96655377D02*
X122142857Y-96798234D01*
X122142857Y-96798234D02*
X122190476Y-96893472D01*
X122190476Y-96893472D02*
X122238095Y-96941091D01*
X122238095Y-96941091D02*
X122333333Y-96988710D01*
X122333333Y-96988710D02*
X122714285Y-96988710D01*
X121285714Y-96798234D02*
X121285714Y-97464901D01*
X121523809Y-96417282D02*
X121761904Y-97131567D01*
X121761904Y-97131567D02*
X121142857Y-97131567D01*
X120238095Y-97464901D02*
X120809523Y-97464901D01*
X120523809Y-97464901D02*
X120523809Y-96464901D01*
X120523809Y-96464901D02*
X120619047Y-96607758D01*
X120619047Y-96607758D02*
X120714285Y-96702996D01*
X120714285Y-96702996D02*
X120809523Y-96750615D01*
X65942857Y-111034819D02*
X66276190Y-110558628D01*
X66514285Y-111034819D02*
X66514285Y-110034819D01*
X66514285Y-110034819D02*
X66133333Y-110034819D01*
X66133333Y-110034819D02*
X66038095Y-110082438D01*
X66038095Y-110082438D02*
X65990476Y-110130057D01*
X65990476Y-110130057D02*
X65942857Y-110225295D01*
X65942857Y-110225295D02*
X65942857Y-110368152D01*
X65942857Y-110368152D02*
X65990476Y-110463390D01*
X65990476Y-110463390D02*
X66038095Y-110511009D01*
X66038095Y-110511009D02*
X66133333Y-110558628D01*
X66133333Y-110558628D02*
X66514285Y-110558628D01*
X64990476Y-111034819D02*
X65561904Y-111034819D01*
X65276190Y-111034819D02*
X65276190Y-110034819D01*
X65276190Y-110034819D02*
X65371428Y-110177676D01*
X65371428Y-110177676D02*
X65466666Y-110272914D01*
X65466666Y-110272914D02*
X65561904Y-110320533D01*
X64085714Y-110034819D02*
X64561904Y-110034819D01*
X64561904Y-110034819D02*
X64609523Y-110511009D01*
X64609523Y-110511009D02*
X64561904Y-110463390D01*
X64561904Y-110463390D02*
X64466666Y-110415771D01*
X64466666Y-110415771D02*
X64228571Y-110415771D01*
X64228571Y-110415771D02*
X64133333Y-110463390D01*
X64133333Y-110463390D02*
X64085714Y-110511009D01*
X64085714Y-110511009D02*
X64038095Y-110606247D01*
X64038095Y-110606247D02*
X64038095Y-110844342D01*
X64038095Y-110844342D02*
X64085714Y-110939580D01*
X64085714Y-110939580D02*
X64133333Y-110987200D01*
X64133333Y-110987200D02*
X64228571Y-111034819D01*
X64228571Y-111034819D02*
X64466666Y-111034819D01*
X64466666Y-111034819D02*
X64561904Y-110987200D01*
X64561904Y-110987200D02*
X64609523Y-110939580D01*
X125754819Y-110607142D02*
X125278628Y-110273809D01*
X125754819Y-110035714D02*
X124754819Y-110035714D01*
X124754819Y-110035714D02*
X124754819Y-110416666D01*
X124754819Y-110416666D02*
X124802438Y-110511904D01*
X124802438Y-110511904D02*
X124850057Y-110559523D01*
X124850057Y-110559523D02*
X124945295Y-110607142D01*
X124945295Y-110607142D02*
X125088152Y-110607142D01*
X125088152Y-110607142D02*
X125183390Y-110559523D01*
X125183390Y-110559523D02*
X125231009Y-110511904D01*
X125231009Y-110511904D02*
X125278628Y-110416666D01*
X125278628Y-110416666D02*
X125278628Y-110035714D01*
X124754819Y-111464285D02*
X124754819Y-111273809D01*
X124754819Y-111273809D02*
X124802438Y-111178571D01*
X124802438Y-111178571D02*
X124850057Y-111130952D01*
X124850057Y-111130952D02*
X124992914Y-111035714D01*
X124992914Y-111035714D02*
X125183390Y-110988095D01*
X125183390Y-110988095D02*
X125564342Y-110988095D01*
X125564342Y-110988095D02*
X125659580Y-111035714D01*
X125659580Y-111035714D02*
X125707200Y-111083333D01*
X125707200Y-111083333D02*
X125754819Y-111178571D01*
X125754819Y-111178571D02*
X125754819Y-111369047D01*
X125754819Y-111369047D02*
X125707200Y-111464285D01*
X125707200Y-111464285D02*
X125659580Y-111511904D01*
X125659580Y-111511904D02*
X125564342Y-111559523D01*
X125564342Y-111559523D02*
X125326247Y-111559523D01*
X125326247Y-111559523D02*
X125231009Y-111511904D01*
X125231009Y-111511904D02*
X125183390Y-111464285D01*
X125183390Y-111464285D02*
X125135771Y-111369047D01*
X125135771Y-111369047D02*
X125135771Y-111178571D01*
X125135771Y-111178571D02*
X125183390Y-111083333D01*
X125183390Y-111083333D02*
X125231009Y-111035714D01*
X125231009Y-111035714D02*
X125326247Y-110988095D01*
X125754819Y-112035714D02*
X125754819Y-112226190D01*
X125754819Y-112226190D02*
X125707200Y-112321428D01*
X125707200Y-112321428D02*
X125659580Y-112369047D01*
X125659580Y-112369047D02*
X125516723Y-112464285D01*
X125516723Y-112464285D02*
X125326247Y-112511904D01*
X125326247Y-112511904D02*
X124945295Y-112511904D01*
X124945295Y-112511904D02*
X124850057Y-112464285D01*
X124850057Y-112464285D02*
X124802438Y-112416666D01*
X124802438Y-112416666D02*
X124754819Y-112321428D01*
X124754819Y-112321428D02*
X124754819Y-112130952D01*
X124754819Y-112130952D02*
X124802438Y-112035714D01*
X124802438Y-112035714D02*
X124850057Y-111988095D01*
X124850057Y-111988095D02*
X124945295Y-111940476D01*
X124945295Y-111940476D02*
X125183390Y-111940476D01*
X125183390Y-111940476D02*
X125278628Y-111988095D01*
X125278628Y-111988095D02*
X125326247Y-112035714D01*
X125326247Y-112035714D02*
X125373866Y-112130952D01*
X125373866Y-112130952D02*
X125373866Y-112321428D01*
X125373866Y-112321428D02*
X125326247Y-112416666D01*
X125326247Y-112416666D02*
X125278628Y-112464285D01*
X125278628Y-112464285D02*
X125183390Y-112511904D01*
X122192857Y-94454819D02*
X122526190Y-93978628D01*
X122764285Y-94454819D02*
X122764285Y-93454819D01*
X122764285Y-93454819D02*
X122383333Y-93454819D01*
X122383333Y-93454819D02*
X122288095Y-93502438D01*
X122288095Y-93502438D02*
X122240476Y-93550057D01*
X122240476Y-93550057D02*
X122192857Y-93645295D01*
X122192857Y-93645295D02*
X122192857Y-93788152D01*
X122192857Y-93788152D02*
X122240476Y-93883390D01*
X122240476Y-93883390D02*
X122288095Y-93931009D01*
X122288095Y-93931009D02*
X122383333Y-93978628D01*
X122383333Y-93978628D02*
X122764285Y-93978628D01*
X121335714Y-93788152D02*
X121335714Y-94454819D01*
X121573809Y-93407200D02*
X121811904Y-94121485D01*
X121811904Y-94121485D02*
X121192857Y-94121485D01*
X120764285Y-94454819D02*
X120573809Y-94454819D01*
X120573809Y-94454819D02*
X120478571Y-94407200D01*
X120478571Y-94407200D02*
X120430952Y-94359580D01*
X120430952Y-94359580D02*
X120335714Y-94216723D01*
X120335714Y-94216723D02*
X120288095Y-94026247D01*
X120288095Y-94026247D02*
X120288095Y-93645295D01*
X120288095Y-93645295D02*
X120335714Y-93550057D01*
X120335714Y-93550057D02*
X120383333Y-93502438D01*
X120383333Y-93502438D02*
X120478571Y-93454819D01*
X120478571Y-93454819D02*
X120669047Y-93454819D01*
X120669047Y-93454819D02*
X120764285Y-93502438D01*
X120764285Y-93502438D02*
X120811904Y-93550057D01*
X120811904Y-93550057D02*
X120859523Y-93645295D01*
X120859523Y-93645295D02*
X120859523Y-93883390D01*
X120859523Y-93883390D02*
X120811904Y-93978628D01*
X120811904Y-93978628D02*
X120764285Y-94026247D01*
X120764285Y-94026247D02*
X120669047Y-94073866D01*
X120669047Y-94073866D02*
X120478571Y-94073866D01*
X120478571Y-94073866D02*
X120383333Y-94026247D01*
X120383333Y-94026247D02*
X120335714Y-93978628D01*
X120335714Y-93978628D02*
X120288095Y-93883390D01*
X89236521Y-73539977D02*
X89301569Y-73557407D01*
X89301569Y-73557407D02*
X89449097Y-73527218D01*
X89449097Y-73527218D02*
X89531576Y-73479599D01*
X89531576Y-73479599D02*
X89631484Y-73366931D01*
X89631484Y-73366931D02*
X89666343Y-73236833D01*
X89666343Y-73236833D02*
X89659964Y-73130545D01*
X89659964Y-73130545D02*
X89605965Y-72941778D01*
X89605965Y-72941778D02*
X89534536Y-72818060D01*
X89534536Y-72818060D02*
X89398059Y-72676913D01*
X89398059Y-72676913D02*
X89309201Y-72618244D01*
X89309201Y-72618244D02*
X89179103Y-72583384D01*
X89179103Y-72583384D02*
X89031576Y-72613573D01*
X89031576Y-72613573D02*
X88949097Y-72661192D01*
X88949097Y-72661192D02*
X88849189Y-72773860D01*
X88849189Y-72773860D02*
X88831759Y-72838909D01*
X88459354Y-74098646D02*
X88954225Y-73812932D01*
X88706789Y-73955789D02*
X88206789Y-73089764D01*
X88206789Y-73089764D02*
X88360697Y-73165863D01*
X88360697Y-73165863D02*
X88490794Y-73200722D01*
X88490794Y-73200722D02*
X88597082Y-73194342D01*
X87423243Y-73542145D02*
X87340764Y-73589764D01*
X87340764Y-73589764D02*
X87282095Y-73678622D01*
X87282095Y-73678622D02*
X87264665Y-73743671D01*
X87264665Y-73743671D02*
X87271045Y-73849959D01*
X87271045Y-73849959D02*
X87325044Y-74038726D01*
X87325044Y-74038726D02*
X87444091Y-74244922D01*
X87444091Y-74244922D02*
X87580569Y-74386070D01*
X87580569Y-74386070D02*
X87669427Y-74444739D01*
X87669427Y-74444739D02*
X87734476Y-74462169D01*
X87734476Y-74462169D02*
X87840764Y-74455789D01*
X87840764Y-74455789D02*
X87923243Y-74408170D01*
X87923243Y-74408170D02*
X87981912Y-74319312D01*
X87981912Y-74319312D02*
X87999341Y-74254263D01*
X87999341Y-74254263D02*
X87992962Y-74147975D01*
X87992962Y-74147975D02*
X87938963Y-73959208D01*
X87938963Y-73959208D02*
X87819915Y-73753011D01*
X87819915Y-73753011D02*
X87683438Y-73611864D01*
X87683438Y-73611864D02*
X87594580Y-73553195D01*
X87594580Y-73553195D02*
X87529531Y-73535765D01*
X87529531Y-73535765D02*
X87423243Y-73542145D01*
X103154819Y-63377142D02*
X102678628Y-63043809D01*
X103154819Y-62805714D02*
X102154819Y-62805714D01*
X102154819Y-62805714D02*
X102154819Y-63186666D01*
X102154819Y-63186666D02*
X102202438Y-63281904D01*
X102202438Y-63281904D02*
X102250057Y-63329523D01*
X102250057Y-63329523D02*
X102345295Y-63377142D01*
X102345295Y-63377142D02*
X102488152Y-63377142D01*
X102488152Y-63377142D02*
X102583390Y-63329523D01*
X102583390Y-63329523D02*
X102631009Y-63281904D01*
X102631009Y-63281904D02*
X102678628Y-63186666D01*
X102678628Y-63186666D02*
X102678628Y-62805714D01*
X103154819Y-64329523D02*
X103154819Y-63758095D01*
X103154819Y-64043809D02*
X102154819Y-64043809D01*
X102154819Y-64043809D02*
X102297676Y-63948571D01*
X102297676Y-63948571D02*
X102392914Y-63853333D01*
X102392914Y-63853333D02*
X102440533Y-63758095D01*
X102250057Y-64710476D02*
X102202438Y-64758095D01*
X102202438Y-64758095D02*
X102154819Y-64853333D01*
X102154819Y-64853333D02*
X102154819Y-65091428D01*
X102154819Y-65091428D02*
X102202438Y-65186666D01*
X102202438Y-65186666D02*
X102250057Y-65234285D01*
X102250057Y-65234285D02*
X102345295Y-65281904D01*
X102345295Y-65281904D02*
X102440533Y-65281904D01*
X102440533Y-65281904D02*
X102583390Y-65234285D01*
X102583390Y-65234285D02*
X103154819Y-64662857D01*
X103154819Y-64662857D02*
X103154819Y-65281904D01*
X122167857Y-96054819D02*
X122501190Y-95578628D01*
X122739285Y-96054819D02*
X122739285Y-95054819D01*
X122739285Y-95054819D02*
X122358333Y-95054819D01*
X122358333Y-95054819D02*
X122263095Y-95102438D01*
X122263095Y-95102438D02*
X122215476Y-95150057D01*
X122215476Y-95150057D02*
X122167857Y-95245295D01*
X122167857Y-95245295D02*
X122167857Y-95388152D01*
X122167857Y-95388152D02*
X122215476Y-95483390D01*
X122215476Y-95483390D02*
X122263095Y-95531009D01*
X122263095Y-95531009D02*
X122358333Y-95578628D01*
X122358333Y-95578628D02*
X122739285Y-95578628D01*
X121263095Y-95054819D02*
X121739285Y-95054819D01*
X121739285Y-95054819D02*
X121786904Y-95531009D01*
X121786904Y-95531009D02*
X121739285Y-95483390D01*
X121739285Y-95483390D02*
X121644047Y-95435771D01*
X121644047Y-95435771D02*
X121405952Y-95435771D01*
X121405952Y-95435771D02*
X121310714Y-95483390D01*
X121310714Y-95483390D02*
X121263095Y-95531009D01*
X121263095Y-95531009D02*
X121215476Y-95626247D01*
X121215476Y-95626247D02*
X121215476Y-95864342D01*
X121215476Y-95864342D02*
X121263095Y-95959580D01*
X121263095Y-95959580D02*
X121310714Y-96007200D01*
X121310714Y-96007200D02*
X121405952Y-96054819D01*
X121405952Y-96054819D02*
X121644047Y-96054819D01*
X121644047Y-96054819D02*
X121739285Y-96007200D01*
X121739285Y-96007200D02*
X121786904Y-95959580D01*
X120596428Y-95054819D02*
X120501190Y-95054819D01*
X120501190Y-95054819D02*
X120405952Y-95102438D01*
X120405952Y-95102438D02*
X120358333Y-95150057D01*
X120358333Y-95150057D02*
X120310714Y-95245295D01*
X120310714Y-95245295D02*
X120263095Y-95435771D01*
X120263095Y-95435771D02*
X120263095Y-95673866D01*
X120263095Y-95673866D02*
X120310714Y-95864342D01*
X120310714Y-95864342D02*
X120358333Y-95959580D01*
X120358333Y-95959580D02*
X120405952Y-96007200D01*
X120405952Y-96007200D02*
X120501190Y-96054819D01*
X120501190Y-96054819D02*
X120596428Y-96054819D01*
X120596428Y-96054819D02*
X120691666Y-96007200D01*
X120691666Y-96007200D02*
X120739285Y-95959580D01*
X120739285Y-95959580D02*
X120786904Y-95864342D01*
X120786904Y-95864342D02*
X120834523Y-95673866D01*
X120834523Y-95673866D02*
X120834523Y-95435771D01*
X120834523Y-95435771D02*
X120786904Y-95245295D01*
X120786904Y-95245295D02*
X120739285Y-95150057D01*
X120739285Y-95150057D02*
X120691666Y-95102438D01*
X120691666Y-95102438D02*
X120596428Y-95054819D01*
X68691957Y-104359580D02*
X68739576Y-104407200D01*
X68739576Y-104407200D02*
X68882433Y-104454819D01*
X68882433Y-104454819D02*
X68977671Y-104454819D01*
X68977671Y-104454819D02*
X69120528Y-104407200D01*
X69120528Y-104407200D02*
X69215766Y-104311961D01*
X69215766Y-104311961D02*
X69263385Y-104216723D01*
X69263385Y-104216723D02*
X69311004Y-104026247D01*
X69311004Y-104026247D02*
X69311004Y-103883390D01*
X69311004Y-103883390D02*
X69263385Y-103692914D01*
X69263385Y-103692914D02*
X69215766Y-103597676D01*
X69215766Y-103597676D02*
X69120528Y-103502438D01*
X69120528Y-103502438D02*
X68977671Y-103454819D01*
X68977671Y-103454819D02*
X68882433Y-103454819D01*
X68882433Y-103454819D02*
X68739576Y-103502438D01*
X68739576Y-103502438D02*
X68691957Y-103550057D01*
X68311004Y-103550057D02*
X68263385Y-103502438D01*
X68263385Y-103502438D02*
X68168147Y-103454819D01*
X68168147Y-103454819D02*
X67930052Y-103454819D01*
X67930052Y-103454819D02*
X67834814Y-103502438D01*
X67834814Y-103502438D02*
X67787195Y-103550057D01*
X67787195Y-103550057D02*
X67739576Y-103645295D01*
X67739576Y-103645295D02*
X67739576Y-103740533D01*
X67739576Y-103740533D02*
X67787195Y-103883390D01*
X67787195Y-103883390D02*
X68358623Y-104454819D01*
X68358623Y-104454819D02*
X67739576Y-104454819D01*
X66882433Y-103454819D02*
X67072909Y-103454819D01*
X67072909Y-103454819D02*
X67168147Y-103502438D01*
X67168147Y-103502438D02*
X67215766Y-103550057D01*
X67215766Y-103550057D02*
X67311004Y-103692914D01*
X67311004Y-103692914D02*
X67358623Y-103883390D01*
X67358623Y-103883390D02*
X67358623Y-104264342D01*
X67358623Y-104264342D02*
X67311004Y-104359580D01*
X67311004Y-104359580D02*
X67263385Y-104407200D01*
X67263385Y-104407200D02*
X67168147Y-104454819D01*
X67168147Y-104454819D02*
X66977671Y-104454819D01*
X66977671Y-104454819D02*
X66882433Y-104407200D01*
X66882433Y-104407200D02*
X66834814Y-104359580D01*
X66834814Y-104359580D02*
X66787195Y-104264342D01*
X66787195Y-104264342D02*
X66787195Y-104026247D01*
X66787195Y-104026247D02*
X66834814Y-103931009D01*
X66834814Y-103931009D02*
X66882433Y-103883390D01*
X66882433Y-103883390D02*
X66977671Y-103835771D01*
X66977671Y-103835771D02*
X67168147Y-103835771D01*
X67168147Y-103835771D02*
X67263385Y-103883390D01*
X67263385Y-103883390D02*
X67311004Y-103931009D01*
X67311004Y-103931009D02*
X67358623Y-104026247D01*
X115954819Y-74857142D02*
X115478628Y-74523809D01*
X115954819Y-74285714D02*
X114954819Y-74285714D01*
X114954819Y-74285714D02*
X114954819Y-74666666D01*
X114954819Y-74666666D02*
X115002438Y-74761904D01*
X115002438Y-74761904D02*
X115050057Y-74809523D01*
X115050057Y-74809523D02*
X115145295Y-74857142D01*
X115145295Y-74857142D02*
X115288152Y-74857142D01*
X115288152Y-74857142D02*
X115383390Y-74809523D01*
X115383390Y-74809523D02*
X115431009Y-74761904D01*
X115431009Y-74761904D02*
X115478628Y-74666666D01*
X115478628Y-74666666D02*
X115478628Y-74285714D01*
X115954819Y-75809523D02*
X115954819Y-75238095D01*
X115954819Y-75523809D02*
X114954819Y-75523809D01*
X114954819Y-75523809D02*
X115097676Y-75428571D01*
X115097676Y-75428571D02*
X115192914Y-75333333D01*
X115192914Y-75333333D02*
X115240533Y-75238095D01*
X115383390Y-76380952D02*
X115335771Y-76285714D01*
X115335771Y-76285714D02*
X115288152Y-76238095D01*
X115288152Y-76238095D02*
X115192914Y-76190476D01*
X115192914Y-76190476D02*
X115145295Y-76190476D01*
X115145295Y-76190476D02*
X115050057Y-76238095D01*
X115050057Y-76238095D02*
X115002438Y-76285714D01*
X115002438Y-76285714D02*
X114954819Y-76380952D01*
X114954819Y-76380952D02*
X114954819Y-76571428D01*
X114954819Y-76571428D02*
X115002438Y-76666666D01*
X115002438Y-76666666D02*
X115050057Y-76714285D01*
X115050057Y-76714285D02*
X115145295Y-76761904D01*
X115145295Y-76761904D02*
X115192914Y-76761904D01*
X115192914Y-76761904D02*
X115288152Y-76714285D01*
X115288152Y-76714285D02*
X115335771Y-76666666D01*
X115335771Y-76666666D02*
X115383390Y-76571428D01*
X115383390Y-76571428D02*
X115383390Y-76380952D01*
X115383390Y-76380952D02*
X115431009Y-76285714D01*
X115431009Y-76285714D02*
X115478628Y-76238095D01*
X115478628Y-76238095D02*
X115573866Y-76190476D01*
X115573866Y-76190476D02*
X115764342Y-76190476D01*
X115764342Y-76190476D02*
X115859580Y-76238095D01*
X115859580Y-76238095D02*
X115907200Y-76285714D01*
X115907200Y-76285714D02*
X115954819Y-76380952D01*
X115954819Y-76380952D02*
X115954819Y-76571428D01*
X115954819Y-76571428D02*
X115907200Y-76666666D01*
X115907200Y-76666666D02*
X115859580Y-76714285D01*
X115859580Y-76714285D02*
X115764342Y-76761904D01*
X115764342Y-76761904D02*
X115573866Y-76761904D01*
X115573866Y-76761904D02*
X115478628Y-76714285D01*
X115478628Y-76714285D02*
X115431009Y-76666666D01*
X115431009Y-76666666D02*
X115383390Y-76571428D01*
X74754819Y-99516666D02*
X75469104Y-99516666D01*
X75469104Y-99516666D02*
X75611961Y-99469047D01*
X75611961Y-99469047D02*
X75707200Y-99373809D01*
X75707200Y-99373809D02*
X75754819Y-99230952D01*
X75754819Y-99230952D02*
X75754819Y-99135714D01*
X74754819Y-99897619D02*
X74754819Y-100516666D01*
X74754819Y-100516666D02*
X75135771Y-100183333D01*
X75135771Y-100183333D02*
X75135771Y-100326190D01*
X75135771Y-100326190D02*
X75183390Y-100421428D01*
X75183390Y-100421428D02*
X75231009Y-100469047D01*
X75231009Y-100469047D02*
X75326247Y-100516666D01*
X75326247Y-100516666D02*
X75564342Y-100516666D01*
X75564342Y-100516666D02*
X75659580Y-100469047D01*
X75659580Y-100469047D02*
X75707200Y-100421428D01*
X75707200Y-100421428D02*
X75754819Y-100326190D01*
X75754819Y-100326190D02*
X75754819Y-100040476D01*
X75754819Y-100040476D02*
X75707200Y-99945238D01*
X75707200Y-99945238D02*
X75659580Y-99897619D01*
X122232979Y-98944011D02*
X122566312Y-98467820D01*
X122804407Y-98944011D02*
X122804407Y-97944011D01*
X122804407Y-97944011D02*
X122423455Y-97944011D01*
X122423455Y-97944011D02*
X122328217Y-97991630D01*
X122328217Y-97991630D02*
X122280598Y-98039249D01*
X122280598Y-98039249D02*
X122232979Y-98134487D01*
X122232979Y-98134487D02*
X122232979Y-98277344D01*
X122232979Y-98277344D02*
X122280598Y-98372582D01*
X122280598Y-98372582D02*
X122328217Y-98420201D01*
X122328217Y-98420201D02*
X122423455Y-98467820D01*
X122423455Y-98467820D02*
X122804407Y-98467820D01*
X121375836Y-98277344D02*
X121375836Y-98944011D01*
X121613931Y-97896392D02*
X121852026Y-98610677D01*
X121852026Y-98610677D02*
X121232979Y-98610677D01*
X120947264Y-97944011D02*
X120328217Y-97944011D01*
X120328217Y-97944011D02*
X120661550Y-98324963D01*
X120661550Y-98324963D02*
X120518693Y-98324963D01*
X120518693Y-98324963D02*
X120423455Y-98372582D01*
X120423455Y-98372582D02*
X120375836Y-98420201D01*
X120375836Y-98420201D02*
X120328217Y-98515439D01*
X120328217Y-98515439D02*
X120328217Y-98753534D01*
X120328217Y-98753534D02*
X120375836Y-98848772D01*
X120375836Y-98848772D02*
X120423455Y-98896392D01*
X120423455Y-98896392D02*
X120518693Y-98944011D01*
X120518693Y-98944011D02*
X120804407Y-98944011D01*
X120804407Y-98944011D02*
X120899645Y-98896392D01*
X120899645Y-98896392D02*
X120947264Y-98848772D01*
X96357738Y-72000057D02*
X96452976Y-71952438D01*
X96452976Y-71952438D02*
X96548214Y-71857200D01*
X96548214Y-71857200D02*
X96691071Y-71714342D01*
X96691071Y-71714342D02*
X96786309Y-71666723D01*
X96786309Y-71666723D02*
X96881547Y-71666723D01*
X96833928Y-71904819D02*
X96929166Y-71857200D01*
X96929166Y-71857200D02*
X97024404Y-71761961D01*
X97024404Y-71761961D02*
X97072023Y-71571485D01*
X97072023Y-71571485D02*
X97072023Y-71238152D01*
X97072023Y-71238152D02*
X97024404Y-71047676D01*
X97024404Y-71047676D02*
X96929166Y-70952438D01*
X96929166Y-70952438D02*
X96833928Y-70904819D01*
X96833928Y-70904819D02*
X96643452Y-70904819D01*
X96643452Y-70904819D02*
X96548214Y-70952438D01*
X96548214Y-70952438D02*
X96452976Y-71047676D01*
X96452976Y-71047676D02*
X96405357Y-71238152D01*
X96405357Y-71238152D02*
X96405357Y-71571485D01*
X96405357Y-71571485D02*
X96452976Y-71761961D01*
X96452976Y-71761961D02*
X96548214Y-71857200D01*
X96548214Y-71857200D02*
X96643452Y-71904819D01*
X96643452Y-71904819D02*
X96833928Y-71904819D01*
X95452976Y-71904819D02*
X96024404Y-71904819D01*
X95738690Y-71904819D02*
X95738690Y-70904819D01*
X95738690Y-70904819D02*
X95833928Y-71047676D01*
X95833928Y-71047676D02*
X95929166Y-71142914D01*
X95929166Y-71142914D02*
X96024404Y-71190533D01*
X65942857Y-112654819D02*
X66276190Y-112178628D01*
X66514285Y-112654819D02*
X66514285Y-111654819D01*
X66514285Y-111654819D02*
X66133333Y-111654819D01*
X66133333Y-111654819D02*
X66038095Y-111702438D01*
X66038095Y-111702438D02*
X65990476Y-111750057D01*
X65990476Y-111750057D02*
X65942857Y-111845295D01*
X65942857Y-111845295D02*
X65942857Y-111988152D01*
X65942857Y-111988152D02*
X65990476Y-112083390D01*
X65990476Y-112083390D02*
X66038095Y-112131009D01*
X66038095Y-112131009D02*
X66133333Y-112178628D01*
X66133333Y-112178628D02*
X66514285Y-112178628D01*
X65038095Y-111654819D02*
X65514285Y-111654819D01*
X65514285Y-111654819D02*
X65561904Y-112131009D01*
X65561904Y-112131009D02*
X65514285Y-112083390D01*
X65514285Y-112083390D02*
X65419047Y-112035771D01*
X65419047Y-112035771D02*
X65180952Y-112035771D01*
X65180952Y-112035771D02*
X65085714Y-112083390D01*
X65085714Y-112083390D02*
X65038095Y-112131009D01*
X65038095Y-112131009D02*
X64990476Y-112226247D01*
X64990476Y-112226247D02*
X64990476Y-112464342D01*
X64990476Y-112464342D02*
X65038095Y-112559580D01*
X65038095Y-112559580D02*
X65085714Y-112607200D01*
X65085714Y-112607200D02*
X65180952Y-112654819D01*
X65180952Y-112654819D02*
X65419047Y-112654819D01*
X65419047Y-112654819D02*
X65514285Y-112607200D01*
X65514285Y-112607200D02*
X65561904Y-112559580D01*
X64657142Y-111654819D02*
X63990476Y-111654819D01*
X63990476Y-111654819D02*
X64419047Y-112654819D01*
X65967857Y-114254819D02*
X66301190Y-113778628D01*
X66539285Y-114254819D02*
X66539285Y-113254819D01*
X66539285Y-113254819D02*
X66158333Y-113254819D01*
X66158333Y-113254819D02*
X66063095Y-113302438D01*
X66063095Y-113302438D02*
X66015476Y-113350057D01*
X66015476Y-113350057D02*
X65967857Y-113445295D01*
X65967857Y-113445295D02*
X65967857Y-113588152D01*
X65967857Y-113588152D02*
X66015476Y-113683390D01*
X66015476Y-113683390D02*
X66063095Y-113731009D01*
X66063095Y-113731009D02*
X66158333Y-113778628D01*
X66158333Y-113778628D02*
X66539285Y-113778628D01*
X65015476Y-114254819D02*
X65586904Y-114254819D01*
X65301190Y-114254819D02*
X65301190Y-113254819D01*
X65301190Y-113254819D02*
X65396428Y-113397676D01*
X65396428Y-113397676D02*
X65491666Y-113492914D01*
X65491666Y-113492914D02*
X65586904Y-113540533D01*
X64158333Y-113254819D02*
X64348809Y-113254819D01*
X64348809Y-113254819D02*
X64444047Y-113302438D01*
X64444047Y-113302438D02*
X64491666Y-113350057D01*
X64491666Y-113350057D02*
X64586904Y-113492914D01*
X64586904Y-113492914D02*
X64634523Y-113683390D01*
X64634523Y-113683390D02*
X64634523Y-114064342D01*
X64634523Y-114064342D02*
X64586904Y-114159580D01*
X64586904Y-114159580D02*
X64539285Y-114207200D01*
X64539285Y-114207200D02*
X64444047Y-114254819D01*
X64444047Y-114254819D02*
X64253571Y-114254819D01*
X64253571Y-114254819D02*
X64158333Y-114207200D01*
X64158333Y-114207200D02*
X64110714Y-114159580D01*
X64110714Y-114159580D02*
X64063095Y-114064342D01*
X64063095Y-114064342D02*
X64063095Y-113826247D01*
X64063095Y-113826247D02*
X64110714Y-113731009D01*
X64110714Y-113731009D02*
X64158333Y-113683390D01*
X64158333Y-113683390D02*
X64253571Y-113635771D01*
X64253571Y-113635771D02*
X64444047Y-113635771D01*
X64444047Y-113635771D02*
X64539285Y-113683390D01*
X64539285Y-113683390D02*
X64586904Y-113731009D01*
X64586904Y-113731009D02*
X64634523Y-113826247D01*
X71961904Y-95754819D02*
X71961904Y-96564342D01*
X71961904Y-96564342D02*
X71914285Y-96659580D01*
X71914285Y-96659580D02*
X71866666Y-96707200D01*
X71866666Y-96707200D02*
X71771428Y-96754819D01*
X71771428Y-96754819D02*
X71580952Y-96754819D01*
X71580952Y-96754819D02*
X71485714Y-96707200D01*
X71485714Y-96707200D02*
X71438095Y-96659580D01*
X71438095Y-96659580D02*
X71390476Y-96564342D01*
X71390476Y-96564342D02*
X71390476Y-95754819D01*
X70771428Y-96183390D02*
X70866666Y-96135771D01*
X70866666Y-96135771D02*
X70914285Y-96088152D01*
X70914285Y-96088152D02*
X70961904Y-95992914D01*
X70961904Y-95992914D02*
X70961904Y-95945295D01*
X70961904Y-95945295D02*
X70914285Y-95850057D01*
X70914285Y-95850057D02*
X70866666Y-95802438D01*
X70866666Y-95802438D02*
X70771428Y-95754819D01*
X70771428Y-95754819D02*
X70580952Y-95754819D01*
X70580952Y-95754819D02*
X70485714Y-95802438D01*
X70485714Y-95802438D02*
X70438095Y-95850057D01*
X70438095Y-95850057D02*
X70390476Y-95945295D01*
X70390476Y-95945295D02*
X70390476Y-95992914D01*
X70390476Y-95992914D02*
X70438095Y-96088152D01*
X70438095Y-96088152D02*
X70485714Y-96135771D01*
X70485714Y-96135771D02*
X70580952Y-96183390D01*
X70580952Y-96183390D02*
X70771428Y-96183390D01*
X70771428Y-96183390D02*
X70866666Y-96231009D01*
X70866666Y-96231009D02*
X70914285Y-96278628D01*
X70914285Y-96278628D02*
X70961904Y-96373866D01*
X70961904Y-96373866D02*
X70961904Y-96564342D01*
X70961904Y-96564342D02*
X70914285Y-96659580D01*
X70914285Y-96659580D02*
X70866666Y-96707200D01*
X70866666Y-96707200D02*
X70771428Y-96754819D01*
X70771428Y-96754819D02*
X70580952Y-96754819D01*
X70580952Y-96754819D02*
X70485714Y-96707200D01*
X70485714Y-96707200D02*
X70438095Y-96659580D01*
X70438095Y-96659580D02*
X70390476Y-96564342D01*
X70390476Y-96564342D02*
X70390476Y-96373866D01*
X70390476Y-96373866D02*
X70438095Y-96278628D01*
X70438095Y-96278628D02*
X70485714Y-96231009D01*
X70485714Y-96231009D02*
X70580952Y-96183390D01*
D11*
%TO.C,C12*%
X117990000Y-74111252D02*
X117990000Y-72688748D01*
X119810000Y-74111252D02*
X119810000Y-72688748D01*
%TO.C,R45*%
X124559174Y-102481222D02*
X124084658Y-102481222D01*
X124559174Y-103526222D02*
X124084658Y-103526222D01*
%TO.C,R46*%
X124558152Y-103977500D02*
X124083636Y-103977500D01*
X124558152Y-105022500D02*
X124083636Y-105022500D01*
%TO.C,R24*%
X85145894Y-82747235D02*
X84782393Y-83052248D01*
X85817607Y-83547752D02*
X85454106Y-83852765D01*
%TO.C,R19*%
X116477500Y-72837258D02*
X116477500Y-72362742D01*
X117522500Y-72837258D02*
X117522500Y-72362742D01*
%TO.C,R44*%
X131137258Y-95327500D02*
X130662742Y-95327500D01*
X131137258Y-96372500D02*
X130662742Y-96372500D01*
%TO.C,R28*%
X98477500Y-73662742D02*
X98477500Y-74137258D01*
X99522500Y-73662742D02*
X99522500Y-74137258D01*
%TO.C,R52*%
X124087742Y-100977500D02*
X124562258Y-100977500D01*
X124087742Y-102022500D02*
X124562258Y-102022500D01*
%TO.C,R5*%
X97777500Y-136237258D02*
X97777500Y-135762742D01*
X98822500Y-136237258D02*
X98822500Y-135762742D01*
%TO.C,C25*%
X67786252Y-94590000D02*
X66363748Y-94590000D01*
X67786252Y-96410000D02*
X66363748Y-96410000D01*
%TO.C,R6*%
X94862742Y-123977500D02*
X95337258Y-123977500D01*
X94862742Y-125022500D02*
X95337258Y-125022500D01*
%TO.C,R22*%
X67862742Y-108477500D02*
X68337258Y-108477500D01*
X67862742Y-109522500D02*
X68337258Y-109522500D01*
%TO.C,C20*%
X69159420Y-83490000D02*
X69440580Y-83490000D01*
X69159420Y-84510000D02*
X69440580Y-84510000D01*
%TO.C,R23*%
X83841999Y-81921949D02*
X84205500Y-81616935D01*
X84513712Y-82722465D02*
X84877213Y-82417451D01*
%TO.C,R11*%
X97677500Y-63782742D02*
X97677500Y-64257258D01*
X98722500Y-63782742D02*
X98722500Y-64257258D01*
%TO.C,R70*%
X126277500Y-104287258D02*
X126277500Y-103812742D01*
X127322500Y-104287258D02*
X127322500Y-103812742D01*
%TO.C,R33*%
X78735124Y-109567500D02*
X79209640Y-109567500D01*
X78735124Y-110612500D02*
X79209640Y-110612500D01*
%TO.C,R25*%
X85754588Y-84211427D02*
X86118089Y-83906414D01*
X86426301Y-85011944D02*
X86789802Y-84706931D01*
%TO.C,R51*%
X124087742Y-99477500D02*
X124562258Y-99477500D01*
X124087742Y-100522500D02*
X124562258Y-100522500D01*
%TO.C,R7*%
X96277500Y-136237258D02*
X96277500Y-135762742D01*
X97322500Y-136237258D02*
X97322500Y-135762742D01*
%TO.C,JP1*%
X76100000Y-78200000D02*
X76100000Y-80200000D01*
X76100000Y-80200000D02*
X78900000Y-80200000D01*
X78900000Y-78200000D02*
X76100000Y-78200000D01*
X78900000Y-80200000D02*
X78900000Y-78200000D01*
%TO.C,F1*%
X78416402Y-72710885D02*
X77373597Y-73312948D01*
X79326403Y-74287052D02*
X78283598Y-74889115D01*
%TO.C,R48*%
X126277500Y-108212742D02*
X126277500Y-108687258D01*
X127322500Y-108212742D02*
X127322500Y-108687258D01*
%TO.C,R54*%
X68237258Y-106877500D02*
X67762742Y-106877500D01*
X68237258Y-107922500D02*
X67762742Y-107922500D01*
%TO.C,C23*%
X79112962Y-108090000D02*
X78831802Y-108090000D01*
X79112962Y-109110000D02*
X78831802Y-109110000D01*
%TO.C,R32*%
X79209640Y-111077500D02*
X78735124Y-111077500D01*
X79209640Y-112122500D02*
X78735124Y-112122500D01*
%TO.C,R41*%
X124087742Y-96477500D02*
X124562258Y-96477500D01*
X124087742Y-97522500D02*
X124562258Y-97522500D01*
%TO.C,R15*%
X68337258Y-110077500D02*
X67862742Y-110077500D01*
X68337258Y-111122500D02*
X67862742Y-111122500D01*
%TO.C,R69*%
X124727500Y-108212742D02*
X124727500Y-108687258D01*
X125772500Y-108212742D02*
X125772500Y-108687258D01*
%TO.C,R49*%
X124087742Y-93477500D02*
X124562258Y-93477500D01*
X124087742Y-94522500D02*
X124562258Y-94522500D01*
%TO.C,C10*%
X85573254Y-74628617D02*
X85816746Y-74488037D01*
X86083254Y-75511963D02*
X86326746Y-75371383D01*
%TO.C,R12*%
X100677500Y-63862742D02*
X100677500Y-64337258D01*
X101722500Y-63862742D02*
X101722500Y-64337258D01*
%TO.C,R50*%
X124087742Y-94977500D02*
X124562258Y-94977500D01*
X124087742Y-96022500D02*
X124562258Y-96022500D01*
%TO.C,C26*%
X68760352Y-100939999D02*
X67337848Y-100939999D01*
X68760352Y-102759999D02*
X67337848Y-102759999D01*
%TO.C,R18*%
X114977500Y-72362742D02*
X114977500Y-72837258D01*
X116022500Y-72362742D02*
X116022500Y-72837258D01*
%TO.C,J3*%
X73615000Y-93540000D02*
X79585000Y-93540000D01*
X73615000Y-106160000D02*
X73615000Y-93540000D01*
X74375000Y-94300000D02*
X74375000Y-99850000D01*
X74375000Y-105400000D02*
X74375000Y-99850000D01*
X77325000Y-93550000D02*
X77325000Y-94300000D01*
X77325000Y-94300000D02*
X74375000Y-94300000D01*
X77325000Y-105400000D02*
X74375000Y-105400000D01*
X77325000Y-106150000D02*
X77325000Y-105400000D01*
X78825000Y-93550000D02*
X79575000Y-93550000D01*
X78825000Y-95350000D02*
X78825000Y-93550000D01*
X78825000Y-96850000D02*
X79575000Y-96850000D01*
X78825000Y-102850000D02*
X78825000Y-96850000D01*
X78825000Y-104350000D02*
X79575000Y-104350000D01*
X78825000Y-106150000D02*
X78825000Y-104350000D01*
X79575000Y-93550000D02*
X79575000Y-95350000D01*
X79575000Y-95350000D02*
X78825000Y-95350000D01*
X79575000Y-96850000D02*
X79575000Y-102850000D01*
X79575000Y-102850000D02*
X78825000Y-102850000D01*
X79575000Y-104350000D02*
X79575000Y-106150000D01*
X79575000Y-106150000D02*
X78825000Y-106150000D01*
X79585000Y-93540000D02*
X79585000Y-106160000D01*
X79585000Y-106160000D02*
X73615000Y-106160000D01*
X79875000Y-105200000D02*
X79875000Y-106450000D01*
X79875000Y-106450000D02*
X78625000Y-106450000D01*
%TO.C,R43*%
X124087742Y-97976774D02*
X124562258Y-97976774D01*
X124087742Y-99021774D02*
X124562258Y-99021774D01*
%TO.C,Q1*%
X96262500Y-72290000D02*
X95612500Y-72290000D01*
X96262500Y-72290000D02*
X96912500Y-72290000D01*
X96262500Y-75410000D02*
X95612500Y-75410000D01*
X96262500Y-75410000D02*
X96912500Y-75410000D01*
X97425000Y-72340000D02*
X97185000Y-72010000D01*
X97665000Y-72010000D01*
X97425000Y-72340000D01*
G36*
X97425000Y-72340000D02*
G01*
X97185000Y-72010000D01*
X97665000Y-72010000D01*
X97425000Y-72340000D01*
G37*
%TO.C,R57*%
X68337258Y-111677500D02*
X67862742Y-111677500D01*
X68337258Y-112722500D02*
X67862742Y-112722500D01*
%TO.C,R16*%
X68349758Y-113277500D02*
X67875242Y-113277500D01*
X68349758Y-114322500D02*
X67875242Y-114322500D01*
%TO.C,U8*%
X68762500Y-96890000D02*
X68112500Y-96890000D01*
X68762500Y-96890000D02*
X69412500Y-96890000D01*
X68762500Y-100010000D02*
X68112500Y-100010000D01*
X68762500Y-100010000D02*
X69412500Y-100010000D01*
X69925000Y-96940000D02*
X69685000Y-96610000D01*
X70165000Y-96610000D01*
X69925000Y-96940000D01*
G36*
X69925000Y-96940000D02*
G01*
X69685000Y-96610000D01*
X70165000Y-96610000D01*
X69925000Y-96940000D01*
G37*
%TD*%
M02*
