M48
; DRILL file {KiCad 9.0.2} date 2026-02-20T22:05:49+0100
; FORMAT={-:-/ absolute / metric / decimal}
; #@! TF.CreationDate,2026-02-20T22:05:49+01:00
; #@! TF.GenerationSoftware,Kicad,Pcbnew,9.0.2
; #@! TF.FileFunction,Plated,1,4,PTH
FMAT,2
METRIC
; #@! TA.AperFunction,Plated,PTH,ComponentDrill
T1C0.200
; #@! TA.AperFunction,Plated,PTH,ViaDrill
T2C0.300
; #@! TA.AperFunction,Plated,PTH,ViaDrill
T3C0.400
; #@! TA.AperFunction,Plated,PTH,ComponentDrill
T4C0.600
; #@! TA.AperFunction,Plated,PTH,ComponentDrill
T5C0.950
; #@! TA.AperFunction,Plated,PTH,ComponentDrill
T6C1.000
%
G90
G05
T1
X91.285Y-123.6
X91.285Y-124.7
T2
X62.25Y-88.6
X62.65Y-92.55
X63.2Y-112.0
X63.45Y-86.75
X63.8Y-105.3
X64.6Y-114.0
X65.3Y-100.125
X65.549Y-101.85
X65.85Y-104.1
X66.0Y-83.3
X66.0Y-109.0
X66.05Y-85.15
X66.3Y-94.35
X66.45Y-79.55
X66.874Y-85.5
X68.25Y-90.15
X68.475Y-82.5
X68.525Y-79.5
X68.525Y-84.0
X68.55Y-95.5
X68.862Y-107.41
X68.888Y-109.0
X68.888Y-110.6
X68.888Y-112.2
X68.9Y-113.8
X69.7Y-99.6
X70.075Y-79.5
X70.075Y-84.0
X70.125Y-85.5
X70.7Y-103.85
X71.35Y-84.7
X71.55Y-105.15
X72.25Y-81.2
X72.3Y-112.2
X72.4Y-84.7
X73.25Y-81.2
X73.5Y-113.75
X74.15Y-73.0
X74.2Y-112.45
X74.35Y-77.85
X74.35Y-81.2
X75.45Y-81.2
X76.1Y-83.35
X76.1Y-84.25
X76.1Y-85.25
X76.25Y-107.15
X76.95Y-87.7
X77.35Y-83.35
X77.4Y-84.25
X77.4Y-85.25
X77.75Y-89.3
X78.15Y-79.2
X78.35Y-130.0
X78.45Y-77.05
X79.1Y-68.5
X79.3Y-131.8
X79.651Y-82.09
X79.797Y-110.1
X79.95Y-89.35
X80.6Y-107.1
X81.15Y-82.75
X81.15Y-88.3
X81.274Y-84.6
X81.975Y-129.768
X82.0Y-84.05
X83.3Y-66.8
X83.728Y-82.7
X84.79Y-131.362
X85.05Y-117.75
X85.635Y-131.67
X86.2Y-132.75
X86.65Y-119.25
X86.975Y-130.618
X87.05Y-135.65
X87.35Y-123.9
X87.45Y-72.6
X87.9Y-132.622
X88.6Y-123.5
X88.6Y-124.7
X89.95Y-127.75
X90.0Y-136.85
X92.1Y-122.0
X92.4Y-62.95
X92.45Y-67.0
X93.05Y-127.65
X93.15Y-124.75
X94.8Y-136.4
X95.325Y-73.85
X95.925Y-124.5
X96.525Y-131.5
X96.8Y-136.825
X96.85Y-76.5
X98.15Y-61.65
X98.2Y-64.85
X98.3Y-135.175
X98.358Y-136.875
X98.425Y-138.6
X98.45Y-130.15
X99.975Y-138.6
X100.0Y-135.258
X101.25Y-61.6
X101.25Y-68.85
X101.85Y-135.25
X103.05Y-137.65
X103.95Y-76.6
X105.5Y-135.275
X105.65Y-130.15
X105.75Y-64.55
X105.95Y-66.15
X106.5Y-63.9
X107.0Y-137.65
X107.65Y-131.5
X107.788Y-63.25
X107.788Y-65.15
X108.2Y-127.5
X109.6Y-127.575
X110.05Y-65.15
X110.063Y-63.25
X111.15Y-128.05
X111.225Y-126.8
X111.425Y-132.5
X112.05Y-65.75
X112.4Y-135.45
X113.75Y-72.205
X114.45Y-65.75
X115.148Y-116.646
X116.15Y-134.05
X116.2Y-76.5
X116.275Y-80.8
X116.275Y-131.95
X116.9Y-70.2
X117.0Y-71.775
X117.3Y-126.11
X117.75Y-76.9
X118.159Y-127.332
X118.25Y-67.55
X118.25Y-68.7
X118.9Y-74.875
X119.065Y-128.545
X119.7Y-89.375
X119.8Y-117.2
X120.35Y-67.55
X120.5Y-68.85
X120.6Y-75.25
X120.65Y-77.2
X121.2Y-89.375
X121.75Y-94.0
X121.9Y-118.75
X122.15Y-97.0
X122.15Y-109.5
X122.15Y-117.25
X122.3Y-104.5
X122.35Y-103.0
X122.4Y-131.85
X122.95Y-91.7
X123.65Y-107.3
X124.175Y-87.9
X124.825Y-117.25
X124.825Y-118.75
X125.0Y-105.9
X125.05Y-98.499
X125.05Y-100.0
X125.05Y-101.5
X125.146Y-104.5
X125.147Y-103.004
X125.15Y-95.5
X125.15Y-97.0
X125.25Y-107.625
X125.25Y-109.275
X125.3Y-85.85
X126.05Y-93.1
X126.3Y-96.45
X126.4Y-85.9
X126.6Y-89.375
X126.6Y-91.025
X126.8Y-103.225
X126.8Y-104.875
X127.0Y-127.85
X127.4Y-125.3
X127.45Y-85.9
X128.25Y-87.9
X128.25Y-89.6
X128.6Y-85.9
X128.75Y-92.6
X128.75Y-95.95
X129.25Y-109.35
X129.5Y-107.55
X129.825Y-89.4
X129.9Y-85.9
X129.9Y-87.1
X130.0Y-113.9
X130.075Y-95.85
X130.1Y-103.5
X130.525Y-91.3
X130.525Y-92.65
X131.725Y-95.85
X132.075Y-91.3
X132.6Y-86.4
X132.65Y-109.2
X132.775Y-89.4
X132.8Y-107.65
X133.1Y-97.6
X133.1Y-100.8
X133.1Y-104.8
X133.25Y-91.35
X133.25Y-92.6
T3
X66.15Y-110.6
X78.147Y-111.6
X104.3Y-69.076
X106.5Y-72.8
X108.475Y-68.25
T5
X77.125Y-96.1
X77.125Y-98.6
X77.125Y-101.1
X77.125Y-103.6
T6
X64.428Y-90.0
X65.1Y-92.0
X70.1Y-92.0
X70.772Y-94.0
T4
X95.66Y-63.345G85X95.66Y-62.545
G05
X95.66Y-67.675G85X95.66Y-66.575
G05
X104.3Y-63.345G85X104.3Y-62.545
G05
X104.3Y-67.675G85X104.3Y-66.575
G05
T6
X81.643Y-78.641G85X80.543Y-76.736
G05
X84.503Y-71.794G85X82.597Y-72.894
G05
X87.826Y-77.15G85X85.574Y-78.45
G05
M30
