%TF.GenerationSoftware,KiCad,Pcbnew,9.0.2*%
%TF.CreationDate,2025-09-19T20:00:31+02:00*%
%TF.ProjectId,LumiCtrl,4c756d69-4374-4726-9c2e-6b696361645f,rev?*%
%TF.SameCoordinates,Original*%
%TF.FileFunction,Drillmap*%
%TF.FilePolarity,Positive*%
%FSLAX45Y45*%
G04 Gerber Fmt 4.5, Leading zero omitted, Abs format (unit mm)*
G04 Created by KiCad (PCBNEW 9.0.2) date 2025-09-19 20:00:31*
%MOMM*%
%LPD*%
G01*
G04 APERTURE LIST*
%ADD10C,0.050000*%
%ADD11C,0.200000*%
%ADD12C,0.100000*%
%ADD13C,0.320000*%
G04 APERTURE END LIST*
D10*
X19000000Y-13000000D02*
X19000000Y-10000000D01*
X12000000Y-5000000D02*
X19000000Y-5000000D01*
X19000000Y-10000000D02*
X19667000Y-10000000D01*
X19000000Y-8100000D02*
X19667000Y-8100000D01*
X12000000Y-13000000D02*
X12000000Y-5000000D01*
X19667000Y-8100000D02*
X19667000Y-10000000D01*
X19000000Y-8100000D02*
X19000000Y-5000000D01*
X19000000Y-13000000D02*
G75*
G02*
X12000000Y-13000000I-3500000J9360000D01*
G01*
D11*
D12*
X17954965Y-12612878D02*
X18019965Y-12677878D01*
X18019965Y-12612878D02*
X17954965Y-12677878D01*
X18507709Y-12443887D02*
X18572709Y-12508887D01*
X18572709Y-12443887D02*
X18507709Y-12508887D01*
D13*
X14020000Y-12930000D02*
G75*
G02*
X13700000Y-12930000I-160000J0D01*
G01*
X13700000Y-12930000D02*
G75*
G02*
X14020000Y-12930000I160000J0D01*
G01*
X17380000Y-12930000D02*
G75*
G02*
X17060000Y-12930000I-160000J0D01*
G01*
X17060000Y-12930000D02*
G75*
G02*
X17380000Y-12930000I160000J0D01*
G01*
D11*
X12258277Y-13946961D02*
X12258277Y-13746961D01*
X12258277Y-13746961D02*
X12305896Y-13746961D01*
X12305896Y-13746961D02*
X12334467Y-13756485D01*
X12334467Y-13756485D02*
X12353515Y-13775533D01*
X12353515Y-13775533D02*
X12363039Y-13794580D01*
X12363039Y-13794580D02*
X12372562Y-13832675D01*
X12372562Y-13832675D02*
X12372562Y-13861247D01*
X12372562Y-13861247D02*
X12363039Y-13899342D01*
X12363039Y-13899342D02*
X12353515Y-13918390D01*
X12353515Y-13918390D02*
X12334467Y-13937437D01*
X12334467Y-13937437D02*
X12305896Y-13946961D01*
X12305896Y-13946961D02*
X12258277Y-13946961D01*
X12458277Y-13946961D02*
X12458277Y-13813628D01*
X12458277Y-13851723D02*
X12467801Y-13832675D01*
X12467801Y-13832675D02*
X12477324Y-13823152D01*
X12477324Y-13823152D02*
X12496372Y-13813628D01*
X12496372Y-13813628D02*
X12515420Y-13813628D01*
X12582086Y-13946961D02*
X12582086Y-13813628D01*
X12582086Y-13746961D02*
X12572562Y-13756485D01*
X12572562Y-13756485D02*
X12582086Y-13766009D01*
X12582086Y-13766009D02*
X12591610Y-13756485D01*
X12591610Y-13756485D02*
X12582086Y-13746961D01*
X12582086Y-13746961D02*
X12582086Y-13766009D01*
X12705896Y-13946961D02*
X12686848Y-13937437D01*
X12686848Y-13937437D02*
X12677324Y-13918390D01*
X12677324Y-13918390D02*
X12677324Y-13746961D01*
X12810658Y-13946961D02*
X12791610Y-13937437D01*
X12791610Y-13937437D02*
X12782086Y-13918390D01*
X12782086Y-13918390D02*
X12782086Y-13746961D01*
X13039229Y-13946961D02*
X13039229Y-13746961D01*
X13039229Y-13746961D02*
X13105896Y-13889818D01*
X13105896Y-13889818D02*
X13172562Y-13746961D01*
X13172562Y-13746961D02*
X13172562Y-13946961D01*
X13353515Y-13946961D02*
X13353515Y-13842199D01*
X13353515Y-13842199D02*
X13343991Y-13823152D01*
X13343991Y-13823152D02*
X13324943Y-13813628D01*
X13324943Y-13813628D02*
X13286848Y-13813628D01*
X13286848Y-13813628D02*
X13267801Y-13823152D01*
X13353515Y-13937437D02*
X13334467Y-13946961D01*
X13334467Y-13946961D02*
X13286848Y-13946961D01*
X13286848Y-13946961D02*
X13267801Y-13937437D01*
X13267801Y-13937437D02*
X13258277Y-13918390D01*
X13258277Y-13918390D02*
X13258277Y-13899342D01*
X13258277Y-13899342D02*
X13267801Y-13880295D01*
X13267801Y-13880295D02*
X13286848Y-13870771D01*
X13286848Y-13870771D02*
X13334467Y-13870771D01*
X13334467Y-13870771D02*
X13353515Y-13861247D01*
X13448753Y-13813628D02*
X13448753Y-14013628D01*
X13448753Y-13823152D02*
X13467801Y-13813628D01*
X13467801Y-13813628D02*
X13505896Y-13813628D01*
X13505896Y-13813628D02*
X13524943Y-13823152D01*
X13524943Y-13823152D02*
X13534467Y-13832675D01*
X13534467Y-13832675D02*
X13543991Y-13851723D01*
X13543991Y-13851723D02*
X13543991Y-13908866D01*
X13543991Y-13908866D02*
X13534467Y-13927914D01*
X13534467Y-13927914D02*
X13524943Y-13937437D01*
X13524943Y-13937437D02*
X13505896Y-13946961D01*
X13505896Y-13946961D02*
X13467801Y-13946961D01*
X13467801Y-13946961D02*
X13448753Y-13937437D01*
X13629705Y-13927914D02*
X13639229Y-13937437D01*
X13639229Y-13937437D02*
X13629705Y-13946961D01*
X13629705Y-13946961D02*
X13620182Y-13937437D01*
X13620182Y-13937437D02*
X13629705Y-13927914D01*
X13629705Y-13927914D02*
X13629705Y-13946961D01*
X13629705Y-13823152D02*
X13639229Y-13832675D01*
X13639229Y-13832675D02*
X13629705Y-13842199D01*
X13629705Y-13842199D02*
X13620182Y-13832675D01*
X13620182Y-13832675D02*
X13629705Y-13823152D01*
X13629705Y-13823152D02*
X13629705Y-13842199D01*
D12*
X11932500Y-14242977D02*
X11997500Y-14307977D01*
X11997500Y-14242977D02*
X11932500Y-14307977D01*
D11*
X12296372Y-14166961D02*
X12315420Y-14166961D01*
X12315420Y-14166961D02*
X12334467Y-14176485D01*
X12334467Y-14176485D02*
X12343991Y-14186009D01*
X12343991Y-14186009D02*
X12353515Y-14205056D01*
X12353515Y-14205056D02*
X12363039Y-14243152D01*
X12363039Y-14243152D02*
X12363039Y-14290771D01*
X12363039Y-14290771D02*
X12353515Y-14328866D01*
X12353515Y-14328866D02*
X12343991Y-14347914D01*
X12343991Y-14347914D02*
X12334467Y-14357437D01*
X12334467Y-14357437D02*
X12315420Y-14366961D01*
X12315420Y-14366961D02*
X12296372Y-14366961D01*
X12296372Y-14366961D02*
X12277324Y-14357437D01*
X12277324Y-14357437D02*
X12267801Y-14347914D01*
X12267801Y-14347914D02*
X12258277Y-14328866D01*
X12258277Y-14328866D02*
X12248753Y-14290771D01*
X12248753Y-14290771D02*
X12248753Y-14243152D01*
X12248753Y-14243152D02*
X12258277Y-14205056D01*
X12258277Y-14205056D02*
X12267801Y-14186009D01*
X12267801Y-14186009D02*
X12277324Y-14176485D01*
X12277324Y-14176485D02*
X12296372Y-14166961D01*
X12448753Y-14347914D02*
X12458277Y-14357437D01*
X12458277Y-14357437D02*
X12448753Y-14366961D01*
X12448753Y-14366961D02*
X12439229Y-14357437D01*
X12439229Y-14357437D02*
X12448753Y-14347914D01*
X12448753Y-14347914D02*
X12448753Y-14366961D01*
X12629705Y-14166961D02*
X12591610Y-14166961D01*
X12591610Y-14166961D02*
X12572562Y-14176485D01*
X12572562Y-14176485D02*
X12563039Y-14186009D01*
X12563039Y-14186009D02*
X12543991Y-14214580D01*
X12543991Y-14214580D02*
X12534467Y-14252675D01*
X12534467Y-14252675D02*
X12534467Y-14328866D01*
X12534467Y-14328866D02*
X12543991Y-14347914D01*
X12543991Y-14347914D02*
X12553515Y-14357437D01*
X12553515Y-14357437D02*
X12572562Y-14366961D01*
X12572562Y-14366961D02*
X12610658Y-14366961D01*
X12610658Y-14366961D02*
X12629705Y-14357437D01*
X12629705Y-14357437D02*
X12639229Y-14347914D01*
X12639229Y-14347914D02*
X12648753Y-14328866D01*
X12648753Y-14328866D02*
X12648753Y-14281247D01*
X12648753Y-14281247D02*
X12639229Y-14262199D01*
X12639229Y-14262199D02*
X12629705Y-14252675D01*
X12629705Y-14252675D02*
X12610658Y-14243152D01*
X12610658Y-14243152D02*
X12572562Y-14243152D01*
X12572562Y-14243152D02*
X12553515Y-14252675D01*
X12553515Y-14252675D02*
X12543991Y-14262199D01*
X12543991Y-14262199D02*
X12534467Y-14281247D01*
X12829705Y-14166961D02*
X12734467Y-14166961D01*
X12734467Y-14166961D02*
X12724943Y-14262199D01*
X12724943Y-14262199D02*
X12734467Y-14252675D01*
X12734467Y-14252675D02*
X12753515Y-14243152D01*
X12753515Y-14243152D02*
X12801134Y-14243152D01*
X12801134Y-14243152D02*
X12820182Y-14252675D01*
X12820182Y-14252675D02*
X12829705Y-14262199D01*
X12829705Y-14262199D02*
X12839229Y-14281247D01*
X12839229Y-14281247D02*
X12839229Y-14328866D01*
X12839229Y-14328866D02*
X12829705Y-14347914D01*
X12829705Y-14347914D02*
X12820182Y-14357437D01*
X12820182Y-14357437D02*
X12801134Y-14366961D01*
X12801134Y-14366961D02*
X12753515Y-14366961D01*
X12753515Y-14366961D02*
X12734467Y-14357437D01*
X12734467Y-14357437D02*
X12724943Y-14347914D01*
X12963039Y-14166961D02*
X12982086Y-14166961D01*
X12982086Y-14166961D02*
X13001134Y-14176485D01*
X13001134Y-14176485D02*
X13010658Y-14186009D01*
X13010658Y-14186009D02*
X13020182Y-14205056D01*
X13020182Y-14205056D02*
X13029705Y-14243152D01*
X13029705Y-14243152D02*
X13029705Y-14290771D01*
X13029705Y-14290771D02*
X13020182Y-14328866D01*
X13020182Y-14328866D02*
X13010658Y-14347914D01*
X13010658Y-14347914D02*
X13001134Y-14357437D01*
X13001134Y-14357437D02*
X12982086Y-14366961D01*
X12982086Y-14366961D02*
X12963039Y-14366961D01*
X12963039Y-14366961D02*
X12943991Y-14357437D01*
X12943991Y-14357437D02*
X12934467Y-14347914D01*
X12934467Y-14347914D02*
X12924943Y-14328866D01*
X12924943Y-14328866D02*
X12915420Y-14290771D01*
X12915420Y-14290771D02*
X12915420Y-14243152D01*
X12915420Y-14243152D02*
X12924943Y-14205056D01*
X12924943Y-14205056D02*
X12934467Y-14186009D01*
X12934467Y-14186009D02*
X12943991Y-14176485D01*
X12943991Y-14176485D02*
X12963039Y-14166961D01*
X13115420Y-14366961D02*
X13115420Y-14233628D01*
X13115420Y-14252675D02*
X13124943Y-14243152D01*
X13124943Y-14243152D02*
X13143991Y-14233628D01*
X13143991Y-14233628D02*
X13172563Y-14233628D01*
X13172563Y-14233628D02*
X13191610Y-14243152D01*
X13191610Y-14243152D02*
X13201134Y-14262199D01*
X13201134Y-14262199D02*
X13201134Y-14366961D01*
X13201134Y-14262199D02*
X13210658Y-14243152D01*
X13210658Y-14243152D02*
X13229705Y-14233628D01*
X13229705Y-14233628D02*
X13258277Y-14233628D01*
X13258277Y-14233628D02*
X13277324Y-14243152D01*
X13277324Y-14243152D02*
X13286848Y-14262199D01*
X13286848Y-14262199D02*
X13286848Y-14366961D01*
X13382086Y-14366961D02*
X13382086Y-14233628D01*
X13382086Y-14252675D02*
X13391610Y-14243152D01*
X13391610Y-14243152D02*
X13410658Y-14233628D01*
X13410658Y-14233628D02*
X13439229Y-14233628D01*
X13439229Y-14233628D02*
X13458277Y-14243152D01*
X13458277Y-14243152D02*
X13467801Y-14262199D01*
X13467801Y-14262199D02*
X13467801Y-14366961D01*
X13467801Y-14262199D02*
X13477324Y-14243152D01*
X13477324Y-14243152D02*
X13496372Y-14233628D01*
X13496372Y-14233628D02*
X13524943Y-14233628D01*
X13524943Y-14233628D02*
X13543991Y-14243152D01*
X13543991Y-14243152D02*
X13553515Y-14262199D01*
X13553515Y-14262199D02*
X13553515Y-14366961D01*
X13943991Y-14157437D02*
X13772563Y-14414580D01*
X14201134Y-14166961D02*
X14220182Y-14166961D01*
X14220182Y-14166961D02*
X14239229Y-14176485D01*
X14239229Y-14176485D02*
X14248753Y-14186009D01*
X14248753Y-14186009D02*
X14258277Y-14205056D01*
X14258277Y-14205056D02*
X14267801Y-14243152D01*
X14267801Y-14243152D02*
X14267801Y-14290771D01*
X14267801Y-14290771D02*
X14258277Y-14328866D01*
X14258277Y-14328866D02*
X14248753Y-14347914D01*
X14248753Y-14347914D02*
X14239229Y-14357437D01*
X14239229Y-14357437D02*
X14220182Y-14366961D01*
X14220182Y-14366961D02*
X14201134Y-14366961D01*
X14201134Y-14366961D02*
X14182086Y-14357437D01*
X14182086Y-14357437D02*
X14172563Y-14347914D01*
X14172563Y-14347914D02*
X14163039Y-14328866D01*
X14163039Y-14328866D02*
X14153515Y-14290771D01*
X14153515Y-14290771D02*
X14153515Y-14243152D01*
X14153515Y-14243152D02*
X14163039Y-14205056D01*
X14163039Y-14205056D02*
X14172563Y-14186009D01*
X14172563Y-14186009D02*
X14182086Y-14176485D01*
X14182086Y-14176485D02*
X14201134Y-14166961D01*
X14353515Y-14347914D02*
X14363039Y-14357437D01*
X14363039Y-14357437D02*
X14353515Y-14366961D01*
X14353515Y-14366961D02*
X14343991Y-14357437D01*
X14343991Y-14357437D02*
X14353515Y-14347914D01*
X14353515Y-14347914D02*
X14353515Y-14366961D01*
X14486848Y-14166961D02*
X14505896Y-14166961D01*
X14505896Y-14166961D02*
X14524944Y-14176485D01*
X14524944Y-14176485D02*
X14534467Y-14186009D01*
X14534467Y-14186009D02*
X14543991Y-14205056D01*
X14543991Y-14205056D02*
X14553515Y-14243152D01*
X14553515Y-14243152D02*
X14553515Y-14290771D01*
X14553515Y-14290771D02*
X14543991Y-14328866D01*
X14543991Y-14328866D02*
X14534467Y-14347914D01*
X14534467Y-14347914D02*
X14524944Y-14357437D01*
X14524944Y-14357437D02*
X14505896Y-14366961D01*
X14505896Y-14366961D02*
X14486848Y-14366961D01*
X14486848Y-14366961D02*
X14467801Y-14357437D01*
X14467801Y-14357437D02*
X14458277Y-14347914D01*
X14458277Y-14347914D02*
X14448753Y-14328866D01*
X14448753Y-14328866D02*
X14439229Y-14290771D01*
X14439229Y-14290771D02*
X14439229Y-14243152D01*
X14439229Y-14243152D02*
X14448753Y-14205056D01*
X14448753Y-14205056D02*
X14458277Y-14186009D01*
X14458277Y-14186009D02*
X14467801Y-14176485D01*
X14467801Y-14176485D02*
X14486848Y-14166961D01*
X14629706Y-14186009D02*
X14639229Y-14176485D01*
X14639229Y-14176485D02*
X14658277Y-14166961D01*
X14658277Y-14166961D02*
X14705896Y-14166961D01*
X14705896Y-14166961D02*
X14724944Y-14176485D01*
X14724944Y-14176485D02*
X14734467Y-14186009D01*
X14734467Y-14186009D02*
X14743991Y-14205056D01*
X14743991Y-14205056D02*
X14743991Y-14224104D01*
X14743991Y-14224104D02*
X14734467Y-14252675D01*
X14734467Y-14252675D02*
X14620182Y-14366961D01*
X14620182Y-14366961D02*
X14743991Y-14366961D01*
X14924944Y-14166961D02*
X14829706Y-14166961D01*
X14829706Y-14166961D02*
X14820182Y-14262199D01*
X14820182Y-14262199D02*
X14829706Y-14252675D01*
X14829706Y-14252675D02*
X14848753Y-14243152D01*
X14848753Y-14243152D02*
X14896372Y-14243152D01*
X14896372Y-14243152D02*
X14915420Y-14252675D01*
X14915420Y-14252675D02*
X14924944Y-14262199D01*
X14924944Y-14262199D02*
X14934467Y-14281247D01*
X14934467Y-14281247D02*
X14934467Y-14328866D01*
X14934467Y-14328866D02*
X14924944Y-14347914D01*
X14924944Y-14347914D02*
X14915420Y-14357437D01*
X14915420Y-14357437D02*
X14896372Y-14366961D01*
X14896372Y-14366961D02*
X14848753Y-14366961D01*
X14848753Y-14366961D02*
X14829706Y-14357437D01*
X14829706Y-14357437D02*
X14820182Y-14347914D01*
X15105896Y-14166961D02*
X15067801Y-14166961D01*
X15067801Y-14166961D02*
X15048753Y-14176485D01*
X15048753Y-14176485D02*
X15039229Y-14186009D01*
X15039229Y-14186009D02*
X15020182Y-14214580D01*
X15020182Y-14214580D02*
X15010658Y-14252675D01*
X15010658Y-14252675D02*
X15010658Y-14328866D01*
X15010658Y-14328866D02*
X15020182Y-14347914D01*
X15020182Y-14347914D02*
X15029706Y-14357437D01*
X15029706Y-14357437D02*
X15048753Y-14366961D01*
X15048753Y-14366961D02*
X15086848Y-14366961D01*
X15086848Y-14366961D02*
X15105896Y-14357437D01*
X15105896Y-14357437D02*
X15115420Y-14347914D01*
X15115420Y-14347914D02*
X15124944Y-14328866D01*
X15124944Y-14328866D02*
X15124944Y-14281247D01*
X15124944Y-14281247D02*
X15115420Y-14262199D01*
X15115420Y-14262199D02*
X15105896Y-14252675D01*
X15105896Y-14252675D02*
X15086848Y-14243152D01*
X15086848Y-14243152D02*
X15048753Y-14243152D01*
X15048753Y-14243152D02*
X15029706Y-14252675D01*
X15029706Y-14252675D02*
X15020182Y-14262199D01*
X15020182Y-14262199D02*
X15010658Y-14281247D01*
X15201134Y-14166961D02*
X15201134Y-14205056D01*
X15277325Y-14166961D02*
X15277325Y-14205056D01*
X15572563Y-14443152D02*
X15563039Y-14433628D01*
X15563039Y-14433628D02*
X15543991Y-14405056D01*
X15543991Y-14405056D02*
X15534468Y-14386009D01*
X15534468Y-14386009D02*
X15524944Y-14357437D01*
X15524944Y-14357437D02*
X15515420Y-14309818D01*
X15515420Y-14309818D02*
X15515420Y-14271723D01*
X15515420Y-14271723D02*
X15524944Y-14224104D01*
X15524944Y-14224104D02*
X15534468Y-14195533D01*
X15534468Y-14195533D02*
X15543991Y-14176485D01*
X15543991Y-14176485D02*
X15563039Y-14147914D01*
X15563039Y-14147914D02*
X15572563Y-14138390D01*
X15639229Y-14186009D02*
X15648753Y-14176485D01*
X15648753Y-14176485D02*
X15667801Y-14166961D01*
X15667801Y-14166961D02*
X15715420Y-14166961D01*
X15715420Y-14166961D02*
X15734468Y-14176485D01*
X15734468Y-14176485D02*
X15743991Y-14186009D01*
X15743991Y-14186009D02*
X15753515Y-14205056D01*
X15753515Y-14205056D02*
X15753515Y-14224104D01*
X15753515Y-14224104D02*
X15743991Y-14252675D01*
X15743991Y-14252675D02*
X15629706Y-14366961D01*
X15629706Y-14366961D02*
X15753515Y-14366961D01*
X15991610Y-14366961D02*
X15991610Y-14166961D01*
X16077325Y-14366961D02*
X16077325Y-14262199D01*
X16077325Y-14262199D02*
X16067801Y-14243152D01*
X16067801Y-14243152D02*
X16048753Y-14233628D01*
X16048753Y-14233628D02*
X16020182Y-14233628D01*
X16020182Y-14233628D02*
X16001134Y-14243152D01*
X16001134Y-14243152D02*
X15991610Y-14252675D01*
X16201134Y-14366961D02*
X16182087Y-14357437D01*
X16182087Y-14357437D02*
X16172563Y-14347914D01*
X16172563Y-14347914D02*
X16163039Y-14328866D01*
X16163039Y-14328866D02*
X16163039Y-14271723D01*
X16163039Y-14271723D02*
X16172563Y-14252675D01*
X16172563Y-14252675D02*
X16182087Y-14243152D01*
X16182087Y-14243152D02*
X16201134Y-14233628D01*
X16201134Y-14233628D02*
X16229706Y-14233628D01*
X16229706Y-14233628D02*
X16248753Y-14243152D01*
X16248753Y-14243152D02*
X16258277Y-14252675D01*
X16258277Y-14252675D02*
X16267801Y-14271723D01*
X16267801Y-14271723D02*
X16267801Y-14328866D01*
X16267801Y-14328866D02*
X16258277Y-14347914D01*
X16258277Y-14347914D02*
X16248753Y-14357437D01*
X16248753Y-14357437D02*
X16229706Y-14366961D01*
X16229706Y-14366961D02*
X16201134Y-14366961D01*
X16382087Y-14366961D02*
X16363039Y-14357437D01*
X16363039Y-14357437D02*
X16353515Y-14338390D01*
X16353515Y-14338390D02*
X16353515Y-14166961D01*
X16534468Y-14357437D02*
X16515420Y-14366961D01*
X16515420Y-14366961D02*
X16477325Y-14366961D01*
X16477325Y-14366961D02*
X16458277Y-14357437D01*
X16458277Y-14357437D02*
X16448753Y-14338390D01*
X16448753Y-14338390D02*
X16448753Y-14262199D01*
X16448753Y-14262199D02*
X16458277Y-14243152D01*
X16458277Y-14243152D02*
X16477325Y-14233628D01*
X16477325Y-14233628D02*
X16515420Y-14233628D01*
X16515420Y-14233628D02*
X16534468Y-14243152D01*
X16534468Y-14243152D02*
X16543991Y-14262199D01*
X16543991Y-14262199D02*
X16543991Y-14281247D01*
X16543991Y-14281247D02*
X16448753Y-14300295D01*
X16620182Y-14357437D02*
X16639230Y-14366961D01*
X16639230Y-14366961D02*
X16677325Y-14366961D01*
X16677325Y-14366961D02*
X16696372Y-14357437D01*
X16696372Y-14357437D02*
X16705896Y-14338390D01*
X16705896Y-14338390D02*
X16705896Y-14328866D01*
X16705896Y-14328866D02*
X16696372Y-14309818D01*
X16696372Y-14309818D02*
X16677325Y-14300295D01*
X16677325Y-14300295D02*
X16648753Y-14300295D01*
X16648753Y-14300295D02*
X16629706Y-14290771D01*
X16629706Y-14290771D02*
X16620182Y-14271723D01*
X16620182Y-14271723D02*
X16620182Y-14262199D01*
X16620182Y-14262199D02*
X16629706Y-14243152D01*
X16629706Y-14243152D02*
X16648753Y-14233628D01*
X16648753Y-14233628D02*
X16677325Y-14233628D01*
X16677325Y-14233628D02*
X16696372Y-14243152D01*
X16772563Y-14443152D02*
X16782087Y-14433628D01*
X16782087Y-14433628D02*
X16801134Y-14405056D01*
X16801134Y-14405056D02*
X16810658Y-14386009D01*
X16810658Y-14386009D02*
X16820182Y-14357437D01*
X16820182Y-14357437D02*
X16829706Y-14309818D01*
X16829706Y-14309818D02*
X16829706Y-14271723D01*
X16829706Y-14271723D02*
X16820182Y-14224104D01*
X16820182Y-14224104D02*
X16810658Y-14195533D01*
X16810658Y-14195533D02*
X16801134Y-14176485D01*
X16801134Y-14176485D02*
X16782087Y-14147914D01*
X16782087Y-14147914D02*
X16772563Y-14138390D01*
X17134468Y-14443152D02*
X17124944Y-14433628D01*
X17124944Y-14433628D02*
X17105896Y-14405056D01*
X17105896Y-14405056D02*
X17096373Y-14386009D01*
X17096373Y-14386009D02*
X17086849Y-14357437D01*
X17086849Y-14357437D02*
X17077325Y-14309818D01*
X17077325Y-14309818D02*
X17077325Y-14271723D01*
X17077325Y-14271723D02*
X17086849Y-14224104D01*
X17086849Y-14224104D02*
X17096373Y-14195533D01*
X17096373Y-14195533D02*
X17105896Y-14176485D01*
X17105896Y-14176485D02*
X17124944Y-14147914D01*
X17124944Y-14147914D02*
X17134468Y-14138390D01*
X17210658Y-14233628D02*
X17210658Y-14366961D01*
X17210658Y-14252675D02*
X17220182Y-14243152D01*
X17220182Y-14243152D02*
X17239230Y-14233628D01*
X17239230Y-14233628D02*
X17267801Y-14233628D01*
X17267801Y-14233628D02*
X17286849Y-14243152D01*
X17286849Y-14243152D02*
X17296373Y-14262199D01*
X17296373Y-14262199D02*
X17296373Y-14366961D01*
X17420182Y-14366961D02*
X17401134Y-14357437D01*
X17401134Y-14357437D02*
X17391611Y-14347914D01*
X17391611Y-14347914D02*
X17382087Y-14328866D01*
X17382087Y-14328866D02*
X17382087Y-14271723D01*
X17382087Y-14271723D02*
X17391611Y-14252675D01*
X17391611Y-14252675D02*
X17401134Y-14243152D01*
X17401134Y-14243152D02*
X17420182Y-14233628D01*
X17420182Y-14233628D02*
X17448754Y-14233628D01*
X17448754Y-14233628D02*
X17467801Y-14243152D01*
X17467801Y-14243152D02*
X17477325Y-14252675D01*
X17477325Y-14252675D02*
X17486849Y-14271723D01*
X17486849Y-14271723D02*
X17486849Y-14328866D01*
X17486849Y-14328866D02*
X17477325Y-14347914D01*
X17477325Y-14347914D02*
X17467801Y-14357437D01*
X17467801Y-14357437D02*
X17448754Y-14366961D01*
X17448754Y-14366961D02*
X17420182Y-14366961D01*
X17543992Y-14233628D02*
X17620182Y-14233628D01*
X17572563Y-14166961D02*
X17572563Y-14338390D01*
X17572563Y-14338390D02*
X17582087Y-14357437D01*
X17582087Y-14357437D02*
X17601134Y-14366961D01*
X17601134Y-14366961D02*
X17620182Y-14366961D01*
X17839230Y-14233628D02*
X17839230Y-14433628D01*
X17839230Y-14243152D02*
X17858277Y-14233628D01*
X17858277Y-14233628D02*
X17896373Y-14233628D01*
X17896373Y-14233628D02*
X17915420Y-14243152D01*
X17915420Y-14243152D02*
X17924944Y-14252675D01*
X17924944Y-14252675D02*
X17934468Y-14271723D01*
X17934468Y-14271723D02*
X17934468Y-14328866D01*
X17934468Y-14328866D02*
X17924944Y-14347914D01*
X17924944Y-14347914D02*
X17915420Y-14357437D01*
X17915420Y-14357437D02*
X17896373Y-14366961D01*
X17896373Y-14366961D02*
X17858277Y-14366961D01*
X17858277Y-14366961D02*
X17839230Y-14357437D01*
X18048754Y-14366961D02*
X18029706Y-14357437D01*
X18029706Y-14357437D02*
X18020182Y-14338390D01*
X18020182Y-14338390D02*
X18020182Y-14166961D01*
X18210658Y-14366961D02*
X18210658Y-14262199D01*
X18210658Y-14262199D02*
X18201135Y-14243152D01*
X18201135Y-14243152D02*
X18182087Y-14233628D01*
X18182087Y-14233628D02*
X18143992Y-14233628D01*
X18143992Y-14233628D02*
X18124944Y-14243152D01*
X18210658Y-14357437D02*
X18191611Y-14366961D01*
X18191611Y-14366961D02*
X18143992Y-14366961D01*
X18143992Y-14366961D02*
X18124944Y-14357437D01*
X18124944Y-14357437D02*
X18115420Y-14338390D01*
X18115420Y-14338390D02*
X18115420Y-14319342D01*
X18115420Y-14319342D02*
X18124944Y-14300295D01*
X18124944Y-14300295D02*
X18143992Y-14290771D01*
X18143992Y-14290771D02*
X18191611Y-14290771D01*
X18191611Y-14290771D02*
X18210658Y-14281247D01*
X18277325Y-14233628D02*
X18353515Y-14233628D01*
X18305896Y-14166961D02*
X18305896Y-14338390D01*
X18305896Y-14338390D02*
X18315420Y-14357437D01*
X18315420Y-14357437D02*
X18334468Y-14366961D01*
X18334468Y-14366961D02*
X18353515Y-14366961D01*
X18496373Y-14357437D02*
X18477325Y-14366961D01*
X18477325Y-14366961D02*
X18439230Y-14366961D01*
X18439230Y-14366961D02*
X18420182Y-14357437D01*
X18420182Y-14357437D02*
X18410658Y-14338390D01*
X18410658Y-14338390D02*
X18410658Y-14262199D01*
X18410658Y-14262199D02*
X18420182Y-14243152D01*
X18420182Y-14243152D02*
X18439230Y-14233628D01*
X18439230Y-14233628D02*
X18477325Y-14233628D01*
X18477325Y-14233628D02*
X18496373Y-14243152D01*
X18496373Y-14243152D02*
X18505896Y-14262199D01*
X18505896Y-14262199D02*
X18505896Y-14281247D01*
X18505896Y-14281247D02*
X18410658Y-14300295D01*
X18677325Y-14366961D02*
X18677325Y-14166961D01*
X18677325Y-14357437D02*
X18658277Y-14366961D01*
X18658277Y-14366961D02*
X18620182Y-14366961D01*
X18620182Y-14366961D02*
X18601135Y-14357437D01*
X18601135Y-14357437D02*
X18591611Y-14347914D01*
X18591611Y-14347914D02*
X18582087Y-14328866D01*
X18582087Y-14328866D02*
X18582087Y-14271723D01*
X18582087Y-14271723D02*
X18591611Y-14252675D01*
X18591611Y-14252675D02*
X18601135Y-14243152D01*
X18601135Y-14243152D02*
X18620182Y-14233628D01*
X18620182Y-14233628D02*
X18658277Y-14233628D01*
X18658277Y-14233628D02*
X18677325Y-14243152D01*
X18753516Y-14443152D02*
X18763039Y-14433628D01*
X18763039Y-14433628D02*
X18782087Y-14405056D01*
X18782087Y-14405056D02*
X18791611Y-14386009D01*
X18791611Y-14386009D02*
X18801135Y-14357437D01*
X18801135Y-14357437D02*
X18810658Y-14309818D01*
X18810658Y-14309818D02*
X18810658Y-14271723D01*
X18810658Y-14271723D02*
X18801135Y-14224104D01*
X18801135Y-14224104D02*
X18791611Y-14195533D01*
X18791611Y-14195533D02*
X18782087Y-14176485D01*
X18782087Y-14176485D02*
X18763039Y-14147914D01*
X18763039Y-14147914D02*
X18753516Y-14138390D01*
X11997500Y-14539477D02*
G75*
G02*
X11797500Y-14539477I-100000J0D01*
G01*
X11797500Y-14539477D02*
G75*
G02*
X11997500Y-14539477I100000J0D01*
G01*
X12239229Y-14430961D02*
X12363039Y-14430961D01*
X12363039Y-14430961D02*
X12296372Y-14507152D01*
X12296372Y-14507152D02*
X12324943Y-14507152D01*
X12324943Y-14507152D02*
X12343991Y-14516675D01*
X12343991Y-14516675D02*
X12353515Y-14526199D01*
X12353515Y-14526199D02*
X12363039Y-14545247D01*
X12363039Y-14545247D02*
X12363039Y-14592866D01*
X12363039Y-14592866D02*
X12353515Y-14611914D01*
X12353515Y-14611914D02*
X12343991Y-14621437D01*
X12343991Y-14621437D02*
X12324943Y-14630961D01*
X12324943Y-14630961D02*
X12267801Y-14630961D01*
X12267801Y-14630961D02*
X12248753Y-14621437D01*
X12248753Y-14621437D02*
X12239229Y-14611914D01*
X12448753Y-14611914D02*
X12458277Y-14621437D01*
X12458277Y-14621437D02*
X12448753Y-14630961D01*
X12448753Y-14630961D02*
X12439229Y-14621437D01*
X12439229Y-14621437D02*
X12448753Y-14611914D01*
X12448753Y-14611914D02*
X12448753Y-14630961D01*
X12534467Y-14450009D02*
X12543991Y-14440485D01*
X12543991Y-14440485D02*
X12563039Y-14430961D01*
X12563039Y-14430961D02*
X12610658Y-14430961D01*
X12610658Y-14430961D02*
X12629705Y-14440485D01*
X12629705Y-14440485D02*
X12639229Y-14450009D01*
X12639229Y-14450009D02*
X12648753Y-14469056D01*
X12648753Y-14469056D02*
X12648753Y-14488104D01*
X12648753Y-14488104D02*
X12639229Y-14516675D01*
X12639229Y-14516675D02*
X12524943Y-14630961D01*
X12524943Y-14630961D02*
X12648753Y-14630961D01*
X12772562Y-14430961D02*
X12791610Y-14430961D01*
X12791610Y-14430961D02*
X12810658Y-14440485D01*
X12810658Y-14440485D02*
X12820182Y-14450009D01*
X12820182Y-14450009D02*
X12829705Y-14469056D01*
X12829705Y-14469056D02*
X12839229Y-14507152D01*
X12839229Y-14507152D02*
X12839229Y-14554771D01*
X12839229Y-14554771D02*
X12829705Y-14592866D01*
X12829705Y-14592866D02*
X12820182Y-14611914D01*
X12820182Y-14611914D02*
X12810658Y-14621437D01*
X12810658Y-14621437D02*
X12791610Y-14630961D01*
X12791610Y-14630961D02*
X12772562Y-14630961D01*
X12772562Y-14630961D02*
X12753515Y-14621437D01*
X12753515Y-14621437D02*
X12743991Y-14611914D01*
X12743991Y-14611914D02*
X12734467Y-14592866D01*
X12734467Y-14592866D02*
X12724943Y-14554771D01*
X12724943Y-14554771D02*
X12724943Y-14507152D01*
X12724943Y-14507152D02*
X12734467Y-14469056D01*
X12734467Y-14469056D02*
X12743991Y-14450009D01*
X12743991Y-14450009D02*
X12753515Y-14440485D01*
X12753515Y-14440485D02*
X12772562Y-14430961D01*
X12963039Y-14430961D02*
X12982086Y-14430961D01*
X12982086Y-14430961D02*
X13001134Y-14440485D01*
X13001134Y-14440485D02*
X13010658Y-14450009D01*
X13010658Y-14450009D02*
X13020182Y-14469056D01*
X13020182Y-14469056D02*
X13029705Y-14507152D01*
X13029705Y-14507152D02*
X13029705Y-14554771D01*
X13029705Y-14554771D02*
X13020182Y-14592866D01*
X13020182Y-14592866D02*
X13010658Y-14611914D01*
X13010658Y-14611914D02*
X13001134Y-14621437D01*
X13001134Y-14621437D02*
X12982086Y-14630961D01*
X12982086Y-14630961D02*
X12963039Y-14630961D01*
X12963039Y-14630961D02*
X12943991Y-14621437D01*
X12943991Y-14621437D02*
X12934467Y-14611914D01*
X12934467Y-14611914D02*
X12924943Y-14592866D01*
X12924943Y-14592866D02*
X12915420Y-14554771D01*
X12915420Y-14554771D02*
X12915420Y-14507152D01*
X12915420Y-14507152D02*
X12924943Y-14469056D01*
X12924943Y-14469056D02*
X12934467Y-14450009D01*
X12934467Y-14450009D02*
X12943991Y-14440485D01*
X12943991Y-14440485D02*
X12963039Y-14430961D01*
X13115420Y-14630961D02*
X13115420Y-14497628D01*
X13115420Y-14516675D02*
X13124943Y-14507152D01*
X13124943Y-14507152D02*
X13143991Y-14497628D01*
X13143991Y-14497628D02*
X13172563Y-14497628D01*
X13172563Y-14497628D02*
X13191610Y-14507152D01*
X13191610Y-14507152D02*
X13201134Y-14526199D01*
X13201134Y-14526199D02*
X13201134Y-14630961D01*
X13201134Y-14526199D02*
X13210658Y-14507152D01*
X13210658Y-14507152D02*
X13229705Y-14497628D01*
X13229705Y-14497628D02*
X13258277Y-14497628D01*
X13258277Y-14497628D02*
X13277324Y-14507152D01*
X13277324Y-14507152D02*
X13286848Y-14526199D01*
X13286848Y-14526199D02*
X13286848Y-14630961D01*
X13382086Y-14630961D02*
X13382086Y-14497628D01*
X13382086Y-14516675D02*
X13391610Y-14507152D01*
X13391610Y-14507152D02*
X13410658Y-14497628D01*
X13410658Y-14497628D02*
X13439229Y-14497628D01*
X13439229Y-14497628D02*
X13458277Y-14507152D01*
X13458277Y-14507152D02*
X13467801Y-14526199D01*
X13467801Y-14526199D02*
X13467801Y-14630961D01*
X13467801Y-14526199D02*
X13477324Y-14507152D01*
X13477324Y-14507152D02*
X13496372Y-14497628D01*
X13496372Y-14497628D02*
X13524943Y-14497628D01*
X13524943Y-14497628D02*
X13543991Y-14507152D01*
X13543991Y-14507152D02*
X13553515Y-14526199D01*
X13553515Y-14526199D02*
X13553515Y-14630961D01*
X13943991Y-14421437D02*
X13772563Y-14678580D01*
X14201134Y-14430961D02*
X14220182Y-14430961D01*
X14220182Y-14430961D02*
X14239229Y-14440485D01*
X14239229Y-14440485D02*
X14248753Y-14450009D01*
X14248753Y-14450009D02*
X14258277Y-14469056D01*
X14258277Y-14469056D02*
X14267801Y-14507152D01*
X14267801Y-14507152D02*
X14267801Y-14554771D01*
X14267801Y-14554771D02*
X14258277Y-14592866D01*
X14258277Y-14592866D02*
X14248753Y-14611914D01*
X14248753Y-14611914D02*
X14239229Y-14621437D01*
X14239229Y-14621437D02*
X14220182Y-14630961D01*
X14220182Y-14630961D02*
X14201134Y-14630961D01*
X14201134Y-14630961D02*
X14182086Y-14621437D01*
X14182086Y-14621437D02*
X14172563Y-14611914D01*
X14172563Y-14611914D02*
X14163039Y-14592866D01*
X14163039Y-14592866D02*
X14153515Y-14554771D01*
X14153515Y-14554771D02*
X14153515Y-14507152D01*
X14153515Y-14507152D02*
X14163039Y-14469056D01*
X14163039Y-14469056D02*
X14172563Y-14450009D01*
X14172563Y-14450009D02*
X14182086Y-14440485D01*
X14182086Y-14440485D02*
X14201134Y-14430961D01*
X14353515Y-14611914D02*
X14363039Y-14621437D01*
X14363039Y-14621437D02*
X14353515Y-14630961D01*
X14353515Y-14630961D02*
X14343991Y-14621437D01*
X14343991Y-14621437D02*
X14353515Y-14611914D01*
X14353515Y-14611914D02*
X14353515Y-14630961D01*
X14553515Y-14630961D02*
X14439229Y-14630961D01*
X14496372Y-14630961D02*
X14496372Y-14430961D01*
X14496372Y-14430961D02*
X14477325Y-14459533D01*
X14477325Y-14459533D02*
X14458277Y-14478580D01*
X14458277Y-14478580D02*
X14439229Y-14488104D01*
X14629706Y-14450009D02*
X14639229Y-14440485D01*
X14639229Y-14440485D02*
X14658277Y-14430961D01*
X14658277Y-14430961D02*
X14705896Y-14430961D01*
X14705896Y-14430961D02*
X14724944Y-14440485D01*
X14724944Y-14440485D02*
X14734467Y-14450009D01*
X14734467Y-14450009D02*
X14743991Y-14469056D01*
X14743991Y-14469056D02*
X14743991Y-14488104D01*
X14743991Y-14488104D02*
X14734467Y-14516675D01*
X14734467Y-14516675D02*
X14620182Y-14630961D01*
X14620182Y-14630961D02*
X14743991Y-14630961D01*
X14915420Y-14430961D02*
X14877325Y-14430961D01*
X14877325Y-14430961D02*
X14858277Y-14440485D01*
X14858277Y-14440485D02*
X14848753Y-14450009D01*
X14848753Y-14450009D02*
X14829706Y-14478580D01*
X14829706Y-14478580D02*
X14820182Y-14516675D01*
X14820182Y-14516675D02*
X14820182Y-14592866D01*
X14820182Y-14592866D02*
X14829706Y-14611914D01*
X14829706Y-14611914D02*
X14839229Y-14621437D01*
X14839229Y-14621437D02*
X14858277Y-14630961D01*
X14858277Y-14630961D02*
X14896372Y-14630961D01*
X14896372Y-14630961D02*
X14915420Y-14621437D01*
X14915420Y-14621437D02*
X14924944Y-14611914D01*
X14924944Y-14611914D02*
X14934467Y-14592866D01*
X14934467Y-14592866D02*
X14934467Y-14545247D01*
X14934467Y-14545247D02*
X14924944Y-14526199D01*
X14924944Y-14526199D02*
X14915420Y-14516675D01*
X14915420Y-14516675D02*
X14896372Y-14507152D01*
X14896372Y-14507152D02*
X14858277Y-14507152D01*
X14858277Y-14507152D02*
X14839229Y-14516675D01*
X14839229Y-14516675D02*
X14829706Y-14526199D01*
X14829706Y-14526199D02*
X14820182Y-14545247D01*
X15058277Y-14430961D02*
X15077325Y-14430961D01*
X15077325Y-14430961D02*
X15096372Y-14440485D01*
X15096372Y-14440485D02*
X15105896Y-14450009D01*
X15105896Y-14450009D02*
X15115420Y-14469056D01*
X15115420Y-14469056D02*
X15124944Y-14507152D01*
X15124944Y-14507152D02*
X15124944Y-14554771D01*
X15124944Y-14554771D02*
X15115420Y-14592866D01*
X15115420Y-14592866D02*
X15105896Y-14611914D01*
X15105896Y-14611914D02*
X15096372Y-14621437D01*
X15096372Y-14621437D02*
X15077325Y-14630961D01*
X15077325Y-14630961D02*
X15058277Y-14630961D01*
X15058277Y-14630961D02*
X15039229Y-14621437D01*
X15039229Y-14621437D02*
X15029706Y-14611914D01*
X15029706Y-14611914D02*
X15020182Y-14592866D01*
X15020182Y-14592866D02*
X15010658Y-14554771D01*
X15010658Y-14554771D02*
X15010658Y-14507152D01*
X15010658Y-14507152D02*
X15020182Y-14469056D01*
X15020182Y-14469056D02*
X15029706Y-14450009D01*
X15029706Y-14450009D02*
X15039229Y-14440485D01*
X15039229Y-14440485D02*
X15058277Y-14430961D01*
X15201134Y-14430961D02*
X15201134Y-14469056D01*
X15277325Y-14430961D02*
X15277325Y-14469056D01*
X15572563Y-14707152D02*
X15563039Y-14697628D01*
X15563039Y-14697628D02*
X15543991Y-14669056D01*
X15543991Y-14669056D02*
X15534468Y-14650009D01*
X15534468Y-14650009D02*
X15524944Y-14621437D01*
X15524944Y-14621437D02*
X15515420Y-14573818D01*
X15515420Y-14573818D02*
X15515420Y-14535723D01*
X15515420Y-14535723D02*
X15524944Y-14488104D01*
X15524944Y-14488104D02*
X15534468Y-14459533D01*
X15534468Y-14459533D02*
X15543991Y-14440485D01*
X15543991Y-14440485D02*
X15563039Y-14411914D01*
X15563039Y-14411914D02*
X15572563Y-14402390D01*
X15639229Y-14450009D02*
X15648753Y-14440485D01*
X15648753Y-14440485D02*
X15667801Y-14430961D01*
X15667801Y-14430961D02*
X15715420Y-14430961D01*
X15715420Y-14430961D02*
X15734468Y-14440485D01*
X15734468Y-14440485D02*
X15743991Y-14450009D01*
X15743991Y-14450009D02*
X15753515Y-14469056D01*
X15753515Y-14469056D02*
X15753515Y-14488104D01*
X15753515Y-14488104D02*
X15743991Y-14516675D01*
X15743991Y-14516675D02*
X15629706Y-14630961D01*
X15629706Y-14630961D02*
X15753515Y-14630961D01*
X15991610Y-14630961D02*
X15991610Y-14430961D01*
X16077325Y-14630961D02*
X16077325Y-14526199D01*
X16077325Y-14526199D02*
X16067801Y-14507152D01*
X16067801Y-14507152D02*
X16048753Y-14497628D01*
X16048753Y-14497628D02*
X16020182Y-14497628D01*
X16020182Y-14497628D02*
X16001134Y-14507152D01*
X16001134Y-14507152D02*
X15991610Y-14516675D01*
X16201134Y-14630961D02*
X16182087Y-14621437D01*
X16182087Y-14621437D02*
X16172563Y-14611914D01*
X16172563Y-14611914D02*
X16163039Y-14592866D01*
X16163039Y-14592866D02*
X16163039Y-14535723D01*
X16163039Y-14535723D02*
X16172563Y-14516675D01*
X16172563Y-14516675D02*
X16182087Y-14507152D01*
X16182087Y-14507152D02*
X16201134Y-14497628D01*
X16201134Y-14497628D02*
X16229706Y-14497628D01*
X16229706Y-14497628D02*
X16248753Y-14507152D01*
X16248753Y-14507152D02*
X16258277Y-14516675D01*
X16258277Y-14516675D02*
X16267801Y-14535723D01*
X16267801Y-14535723D02*
X16267801Y-14592866D01*
X16267801Y-14592866D02*
X16258277Y-14611914D01*
X16258277Y-14611914D02*
X16248753Y-14621437D01*
X16248753Y-14621437D02*
X16229706Y-14630961D01*
X16229706Y-14630961D02*
X16201134Y-14630961D01*
X16382087Y-14630961D02*
X16363039Y-14621437D01*
X16363039Y-14621437D02*
X16353515Y-14602390D01*
X16353515Y-14602390D02*
X16353515Y-14430961D01*
X16534468Y-14621437D02*
X16515420Y-14630961D01*
X16515420Y-14630961D02*
X16477325Y-14630961D01*
X16477325Y-14630961D02*
X16458277Y-14621437D01*
X16458277Y-14621437D02*
X16448753Y-14602390D01*
X16448753Y-14602390D02*
X16448753Y-14526199D01*
X16448753Y-14526199D02*
X16458277Y-14507152D01*
X16458277Y-14507152D02*
X16477325Y-14497628D01*
X16477325Y-14497628D02*
X16515420Y-14497628D01*
X16515420Y-14497628D02*
X16534468Y-14507152D01*
X16534468Y-14507152D02*
X16543991Y-14526199D01*
X16543991Y-14526199D02*
X16543991Y-14545247D01*
X16543991Y-14545247D02*
X16448753Y-14564295D01*
X16620182Y-14621437D02*
X16639230Y-14630961D01*
X16639230Y-14630961D02*
X16677325Y-14630961D01*
X16677325Y-14630961D02*
X16696372Y-14621437D01*
X16696372Y-14621437D02*
X16705896Y-14602390D01*
X16705896Y-14602390D02*
X16705896Y-14592866D01*
X16705896Y-14592866D02*
X16696372Y-14573818D01*
X16696372Y-14573818D02*
X16677325Y-14564295D01*
X16677325Y-14564295D02*
X16648753Y-14564295D01*
X16648753Y-14564295D02*
X16629706Y-14554771D01*
X16629706Y-14554771D02*
X16620182Y-14535723D01*
X16620182Y-14535723D02*
X16620182Y-14526199D01*
X16620182Y-14526199D02*
X16629706Y-14507152D01*
X16629706Y-14507152D02*
X16648753Y-14497628D01*
X16648753Y-14497628D02*
X16677325Y-14497628D01*
X16677325Y-14497628D02*
X16696372Y-14507152D01*
X16772563Y-14707152D02*
X16782087Y-14697628D01*
X16782087Y-14697628D02*
X16801134Y-14669056D01*
X16801134Y-14669056D02*
X16810658Y-14650009D01*
X16810658Y-14650009D02*
X16820182Y-14621437D01*
X16820182Y-14621437D02*
X16829706Y-14573818D01*
X16829706Y-14573818D02*
X16829706Y-14535723D01*
X16829706Y-14535723D02*
X16820182Y-14488104D01*
X16820182Y-14488104D02*
X16810658Y-14459533D01*
X16810658Y-14459533D02*
X16801134Y-14440485D01*
X16801134Y-14440485D02*
X16782087Y-14411914D01*
X16782087Y-14411914D02*
X16772563Y-14402390D01*
X17134468Y-14707152D02*
X17124944Y-14697628D01*
X17124944Y-14697628D02*
X17105896Y-14669056D01*
X17105896Y-14669056D02*
X17096373Y-14650009D01*
X17096373Y-14650009D02*
X17086849Y-14621437D01*
X17086849Y-14621437D02*
X17077325Y-14573818D01*
X17077325Y-14573818D02*
X17077325Y-14535723D01*
X17077325Y-14535723D02*
X17086849Y-14488104D01*
X17086849Y-14488104D02*
X17096373Y-14459533D01*
X17096373Y-14459533D02*
X17105896Y-14440485D01*
X17105896Y-14440485D02*
X17124944Y-14411914D01*
X17124944Y-14411914D02*
X17134468Y-14402390D01*
X17210658Y-14497628D02*
X17210658Y-14630961D01*
X17210658Y-14516675D02*
X17220182Y-14507152D01*
X17220182Y-14507152D02*
X17239230Y-14497628D01*
X17239230Y-14497628D02*
X17267801Y-14497628D01*
X17267801Y-14497628D02*
X17286849Y-14507152D01*
X17286849Y-14507152D02*
X17296373Y-14526199D01*
X17296373Y-14526199D02*
X17296373Y-14630961D01*
X17420182Y-14630961D02*
X17401134Y-14621437D01*
X17401134Y-14621437D02*
X17391611Y-14611914D01*
X17391611Y-14611914D02*
X17382087Y-14592866D01*
X17382087Y-14592866D02*
X17382087Y-14535723D01*
X17382087Y-14535723D02*
X17391611Y-14516675D01*
X17391611Y-14516675D02*
X17401134Y-14507152D01*
X17401134Y-14507152D02*
X17420182Y-14497628D01*
X17420182Y-14497628D02*
X17448754Y-14497628D01*
X17448754Y-14497628D02*
X17467801Y-14507152D01*
X17467801Y-14507152D02*
X17477325Y-14516675D01*
X17477325Y-14516675D02*
X17486849Y-14535723D01*
X17486849Y-14535723D02*
X17486849Y-14592866D01*
X17486849Y-14592866D02*
X17477325Y-14611914D01*
X17477325Y-14611914D02*
X17467801Y-14621437D01*
X17467801Y-14621437D02*
X17448754Y-14630961D01*
X17448754Y-14630961D02*
X17420182Y-14630961D01*
X17543992Y-14497628D02*
X17620182Y-14497628D01*
X17572563Y-14430961D02*
X17572563Y-14602390D01*
X17572563Y-14602390D02*
X17582087Y-14621437D01*
X17582087Y-14621437D02*
X17601134Y-14630961D01*
X17601134Y-14630961D02*
X17620182Y-14630961D01*
X17839230Y-14497628D02*
X17839230Y-14697628D01*
X17839230Y-14507152D02*
X17858277Y-14497628D01*
X17858277Y-14497628D02*
X17896373Y-14497628D01*
X17896373Y-14497628D02*
X17915420Y-14507152D01*
X17915420Y-14507152D02*
X17924944Y-14516675D01*
X17924944Y-14516675D02*
X17934468Y-14535723D01*
X17934468Y-14535723D02*
X17934468Y-14592866D01*
X17934468Y-14592866D02*
X17924944Y-14611914D01*
X17924944Y-14611914D02*
X17915420Y-14621437D01*
X17915420Y-14621437D02*
X17896373Y-14630961D01*
X17896373Y-14630961D02*
X17858277Y-14630961D01*
X17858277Y-14630961D02*
X17839230Y-14621437D01*
X18048754Y-14630961D02*
X18029706Y-14621437D01*
X18029706Y-14621437D02*
X18020182Y-14602390D01*
X18020182Y-14602390D02*
X18020182Y-14430961D01*
X18210658Y-14630961D02*
X18210658Y-14526199D01*
X18210658Y-14526199D02*
X18201135Y-14507152D01*
X18201135Y-14507152D02*
X18182087Y-14497628D01*
X18182087Y-14497628D02*
X18143992Y-14497628D01*
X18143992Y-14497628D02*
X18124944Y-14507152D01*
X18210658Y-14621437D02*
X18191611Y-14630961D01*
X18191611Y-14630961D02*
X18143992Y-14630961D01*
X18143992Y-14630961D02*
X18124944Y-14621437D01*
X18124944Y-14621437D02*
X18115420Y-14602390D01*
X18115420Y-14602390D02*
X18115420Y-14583342D01*
X18115420Y-14583342D02*
X18124944Y-14564295D01*
X18124944Y-14564295D02*
X18143992Y-14554771D01*
X18143992Y-14554771D02*
X18191611Y-14554771D01*
X18191611Y-14554771D02*
X18210658Y-14545247D01*
X18277325Y-14497628D02*
X18353515Y-14497628D01*
X18305896Y-14430961D02*
X18305896Y-14602390D01*
X18305896Y-14602390D02*
X18315420Y-14621437D01*
X18315420Y-14621437D02*
X18334468Y-14630961D01*
X18334468Y-14630961D02*
X18353515Y-14630961D01*
X18496373Y-14621437D02*
X18477325Y-14630961D01*
X18477325Y-14630961D02*
X18439230Y-14630961D01*
X18439230Y-14630961D02*
X18420182Y-14621437D01*
X18420182Y-14621437D02*
X18410658Y-14602390D01*
X18410658Y-14602390D02*
X18410658Y-14526199D01*
X18410658Y-14526199D02*
X18420182Y-14507152D01*
X18420182Y-14507152D02*
X18439230Y-14497628D01*
X18439230Y-14497628D02*
X18477325Y-14497628D01*
X18477325Y-14497628D02*
X18496373Y-14507152D01*
X18496373Y-14507152D02*
X18505896Y-14526199D01*
X18505896Y-14526199D02*
X18505896Y-14545247D01*
X18505896Y-14545247D02*
X18410658Y-14564295D01*
X18677325Y-14630961D02*
X18677325Y-14430961D01*
X18677325Y-14621437D02*
X18658277Y-14630961D01*
X18658277Y-14630961D02*
X18620182Y-14630961D01*
X18620182Y-14630961D02*
X18601135Y-14621437D01*
X18601135Y-14621437D02*
X18591611Y-14611914D01*
X18591611Y-14611914D02*
X18582087Y-14592866D01*
X18582087Y-14592866D02*
X18582087Y-14535723D01*
X18582087Y-14535723D02*
X18591611Y-14516675D01*
X18591611Y-14516675D02*
X18601135Y-14507152D01*
X18601135Y-14507152D02*
X18620182Y-14497628D01*
X18620182Y-14497628D02*
X18658277Y-14497628D01*
X18658277Y-14497628D02*
X18677325Y-14507152D01*
X18753516Y-14707152D02*
X18763039Y-14697628D01*
X18763039Y-14697628D02*
X18782087Y-14669056D01*
X18782087Y-14669056D02*
X18791611Y-14650009D01*
X18791611Y-14650009D02*
X18801135Y-14621437D01*
X18801135Y-14621437D02*
X18810658Y-14573818D01*
X18810658Y-14573818D02*
X18810658Y-14535723D01*
X18810658Y-14535723D02*
X18801135Y-14488104D01*
X18801135Y-14488104D02*
X18791611Y-14459533D01*
X18791611Y-14459533D02*
X18782087Y-14440485D01*
X18782087Y-14440485D02*
X18763039Y-14411914D01*
X18763039Y-14411914D02*
X18753516Y-14402390D01*
M02*
