%TF.GenerationSoftware,KiCad,Pcbnew,9.0.2*%
%TF.CreationDate,2026-02-20T22:05:30+01:00*%
%TF.ProjectId,LumiCtrl,4c756d69-4374-4726-9c2e-6b696361645f,rev11*%
%TF.SameCoordinates,Original*%
%TF.FileFunction,Paste,Top*%
%TF.FilePolarity,Positive*%
%FSLAX46Y46*%
G04 Gerber Fmt 4.6, Leading zero omitted, Abs format (unit mm)*
G04 Created by KiCad (PCBNEW 9.0.2) date 2026-02-20 22:05:30*
%MOMM*%
%LPD*%
G01*
G04 APERTURE LIST*
G04 Aperture macros list*
%AMRoundRect*
0 Rectangle with rounded corners*
0 $1 Rounding radius*
0 $2 $3 $4 $5 $6 $7 $8 $9 X,Y pos of 4 corners*
0 Add a 4 corners polygon primitive as box body*
4,1,4,$2,$3,$4,$5,$6,$7,$8,$9,$2,$3,0*
0 Add four circle primitives for the rounded corners*
1,1,$1+$1,$2,$3*
1,1,$1+$1,$4,$5*
1,1,$1+$1,$6,$7*
1,1,$1+$1,$8,$9*
0 Add four rect primitives between the rounded corners*
20,1,$1+$1,$2,$3,$4,$5,0*
20,1,$1+$1,$4,$5,$6,$7,0*
20,1,$1+$1,$6,$7,$8,$9,0*
20,1,$1+$1,$8,$9,$2,$3,0*%
%AMRotRect*
0 Rectangle, with rotation*
0 The origin of the aperture is its center*
0 $1 length*
0 $2 width*
0 $3 Rotation angle, in degrees counterclockwise*
0 Add horizontal line*
21,1,$1,$2,0,0,$3*%
%AMFreePoly0*
4,1,6,0.580000,-0.580000,-0.580000,-0.580000,-0.580000,0.070440,-0.070440,0.580000,0.580000,0.580000,0.580000,-0.580000,0.580000,-0.580000,$1*%
G04 Aperture macros list end*
%ADD10C,0.000000*%
%ADD11C,0.010000*%
%ADD12RoundRect,0.180000X0.180000X0.200000X-0.180000X0.200000X-0.180000X-0.200000X0.180000X-0.200000X0*%
%ADD13RoundRect,0.175000X-0.175000X-0.205000X0.175000X-0.205000X0.175000X0.205000X-0.175000X0.205000X0*%
%ADD14RoundRect,0.160000X-0.160000X-0.220000X0.160000X-0.220000X0.160000X0.220000X-0.160000X0.220000X0*%
%ADD15R,0.400000X0.280000*%
%ADD16RoundRect,0.160000X0.004878X0.271986X-0.257251X0.088441X-0.004878X-0.271986X0.257251X-0.088441X0*%
%ADD17RoundRect,0.180000X-0.032732X-0.267074X0.262163X-0.060587X0.032732X0.267074X-0.262163X0.060587X0*%
%ADD18RoundRect,0.180000X0.200000X-0.180000X0.200000X0.180000X-0.200000X0.180000X-0.200000X-0.180000X0*%
%ADD19RoundRect,0.200000X-0.260000X-0.520000X0.260000X-0.520000X0.260000X0.520000X-0.260000X0.520000X0*%
%ADD20R,1.760000X1.460000*%
%ADD21RoundRect,0.160000X-0.220000X0.160000X-0.220000X-0.160000X0.220000X-0.160000X0.220000X0.160000X0*%
%ADD22RoundRect,0.160000X0.160000X0.220000X-0.160000X0.220000X-0.160000X-0.220000X0.160000X-0.220000X0*%
%ADD23RotRect,0.720000X0.800000X225.000000*%
%ADD24RoundRect,0.120000X-0.410000X-0.120000X0.410000X-0.120000X0.410000X0.120000X-0.410000X0.120000X0*%
%ADD25RoundRect,0.175000X0.175000X0.205000X-0.175000X0.205000X-0.175000X-0.205000X0.175000X-0.205000X0*%
%ADD26RoundRect,0.040500X-0.305500X-0.121500X0.305500X-0.121500X0.305500X0.121500X-0.305500X0.121500X0*%
%ADD27RoundRect,0.100000X0.100000X-0.100000X0.100000X0.100000X-0.100000X0.100000X-0.100000X-0.100000X0*%
%ADD28RoundRect,0.180000X-0.180000X-0.200000X0.180000X-0.200000X0.180000X0.200000X-0.180000X0.200000X0*%
%ADD29R,0.975360X0.243840*%
%ADD30RoundRect,0.200000X0.260000X0.520000X-0.260000X0.520000X-0.260000X-0.520000X0.260000X-0.520000X0*%
%ADD31R,0.960000X1.600000*%
%ADD32RoundRect,0.160000X0.152009X-0.225595X0.261456X0.075106X-0.152009X0.225595X-0.261456X-0.075106X0*%
%ADD33RoundRect,0.180000X0.032732X0.267074X-0.262163X0.060587X-0.032732X-0.267074X0.262163X-0.060587X0*%
%ADD34RoundRect,0.027000X-0.298403X-0.307827X0.391323X0.175124X0.298403X0.307827X-0.391323X-0.175124X0*%
%ADD35R,1.564346X0.336612*%
%ADD36RoundRect,0.160000X0.220000X-0.160000X0.220000X0.160000X-0.220000X0.160000X-0.220000X-0.160000X0*%
%ADD37RoundRect,0.160000X0.271986X-0.004878X0.088441X0.257251X-0.271986X0.004878X-0.088441X-0.257251X0*%
%ADD38RoundRect,0.180000X0.126375X-0.237549X0.249502X0.100741X-0.126375X0.237549X-0.249502X-0.100741X0*%
%ADD39RoundRect,0.100000X0.100000X0.100000X-0.100000X0.100000X-0.100000X-0.100000X0.100000X-0.100000X0*%
%ADD40RotRect,0.720000X0.800000X35.000000*%
%ADD41RoundRect,0.180000X0.014142X-0.268701X0.268701X-0.014142X-0.014142X0.268701X-0.268701X0.014142X0*%
%ADD42RoundRect,0.120000X0.120000X0.340000X-0.120000X0.340000X-0.120000X-0.340000X0.120000X-0.340000X0*%
%ADD43RoundRect,0.060000X0.060000X0.400000X-0.060000X0.400000X-0.060000X-0.400000X0.060000X-0.400000X0*%
%ADD44O,0.800000X1.680000*%
%ADD45O,0.800000X1.440000*%
%ADD46R,0.320000X0.640000*%
%ADD47R,0.640000X0.320000*%
%ADD48FreePoly0,270.000000*%
%ADD49R,1.160000X1.160000*%
%ADD50R,0.560000X0.560000*%
%ADD51RoundRect,0.070000X-0.200000X-0.070000X0.200000X-0.070000X0.200000X0.070000X-0.200000X0.070000X0*%
%ADD52RoundRect,0.160000X-0.271986X0.004878X-0.088441X-0.257251X0.271986X-0.004878X0.088441X0.257251X0*%
%ADD53R,0.426720X0.426720*%
%ADD54R,0.447040X0.426720*%
%ADD55RoundRect,0.160000X0.225595X0.152009X-0.075106X0.261456X-0.225595X-0.152009X0.075106X-0.261456X0*%
%ADD56RoundRect,0.160000X-0.004878X-0.271986X0.257251X-0.088441X0.004878X0.271986X-0.257251X0.088441X0*%
G04 APERTURE END LIST*
D10*
%TO.C,MK1*%
G36*
X85096783Y-131249166D02*
G01*
X84952452Y-131645718D01*
X84482605Y-131474709D01*
X84626938Y-131078157D01*
X85096783Y-131249166D01*
G37*
G36*
X84815643Y-132021595D02*
G01*
X84671311Y-132418145D01*
X84201463Y-132247135D01*
X84345798Y-131850584D01*
X84815643Y-132021595D01*
G37*
G36*
X85942506Y-131556984D02*
G01*
X85798173Y-131953535D01*
X85328327Y-131782525D01*
X85472660Y-131385975D01*
X85942506Y-131556984D01*
G37*
G36*
X86507088Y-132637231D02*
G01*
X86362758Y-133033780D01*
X85892911Y-132862770D01*
X86037244Y-132466221D01*
X86507088Y-132637231D01*
G37*
G36*
X86788231Y-131864804D02*
G01*
X86643897Y-132261353D01*
X86174052Y-132090343D01*
X86318383Y-131693793D01*
X86788231Y-131864804D01*
G37*
G36*
X85156462Y-132839487D02*
G01*
X85070717Y-133075068D01*
X84960356Y-133057247D01*
X84848758Y-133061538D01*
X84740137Y-133087768D01*
X84638881Y-133134984D01*
X84548966Y-133201332D01*
X84473946Y-133284063D01*
X84416659Y-133380059D01*
X84181078Y-133294315D01*
X84263619Y-133148236D01*
X84374269Y-133022284D01*
X84508493Y-132921620D01*
X84660504Y-132850737D01*
X84823893Y-132812620D01*
X84991502Y-132808818D01*
X85156462Y-132839487D01*
G37*
G36*
X84382457Y-133474028D02*
G01*
X84364637Y-133584389D01*
X84368927Y-133695987D01*
X84395158Y-133804610D01*
X84442375Y-133905863D01*
X84508722Y-133995779D01*
X84591454Y-134070798D01*
X84687450Y-134128087D01*
X84601704Y-134363667D01*
X84455626Y-134281127D01*
X84329674Y-134170476D01*
X84229010Y-134036254D01*
X84158127Y-133884243D01*
X84120011Y-133720852D01*
X84116207Y-133553244D01*
X84146876Y-133388285D01*
X84382457Y-133474028D01*
G37*
G36*
X85396511Y-132956228D02*
G01*
X85522461Y-133066879D01*
X85623124Y-133201103D01*
X85694009Y-133353114D01*
X85732125Y-133516503D01*
X85735928Y-133684113D01*
X85705260Y-133849072D01*
X85469679Y-133763326D01*
X85487497Y-133652965D01*
X85483209Y-133541369D01*
X85456978Y-133432746D01*
X85409761Y-133331491D01*
X85343413Y-133241575D01*
X85260682Y-133166557D01*
X85164687Y-133109269D01*
X85250430Y-132873688D01*
X85396511Y-132956228D01*
G37*
G36*
X85671057Y-133943039D02*
G01*
X85588519Y-134089119D01*
X85477866Y-134215071D01*
X85343643Y-134315735D01*
X85191633Y-134386619D01*
X85028241Y-134424735D01*
X84860632Y-134428538D01*
X84695674Y-134397869D01*
X84781419Y-134162288D01*
X84891778Y-134180109D01*
X85003377Y-134175818D01*
X85111998Y-134149589D01*
X85213254Y-134102371D01*
X85303168Y-134036023D01*
X85378190Y-133953292D01*
X85435476Y-133857296D01*
X85671057Y-133943039D01*
G37*
D11*
%TO.C,U2*%
X91565000Y-124660000D02*
X91005000Y-124660000D01*
X91005000Y-123640000D01*
X91565000Y-123640000D01*
X91565000Y-124660000D01*
G36*
X91565000Y-124660000D02*
G01*
X91005000Y-124660000D01*
X91005000Y-123640000D01*
X91565000Y-123640000D01*
X91565000Y-124660000D01*
G37*
D10*
%TO.C,U6*%
G36*
X77583107Y-85382721D02*
G01*
X75967664Y-85382721D01*
X75967664Y-83367277D01*
X77583107Y-83367277D01*
X77583107Y-85382721D01*
G37*
%TD*%
D12*
%TO.C,C21*%
X70075000Y-79500000D03*
X68525000Y-79500000D03*
%TD*%
D13*
%TO.C,D5*%
X67287500Y-107410000D03*
X68862500Y-107410000D03*
%TD*%
D14*
%TO.C,R38*%
X93475000Y-132150000D03*
X95125000Y-132150000D03*
%TD*%
D13*
%TO.C,D9*%
X67312500Y-112200000D03*
X68887500Y-112200000D03*
%TD*%
D15*
%TO.C,U10*%
X111650000Y-129050000D03*
X111650000Y-129700000D03*
X111650000Y-130350000D03*
X111650000Y-131000000D03*
X109600000Y-131000000D03*
X109600000Y-130350000D03*
X109600000Y-129700000D03*
X109600000Y-129050000D03*
%TD*%
D16*
%TO.C,R3*%
X118651310Y-125163361D03*
X117299710Y-126109761D03*
%TD*%
D17*
%TO.C,C4*%
X119065157Y-128544522D03*
X120334843Y-127655478D03*
%TD*%
D14*
%TO.C,R26*%
X68475000Y-82500000D03*
X70125000Y-82500000D03*
%TD*%
D18*
%TO.C,C17*%
X107700000Y-130375000D03*
X107700000Y-128825000D03*
%TD*%
%TO.C,C24*%
X70000000Y-99775000D03*
X70000000Y-98225000D03*
%TD*%
D19*
%TO.C,C11*%
X112250000Y-70305000D03*
X115200000Y-70305000D03*
%TD*%
D20*
%TO.C,L1*%
X112625000Y-75817500D03*
X112625000Y-78392500D03*
%TD*%
D21*
%TO.C,R37*%
X93500000Y-133575000D03*
X93500000Y-135225000D03*
%TD*%
%TO.C,R39*%
X101100000Y-126350000D03*
X101100000Y-128000000D03*
%TD*%
D13*
%TO.C,D3*%
X67312500Y-110600000D03*
X68887500Y-110600000D03*
%TD*%
D22*
%TO.C,R61*%
X124825000Y-118750000D03*
X123175000Y-118750000D03*
%TD*%
D23*
%TO.C,SW1*%
X128531370Y-126431371D03*
X125632232Y-129330508D03*
X127400000Y-125300000D03*
X124500862Y-128199137D03*
%TD*%
D24*
%TO.C,U3*%
X107787501Y-63250000D03*
X107787501Y-64200000D03*
X107787501Y-65150000D03*
X110062501Y-65150000D03*
X110062501Y-64200000D03*
X110062501Y-63250000D03*
%TD*%
D25*
%TO.C,D1*%
X126137500Y-112100000D03*
X124562500Y-112100000D03*
%TD*%
D26*
%TO.C,U2*%
X90300000Y-123400000D03*
X90300000Y-123900000D03*
X90300000Y-124400000D03*
X90300000Y-124900000D03*
X92270000Y-124900000D03*
X92270000Y-124400000D03*
X92270000Y-123900000D03*
X92270000Y-123400000D03*
%TD*%
D14*
%TO.C,R29*%
X127687500Y-110600000D03*
X129337500Y-110600000D03*
%TD*%
D27*
%TO.C,D7*%
X110100000Y-70450000D03*
X110100000Y-68250000D03*
%TD*%
D28*
%TO.C,C22*%
X74425000Y-89350000D03*
X75975000Y-89350000D03*
%TD*%
D29*
%TO.C,U7*%
X67198200Y-101200000D03*
X67198200Y-101849999D03*
X67198200Y-102499998D03*
X68900000Y-102499998D03*
X68900000Y-101200000D03*
%TD*%
D19*
%TO.C,C1*%
X129825000Y-89400000D03*
X132775000Y-89400000D03*
%TD*%
D13*
%TO.C,D2*%
X127775000Y-112100000D03*
X129350000Y-112100000D03*
%TD*%
D16*
%TO.C,R58*%
X116500000Y-115700000D03*
X115148400Y-116646402D03*
%TD*%
D30*
%TO.C,C27*%
X98075000Y-126700000D03*
X95125000Y-126700000D03*
%TD*%
D22*
%TO.C,R27*%
X70125000Y-81000000D03*
X68475000Y-81000000D03*
%TD*%
D31*
%TO.C,L2*%
X94800000Y-124000000D03*
X98000000Y-124000000D03*
%TD*%
D21*
%TO.C,R42*%
X101100000Y-129683039D03*
X101100000Y-131333039D03*
%TD*%
D22*
%TO.C,R63*%
X112875000Y-126800000D03*
X111225000Y-126800000D03*
%TD*%
%TO.C,R31*%
X70125000Y-85500000D03*
X68475000Y-85500000D03*
%TD*%
D32*
%TO.C,R14*%
X82417833Y-133225246D03*
X82982167Y-131674754D03*
%TD*%
D18*
%TO.C,C15*%
X119300000Y-77875000D03*
X119300000Y-76325000D03*
%TD*%
D33*
%TO.C,C7*%
X117334843Y-116955478D03*
X116065157Y-117844522D03*
%TD*%
D34*
%TO.C,U4*%
X115237818Y-120083022D03*
X115524606Y-120492598D03*
X115811394Y-120902174D03*
X116098183Y-121311750D03*
X118400000Y-119700000D03*
X118113212Y-119290424D03*
X117826424Y-118880848D03*
X117539635Y-118471272D03*
%TD*%
D14*
%TO.C,R64*%
X114625000Y-131950000D03*
X116275000Y-131950000D03*
%TD*%
D19*
%TO.C,C13*%
X113325000Y-80800000D03*
X116275000Y-80800000D03*
%TD*%
D21*
%TO.C,R40*%
X102600000Y-126350000D03*
X102600000Y-128000000D03*
%TD*%
%TO.C,R34*%
X75000000Y-98275000D03*
X75000000Y-99925000D03*
%TD*%
D35*
%TO.C,U6*%
X79650768Y-86649998D03*
X79650768Y-86000000D03*
X79650768Y-85349998D03*
X79650768Y-84700000D03*
X79650768Y-84049998D03*
X79650768Y-83400000D03*
X79650768Y-82749998D03*
X79650768Y-82100000D03*
X73900000Y-82100000D03*
X73900000Y-82749998D03*
X73900000Y-83400000D03*
X73900000Y-84049998D03*
X73900000Y-84700000D03*
X73900000Y-85349998D03*
X73900000Y-86000000D03*
X73900000Y-86649998D03*
%TD*%
D21*
%TO.C,R47*%
X123050000Y-110525000D03*
X123050000Y-112175000D03*
%TD*%
D36*
%TO.C,R10*%
X119700000Y-91025000D03*
X119700000Y-89375000D03*
%TD*%
D37*
%TO.C,R59*%
X110515194Y-123685995D03*
X109568792Y-122334395D03*
%TD*%
D14*
%TO.C,R30*%
X124575000Y-110600000D03*
X126225000Y-110600000D03*
%TD*%
D21*
%TO.C,R53*%
X102598735Y-129675000D03*
X102598735Y-131325000D03*
%TD*%
D38*
%TO.C,C8*%
X87384934Y-134078262D03*
X87915066Y-132621738D03*
%TD*%
D39*
%TO.C,D6*%
X108700000Y-72800000D03*
X106500000Y-72800000D03*
%TD*%
D13*
%TO.C,D8*%
X67312500Y-109000000D03*
X68887500Y-109000000D03*
%TD*%
D12*
%TO.C,C30*%
X98175000Y-128600000D03*
X96625000Y-128600000D03*
%TD*%
D40*
%TO.C,SW2*%
X119861878Y-131620509D03*
X123220400Y-129268847D03*
X120779600Y-132931153D03*
X124138122Y-130579491D03*
%TD*%
D14*
%TO.C,R62*%
X123175000Y-117250000D03*
X124825000Y-117250000D03*
%TD*%
%TO.C,R13*%
X122525000Y-87900000D03*
X124175000Y-87900000D03*
%TD*%
D22*
%TO.C,R68*%
X111425000Y-132500000D03*
X109775000Y-132500000D03*
%TD*%
%TO.C,R20*%
X120025000Y-73200000D03*
X118375000Y-73200000D03*
%TD*%
D41*
%TO.C,C3*%
X123051992Y-125148008D03*
X124148008Y-124051992D03*
%TD*%
D22*
%TO.C,R67*%
X111425000Y-134000000D03*
X109775000Y-134000000D03*
%TD*%
D42*
%TO.C,J4*%
X103180000Y-67700000D03*
X102380000Y-67700000D03*
D43*
X101230000Y-67700000D03*
X100230000Y-67700000D03*
X99730000Y-67700000D03*
X98730000Y-67700000D03*
D42*
X97580000Y-67700000D03*
X96780000Y-67700000D03*
X96780000Y-67700000D03*
X97580000Y-67700000D03*
D43*
X98230000Y-67700000D03*
X99230000Y-67700000D03*
X100730000Y-67700000D03*
X101730000Y-67700000D03*
D42*
X102380000Y-67700000D03*
X103180000Y-67700000D03*
D44*
X104300000Y-67125000D03*
D45*
X104300000Y-62945000D03*
D44*
X95660000Y-67125000D03*
D45*
X95660000Y-62945000D03*
%TD*%
D18*
%TO.C,C29*%
X105500000Y-135275000D03*
X105500000Y-133725000D03*
%TD*%
D46*
%TO.C,U1*%
X132200000Y-94100000D03*
X131400000Y-94100000D03*
X130600000Y-94100000D03*
X129800000Y-94100000D03*
X129000000Y-94100000D03*
X128200000Y-94100000D03*
X127400000Y-94100000D03*
X126600000Y-94100000D03*
X125800000Y-94100000D03*
X125000000Y-94100000D03*
X124200000Y-94100000D03*
D47*
X123300000Y-95200000D03*
X123300000Y-96000000D03*
X123300000Y-96800000D03*
X123300000Y-97600000D03*
X123300000Y-98400000D03*
X123300000Y-99200000D03*
X123300000Y-100000000D03*
X123300000Y-100800000D03*
X123300000Y-101600000D03*
X123300000Y-102400000D03*
X123300000Y-103200000D03*
X123300000Y-104000000D03*
X123300000Y-104800000D03*
D46*
X124200000Y-105900000D03*
X125000000Y-105900000D03*
X125800000Y-105900000D03*
X126600000Y-105900000D03*
X127400000Y-105900000D03*
X128200000Y-105900000D03*
X129000000Y-105900000D03*
X129800000Y-105900000D03*
X130600000Y-105900000D03*
X131400000Y-105900000D03*
X132200000Y-105900000D03*
D47*
X133100000Y-104800000D03*
X133100000Y-104000000D03*
X133100000Y-103200000D03*
X133100000Y-102400000D03*
X133100000Y-101600000D03*
X133100000Y-100800000D03*
X133100000Y-100000000D03*
X133100000Y-99200000D03*
X133100000Y-98400000D03*
X133100000Y-97600000D03*
X133100000Y-96800000D03*
X133100000Y-96000000D03*
X133100000Y-95200000D03*
D48*
X130175000Y-98025000D03*
D49*
X128200000Y-98025000D03*
X126225000Y-98025000D03*
X130175000Y-100000000D03*
X128200000Y-100000000D03*
X126225000Y-100000000D03*
X130175000Y-101975000D03*
X128200000Y-101975000D03*
X126225000Y-101975000D03*
D50*
X133150000Y-105950000D03*
X123250000Y-105950000D03*
X123250000Y-94050000D03*
X133150000Y-94050000D03*
%TD*%
D36*
%TO.C,R35*%
X65300000Y-100125000D03*
X65300000Y-98475000D03*
%TD*%
D13*
%TO.C,FB1*%
X105262500Y-69850000D03*
X106837500Y-69850000D03*
%TD*%
D51*
%TO.C,U5*%
X115400000Y-74700000D03*
X115400000Y-75200000D03*
X115400000Y-75700000D03*
X116825000Y-75700000D03*
X116825000Y-75200000D03*
X116825000Y-74700000D03*
%TD*%
D18*
%TO.C,C16*%
X109600000Y-127575000D03*
X109600000Y-126025000D03*
%TD*%
D28*
%TO.C,C19*%
X68525000Y-84000000D03*
X70075000Y-84000000D03*
%TD*%
D30*
%TO.C,C6*%
X92125000Y-121550000D03*
X89175000Y-121550000D03*
%TD*%
D14*
%TO.C,R8*%
X106825000Y-68250000D03*
X108475000Y-68250000D03*
%TD*%
%TO.C,R36*%
X93475000Y-130650000D03*
X95125000Y-130650000D03*
%TD*%
D52*
%TO.C,R60*%
X111326799Y-122224200D03*
X112273201Y-123575800D03*
%TD*%
D21*
%TO.C,R2*%
X126600000Y-89375000D03*
X126600000Y-91025000D03*
%TD*%
D14*
%TO.C,R21*%
X118375000Y-70200000D03*
X120025000Y-70200000D03*
%TD*%
D13*
%TO.C,D4*%
X67325000Y-113800000D03*
X68900000Y-113800000D03*
%TD*%
D22*
%TO.C,R1*%
X128250000Y-87900000D03*
X126600000Y-87900000D03*
%TD*%
D12*
%TO.C,C28*%
X98075000Y-131500000D03*
X96525000Y-131500000D03*
%TD*%
D53*
%TO.C,U9*%
X97749999Y-134200000D03*
X98500000Y-134200000D03*
X99249999Y-134200000D03*
X100000000Y-134200000D03*
X100750001Y-134200000D03*
X101500000Y-134200000D03*
X102250001Y-134200000D03*
D54*
X97282500Y-135257501D03*
X102717500Y-135257501D03*
D53*
X97749999Y-136315002D03*
X98500000Y-136315002D03*
X99249999Y-136315002D03*
X100000000Y-136315002D03*
X100750001Y-136315002D03*
X101500000Y-136315002D03*
X102250001Y-136315002D03*
%TD*%
D22*
%TO.C,R66*%
X124825000Y-120250000D03*
X123175000Y-120250000D03*
%TD*%
D55*
%TO.C,R55*%
X83525246Y-130332167D03*
X81974754Y-129767833D03*
%TD*%
D22*
%TO.C,R65*%
X124825000Y-115750000D03*
X123175000Y-115750000D03*
%TD*%
D14*
%TO.C,R9*%
X113075000Y-67300000D03*
X114725000Y-67300000D03*
%TD*%
D55*
%TO.C,R56*%
X88525246Y-131182167D03*
X86974754Y-130617833D03*
%TD*%
D12*
%TO.C,C14*%
X119975000Y-71700000D03*
X118425000Y-71700000D03*
%TD*%
D28*
%TO.C,C9*%
X113750000Y-72205000D03*
X115300000Y-72205000D03*
%TD*%
D56*
%TO.C,R4*%
X118158877Y-127332102D03*
X119510477Y-126385700D03*
%TD*%
D36*
%TO.C,R17*%
X121200000Y-91025000D03*
X121200000Y-89375000D03*
%TD*%
D28*
%TO.C,C2*%
X130525000Y-91300000D03*
X132075000Y-91300000D03*
%TD*%
D12*
%TO.C,C5*%
X99975000Y-138600000D03*
X98425000Y-138600000D03*
%TD*%
M02*
