%TF.GenerationSoftware,KiCad,Pcbnew,9.0.2*%
%TF.CreationDate,2026-02-22T16:58:40+01:00*%
%TF.ProjectId,LumiCtrl,4c756d69-4374-4726-9c2e-6b696361645f,rev11*%
%TF.SameCoordinates,Original*%
%TF.FileFunction,Paste,Top*%
%TF.FilePolarity,Positive*%
%FSLAX46Y46*%
G04 Gerber Fmt 4.6, Leading zero omitted, Abs format (unit mm)*
G04 Created by KiCad (PCBNEW 9.0.2) date 2026-02-22 16:58:40*
%MOMM*%
%LPD*%
G01*
G04 APERTURE LIST*
G04 Aperture macros list*
%AMRoundRect*
0 Rectangle with rounded corners*
0 $1 Rounding radius*
0 $2 $3 $4 $5 $6 $7 $8 $9 X,Y pos of 4 corners*
0 Add a 4 corners polygon primitive as box body*
4,1,4,$2,$3,$4,$5,$6,$7,$8,$9,$2,$3,0*
0 Add four circle primitives for the rounded corners*
1,1,$1+$1,$2,$3*
1,1,$1+$1,$4,$5*
1,1,$1+$1,$6,$7*
1,1,$1+$1,$8,$9*
0 Add four rect primitives between the rounded corners*
20,1,$1+$1,$2,$3,$4,$5,0*
20,1,$1+$1,$4,$5,$6,$7,0*
20,1,$1+$1,$6,$7,$8,$9,0*
20,1,$1+$1,$8,$9,$2,$3,0*%
%AMRotRect*
0 Rectangle, with rotation*
0 The origin of the aperture is its center*
0 $1 length*
0 $2 width*
0 $3 Rotation angle, in degrees counterclockwise*
0 Add horizontal line*
21,1,$1,$2,0,0,$3*%
%AMFreePoly0*
4,1,6,0.580000,-0.580000,-0.580000,-0.580000,-0.580000,0.070440,-0.070440,0.580000,0.580000,0.580000,0.580000,-0.580000,0.580000,-0.580000,$1*%
G04 Aperture macros list end*
%ADD10C,0.010000*%
%ADD11C,0.000000*%
%ADD12RoundRect,0.180000X0.180000X0.200000X-0.180000X0.200000X-0.180000X-0.200000X0.180000X-0.200000X0*%
%ADD13RoundRect,0.175000X-0.175000X-0.205000X0.175000X-0.205000X0.175000X0.205000X-0.175000X0.205000X0*%
%ADD14RoundRect,0.160000X-0.160000X-0.220000X0.160000X-0.220000X0.160000X0.220000X-0.160000X0.220000X0*%
%ADD15RoundRect,0.160000X0.004878X0.271986X-0.257251X0.088441X-0.004878X-0.271986X0.257251X-0.088441X0*%
%ADD16RoundRect,0.180000X-0.032732X-0.267074X0.262163X-0.060587X0.032732X0.267074X-0.262163X0.060587X0*%
%ADD17RoundRect,0.180000X0.200000X-0.180000X0.200000X0.180000X-0.200000X0.180000X-0.200000X-0.180000X0*%
%ADD18RoundRect,0.200000X-0.260000X-0.520000X0.260000X-0.520000X0.260000X0.520000X-0.260000X0.520000X0*%
%ADD19R,1.760000X1.460000*%
%ADD20RoundRect,0.160000X-0.220000X0.160000X-0.220000X-0.160000X0.220000X-0.160000X0.220000X0.160000X0*%
%ADD21RoundRect,0.160000X0.160000X0.220000X-0.160000X0.220000X-0.160000X-0.220000X0.160000X-0.220000X0*%
%ADD22RotRect,0.720000X0.800000X225.000000*%
%ADD23RoundRect,0.120000X-0.410000X-0.120000X0.410000X-0.120000X0.410000X0.120000X-0.410000X0.120000X0*%
%ADD24RoundRect,0.175000X0.175000X0.205000X-0.175000X0.205000X-0.175000X-0.205000X0.175000X-0.205000X0*%
%ADD25RoundRect,0.040500X-0.305500X-0.121500X0.305500X-0.121500X0.305500X0.121500X-0.305500X0.121500X0*%
%ADD26RoundRect,0.100000X0.100000X-0.100000X0.100000X0.100000X-0.100000X0.100000X-0.100000X-0.100000X0*%
%ADD27RoundRect,0.180000X-0.180000X-0.200000X0.180000X-0.200000X0.180000X0.200000X-0.180000X0.200000X0*%
%ADD28R,0.975360X0.243840*%
%ADD29RoundRect,0.200000X0.260000X0.520000X-0.260000X0.520000X-0.260000X-0.520000X0.260000X-0.520000X0*%
%ADD30R,0.960000X1.600000*%
%ADD31RoundRect,0.180000X0.032732X0.267074X-0.262163X0.060587X-0.032732X-0.267074X0.262163X-0.060587X0*%
%ADD32RoundRect,0.027000X-0.298403X-0.307827X0.391323X0.175124X0.298403X0.307827X-0.391323X-0.175124X0*%
%ADD33R,1.564346X0.336612*%
%ADD34RoundRect,0.160000X0.220000X-0.160000X0.220000X0.160000X-0.220000X0.160000X-0.220000X-0.160000X0*%
%ADD35RoundRect,0.160000X0.271986X-0.004878X0.088441X0.257251X-0.271986X0.004878X-0.088441X-0.257251X0*%
%ADD36RoundRect,0.100000X0.100000X0.100000X-0.100000X0.100000X-0.100000X-0.100000X0.100000X-0.100000X0*%
%ADD37RotRect,0.720000X0.800000X35.000000*%
%ADD38RoundRect,0.042000X-0.302000X-0.126000X0.302000X-0.126000X0.302000X0.126000X-0.302000X0.126000X0*%
%ADD39RoundRect,0.180000X0.014142X-0.268701X0.268701X-0.014142X-0.014142X0.268701X-0.268701X0.014142X0*%
%ADD40RoundRect,0.120000X0.120000X0.340000X-0.120000X0.340000X-0.120000X-0.340000X0.120000X-0.340000X0*%
%ADD41RoundRect,0.060000X0.060000X0.400000X-0.060000X0.400000X-0.060000X-0.400000X0.060000X-0.400000X0*%
%ADD42O,0.800000X1.680000*%
%ADD43O,0.800000X1.440000*%
%ADD44R,0.320000X0.640000*%
%ADD45R,0.640000X0.320000*%
%ADD46FreePoly0,270.000000*%
%ADD47R,1.160000X1.160000*%
%ADD48R,0.560000X0.560000*%
%ADD49RoundRect,0.070000X-0.200000X-0.070000X0.200000X-0.070000X0.200000X0.070000X-0.200000X0.070000X0*%
%ADD50RoundRect,0.180000X-0.200000X0.180000X-0.200000X-0.180000X0.200000X-0.180000X0.200000X0.180000X0*%
%ADD51RoundRect,0.160000X-0.271986X0.004878X-0.088441X-0.257251X0.271986X-0.004878X0.088441X0.257251X0*%
%ADD52R,0.426720X0.426720*%
%ADD53R,0.447040X0.426720*%
%ADD54RoundRect,0.160000X-0.004878X-0.271986X0.257251X-0.088441X0.004878X0.271986X-0.257251X0.088441X0*%
G04 APERTURE END LIST*
D10*
%TO.C,U2*%
X91565000Y-124660000D02*
X91005000Y-124660000D01*
X91005000Y-123640000D01*
X91565000Y-123640000D01*
X91565000Y-124660000D01*
G36*
X91565000Y-124660000D02*
G01*
X91005000Y-124660000D01*
X91005000Y-123640000D01*
X91565000Y-123640000D01*
X91565000Y-124660000D01*
G37*
D11*
%TO.C,U6*%
G36*
X77583107Y-85382721D02*
G01*
X75967664Y-85382721D01*
X75967664Y-83367277D01*
X77583107Y-83367277D01*
X77583107Y-85382721D01*
G37*
D10*
%TO.C,MK1*%
X86900000Y-132900000D02*
X86400000Y-132900000D01*
X86400000Y-132600000D01*
X86900000Y-132600000D01*
X86900000Y-132900000D01*
G36*
X86900000Y-132900000D02*
G01*
X86400000Y-132900000D01*
X86400000Y-132600000D01*
X86900000Y-132600000D01*
X86900000Y-132900000D01*
G37*
X86900000Y-133550000D02*
X86400000Y-133550000D01*
X86400000Y-133250000D01*
X86900000Y-133250000D01*
X86900000Y-133550000D01*
G36*
X86900000Y-133550000D02*
G01*
X86400000Y-133550000D01*
X86400000Y-133250000D01*
X86900000Y-133250000D01*
X86900000Y-133550000D01*
G37*
X86900000Y-134200000D02*
X86400000Y-134200000D01*
X86400000Y-133900000D01*
X86900000Y-133900000D01*
X86900000Y-134200000D01*
G36*
X86900000Y-134200000D02*
G01*
X86400000Y-134200000D01*
X86400000Y-133900000D01*
X86900000Y-133900000D01*
X86900000Y-134200000D01*
G37*
X89050000Y-132900000D02*
X88550000Y-132900000D01*
X88550000Y-132600000D01*
X89050000Y-132600000D01*
X89050000Y-132900000D01*
G36*
X89050000Y-132900000D02*
G01*
X88550000Y-132900000D01*
X88550000Y-132600000D01*
X89050000Y-132600000D01*
X89050000Y-132900000D01*
G37*
X89050000Y-133550000D02*
X88550000Y-133550000D01*
X88550000Y-133250000D01*
X89050000Y-133250000D01*
X89050000Y-133550000D01*
G36*
X89050000Y-133550000D02*
G01*
X88550000Y-133550000D01*
X88550000Y-133250000D01*
X89050000Y-133250000D01*
X89050000Y-133550000D01*
G37*
X89050000Y-134200000D02*
X88550000Y-134200000D01*
X88550000Y-133900000D01*
X89050000Y-133900000D01*
X89050000Y-134200000D01*
G36*
X89050000Y-134200000D02*
G01*
X88550000Y-134200000D01*
X88550000Y-133900000D01*
X89050000Y-133900000D01*
X89050000Y-134200000D01*
G37*
X87155000Y-135402000D02*
X87159000Y-135428000D01*
X87165000Y-135454000D01*
X87171000Y-135480000D01*
X87179000Y-135506000D01*
X87188000Y-135531000D01*
X87198000Y-135556000D01*
X87210000Y-135580000D01*
X87222000Y-135604000D01*
X87236000Y-135627000D01*
X87250000Y-135649000D01*
X87266000Y-135671000D01*
X87282000Y-135692000D01*
X87300000Y-135712000D01*
X87318000Y-135732000D01*
X87338000Y-135750000D01*
X87358000Y-135768000D01*
X87379000Y-135784000D01*
X87401000Y-135800000D01*
X87423000Y-135814000D01*
X87446000Y-135828000D01*
X87470000Y-135840000D01*
X87494000Y-135852000D01*
X87519000Y-135862000D01*
X87544000Y-135871000D01*
X87570000Y-135879000D01*
X87596000Y-135885000D01*
X87622000Y-135891000D01*
X87648000Y-135895000D01*
X87675000Y-135898000D01*
X87675000Y-136148000D01*
X87642000Y-136146000D01*
X87602000Y-136141000D01*
X87562000Y-136134000D01*
X87523000Y-136125000D01*
X87484000Y-136114000D01*
X87446000Y-136101000D01*
X87408000Y-136087000D01*
X87371000Y-136070000D01*
X87335000Y-136052000D01*
X87300000Y-136032000D01*
X87266000Y-136011000D01*
X87233000Y-135987000D01*
X87201000Y-135963000D01*
X87171000Y-135936000D01*
X87142000Y-135908000D01*
X87114000Y-135879000D01*
X87087000Y-135849000D01*
X87063000Y-135817000D01*
X87039000Y-135784000D01*
X87018000Y-135750000D01*
X86998000Y-135715000D01*
X86980000Y-135679000D01*
X86963000Y-135642000D01*
X86949000Y-135604000D01*
X86936000Y-135566000D01*
X86925000Y-135527000D01*
X86916000Y-135488000D01*
X86909000Y-135448000D01*
X86904000Y-135408000D01*
X86902000Y-135375000D01*
X87152000Y-135375000D01*
X87155000Y-135402000D01*
G36*
X87155000Y-135402000D02*
G01*
X87159000Y-135428000D01*
X87165000Y-135454000D01*
X87171000Y-135480000D01*
X87179000Y-135506000D01*
X87188000Y-135531000D01*
X87198000Y-135556000D01*
X87210000Y-135580000D01*
X87222000Y-135604000D01*
X87236000Y-135627000D01*
X87250000Y-135649000D01*
X87266000Y-135671000D01*
X87282000Y-135692000D01*
X87300000Y-135712000D01*
X87318000Y-135732000D01*
X87338000Y-135750000D01*
X87358000Y-135768000D01*
X87379000Y-135784000D01*
X87401000Y-135800000D01*
X87423000Y-135814000D01*
X87446000Y-135828000D01*
X87470000Y-135840000D01*
X87494000Y-135852000D01*
X87519000Y-135862000D01*
X87544000Y-135871000D01*
X87570000Y-135879000D01*
X87596000Y-135885000D01*
X87622000Y-135891000D01*
X87648000Y-135895000D01*
X87675000Y-135898000D01*
X87675000Y-136148000D01*
X87642000Y-136146000D01*
X87602000Y-136141000D01*
X87562000Y-136134000D01*
X87523000Y-136125000D01*
X87484000Y-136114000D01*
X87446000Y-136101000D01*
X87408000Y-136087000D01*
X87371000Y-136070000D01*
X87335000Y-136052000D01*
X87300000Y-136032000D01*
X87266000Y-136011000D01*
X87233000Y-135987000D01*
X87201000Y-135963000D01*
X87171000Y-135936000D01*
X87142000Y-135908000D01*
X87114000Y-135879000D01*
X87087000Y-135849000D01*
X87063000Y-135817000D01*
X87039000Y-135784000D01*
X87018000Y-135750000D01*
X86998000Y-135715000D01*
X86980000Y-135679000D01*
X86963000Y-135642000D01*
X86949000Y-135604000D01*
X86936000Y-135566000D01*
X86925000Y-135527000D01*
X86916000Y-135488000D01*
X86909000Y-135448000D01*
X86904000Y-135408000D01*
X86902000Y-135375000D01*
X87152000Y-135375000D01*
X87155000Y-135402000D01*
G37*
X87675000Y-134752000D02*
X87648000Y-134755000D01*
X87622000Y-134759000D01*
X87596000Y-134765000D01*
X87570000Y-134771000D01*
X87544000Y-134779000D01*
X87519000Y-134788000D01*
X87494000Y-134798000D01*
X87470000Y-134810000D01*
X87446000Y-134822000D01*
X87423000Y-134836000D01*
X87401000Y-134850000D01*
X87379000Y-134866000D01*
X87358000Y-134882000D01*
X87338000Y-134900000D01*
X87318000Y-134918000D01*
X87300000Y-134938000D01*
X87282000Y-134958000D01*
X87266000Y-134979000D01*
X87250000Y-135001000D01*
X87236000Y-135023000D01*
X87222000Y-135046000D01*
X87210000Y-135070000D01*
X87198000Y-135094000D01*
X87188000Y-135119000D01*
X87179000Y-135144000D01*
X87171000Y-135170000D01*
X87165000Y-135196000D01*
X87159000Y-135222000D01*
X87155000Y-135248000D01*
X87152000Y-135275000D01*
X86902000Y-135275000D01*
X86904000Y-135242000D01*
X86909000Y-135202000D01*
X86916000Y-135162000D01*
X86925000Y-135123000D01*
X86936000Y-135084000D01*
X86949000Y-135046000D01*
X86963000Y-135008000D01*
X86980000Y-134971000D01*
X86998000Y-134935000D01*
X87018000Y-134900000D01*
X87039000Y-134866000D01*
X87063000Y-134833000D01*
X87087000Y-134801000D01*
X87114000Y-134771000D01*
X87142000Y-134742000D01*
X87171000Y-134714000D01*
X87201000Y-134687000D01*
X87233000Y-134663000D01*
X87266000Y-134639000D01*
X87300000Y-134618000D01*
X87335000Y-134598000D01*
X87371000Y-134580000D01*
X87408000Y-134563000D01*
X87446000Y-134549000D01*
X87484000Y-134536000D01*
X87523000Y-134525000D01*
X87562000Y-134516000D01*
X87602000Y-134509000D01*
X87642000Y-134504000D01*
X87675000Y-134502000D01*
X87675000Y-134752000D01*
G36*
X87675000Y-134752000D02*
G01*
X87648000Y-134755000D01*
X87622000Y-134759000D01*
X87596000Y-134765000D01*
X87570000Y-134771000D01*
X87544000Y-134779000D01*
X87519000Y-134788000D01*
X87494000Y-134798000D01*
X87470000Y-134810000D01*
X87446000Y-134822000D01*
X87423000Y-134836000D01*
X87401000Y-134850000D01*
X87379000Y-134866000D01*
X87358000Y-134882000D01*
X87338000Y-134900000D01*
X87318000Y-134918000D01*
X87300000Y-134938000D01*
X87282000Y-134958000D01*
X87266000Y-134979000D01*
X87250000Y-135001000D01*
X87236000Y-135023000D01*
X87222000Y-135046000D01*
X87210000Y-135070000D01*
X87198000Y-135094000D01*
X87188000Y-135119000D01*
X87179000Y-135144000D01*
X87171000Y-135170000D01*
X87165000Y-135196000D01*
X87159000Y-135222000D01*
X87155000Y-135248000D01*
X87152000Y-135275000D01*
X86902000Y-135275000D01*
X86904000Y-135242000D01*
X86909000Y-135202000D01*
X86916000Y-135162000D01*
X86925000Y-135123000D01*
X86936000Y-135084000D01*
X86949000Y-135046000D01*
X86963000Y-135008000D01*
X86980000Y-134971000D01*
X86998000Y-134935000D01*
X87018000Y-134900000D01*
X87039000Y-134866000D01*
X87063000Y-134833000D01*
X87087000Y-134801000D01*
X87114000Y-134771000D01*
X87142000Y-134742000D01*
X87171000Y-134714000D01*
X87201000Y-134687000D01*
X87233000Y-134663000D01*
X87266000Y-134639000D01*
X87300000Y-134618000D01*
X87335000Y-134598000D01*
X87371000Y-134580000D01*
X87408000Y-134563000D01*
X87446000Y-134549000D01*
X87484000Y-134536000D01*
X87523000Y-134525000D01*
X87562000Y-134516000D01*
X87602000Y-134509000D01*
X87642000Y-134504000D01*
X87675000Y-134502000D01*
X87675000Y-134752000D01*
G37*
X88546000Y-135408000D02*
X88541000Y-135448000D01*
X88534000Y-135488000D01*
X88525000Y-135527000D01*
X88514000Y-135566000D01*
X88501000Y-135604000D01*
X88487000Y-135642000D01*
X88470000Y-135679000D01*
X88452000Y-135715000D01*
X88432000Y-135750000D01*
X88411000Y-135784000D01*
X88387000Y-135817000D01*
X88363000Y-135849000D01*
X88336000Y-135879000D01*
X88308000Y-135908000D01*
X88279000Y-135936000D01*
X88249000Y-135963000D01*
X88217000Y-135987000D01*
X88184000Y-136011000D01*
X88150000Y-136032000D01*
X88115000Y-136052000D01*
X88079000Y-136070000D01*
X88042000Y-136087000D01*
X88004000Y-136101000D01*
X87966000Y-136114000D01*
X87927000Y-136125000D01*
X87888000Y-136134000D01*
X87848000Y-136141000D01*
X87808000Y-136146000D01*
X87775000Y-136148000D01*
X87775000Y-135898000D01*
X87802000Y-135895000D01*
X87828000Y-135891000D01*
X87854000Y-135885000D01*
X87880000Y-135879000D01*
X87906000Y-135871000D01*
X87931000Y-135862000D01*
X87956000Y-135852000D01*
X87980000Y-135840000D01*
X88004000Y-135828000D01*
X88027000Y-135814000D01*
X88049000Y-135800000D01*
X88071000Y-135784000D01*
X88092000Y-135768000D01*
X88112000Y-135750000D01*
X88132000Y-135732000D01*
X88150000Y-135712000D01*
X88168000Y-135692000D01*
X88184000Y-135671000D01*
X88200000Y-135649000D01*
X88214000Y-135627000D01*
X88228000Y-135604000D01*
X88240000Y-135580000D01*
X88252000Y-135556000D01*
X88262000Y-135531000D01*
X88271000Y-135506000D01*
X88279000Y-135480000D01*
X88285000Y-135454000D01*
X88291000Y-135428000D01*
X88295000Y-135402000D01*
X88298000Y-135375000D01*
X88548000Y-135375000D01*
X88546000Y-135408000D01*
G36*
X88546000Y-135408000D02*
G01*
X88541000Y-135448000D01*
X88534000Y-135488000D01*
X88525000Y-135527000D01*
X88514000Y-135566000D01*
X88501000Y-135604000D01*
X88487000Y-135642000D01*
X88470000Y-135679000D01*
X88452000Y-135715000D01*
X88432000Y-135750000D01*
X88411000Y-135784000D01*
X88387000Y-135817000D01*
X88363000Y-135849000D01*
X88336000Y-135879000D01*
X88308000Y-135908000D01*
X88279000Y-135936000D01*
X88249000Y-135963000D01*
X88217000Y-135987000D01*
X88184000Y-136011000D01*
X88150000Y-136032000D01*
X88115000Y-136052000D01*
X88079000Y-136070000D01*
X88042000Y-136087000D01*
X88004000Y-136101000D01*
X87966000Y-136114000D01*
X87927000Y-136125000D01*
X87888000Y-136134000D01*
X87848000Y-136141000D01*
X87808000Y-136146000D01*
X87775000Y-136148000D01*
X87775000Y-135898000D01*
X87802000Y-135895000D01*
X87828000Y-135891000D01*
X87854000Y-135885000D01*
X87880000Y-135879000D01*
X87906000Y-135871000D01*
X87931000Y-135862000D01*
X87956000Y-135852000D01*
X87980000Y-135840000D01*
X88004000Y-135828000D01*
X88027000Y-135814000D01*
X88049000Y-135800000D01*
X88071000Y-135784000D01*
X88092000Y-135768000D01*
X88112000Y-135750000D01*
X88132000Y-135732000D01*
X88150000Y-135712000D01*
X88168000Y-135692000D01*
X88184000Y-135671000D01*
X88200000Y-135649000D01*
X88214000Y-135627000D01*
X88228000Y-135604000D01*
X88240000Y-135580000D01*
X88252000Y-135556000D01*
X88262000Y-135531000D01*
X88271000Y-135506000D01*
X88279000Y-135480000D01*
X88285000Y-135454000D01*
X88291000Y-135428000D01*
X88295000Y-135402000D01*
X88298000Y-135375000D01*
X88548000Y-135375000D01*
X88546000Y-135408000D01*
G37*
X87808000Y-134504000D02*
X87848000Y-134509000D01*
X87888000Y-134516000D01*
X87927000Y-134525000D01*
X87966000Y-134536000D01*
X88004000Y-134549000D01*
X88042000Y-134563000D01*
X88079000Y-134580000D01*
X88115000Y-134598000D01*
X88150000Y-134618000D01*
X88184000Y-134639000D01*
X88217000Y-134663000D01*
X88249000Y-134687000D01*
X88279000Y-134714000D01*
X88308000Y-134742000D01*
X88336000Y-134771000D01*
X88363000Y-134801000D01*
X88387000Y-134833000D01*
X88411000Y-134866000D01*
X88432000Y-134900000D01*
X88452000Y-134935000D01*
X88470000Y-134971000D01*
X88487000Y-135008000D01*
X88501000Y-135046000D01*
X88514000Y-135084000D01*
X88525000Y-135123000D01*
X88534000Y-135162000D01*
X88541000Y-135202000D01*
X88546000Y-135242000D01*
X88548000Y-135275000D01*
X88298000Y-135275000D01*
X88295000Y-135248000D01*
X88291000Y-135222000D01*
X88285000Y-135196000D01*
X88279000Y-135170000D01*
X88271000Y-135144000D01*
X88262000Y-135119000D01*
X88252000Y-135094000D01*
X88240000Y-135070000D01*
X88228000Y-135046000D01*
X88214000Y-135023000D01*
X88200000Y-135001000D01*
X88184000Y-134979000D01*
X88168000Y-134958000D01*
X88150000Y-134938000D01*
X88132000Y-134918000D01*
X88112000Y-134900000D01*
X88092000Y-134882000D01*
X88071000Y-134866000D01*
X88049000Y-134850000D01*
X88027000Y-134836000D01*
X88004000Y-134822000D01*
X87980000Y-134810000D01*
X87956000Y-134798000D01*
X87931000Y-134788000D01*
X87906000Y-134779000D01*
X87880000Y-134771000D01*
X87854000Y-134765000D01*
X87828000Y-134759000D01*
X87802000Y-134755000D01*
X87775000Y-134752000D01*
X87775000Y-134502000D01*
X87808000Y-134504000D01*
G36*
X87808000Y-134504000D02*
G01*
X87848000Y-134509000D01*
X87888000Y-134516000D01*
X87927000Y-134525000D01*
X87966000Y-134536000D01*
X88004000Y-134549000D01*
X88042000Y-134563000D01*
X88079000Y-134580000D01*
X88115000Y-134598000D01*
X88150000Y-134618000D01*
X88184000Y-134639000D01*
X88217000Y-134663000D01*
X88249000Y-134687000D01*
X88279000Y-134714000D01*
X88308000Y-134742000D01*
X88336000Y-134771000D01*
X88363000Y-134801000D01*
X88387000Y-134833000D01*
X88411000Y-134866000D01*
X88432000Y-134900000D01*
X88452000Y-134935000D01*
X88470000Y-134971000D01*
X88487000Y-135008000D01*
X88501000Y-135046000D01*
X88514000Y-135084000D01*
X88525000Y-135123000D01*
X88534000Y-135162000D01*
X88541000Y-135202000D01*
X88546000Y-135242000D01*
X88548000Y-135275000D01*
X88298000Y-135275000D01*
X88295000Y-135248000D01*
X88291000Y-135222000D01*
X88285000Y-135196000D01*
X88279000Y-135170000D01*
X88271000Y-135144000D01*
X88262000Y-135119000D01*
X88252000Y-135094000D01*
X88240000Y-135070000D01*
X88228000Y-135046000D01*
X88214000Y-135023000D01*
X88200000Y-135001000D01*
X88184000Y-134979000D01*
X88168000Y-134958000D01*
X88150000Y-134938000D01*
X88132000Y-134918000D01*
X88112000Y-134900000D01*
X88092000Y-134882000D01*
X88071000Y-134866000D01*
X88049000Y-134850000D01*
X88027000Y-134836000D01*
X88004000Y-134822000D01*
X87980000Y-134810000D01*
X87956000Y-134798000D01*
X87931000Y-134788000D01*
X87906000Y-134779000D01*
X87880000Y-134771000D01*
X87854000Y-134765000D01*
X87828000Y-134759000D01*
X87802000Y-134755000D01*
X87775000Y-134752000D01*
X87775000Y-134502000D01*
X87808000Y-134504000D01*
G37*
%TO.C,U10*%
X110305000Y-133860000D02*
X109365000Y-133860000D01*
X109365000Y-132340000D01*
X110305000Y-132340000D01*
X110305000Y-133860000D01*
G36*
X110305000Y-133860000D02*
G01*
X109365000Y-133860000D01*
X109365000Y-132340000D01*
X110305000Y-132340000D01*
X110305000Y-133860000D01*
G37*
%TD*%
D12*
%TO.C,C21*%
X70075000Y-79500000D03*
X68525000Y-79500000D03*
%TD*%
D13*
%TO.C,D5*%
X67287500Y-107410000D03*
X68862500Y-107410000D03*
%TD*%
D14*
%TO.C,R38*%
X93475000Y-132150000D03*
X95125000Y-132150000D03*
%TD*%
D13*
%TO.C,D9*%
X67312500Y-112200000D03*
X68887500Y-112200000D03*
%TD*%
D15*
%TO.C,R3*%
X118651310Y-125163361D03*
X117299710Y-126109761D03*
%TD*%
D16*
%TO.C,C4*%
X119065157Y-128544522D03*
X120334843Y-127655478D03*
%TD*%
D14*
%TO.C,R26*%
X68475000Y-82500000D03*
X70125000Y-82500000D03*
%TD*%
D17*
%TO.C,C24*%
X70000000Y-99775000D03*
X70000000Y-98225000D03*
%TD*%
D18*
%TO.C,C11*%
X112250000Y-70305000D03*
X115200000Y-70305000D03*
%TD*%
D19*
%TO.C,L1*%
X112625000Y-75817500D03*
X112625000Y-78392500D03*
%TD*%
D20*
%TO.C,R37*%
X93500000Y-133575000D03*
X93500000Y-135225000D03*
%TD*%
%TO.C,R39*%
X101100000Y-126350000D03*
X101100000Y-128000000D03*
%TD*%
D13*
%TO.C,D3*%
X67312500Y-110600000D03*
X68887500Y-110600000D03*
%TD*%
D21*
%TO.C,R61*%
X124825000Y-118750000D03*
X123175000Y-118750000D03*
%TD*%
D22*
%TO.C,SW1*%
X128531370Y-126431371D03*
X125632232Y-129330508D03*
X127400000Y-125300000D03*
X124500862Y-128199137D03*
%TD*%
D23*
%TO.C,U3*%
X107787501Y-63250000D03*
X107787501Y-64200000D03*
X107787501Y-65150000D03*
X110062501Y-65150000D03*
X110062501Y-64200000D03*
X110062501Y-63250000D03*
%TD*%
D24*
%TO.C,D1*%
X126137500Y-112100000D03*
X124562500Y-112100000D03*
%TD*%
D25*
%TO.C,U2*%
X90300000Y-123400000D03*
X90300000Y-123900000D03*
X90300000Y-124400000D03*
X90300000Y-124900000D03*
X92270000Y-124900000D03*
X92270000Y-124400000D03*
X92270000Y-123900000D03*
X92270000Y-123400000D03*
%TD*%
D14*
%TO.C,R29*%
X127687500Y-110600000D03*
X129337500Y-110600000D03*
%TD*%
D26*
%TO.C,D7*%
X110100000Y-70450000D03*
X110100000Y-68250000D03*
%TD*%
D27*
%TO.C,C22*%
X74425000Y-89350000D03*
X75975000Y-89350000D03*
%TD*%
D28*
%TO.C,U7*%
X67198200Y-101200000D03*
X67198200Y-101849999D03*
X67198200Y-102499998D03*
X68900000Y-102499998D03*
X68900000Y-101200000D03*
%TD*%
D18*
%TO.C,C1*%
X129825000Y-89400000D03*
X132775000Y-89400000D03*
%TD*%
D13*
%TO.C,D2*%
X127775000Y-112100000D03*
X129350000Y-112100000D03*
%TD*%
D15*
%TO.C,R58*%
X116500000Y-115700000D03*
X115148400Y-116646402D03*
%TD*%
D29*
%TO.C,C27*%
X98075000Y-126700000D03*
X95125000Y-126700000D03*
%TD*%
D21*
%TO.C,R27*%
X70125000Y-81000000D03*
X68475000Y-81000000D03*
%TD*%
D30*
%TO.C,L2*%
X94800000Y-124000000D03*
X98000000Y-124000000D03*
%TD*%
D20*
%TO.C,R42*%
X101100000Y-129683039D03*
X101100000Y-131333039D03*
%TD*%
D14*
%TO.C,R63*%
X111275000Y-130500000D03*
X112925000Y-130500000D03*
%TD*%
D21*
%TO.C,R31*%
X70125000Y-85500000D03*
X68475000Y-85500000D03*
%TD*%
D14*
%TO.C,R14*%
X83025000Y-129550000D03*
X84675000Y-129550000D03*
%TD*%
D17*
%TO.C,C15*%
X119300000Y-77875000D03*
X119300000Y-76325000D03*
%TD*%
D31*
%TO.C,C7*%
X117334843Y-116955478D03*
X116065157Y-117844522D03*
%TD*%
D32*
%TO.C,U4*%
X115237818Y-120083022D03*
X115524606Y-120492598D03*
X115811394Y-120902174D03*
X116098183Y-121311750D03*
X118400000Y-119700000D03*
X118113212Y-119290424D03*
X117826424Y-118880848D03*
X117539635Y-118471272D03*
%TD*%
D21*
%TO.C,R64*%
X108375000Y-130500000D03*
X106725000Y-130500000D03*
%TD*%
D18*
%TO.C,C13*%
X113325000Y-80800000D03*
X116275000Y-80800000D03*
%TD*%
D20*
%TO.C,R40*%
X102600000Y-126350000D03*
X102600000Y-128000000D03*
%TD*%
%TO.C,R34*%
X75000000Y-98275000D03*
X75000000Y-99925000D03*
%TD*%
D33*
%TO.C,U6*%
X79650768Y-86649998D03*
X79650768Y-86000000D03*
X79650768Y-85349998D03*
X79650768Y-84700000D03*
X79650768Y-84049998D03*
X79650768Y-83400000D03*
X79650768Y-82749998D03*
X79650768Y-82100000D03*
X73900000Y-82100000D03*
X73900000Y-82749998D03*
X73900000Y-83400000D03*
X73900000Y-84049998D03*
X73900000Y-84700000D03*
X73900000Y-85349998D03*
X73900000Y-86000000D03*
X73900000Y-86649998D03*
%TD*%
D20*
%TO.C,R47*%
X123050000Y-110525000D03*
X123050000Y-112175000D03*
%TD*%
D34*
%TO.C,R10*%
X119700000Y-91025000D03*
X119700000Y-89375000D03*
%TD*%
D35*
%TO.C,R59*%
X110515194Y-123685995D03*
X109568792Y-122334395D03*
%TD*%
D14*
%TO.C,R30*%
X124575000Y-110600000D03*
X126225000Y-110600000D03*
%TD*%
D20*
%TO.C,R53*%
X102598735Y-129675000D03*
X102598735Y-131325000D03*
%TD*%
D27*
%TO.C,C8*%
X83075000Y-134050000D03*
X84625000Y-134050000D03*
%TD*%
D36*
%TO.C,D6*%
X108700000Y-72800000D03*
X106500000Y-72800000D03*
%TD*%
D13*
%TO.C,D8*%
X67312500Y-109000000D03*
X68887500Y-109000000D03*
%TD*%
D12*
%TO.C,C30*%
X98175000Y-128600000D03*
X96625000Y-128600000D03*
%TD*%
D37*
%TO.C,SW2*%
X119861878Y-131620509D03*
X123220400Y-129268847D03*
X120779600Y-132931153D03*
X124138122Y-130579491D03*
%TD*%
D14*
%TO.C,R62*%
X123175000Y-117250000D03*
X124825000Y-117250000D03*
%TD*%
%TO.C,R13*%
X122525000Y-87900000D03*
X124175000Y-87900000D03*
%TD*%
D38*
%TO.C,U10*%
X108400000Y-132100000D03*
X108400000Y-133100000D03*
X108400000Y-134100000D03*
X111270000Y-134100000D03*
X111270000Y-133100000D03*
X111270000Y-132100000D03*
%TD*%
D21*
%TO.C,R20*%
X120025000Y-73200000D03*
X118375000Y-73200000D03*
%TD*%
D39*
%TO.C,C3*%
X123051992Y-125148008D03*
X124148008Y-124051992D03*
%TD*%
D14*
%TO.C,R6*%
X83025000Y-132550000D03*
X84675000Y-132550000D03*
%TD*%
D40*
%TO.C,J4*%
X103180000Y-67700000D03*
X102380000Y-67700000D03*
D41*
X101230000Y-67700000D03*
X100230000Y-67700000D03*
X99730000Y-67700000D03*
X98730000Y-67700000D03*
D40*
X97580000Y-67700000D03*
X96780000Y-67700000D03*
X96780000Y-67700000D03*
X97580000Y-67700000D03*
D41*
X98230000Y-67700000D03*
X99230000Y-67700000D03*
X100730000Y-67700000D03*
X101730000Y-67700000D03*
D40*
X102380000Y-67700000D03*
X103180000Y-67700000D03*
D42*
X104300000Y-67125000D03*
D43*
X104300000Y-62945000D03*
D42*
X95660000Y-67125000D03*
D43*
X95660000Y-62945000D03*
%TD*%
D17*
%TO.C,C29*%
X105500000Y-135275000D03*
X105500000Y-133725000D03*
%TD*%
D44*
%TO.C,U1*%
X132200000Y-94100000D03*
X131400000Y-94100000D03*
X130600000Y-94100000D03*
X129800000Y-94100000D03*
X129000000Y-94100000D03*
X128200000Y-94100000D03*
X127400000Y-94100000D03*
X126600000Y-94100000D03*
X125800000Y-94100000D03*
X125000000Y-94100000D03*
X124200000Y-94100000D03*
D45*
X123300000Y-95200000D03*
X123300000Y-96000000D03*
X123300000Y-96800000D03*
X123300000Y-97600000D03*
X123300000Y-98400000D03*
X123300000Y-99200000D03*
X123300000Y-100000000D03*
X123300000Y-100800000D03*
X123300000Y-101600000D03*
X123300000Y-102400000D03*
X123300000Y-103200000D03*
X123300000Y-104000000D03*
X123300000Y-104800000D03*
D44*
X124200000Y-105900000D03*
X125000000Y-105900000D03*
X125800000Y-105900000D03*
X126600000Y-105900000D03*
X127400000Y-105900000D03*
X128200000Y-105900000D03*
X129000000Y-105900000D03*
X129800000Y-105900000D03*
X130600000Y-105900000D03*
X131400000Y-105900000D03*
X132200000Y-105900000D03*
D45*
X133100000Y-104800000D03*
X133100000Y-104000000D03*
X133100000Y-103200000D03*
X133100000Y-102400000D03*
X133100000Y-101600000D03*
X133100000Y-100800000D03*
X133100000Y-100000000D03*
X133100000Y-99200000D03*
X133100000Y-98400000D03*
X133100000Y-97600000D03*
X133100000Y-96800000D03*
X133100000Y-96000000D03*
X133100000Y-95200000D03*
D46*
X130175000Y-98025000D03*
D47*
X128200000Y-98025000D03*
X126225000Y-98025000D03*
X130175000Y-100000000D03*
X128200000Y-100000000D03*
X126225000Y-100000000D03*
X130175000Y-101975000D03*
X128200000Y-101975000D03*
X126225000Y-101975000D03*
D48*
X133150000Y-105950000D03*
X123250000Y-105950000D03*
X123250000Y-94050000D03*
X133150000Y-94050000D03*
%TD*%
D34*
%TO.C,R35*%
X65300000Y-100125000D03*
X65300000Y-98475000D03*
%TD*%
D13*
%TO.C,FB1*%
X105262500Y-69850000D03*
X106837500Y-69850000D03*
%TD*%
D49*
%TO.C,U5*%
X115400000Y-74700000D03*
X115400000Y-75200000D03*
X115400000Y-75700000D03*
X116825000Y-75700000D03*
X116825000Y-75200000D03*
X116825000Y-74700000D03*
%TD*%
D50*
%TO.C,C16*%
X112850000Y-133125000D03*
X112850000Y-134675000D03*
%TD*%
D27*
%TO.C,C19*%
X68525000Y-84000000D03*
X70075000Y-84000000D03*
%TD*%
D29*
%TO.C,C6*%
X92125000Y-121550000D03*
X89175000Y-121550000D03*
%TD*%
D14*
%TO.C,R8*%
X106825000Y-68250000D03*
X108475000Y-68250000D03*
%TD*%
%TO.C,R36*%
X93475000Y-130650000D03*
X95125000Y-130650000D03*
%TD*%
D51*
%TO.C,R60*%
X111326799Y-122224200D03*
X112273201Y-123575800D03*
%TD*%
D20*
%TO.C,R2*%
X126600000Y-89375000D03*
X126600000Y-91025000D03*
%TD*%
D14*
%TO.C,R21*%
X118375000Y-70200000D03*
X120025000Y-70200000D03*
%TD*%
D13*
%TO.C,D4*%
X67325000Y-113800000D03*
X68900000Y-113800000D03*
%TD*%
D21*
%TO.C,R1*%
X128250000Y-87900000D03*
X126600000Y-87900000D03*
%TD*%
D12*
%TO.C,C28*%
X98075000Y-131500000D03*
X96525000Y-131500000D03*
%TD*%
D52*
%TO.C,U9*%
X97749999Y-134200000D03*
X98500000Y-134200000D03*
X99249999Y-134200000D03*
X100000000Y-134200000D03*
X100750001Y-134200000D03*
X101500000Y-134200000D03*
X102250001Y-134200000D03*
D53*
X97282500Y-135257501D03*
X102717500Y-135257501D03*
D52*
X97749999Y-136315002D03*
X98500000Y-136315002D03*
X99249999Y-136315002D03*
X100000000Y-136315002D03*
X100750001Y-136315002D03*
X101500000Y-136315002D03*
X102250001Y-136315002D03*
%TD*%
D34*
%TO.C,R66*%
X110550000Y-129075000D03*
X110550000Y-127425000D03*
%TD*%
D21*
%TO.C,R55*%
X84675000Y-131050000D03*
X83025000Y-131050000D03*
%TD*%
D34*
%TO.C,R65*%
X109000000Y-129075000D03*
X109000000Y-127425000D03*
%TD*%
D14*
%TO.C,R9*%
X113075000Y-67300000D03*
X114725000Y-67300000D03*
%TD*%
D20*
%TO.C,R56*%
X88800000Y-127925000D03*
X88800000Y-129575000D03*
%TD*%
D12*
%TO.C,C14*%
X119975000Y-71700000D03*
X118425000Y-71700000D03*
%TD*%
D27*
%TO.C,C9*%
X113750000Y-72205000D03*
X115300000Y-72205000D03*
%TD*%
D54*
%TO.C,R4*%
X118158877Y-127332102D03*
X119510477Y-126385700D03*
%TD*%
D34*
%TO.C,R17*%
X121200000Y-91025000D03*
X121200000Y-89375000D03*
%TD*%
D27*
%TO.C,C2*%
X130525000Y-91300000D03*
X132075000Y-91300000D03*
%TD*%
D12*
%TO.C,C5*%
X99975000Y-138600000D03*
X98425000Y-138600000D03*
%TD*%
M02*
