%TF.GenerationSoftware,KiCad,Pcbnew,9.0.2*%
%TF.CreationDate,2025-09-19T20:00:31+02:00*%
%TF.ProjectId,LumiCtrl,4c756d69-4374-4726-9c2e-6b696361645f,rev?*%
%TF.SameCoordinates,Original*%
%TF.FileFunction,Drillmap*%
%TF.FilePolarity,Positive*%
%FSLAX45Y45*%
G04 Gerber Fmt 4.5, Leading zero omitted, Abs format (unit mm)*
G04 Created by KiCad (PCBNEW 9.0.2) date 2025-09-19 20:00:31*
%MOMM*%
%LPD*%
G01*
G04 APERTURE LIST*
%ADD10C,0.050000*%
%ADD11C,0.200000*%
%ADD12C,0.100000*%
G04 APERTURE END LIST*
D10*
X19000000Y-13000000D02*
X19000000Y-10000000D01*
X12000000Y-5000000D02*
X19000000Y-5000000D01*
X19000000Y-10000000D02*
X19667000Y-10000000D01*
X19000000Y-8100000D02*
X19667000Y-8100000D01*
X12000000Y-13000000D02*
X12000000Y-5000000D01*
X19667000Y-8100000D02*
X19667000Y-10000000D01*
X19000000Y-8100000D02*
X19000000Y-5000000D01*
X19000000Y-13000000D02*
G75*
G02*
X12000000Y-13000000I-3500000J9360000D01*
G01*
D11*
D12*
X12075000Y-10845000D02*
X12105000Y-10875000D01*
X12105000Y-10845000D02*
X12075000Y-10875000D01*
X12115000Y-9885000D02*
X12145000Y-9915000D01*
X12145000Y-9885000D02*
X12115000Y-9915000D01*
X12175000Y-8485000D02*
X12205000Y-8515000D01*
X12205000Y-8485000D02*
X12175000Y-8515000D01*
X12175000Y-8645000D02*
X12205000Y-8675000D01*
X12205000Y-8645000D02*
X12175000Y-8675000D01*
X12185000Y-8185000D02*
X12215000Y-8215000D01*
X12215000Y-8185000D02*
X12185000Y-8215000D01*
X12185000Y-8335000D02*
X12215000Y-8365000D01*
X12215000Y-8335000D02*
X12185000Y-8365000D01*
X12185000Y-8815000D02*
X12215000Y-8845000D01*
X12215000Y-8815000D02*
X12185000Y-8845000D01*
X12335000Y-12595000D02*
X12365000Y-12625000D01*
X12365000Y-12595000D02*
X12335000Y-12625000D01*
X12445000Y-10695000D02*
X12475000Y-10725000D01*
X12475000Y-10695000D02*
X12445000Y-10725000D01*
X12455000Y-9985000D02*
X12485000Y-10015000D01*
X12485000Y-9985000D02*
X12455000Y-10015000D01*
X12525000Y-12655000D02*
X12555000Y-12685000D01*
X12555000Y-12655000D02*
X12525000Y-12685000D01*
X12775000Y-12725000D02*
X12805000Y-12755000D01*
X12805000Y-12725000D02*
X12775000Y-12755000D01*
X12815000Y-7995000D02*
X12845000Y-8025000D01*
X12845000Y-7995000D02*
X12815000Y-8025000D01*
X13015000Y-8025000D02*
X13045000Y-8055000D01*
X13045000Y-8025000D02*
X13015000Y-8055000D01*
X13025000Y-8175000D02*
X13055000Y-8205000D01*
X13055000Y-8175000D02*
X13025000Y-8205000D01*
X13025000Y-8325000D02*
X13055000Y-8355000D01*
X13055000Y-8325000D02*
X13025000Y-8355000D01*
X13395000Y-8415000D02*
X13425000Y-8445000D01*
X13425000Y-8415000D02*
X13395000Y-8445000D01*
X13395000Y-8525000D02*
X13425000Y-8555000D01*
X13425000Y-8525000D02*
X13395000Y-8555000D01*
X13505000Y-8415000D02*
X13535000Y-8445000D01*
X13535000Y-8415000D02*
X13505000Y-8445000D01*
X13505000Y-8535000D02*
X13535000Y-8565000D01*
X13535000Y-8535000D02*
X13505000Y-8565000D01*
X13505000Y-8645000D02*
X13535000Y-8675000D01*
X13535000Y-8645000D02*
X13505000Y-8675000D01*
X13505000Y-12095000D02*
X13535000Y-12125000D01*
X13535000Y-12095000D02*
X13505000Y-12125000D01*
X13505000Y-12295000D02*
X13535000Y-12325000D01*
X13535000Y-12295000D02*
X13505000Y-12325000D01*
X13565000Y-9025000D02*
X13595000Y-9055000D01*
X13595000Y-9025000D02*
X13565000Y-9055000D01*
X13565000Y-9125000D02*
X13595000Y-9155000D01*
X13595000Y-9125000D02*
X13565000Y-9155000D01*
X13665000Y-8615000D02*
X13695000Y-8645000D01*
X13695000Y-8615000D02*
X13665000Y-8645000D01*
X13685000Y-9035000D02*
X13715000Y-9065000D01*
X13715000Y-9035000D02*
X13685000Y-9065000D01*
X13695000Y-9125000D02*
X13725000Y-9155000D01*
X13725000Y-9125000D02*
X13695000Y-9155000D01*
X13725000Y-9885000D02*
X13755000Y-9915000D01*
X13755000Y-9885000D02*
X13725000Y-9915000D01*
X13795000Y-12115000D02*
X13825000Y-12145000D01*
X13825000Y-12115000D02*
X13795000Y-12145000D01*
X13795000Y-12285000D02*
X13825000Y-12315000D01*
X13825000Y-12285000D02*
X13795000Y-12315000D01*
X13815000Y-8625000D02*
X13845000Y-8655000D01*
X13845000Y-8625000D02*
X13815000Y-8655000D01*
X13925000Y-8835000D02*
X13955000Y-8865000D01*
X13955000Y-8835000D02*
X13925000Y-8865000D01*
X13925000Y-8915000D02*
X13955000Y-8945000D01*
X13955000Y-8915000D02*
X13925000Y-8945000D01*
X13955000Y-8625000D02*
X13985000Y-8655000D01*
X13985000Y-8625000D02*
X13955000Y-8655000D01*
X14095000Y-12235000D02*
X14125000Y-12265000D01*
X14125000Y-12235000D02*
X14095000Y-12265000D01*
X14150000Y-11632500D02*
X14180000Y-11662500D01*
X14180000Y-11632500D02*
X14150000Y-11662500D01*
X14215000Y-12495000D02*
X14245000Y-12525000D01*
X14245000Y-12495000D02*
X14215000Y-12525000D01*
X14234999Y-10585000D02*
X14264999Y-10615000D01*
X14264999Y-10585000D02*
X14234999Y-10615000D01*
X14310000Y-10585000D02*
X14340000Y-10615000D01*
X14340000Y-10585000D02*
X14310000Y-10615000D01*
X14320308Y-11473245D02*
X14350308Y-11503245D01*
X14350308Y-11473245D02*
X14320308Y-11503245D01*
X14375000Y-11705000D02*
X14405000Y-11735000D01*
X14405000Y-11705000D02*
X14375000Y-11735000D01*
X14385000Y-10585000D02*
X14415000Y-10615000D01*
X14415000Y-10585000D02*
X14385000Y-10615000D01*
X14415000Y-10455000D02*
X14445000Y-10485000D01*
X14445000Y-10455000D02*
X14415000Y-10485000D01*
X14425000Y-12495000D02*
X14455000Y-12525000D01*
X14455000Y-12495000D02*
X14425000Y-12525000D01*
X14475000Y-10375000D02*
X14505000Y-10405000D01*
X14505000Y-10375000D02*
X14475000Y-10405000D01*
X14535000Y-12065000D02*
X14565000Y-12095000D01*
X14565000Y-12065000D02*
X14535000Y-12095000D01*
X14555000Y-12245000D02*
X14585000Y-12275000D01*
X14585000Y-12245000D02*
X14555000Y-12275000D01*
X14595000Y-10615000D02*
X14625000Y-10645000D01*
X14625000Y-10615000D02*
X14595000Y-10645000D01*
X14595000Y-10765000D02*
X14625000Y-10795000D01*
X14625000Y-10765000D02*
X14595000Y-10795000D01*
X14600000Y-11440000D02*
X14630000Y-11470000D01*
X14630000Y-11440000D02*
X14600000Y-11470000D01*
X14635000Y-10385000D02*
X14665000Y-10415000D01*
X14665000Y-10385000D02*
X14635000Y-10415000D01*
X14749809Y-10694516D02*
X14779809Y-10724516D01*
X14779809Y-10694516D02*
X14749809Y-10724516D01*
X14770000Y-7005000D02*
X14800000Y-7035000D01*
X14800000Y-7005000D02*
X14770000Y-7035000D01*
X14910000Y-7005000D02*
X14940000Y-7035000D01*
X14940000Y-7005000D02*
X14910000Y-7035000D01*
X14985000Y-13045000D02*
X15015000Y-13075000D01*
X15015000Y-13045000D02*
X14985000Y-13075000D01*
X15020000Y-7005000D02*
X15050000Y-7035000D01*
X15050000Y-7005000D02*
X15020000Y-7035000D01*
X15025000Y-10695000D02*
X15055000Y-10725000D01*
X15055000Y-10695000D02*
X15025000Y-10725000D01*
X15025000Y-10845000D02*
X15055000Y-10875000D01*
X15055000Y-10845000D02*
X15025000Y-10875000D01*
X15025000Y-10995000D02*
X15055000Y-11025000D01*
X15055000Y-10995000D02*
X15025000Y-11025000D01*
X15025000Y-11145000D02*
X15055000Y-11175000D01*
X15055000Y-11145000D02*
X15025000Y-11175000D01*
X15025000Y-11295000D02*
X15055000Y-11325000D01*
X15055000Y-11295000D02*
X15025000Y-11325000D01*
X15155000Y-10975000D02*
X15185000Y-11005000D01*
X15185000Y-10975000D02*
X15155000Y-11005000D01*
X15165000Y-11095000D02*
X15195000Y-11125000D01*
X15195000Y-11095000D02*
X15165000Y-11125000D01*
X15165000Y-11225000D02*
X15195000Y-11255000D01*
X15195000Y-11225000D02*
X15165000Y-11255000D01*
X15185000Y-11405000D02*
X15215000Y-11435000D01*
X15215000Y-11405000D02*
X15185000Y-11435000D01*
X15245000Y-10785000D02*
X15275000Y-10815000D01*
X15275000Y-10785000D02*
X15245000Y-10815000D01*
X15255000Y-13185000D02*
X15285000Y-13215000D01*
X15285000Y-13185000D02*
X15255000Y-13215000D01*
X15285000Y-11505000D02*
X15315000Y-11535000D01*
X15315000Y-11505000D02*
X15285000Y-11535000D01*
X15285000Y-11615000D02*
X15315000Y-11645000D01*
X15315000Y-11615000D02*
X15285000Y-11645000D01*
X15285000Y-11755000D02*
X15315000Y-11785000D01*
X15315000Y-11755000D02*
X15285000Y-11785000D01*
X15355000Y-10935000D02*
X15385000Y-10965000D01*
X15385000Y-10935000D02*
X15355000Y-10965000D01*
X15485000Y-11805000D02*
X15515000Y-11835000D01*
X15515000Y-11805000D02*
X15485000Y-11835000D01*
X15517286Y-11089092D02*
X15547286Y-11119092D01*
X15547286Y-11089092D02*
X15517286Y-11119092D01*
X15585000Y-11805000D02*
X15615000Y-11835000D01*
X15615000Y-11805000D02*
X15585000Y-11835000D01*
X15595000Y-13015000D02*
X15625000Y-13045000D01*
X15625000Y-13015000D02*
X15595000Y-13045000D01*
X15595000Y-13095000D02*
X15625000Y-13125000D01*
X15625000Y-13095000D02*
X15595000Y-13125000D01*
X15605000Y-11335000D02*
X15635000Y-11365000D01*
X15635000Y-11335000D02*
X15605000Y-11365000D01*
X15705000Y-11945000D02*
X15735000Y-11975000D01*
X15735000Y-11945000D02*
X15705000Y-11975000D01*
X15705000Y-13465000D02*
X15735000Y-13495000D01*
X15735000Y-13465000D02*
X15705000Y-13495000D01*
X15744971Y-11607266D02*
X15774971Y-11637266D01*
X15774971Y-11607266D02*
X15744971Y-11637266D01*
X15805000Y-13105000D02*
X15835000Y-13135000D01*
X15835000Y-13105000D02*
X15805000Y-13135000D01*
X15815000Y-13015000D02*
X15845000Y-13045000D01*
X15845000Y-13015000D02*
X15815000Y-13045000D01*
X15815000Y-13455000D02*
X15845000Y-13485000D01*
X15845000Y-13455000D02*
X15815000Y-13485000D01*
X15855000Y-11935000D02*
X15885000Y-11965000D01*
X15885000Y-11935000D02*
X15855000Y-11965000D01*
X15975000Y-13115000D02*
X16005000Y-13145000D01*
X16005000Y-13115000D02*
X15975000Y-13145000D01*
X16075000Y-11755000D02*
X16105000Y-11785000D01*
X16105000Y-11755000D02*
X16075000Y-11785000D01*
X16105000Y-11425000D02*
X16135000Y-11455000D01*
X16135000Y-11425000D02*
X16105000Y-11455000D01*
X16225000Y-11765000D02*
X16255000Y-11795000D01*
X16255000Y-11765000D02*
X16225000Y-11795000D01*
X16335000Y-11435000D02*
X16365000Y-11465000D01*
X16365000Y-11435000D02*
X16335000Y-11465000D01*
X16405000Y-7355000D02*
X16435000Y-7385000D01*
X16435000Y-7355000D02*
X16405000Y-7385000D01*
X16405000Y-7555000D02*
X16435000Y-7585000D01*
X16435000Y-7555000D02*
X16405000Y-7585000D01*
X16405000Y-11755000D02*
X16435000Y-11785000D01*
X16435000Y-11755000D02*
X16405000Y-11785000D01*
X16415000Y-6795000D02*
X16445000Y-6825000D01*
X16445000Y-6795000D02*
X16415000Y-6825000D01*
X16415000Y-6945000D02*
X16445000Y-6975000D01*
X16445000Y-6945000D02*
X16415000Y-6975000D01*
X16415000Y-7075000D02*
X16445000Y-7105000D01*
X16445000Y-7075000D02*
X16415000Y-7105000D01*
X16545000Y-5065000D02*
X16575000Y-5095000D01*
X16575000Y-5065000D02*
X16545000Y-5095000D01*
X16565000Y-11415000D02*
X16595000Y-11445000D01*
X16595000Y-11415000D02*
X16565000Y-11445000D01*
X16595000Y-7075000D02*
X16625000Y-7105000D01*
X16625000Y-7075000D02*
X16595000Y-7105000D01*
X16605000Y-7375000D02*
X16635000Y-7405000D01*
X16635000Y-7375000D02*
X16605000Y-7405000D01*
X16755000Y-10738356D02*
X16785000Y-10768356D01*
X16785000Y-10738356D02*
X16755000Y-10768356D01*
X16775000Y-10515000D02*
X16805000Y-10545000D01*
X16805000Y-10515000D02*
X16775000Y-10545000D01*
X16845000Y-5065000D02*
X16875000Y-5095000D01*
X16875000Y-5065000D02*
X16845000Y-5095000D01*
X16955000Y-9595000D02*
X16985000Y-9625000D01*
X16985000Y-9595000D02*
X16955000Y-9625000D01*
X16985000Y-10515000D02*
X17015000Y-10545000D01*
X17015000Y-10515000D02*
X16985000Y-10545000D01*
X16985000Y-10735000D02*
X17015000Y-10765000D01*
X17015000Y-10735000D02*
X16985000Y-10765000D01*
X17035000Y-10925000D02*
X17065000Y-10955000D01*
X17065000Y-10925000D02*
X17035000Y-10955000D01*
X17045000Y-11035000D02*
X17075000Y-11065000D01*
X17075000Y-11035000D02*
X17045000Y-11065000D01*
X17095000Y-9915000D02*
X17125000Y-9945000D01*
X17125000Y-9915000D02*
X17095000Y-9945000D01*
X17135000Y-5065000D02*
X17165000Y-5095000D01*
X17165000Y-5065000D02*
X17135000Y-5095000D01*
X17205000Y-11965000D02*
X17235000Y-11995000D01*
X17235000Y-11965000D02*
X17205000Y-11995000D01*
X17215000Y-8295000D02*
X17245000Y-8325000D01*
X17245000Y-8295000D02*
X17215000Y-8325000D01*
X17255000Y-11425000D02*
X17285000Y-11455000D01*
X17285000Y-11425000D02*
X17255000Y-11455000D01*
X17265000Y-7305000D02*
X17295000Y-7335000D01*
X17295000Y-7305000D02*
X17265000Y-7335000D01*
X17265000Y-7425000D02*
X17295000Y-7455000D01*
X17295000Y-7425000D02*
X17265000Y-7455000D01*
X17275000Y-11728750D02*
X17305000Y-11758750D01*
X17305000Y-11728750D02*
X17275000Y-11758750D01*
X17285000Y-12205000D02*
X17315000Y-12235000D01*
X17315000Y-12205000D02*
X17285000Y-12235000D01*
X17335000Y-5065000D02*
X17365000Y-5095000D01*
X17365000Y-5065000D02*
X17335000Y-5095000D01*
X17465000Y-8315000D02*
X17495000Y-8345000D01*
X17495000Y-8315000D02*
X17465000Y-8345000D01*
X17535000Y-11465000D02*
X17565000Y-11495000D01*
X17565000Y-11465000D02*
X17535000Y-11495000D01*
X17560625Y-11749375D02*
X17590625Y-11779375D01*
X17590625Y-11749375D02*
X17560625Y-11779375D01*
X17575000Y-5065000D02*
X17605000Y-5095000D01*
X17605000Y-5065000D02*
X17575000Y-5095000D01*
X17592000Y-7401250D02*
X17622000Y-7431250D01*
X17622000Y-7401250D02*
X17592000Y-7431250D01*
X17615000Y-5635000D02*
X17645000Y-5665000D01*
X17645000Y-5635000D02*
X17615000Y-5665000D01*
X17705000Y-5525000D02*
X17735000Y-5555000D01*
X17735000Y-5525000D02*
X17705000Y-5555000D01*
X17725000Y-8485000D02*
X17755000Y-8515000D01*
X17755000Y-8485000D02*
X17725000Y-8515000D01*
X17745000Y-10285000D02*
X17775000Y-10315000D01*
X17775000Y-10285000D02*
X17745000Y-10315000D01*
X17752000Y-7401250D02*
X17782000Y-7431250D01*
X17782000Y-7401250D02*
X17752000Y-7431250D01*
X17755000Y-10705000D02*
X17785000Y-10735000D01*
X17785000Y-10705000D02*
X17755000Y-10735000D01*
X17795000Y-5065000D02*
X17825000Y-5095000D01*
X17825000Y-5065000D02*
X17795000Y-5095000D01*
X17795000Y-5635000D02*
X17825000Y-5665000D01*
X17825000Y-5635000D02*
X17795000Y-5665000D01*
X17805000Y-11155000D02*
X17835000Y-11185000D01*
X17835000Y-11155000D02*
X17805000Y-11185000D01*
X17815000Y-8475000D02*
X17845000Y-8505000D01*
X17845000Y-8475000D02*
X17815000Y-8505000D01*
X17865000Y-12155000D02*
X17895000Y-12185000D01*
X17895000Y-12155000D02*
X17865000Y-12185000D01*
X17885000Y-10545000D02*
X17915000Y-10575000D01*
X17915000Y-10545000D02*
X17885000Y-10575000D01*
X17890000Y-11895000D02*
X17920000Y-11925000D01*
X17920000Y-11895000D02*
X17890000Y-11925000D01*
X17895000Y-5525000D02*
X17925000Y-5555000D01*
X17925000Y-5525000D02*
X17895000Y-5555000D01*
X17895000Y-11155000D02*
X17925000Y-11185000D01*
X17925000Y-11155000D02*
X17895000Y-11185000D01*
X17895000Y-11995000D02*
X17925000Y-12025000D01*
X17925000Y-11995000D02*
X17895000Y-12025000D01*
X17908148Y-5763565D02*
X17938148Y-5793565D01*
X17938148Y-5763565D02*
X17908148Y-5793565D01*
X17915000Y-7505000D02*
X17945000Y-7535000D01*
X17945000Y-7505000D02*
X17915000Y-7535000D01*
X17953571Y-11430601D02*
X17983571Y-11460601D01*
X17983571Y-11430601D02*
X17953571Y-11460601D01*
X17955000Y-5635000D02*
X17985000Y-5665000D01*
X17985000Y-5635000D02*
X17955000Y-5665000D01*
X17995000Y-11155000D02*
X18025000Y-11185000D01*
X18025000Y-11155000D02*
X17995000Y-11185000D01*
X18005000Y-5065000D02*
X18035000Y-5095000D01*
X18035000Y-5065000D02*
X18005000Y-5095000D01*
X18015000Y-12030000D02*
X18045000Y-12060000D01*
X18045000Y-12030000D02*
X18015000Y-12060000D01*
X18015000Y-12365000D02*
X18045000Y-12395000D01*
X18045000Y-12365000D02*
X18015000Y-12395000D01*
X18035000Y-10265000D02*
X18065000Y-10295000D01*
X18065000Y-10265000D02*
X18035000Y-10295000D01*
X18035000Y-10405000D02*
X18065000Y-10435000D01*
X18065000Y-10405000D02*
X18035000Y-10435000D01*
X18045000Y-5525000D02*
X18075000Y-5555000D01*
X18075000Y-5525000D02*
X18045000Y-5555000D01*
X18065000Y-6032500D02*
X18095000Y-6062500D01*
X18095000Y-6032500D02*
X18065000Y-6062500D01*
X18065000Y-11285000D02*
X18095000Y-11315000D01*
X18095000Y-11285000D02*
X18065000Y-11315000D01*
X18102001Y-8001357D02*
X18132001Y-8031357D01*
X18132001Y-8001357D02*
X18102001Y-8031357D01*
X18135000Y-11935000D02*
X18165000Y-11965000D01*
X18165000Y-11935000D02*
X18135000Y-11965000D01*
X18185000Y-10255000D02*
X18215000Y-10285000D01*
X18215000Y-10255000D02*
X18185000Y-10285000D01*
X18195000Y-10685000D02*
X18225000Y-10715000D01*
X18225000Y-10685000D02*
X18195000Y-10715000D01*
X18229500Y-8001357D02*
X18259500Y-8031357D01*
X18259500Y-8001357D02*
X18229500Y-8031357D01*
X18235000Y-12585000D02*
X18265000Y-12615000D01*
X18265000Y-12585000D02*
X18235000Y-12615000D01*
X18285000Y-5765000D02*
X18315000Y-5795000D01*
X18315000Y-5765000D02*
X18285000Y-5795000D01*
X18295000Y-6062500D02*
X18325000Y-6092500D01*
X18325000Y-6062500D02*
X18295000Y-6092500D01*
X18302810Y-5633256D02*
X18332810Y-5663256D01*
X18332810Y-5633256D02*
X18302810Y-5663256D01*
X18315000Y-12295000D02*
X18345000Y-12325000D01*
X18345000Y-12295000D02*
X18315000Y-12325000D01*
X18327611Y-5178456D02*
X18357611Y-5208456D01*
X18357611Y-5178456D02*
X18327611Y-5208456D01*
X18355000Y-5285000D02*
X18385000Y-5315000D01*
X18385000Y-5285000D02*
X18355000Y-5315000D01*
X18355000Y-8295000D02*
X18385000Y-8325000D01*
X18385000Y-8295000D02*
X18355000Y-8325000D01*
X18355000Y-10055000D02*
X18385000Y-10085000D01*
X18385000Y-10055000D02*
X18355000Y-10085000D01*
X18365000Y-8015000D02*
X18395000Y-8045000D01*
X18395000Y-8015000D02*
X18365000Y-8045000D01*
X18405000Y-7605000D02*
X18435000Y-7635000D01*
X18435000Y-7605000D02*
X18405000Y-7635000D01*
X18435000Y-5065000D02*
X18465000Y-5095000D01*
X18465000Y-5065000D02*
X18435000Y-5095000D01*
X18435000Y-5505000D02*
X18465000Y-5535000D01*
X18465000Y-5505000D02*
X18435000Y-5535000D01*
X18445000Y-5922500D02*
X18475000Y-5952500D01*
X18475000Y-5922500D02*
X18445000Y-5952500D01*
X18485000Y-9745000D02*
X18515000Y-9775000D01*
X18515000Y-9745000D02*
X18485000Y-9775000D01*
X18505000Y-7605000D02*
X18535000Y-7635000D01*
X18535000Y-7605000D02*
X18505000Y-7635000D01*
X18555000Y-7415000D02*
X18585000Y-7445000D01*
X18585000Y-7415000D02*
X18555000Y-7445000D01*
X18565000Y-12175000D02*
X18595000Y-12205000D01*
X18595000Y-12175000D02*
X18565000Y-12205000D01*
X18575000Y-5405000D02*
X18605000Y-5435000D01*
X18605000Y-5405000D02*
X18575000Y-5435000D01*
X18595000Y-5942500D02*
X18625000Y-5972500D01*
X18625000Y-5942500D02*
X18595000Y-5972500D01*
X18605000Y-5205000D02*
X18635000Y-5235000D01*
X18635000Y-5205000D02*
X18605000Y-5235000D01*
X18605000Y-7605000D02*
X18635000Y-7635000D01*
X18635000Y-7605000D02*
X18605000Y-7635000D01*
X18605000Y-8295000D02*
X18635000Y-8325000D01*
X18635000Y-8295000D02*
X18605000Y-8325000D01*
X18685000Y-5255000D02*
X18715000Y-5285000D01*
X18715000Y-5255000D02*
X18685000Y-5285000D01*
X18717500Y-5065000D02*
X18747500Y-5095000D01*
X18747500Y-5065000D02*
X18717500Y-5095000D01*
X18765000Y-8885000D02*
X18795000Y-8915000D01*
X18795000Y-8885000D02*
X18765000Y-8915000D01*
X18845000Y-10355000D02*
X18875000Y-10385000D01*
X18875000Y-10355000D02*
X18845000Y-10385000D01*
X18855000Y-9235000D02*
X18885000Y-9265000D01*
X18885000Y-9235000D02*
X18855000Y-9265000D01*
X18855000Y-9395000D02*
X18885000Y-9425000D01*
X18885000Y-9395000D02*
X18855000Y-9425000D01*
X18855000Y-9555000D02*
X18885000Y-9585000D01*
X18885000Y-9555000D02*
X18855000Y-9585000D01*
X18855000Y-10145000D02*
X18885000Y-10175000D01*
X18885000Y-10145000D02*
X18855000Y-10175000D01*
X18865000Y-5105000D02*
X18895000Y-5135000D01*
X18895000Y-5105000D02*
X18865000Y-5135000D01*
X18865000Y-8285000D02*
X18895000Y-8315000D01*
X18895000Y-8285000D02*
X18865000Y-8315000D01*
X18865000Y-9725000D02*
X18895000Y-9755000D01*
X18895000Y-9725000D02*
X18865000Y-9755000D01*
X18875000Y-10615000D02*
X18905000Y-10645000D01*
X18905000Y-10615000D02*
X18875000Y-10645000D01*
X18895000Y-5387500D02*
X18925000Y-5417500D01*
X18925000Y-5387500D02*
X18895000Y-5417500D01*
X18895000Y-7335000D02*
X18925000Y-7365000D01*
X18925000Y-7335000D02*
X18895000Y-7365000D01*
X18895000Y-7465000D02*
X18925000Y-7495000D01*
X18925000Y-7465000D02*
X18895000Y-7495000D01*
X18895000Y-7585000D02*
X18925000Y-7615000D01*
X18925000Y-7585000D02*
X18895000Y-7615000D01*
X18935000Y-5025000D02*
X18965000Y-5055000D01*
X18965000Y-5025000D02*
X18935000Y-5055000D01*
X18935000Y-8365000D02*
X18965000Y-8395000D01*
X18965000Y-8365000D02*
X18935000Y-8395000D01*
X18935000Y-8495000D02*
X18965000Y-8525000D01*
X18965000Y-8495000D02*
X18935000Y-8525000D01*
X18935000Y-8625000D02*
X18965000Y-8655000D01*
X18965000Y-8625000D02*
X18935000Y-8655000D01*
X18935000Y-8775000D02*
X18965000Y-8805000D01*
X18965000Y-8775000D02*
X18935000Y-8805000D01*
X14865000Y-7400000D02*
G75*
G02*
X14835000Y-7400000I-15000J0D01*
G01*
X14835000Y-7400000D02*
G75*
G02*
X14865000Y-7400000I15000J0D01*
G01*
X14865000Y-7510000D02*
G75*
G02*
X14835000Y-7510000I-15000J0D01*
G01*
X14835000Y-7510000D02*
G75*
G02*
X14865000Y-7510000I15000J0D01*
G01*
X17982000Y-8825000D02*
G75*
G02*
X17952000Y-8825000I-15000J0D01*
G01*
X17952000Y-8825000D02*
G75*
G02*
X17982000Y-8825000I15000J0D01*
G01*
X17982000Y-8965000D02*
G75*
G02*
X17952000Y-8965000I-15000J0D01*
G01*
X17952000Y-8965000D02*
G75*
G02*
X17982000Y-8965000I15000J0D01*
G01*
X18052000Y-8755000D02*
G75*
G02*
X18022000Y-8755000I-15000J0D01*
G01*
X18022000Y-8755000D02*
G75*
G02*
X18052000Y-8755000I15000J0D01*
G01*
X18052000Y-8892500D02*
G75*
G02*
X18022000Y-8892500I-15000J0D01*
G01*
X18022000Y-8892500D02*
G75*
G02*
X18052000Y-8892500I15000J0D01*
G01*
X18052000Y-9035000D02*
G75*
G02*
X18022000Y-9035000I-15000J0D01*
G01*
X18022000Y-9035000D02*
G75*
G02*
X18052000Y-9035000I15000J0D01*
G01*
X18122000Y-8825000D02*
G75*
G02*
X18092000Y-8825000I-15000J0D01*
G01*
X18092000Y-8825000D02*
G75*
G02*
X18122000Y-8825000I15000J0D01*
G01*
X18122000Y-8965000D02*
G75*
G02*
X18092000Y-8965000I-15000J0D01*
G01*
X18092000Y-8965000D02*
G75*
G02*
X18122000Y-8965000I15000J0D01*
G01*
X18192000Y-8755000D02*
G75*
G02*
X18162000Y-8755000I-15000J0D01*
G01*
X18162000Y-8755000D02*
G75*
G02*
X18192000Y-8755000I15000J0D01*
G01*
X18192000Y-8892500D02*
G75*
G02*
X18162000Y-8892500I-15000J0D01*
G01*
X18162000Y-8892500D02*
G75*
G02*
X18192000Y-8892500I15000J0D01*
G01*
X18192000Y-9035000D02*
G75*
G02*
X18162000Y-9035000I-15000J0D01*
G01*
X18162000Y-9035000D02*
G75*
G02*
X18192000Y-9035000I15000J0D01*
G01*
X18262000Y-8825000D02*
G75*
G02*
X18232000Y-8825000I-15000J0D01*
G01*
X18232000Y-8825000D02*
G75*
G02*
X18262000Y-8825000I15000J0D01*
G01*
X18262000Y-8965000D02*
G75*
G02*
X18232000Y-8965000I-15000J0D01*
G01*
X18232000Y-8965000D02*
G75*
G02*
X18262000Y-8965000I15000J0D01*
G01*
X12910000Y-9310000D02*
X12910000Y-9350000D01*
X12890000Y-9330000D02*
X12930000Y-9330000D01*
X13150000Y-8835000D02*
X13150000Y-8875000D01*
X13130000Y-8855000D02*
X13170000Y-8855000D01*
X13380000Y-10340000D02*
X13380000Y-10380000D01*
X13360000Y-10360000D02*
X13400000Y-10360000D01*
X14600000Y-7370000D02*
X14600000Y-7410000D01*
X14580000Y-7390000D02*
X14620000Y-7390000D01*
X15360000Y-8880000D02*
X15360000Y-8920000D01*
X15340000Y-8900000D02*
X15380000Y-8900000D01*
X15550000Y-8880000D02*
X15550000Y-8920000D01*
X15530000Y-8900000D02*
X15570000Y-8900000D01*
X17860000Y-12430000D02*
X17860000Y-12470000D01*
X17840000Y-12450000D02*
X17880000Y-12450000D01*
X17857308Y-12660585D02*
X17857308Y-12618158D01*
X17814882Y-12618158D01*
X17814882Y-12660585D01*
X17857308Y-12660585D01*
X17791325Y-12595546D02*
X17823486Y-12700740D01*
X17880864Y-12683197D02*
G75*
G02*
X17823486Y-12700740I-28689J-8771D01*
G01*
X17880865Y-12683197D02*
X17848704Y-12578004D01*
X17848704Y-12578004D02*
G75*
G03*
X17791325Y-12595546I-28689J-8771D01*
G01*
X17979520Y-13060321D02*
X17979520Y-13017894D01*
X17937093Y-13017894D01*
X17937093Y-13060321D01*
X17979520Y-13060321D01*
X17917922Y-13009626D02*
X17941312Y-13086131D01*
X17998690Y-13068588D02*
G75*
G02*
X17941312Y-13086131I-28689J-8771D01*
G01*
X17998690Y-13068588D02*
X17975301Y-12992084D01*
X17975301Y-12992084D02*
G75*
G03*
X17917922Y-13009626I-28689J-8771D01*
G01*
X18683556Y-12407976D02*
X18683556Y-12365549D01*
X18641129Y-12365549D01*
X18641129Y-12407976D01*
X18683556Y-12407976D01*
X18617573Y-12342937D02*
X18649734Y-12448131D01*
X18707112Y-12430588D02*
G75*
G02*
X18649734Y-12448131I-28689J-8771D01*
G01*
X18707112Y-12430588D02*
X18674951Y-12325395D01*
X18674951Y-12325395D02*
G75*
G03*
X18617573Y-12342937I-28689J-8771D01*
G01*
X18805767Y-12807712D02*
X18805767Y-12765285D01*
X18763340Y-12765285D01*
X18763340Y-12807712D01*
X18805767Y-12807712D01*
X18744170Y-12757017D02*
X18767559Y-12833521D01*
X18824938Y-12815979D02*
G75*
G02*
X18767559Y-12833522I-28689J-8771D01*
G01*
X18824938Y-12815979D02*
X18801548Y-12739475D01*
X18801548Y-12739475D02*
G75*
G03*
X18744170Y-12757017I-28689J-8771D01*
G01*
X12420000Y-8347500D02*
X12467500Y-8300000D01*
X12420000Y-8252500D01*
X12372500Y-8300000D01*
X12420000Y-8347500D01*
X12420000Y-8597500D02*
X12467500Y-8550000D01*
X12420000Y-8502500D01*
X12372500Y-8550000D01*
X12420000Y-8597500D01*
X12420000Y-8847500D02*
X12467500Y-8800000D01*
X12420000Y-8752500D01*
X12372500Y-8800000D01*
X12420000Y-8847500D01*
X12420000Y-9097500D02*
X12467500Y-9050000D01*
X12420000Y-9002500D01*
X12372500Y-9050000D01*
X12420000Y-9097500D01*
X12242786Y-10150000D02*
X12342786Y-10250000D01*
X12342786Y-10150000D02*
X12242786Y-10250000D01*
X12342786Y-10200000D02*
G75*
G02*
X12242786Y-10200000I-50000J0D01*
G01*
X12242786Y-10200000D02*
G75*
G02*
X12342786Y-10200000I50000J0D01*
G01*
X12310000Y-10350000D02*
X12410000Y-10450000D01*
X12410000Y-10350000D02*
X12310000Y-10450000D01*
X12410000Y-10400000D02*
G75*
G02*
X12310000Y-10400000I-50000J0D01*
G01*
X12310000Y-10400000D02*
G75*
G02*
X12410000Y-10400000I50000J0D01*
G01*
X12655615Y-12345218D02*
X12755615Y-12445218D01*
X12755615Y-12345218D02*
X12655615Y-12445218D01*
X12755615Y-12395218D02*
G75*
G02*
X12655615Y-12395218I-50000J0D01*
G01*
X12655615Y-12395218D02*
G75*
G02*
X12755615Y-12395218I50000J0D01*
G01*
X12585803Y-12410873D02*
X12796190Y-12475194D01*
X12825428Y-12379564D02*
G75*
G02*
X12796190Y-12475194I-14619J-47815D01*
G01*
X12825428Y-12379564D02*
X12615041Y-12315242D01*
X12615041Y-12315242D02*
G75*
G03*
X12585803Y-12410873I-14619J-47815D01*
G01*
X12810000Y-10350000D02*
X12910000Y-10450000D01*
X12910000Y-10350000D02*
X12810000Y-10450000D01*
X12910000Y-10400000D02*
G75*
G02*
X12810000Y-10400000I-50000J0D01*
G01*
X12810000Y-10400000D02*
G75*
G02*
X12910000Y-10400000I50000J0D01*
G01*
X12839810Y-11742746D02*
X12939810Y-11842746D01*
X12939810Y-11742746D02*
X12839810Y-11842746D01*
X12939810Y-11792746D02*
G75*
G02*
X12839810Y-11792746I-50000J0D01*
G01*
X12839810Y-11792746D02*
G75*
G02*
X12939810Y-11792746I50000J0D01*
G01*
X12750871Y-11802553D02*
X12999511Y-11878570D01*
X13028748Y-11782940D02*
G75*
G02*
X12999511Y-11878570I-14619J-47815D01*
G01*
X13028748Y-11782940D02*
X12780109Y-11706923D01*
X12780109Y-11706923D02*
G75*
G03*
X12750871Y-11802553I-14619J-47815D01*
G01*
X12877214Y-10550000D02*
X12977214Y-10650000D01*
X12977214Y-10550000D02*
X12877214Y-10650000D01*
X12977214Y-10600000D02*
G75*
G02*
X12877214Y-10600000I-50000J0D01*
G01*
X12877214Y-10600000D02*
G75*
G02*
X12977214Y-10600000I50000J0D01*
G01*
X13214048Y-12160413D02*
X13314048Y-12260413D01*
X13314048Y-12160413D02*
X13214048Y-12260413D01*
X13314048Y-12210413D02*
G75*
G02*
X13214048Y-12210413I-50000J0D01*
G01*
X13214048Y-12210413D02*
G75*
G02*
X13314048Y-12210413I50000J0D01*
G01*
X13248394Y-12090601D02*
X13184072Y-12300988D01*
X13279702Y-12330225D02*
G75*
G02*
X13184072Y-12300988I-47815J14619D01*
G01*
X13279703Y-12330225D02*
X13344024Y-12119838D01*
X13344024Y-12119838D02*
G75*
G03*
X13248394Y-12090601I-47815J14619D01*
G01*
D11*
X12258277Y-13946961D02*
X12258277Y-13746961D01*
X12258277Y-13746961D02*
X12305896Y-13746961D01*
X12305896Y-13746961D02*
X12334467Y-13756485D01*
X12334467Y-13756485D02*
X12353515Y-13775533D01*
X12353515Y-13775533D02*
X12363039Y-13794580D01*
X12363039Y-13794580D02*
X12372562Y-13832675D01*
X12372562Y-13832675D02*
X12372562Y-13861247D01*
X12372562Y-13861247D02*
X12363039Y-13899342D01*
X12363039Y-13899342D02*
X12353515Y-13918390D01*
X12353515Y-13918390D02*
X12334467Y-13937437D01*
X12334467Y-13937437D02*
X12305896Y-13946961D01*
X12305896Y-13946961D02*
X12258277Y-13946961D01*
X12458277Y-13946961D02*
X12458277Y-13813628D01*
X12458277Y-13851723D02*
X12467801Y-13832675D01*
X12467801Y-13832675D02*
X12477324Y-13823152D01*
X12477324Y-13823152D02*
X12496372Y-13813628D01*
X12496372Y-13813628D02*
X12515420Y-13813628D01*
X12582086Y-13946961D02*
X12582086Y-13813628D01*
X12582086Y-13746961D02*
X12572562Y-13756485D01*
X12572562Y-13756485D02*
X12582086Y-13766009D01*
X12582086Y-13766009D02*
X12591610Y-13756485D01*
X12591610Y-13756485D02*
X12582086Y-13746961D01*
X12582086Y-13746961D02*
X12582086Y-13766009D01*
X12705896Y-13946961D02*
X12686848Y-13937437D01*
X12686848Y-13937437D02*
X12677324Y-13918390D01*
X12677324Y-13918390D02*
X12677324Y-13746961D01*
X12810658Y-13946961D02*
X12791610Y-13937437D01*
X12791610Y-13937437D02*
X12782086Y-13918390D01*
X12782086Y-13918390D02*
X12782086Y-13746961D01*
X13039229Y-13946961D02*
X13039229Y-13746961D01*
X13039229Y-13746961D02*
X13105896Y-13889818D01*
X13105896Y-13889818D02*
X13172562Y-13746961D01*
X13172562Y-13746961D02*
X13172562Y-13946961D01*
X13353515Y-13946961D02*
X13353515Y-13842199D01*
X13353515Y-13842199D02*
X13343991Y-13823152D01*
X13343991Y-13823152D02*
X13324943Y-13813628D01*
X13324943Y-13813628D02*
X13286848Y-13813628D01*
X13286848Y-13813628D02*
X13267801Y-13823152D01*
X13353515Y-13937437D02*
X13334467Y-13946961D01*
X13334467Y-13946961D02*
X13286848Y-13946961D01*
X13286848Y-13946961D02*
X13267801Y-13937437D01*
X13267801Y-13937437D02*
X13258277Y-13918390D01*
X13258277Y-13918390D02*
X13258277Y-13899342D01*
X13258277Y-13899342D02*
X13267801Y-13880295D01*
X13267801Y-13880295D02*
X13286848Y-13870771D01*
X13286848Y-13870771D02*
X13334467Y-13870771D01*
X13334467Y-13870771D02*
X13353515Y-13861247D01*
X13448753Y-13813628D02*
X13448753Y-14013628D01*
X13448753Y-13823152D02*
X13467801Y-13813628D01*
X13467801Y-13813628D02*
X13505896Y-13813628D01*
X13505896Y-13813628D02*
X13524943Y-13823152D01*
X13524943Y-13823152D02*
X13534467Y-13832675D01*
X13534467Y-13832675D02*
X13543991Y-13851723D01*
X13543991Y-13851723D02*
X13543991Y-13908866D01*
X13543991Y-13908866D02*
X13534467Y-13927914D01*
X13534467Y-13927914D02*
X13524943Y-13937437D01*
X13524943Y-13937437D02*
X13505896Y-13946961D01*
X13505896Y-13946961D02*
X13467801Y-13946961D01*
X13467801Y-13946961D02*
X13448753Y-13937437D01*
X13629705Y-13927914D02*
X13639229Y-13937437D01*
X13639229Y-13937437D02*
X13629705Y-13946961D01*
X13629705Y-13946961D02*
X13620182Y-13937437D01*
X13620182Y-13937437D02*
X13629705Y-13927914D01*
X13629705Y-13927914D02*
X13629705Y-13946961D01*
X13629705Y-13823152D02*
X13639229Y-13832675D01*
X13639229Y-13832675D02*
X13629705Y-13842199D01*
X13629705Y-13842199D02*
X13620182Y-13832675D01*
X13620182Y-13832675D02*
X13629705Y-13823152D01*
X13629705Y-13823152D02*
X13629705Y-13842199D01*
D12*
X11967500Y-14260477D02*
X11997500Y-14290477D01*
X11997500Y-14260477D02*
X11967500Y-14290477D01*
D11*
X12296372Y-14166961D02*
X12315420Y-14166961D01*
X12315420Y-14166961D02*
X12334467Y-14176485D01*
X12334467Y-14176485D02*
X12343991Y-14186009D01*
X12343991Y-14186009D02*
X12353515Y-14205056D01*
X12353515Y-14205056D02*
X12363039Y-14243152D01*
X12363039Y-14243152D02*
X12363039Y-14290771D01*
X12363039Y-14290771D02*
X12353515Y-14328866D01*
X12353515Y-14328866D02*
X12343991Y-14347914D01*
X12343991Y-14347914D02*
X12334467Y-14357437D01*
X12334467Y-14357437D02*
X12315420Y-14366961D01*
X12315420Y-14366961D02*
X12296372Y-14366961D01*
X12296372Y-14366961D02*
X12277324Y-14357437D01*
X12277324Y-14357437D02*
X12267801Y-14347914D01*
X12267801Y-14347914D02*
X12258277Y-14328866D01*
X12258277Y-14328866D02*
X12248753Y-14290771D01*
X12248753Y-14290771D02*
X12248753Y-14243152D01*
X12248753Y-14243152D02*
X12258277Y-14205056D01*
X12258277Y-14205056D02*
X12267801Y-14186009D01*
X12267801Y-14186009D02*
X12277324Y-14176485D01*
X12277324Y-14176485D02*
X12296372Y-14166961D01*
X12448753Y-14347914D02*
X12458277Y-14357437D01*
X12458277Y-14357437D02*
X12448753Y-14366961D01*
X12448753Y-14366961D02*
X12439229Y-14357437D01*
X12439229Y-14357437D02*
X12448753Y-14347914D01*
X12448753Y-14347914D02*
X12448753Y-14366961D01*
X12524943Y-14166961D02*
X12648753Y-14166961D01*
X12648753Y-14166961D02*
X12582086Y-14243152D01*
X12582086Y-14243152D02*
X12610658Y-14243152D01*
X12610658Y-14243152D02*
X12629705Y-14252675D01*
X12629705Y-14252675D02*
X12639229Y-14262199D01*
X12639229Y-14262199D02*
X12648753Y-14281247D01*
X12648753Y-14281247D02*
X12648753Y-14328866D01*
X12648753Y-14328866D02*
X12639229Y-14347914D01*
X12639229Y-14347914D02*
X12629705Y-14357437D01*
X12629705Y-14357437D02*
X12610658Y-14366961D01*
X12610658Y-14366961D02*
X12553515Y-14366961D01*
X12553515Y-14366961D02*
X12534467Y-14357437D01*
X12534467Y-14357437D02*
X12524943Y-14347914D01*
X12772562Y-14166961D02*
X12791610Y-14166961D01*
X12791610Y-14166961D02*
X12810658Y-14176485D01*
X12810658Y-14176485D02*
X12820182Y-14186009D01*
X12820182Y-14186009D02*
X12829705Y-14205056D01*
X12829705Y-14205056D02*
X12839229Y-14243152D01*
X12839229Y-14243152D02*
X12839229Y-14290771D01*
X12839229Y-14290771D02*
X12829705Y-14328866D01*
X12829705Y-14328866D02*
X12820182Y-14347914D01*
X12820182Y-14347914D02*
X12810658Y-14357437D01*
X12810658Y-14357437D02*
X12791610Y-14366961D01*
X12791610Y-14366961D02*
X12772562Y-14366961D01*
X12772562Y-14366961D02*
X12753515Y-14357437D01*
X12753515Y-14357437D02*
X12743991Y-14347914D01*
X12743991Y-14347914D02*
X12734467Y-14328866D01*
X12734467Y-14328866D02*
X12724943Y-14290771D01*
X12724943Y-14290771D02*
X12724943Y-14243152D01*
X12724943Y-14243152D02*
X12734467Y-14205056D01*
X12734467Y-14205056D02*
X12743991Y-14186009D01*
X12743991Y-14186009D02*
X12753515Y-14176485D01*
X12753515Y-14176485D02*
X12772562Y-14166961D01*
X12963039Y-14166961D02*
X12982086Y-14166961D01*
X12982086Y-14166961D02*
X13001134Y-14176485D01*
X13001134Y-14176485D02*
X13010658Y-14186009D01*
X13010658Y-14186009D02*
X13020182Y-14205056D01*
X13020182Y-14205056D02*
X13029705Y-14243152D01*
X13029705Y-14243152D02*
X13029705Y-14290771D01*
X13029705Y-14290771D02*
X13020182Y-14328866D01*
X13020182Y-14328866D02*
X13010658Y-14347914D01*
X13010658Y-14347914D02*
X13001134Y-14357437D01*
X13001134Y-14357437D02*
X12982086Y-14366961D01*
X12982086Y-14366961D02*
X12963039Y-14366961D01*
X12963039Y-14366961D02*
X12943991Y-14357437D01*
X12943991Y-14357437D02*
X12934467Y-14347914D01*
X12934467Y-14347914D02*
X12924943Y-14328866D01*
X12924943Y-14328866D02*
X12915420Y-14290771D01*
X12915420Y-14290771D02*
X12915420Y-14243152D01*
X12915420Y-14243152D02*
X12924943Y-14205056D01*
X12924943Y-14205056D02*
X12934467Y-14186009D01*
X12934467Y-14186009D02*
X12943991Y-14176485D01*
X12943991Y-14176485D02*
X12963039Y-14166961D01*
X13115420Y-14366961D02*
X13115420Y-14233628D01*
X13115420Y-14252675D02*
X13124943Y-14243152D01*
X13124943Y-14243152D02*
X13143991Y-14233628D01*
X13143991Y-14233628D02*
X13172563Y-14233628D01*
X13172563Y-14233628D02*
X13191610Y-14243152D01*
X13191610Y-14243152D02*
X13201134Y-14262199D01*
X13201134Y-14262199D02*
X13201134Y-14366961D01*
X13201134Y-14262199D02*
X13210658Y-14243152D01*
X13210658Y-14243152D02*
X13229705Y-14233628D01*
X13229705Y-14233628D02*
X13258277Y-14233628D01*
X13258277Y-14233628D02*
X13277324Y-14243152D01*
X13277324Y-14243152D02*
X13286848Y-14262199D01*
X13286848Y-14262199D02*
X13286848Y-14366961D01*
X13382086Y-14366961D02*
X13382086Y-14233628D01*
X13382086Y-14252675D02*
X13391610Y-14243152D01*
X13391610Y-14243152D02*
X13410658Y-14233628D01*
X13410658Y-14233628D02*
X13439229Y-14233628D01*
X13439229Y-14233628D02*
X13458277Y-14243152D01*
X13458277Y-14243152D02*
X13467801Y-14262199D01*
X13467801Y-14262199D02*
X13467801Y-14366961D01*
X13467801Y-14262199D02*
X13477324Y-14243152D01*
X13477324Y-14243152D02*
X13496372Y-14233628D01*
X13496372Y-14233628D02*
X13524943Y-14233628D01*
X13524943Y-14233628D02*
X13543991Y-14243152D01*
X13543991Y-14243152D02*
X13553515Y-14262199D01*
X13553515Y-14262199D02*
X13553515Y-14366961D01*
X13943991Y-14157437D02*
X13772563Y-14414580D01*
X14201134Y-14166961D02*
X14220182Y-14166961D01*
X14220182Y-14166961D02*
X14239229Y-14176485D01*
X14239229Y-14176485D02*
X14248753Y-14186009D01*
X14248753Y-14186009D02*
X14258277Y-14205056D01*
X14258277Y-14205056D02*
X14267801Y-14243152D01*
X14267801Y-14243152D02*
X14267801Y-14290771D01*
X14267801Y-14290771D02*
X14258277Y-14328866D01*
X14258277Y-14328866D02*
X14248753Y-14347914D01*
X14248753Y-14347914D02*
X14239229Y-14357437D01*
X14239229Y-14357437D02*
X14220182Y-14366961D01*
X14220182Y-14366961D02*
X14201134Y-14366961D01*
X14201134Y-14366961D02*
X14182086Y-14357437D01*
X14182086Y-14357437D02*
X14172563Y-14347914D01*
X14172563Y-14347914D02*
X14163039Y-14328866D01*
X14163039Y-14328866D02*
X14153515Y-14290771D01*
X14153515Y-14290771D02*
X14153515Y-14243152D01*
X14153515Y-14243152D02*
X14163039Y-14205056D01*
X14163039Y-14205056D02*
X14172563Y-14186009D01*
X14172563Y-14186009D02*
X14182086Y-14176485D01*
X14182086Y-14176485D02*
X14201134Y-14166961D01*
X14353515Y-14347914D02*
X14363039Y-14357437D01*
X14363039Y-14357437D02*
X14353515Y-14366961D01*
X14353515Y-14366961D02*
X14343991Y-14357437D01*
X14343991Y-14357437D02*
X14353515Y-14347914D01*
X14353515Y-14347914D02*
X14353515Y-14366961D01*
X14486848Y-14166961D02*
X14505896Y-14166961D01*
X14505896Y-14166961D02*
X14524944Y-14176485D01*
X14524944Y-14176485D02*
X14534467Y-14186009D01*
X14534467Y-14186009D02*
X14543991Y-14205056D01*
X14543991Y-14205056D02*
X14553515Y-14243152D01*
X14553515Y-14243152D02*
X14553515Y-14290771D01*
X14553515Y-14290771D02*
X14543991Y-14328866D01*
X14543991Y-14328866D02*
X14534467Y-14347914D01*
X14534467Y-14347914D02*
X14524944Y-14357437D01*
X14524944Y-14357437D02*
X14505896Y-14366961D01*
X14505896Y-14366961D02*
X14486848Y-14366961D01*
X14486848Y-14366961D02*
X14467801Y-14357437D01*
X14467801Y-14357437D02*
X14458277Y-14347914D01*
X14458277Y-14347914D02*
X14448753Y-14328866D01*
X14448753Y-14328866D02*
X14439229Y-14290771D01*
X14439229Y-14290771D02*
X14439229Y-14243152D01*
X14439229Y-14243152D02*
X14448753Y-14205056D01*
X14448753Y-14205056D02*
X14458277Y-14186009D01*
X14458277Y-14186009D02*
X14467801Y-14176485D01*
X14467801Y-14176485D02*
X14486848Y-14166961D01*
X14743991Y-14366961D02*
X14629706Y-14366961D01*
X14686848Y-14366961D02*
X14686848Y-14166961D01*
X14686848Y-14166961D02*
X14667801Y-14195533D01*
X14667801Y-14195533D02*
X14648753Y-14214580D01*
X14648753Y-14214580D02*
X14629706Y-14224104D01*
X14934467Y-14366961D02*
X14820182Y-14366961D01*
X14877325Y-14366961D02*
X14877325Y-14166961D01*
X14877325Y-14166961D02*
X14858277Y-14195533D01*
X14858277Y-14195533D02*
X14839229Y-14214580D01*
X14839229Y-14214580D02*
X14820182Y-14224104D01*
X15048753Y-14252675D02*
X15029706Y-14243152D01*
X15029706Y-14243152D02*
X15020182Y-14233628D01*
X15020182Y-14233628D02*
X15010658Y-14214580D01*
X15010658Y-14214580D02*
X15010658Y-14205056D01*
X15010658Y-14205056D02*
X15020182Y-14186009D01*
X15020182Y-14186009D02*
X15029706Y-14176485D01*
X15029706Y-14176485D02*
X15048753Y-14166961D01*
X15048753Y-14166961D02*
X15086848Y-14166961D01*
X15086848Y-14166961D02*
X15105896Y-14176485D01*
X15105896Y-14176485D02*
X15115420Y-14186009D01*
X15115420Y-14186009D02*
X15124944Y-14205056D01*
X15124944Y-14205056D02*
X15124944Y-14214580D01*
X15124944Y-14214580D02*
X15115420Y-14233628D01*
X15115420Y-14233628D02*
X15105896Y-14243152D01*
X15105896Y-14243152D02*
X15086848Y-14252675D01*
X15086848Y-14252675D02*
X15048753Y-14252675D01*
X15048753Y-14252675D02*
X15029706Y-14262199D01*
X15029706Y-14262199D02*
X15020182Y-14271723D01*
X15020182Y-14271723D02*
X15010658Y-14290771D01*
X15010658Y-14290771D02*
X15010658Y-14328866D01*
X15010658Y-14328866D02*
X15020182Y-14347914D01*
X15020182Y-14347914D02*
X15029706Y-14357437D01*
X15029706Y-14357437D02*
X15048753Y-14366961D01*
X15048753Y-14366961D02*
X15086848Y-14366961D01*
X15086848Y-14366961D02*
X15105896Y-14357437D01*
X15105896Y-14357437D02*
X15115420Y-14347914D01*
X15115420Y-14347914D02*
X15124944Y-14328866D01*
X15124944Y-14328866D02*
X15124944Y-14290771D01*
X15124944Y-14290771D02*
X15115420Y-14271723D01*
X15115420Y-14271723D02*
X15105896Y-14262199D01*
X15105896Y-14262199D02*
X15086848Y-14252675D01*
X15201134Y-14166961D02*
X15201134Y-14205056D01*
X15277325Y-14166961D02*
X15277325Y-14205056D01*
X15572563Y-14443152D02*
X15563039Y-14433628D01*
X15563039Y-14433628D02*
X15543991Y-14405056D01*
X15543991Y-14405056D02*
X15534468Y-14386009D01*
X15534468Y-14386009D02*
X15524944Y-14357437D01*
X15524944Y-14357437D02*
X15515420Y-14309818D01*
X15515420Y-14309818D02*
X15515420Y-14271723D01*
X15515420Y-14271723D02*
X15524944Y-14224104D01*
X15524944Y-14224104D02*
X15534468Y-14195533D01*
X15534468Y-14195533D02*
X15543991Y-14176485D01*
X15543991Y-14176485D02*
X15563039Y-14147914D01*
X15563039Y-14147914D02*
X15572563Y-14138390D01*
X15639229Y-14186009D02*
X15648753Y-14176485D01*
X15648753Y-14176485D02*
X15667801Y-14166961D01*
X15667801Y-14166961D02*
X15715420Y-14166961D01*
X15715420Y-14166961D02*
X15734468Y-14176485D01*
X15734468Y-14176485D02*
X15743991Y-14186009D01*
X15743991Y-14186009D02*
X15753515Y-14205056D01*
X15753515Y-14205056D02*
X15753515Y-14224104D01*
X15753515Y-14224104D02*
X15743991Y-14252675D01*
X15743991Y-14252675D02*
X15629706Y-14366961D01*
X15629706Y-14366961D02*
X15753515Y-14366961D01*
X15877325Y-14166961D02*
X15896372Y-14166961D01*
X15896372Y-14166961D02*
X15915420Y-14176485D01*
X15915420Y-14176485D02*
X15924944Y-14186009D01*
X15924944Y-14186009D02*
X15934468Y-14205056D01*
X15934468Y-14205056D02*
X15943991Y-14243152D01*
X15943991Y-14243152D02*
X15943991Y-14290771D01*
X15943991Y-14290771D02*
X15934468Y-14328866D01*
X15934468Y-14328866D02*
X15924944Y-14347914D01*
X15924944Y-14347914D02*
X15915420Y-14357437D01*
X15915420Y-14357437D02*
X15896372Y-14366961D01*
X15896372Y-14366961D02*
X15877325Y-14366961D01*
X15877325Y-14366961D02*
X15858277Y-14357437D01*
X15858277Y-14357437D02*
X15848753Y-14347914D01*
X15848753Y-14347914D02*
X15839229Y-14328866D01*
X15839229Y-14328866D02*
X15829706Y-14290771D01*
X15829706Y-14290771D02*
X15829706Y-14243152D01*
X15829706Y-14243152D02*
X15839229Y-14205056D01*
X15839229Y-14205056D02*
X15848753Y-14186009D01*
X15848753Y-14186009D02*
X15858277Y-14176485D01*
X15858277Y-14176485D02*
X15877325Y-14166961D01*
X16134468Y-14366961D02*
X16020182Y-14366961D01*
X16077325Y-14366961D02*
X16077325Y-14166961D01*
X16077325Y-14166961D02*
X16058277Y-14195533D01*
X16058277Y-14195533D02*
X16039229Y-14214580D01*
X16039229Y-14214580D02*
X16020182Y-14224104D01*
X16372563Y-14366961D02*
X16372563Y-14166961D01*
X16458277Y-14366961D02*
X16458277Y-14262199D01*
X16458277Y-14262199D02*
X16448753Y-14243152D01*
X16448753Y-14243152D02*
X16429706Y-14233628D01*
X16429706Y-14233628D02*
X16401134Y-14233628D01*
X16401134Y-14233628D02*
X16382087Y-14243152D01*
X16382087Y-14243152D02*
X16372563Y-14252675D01*
X16582087Y-14366961D02*
X16563039Y-14357437D01*
X16563039Y-14357437D02*
X16553515Y-14347914D01*
X16553515Y-14347914D02*
X16543991Y-14328866D01*
X16543991Y-14328866D02*
X16543991Y-14271723D01*
X16543991Y-14271723D02*
X16553515Y-14252675D01*
X16553515Y-14252675D02*
X16563039Y-14243152D01*
X16563039Y-14243152D02*
X16582087Y-14233628D01*
X16582087Y-14233628D02*
X16610658Y-14233628D01*
X16610658Y-14233628D02*
X16629706Y-14243152D01*
X16629706Y-14243152D02*
X16639230Y-14252675D01*
X16639230Y-14252675D02*
X16648753Y-14271723D01*
X16648753Y-14271723D02*
X16648753Y-14328866D01*
X16648753Y-14328866D02*
X16639230Y-14347914D01*
X16639230Y-14347914D02*
X16629706Y-14357437D01*
X16629706Y-14357437D02*
X16610658Y-14366961D01*
X16610658Y-14366961D02*
X16582087Y-14366961D01*
X16763039Y-14366961D02*
X16743991Y-14357437D01*
X16743991Y-14357437D02*
X16734468Y-14338390D01*
X16734468Y-14338390D02*
X16734468Y-14166961D01*
X16915420Y-14357437D02*
X16896373Y-14366961D01*
X16896373Y-14366961D02*
X16858277Y-14366961D01*
X16858277Y-14366961D02*
X16839230Y-14357437D01*
X16839230Y-14357437D02*
X16829706Y-14338390D01*
X16829706Y-14338390D02*
X16829706Y-14262199D01*
X16829706Y-14262199D02*
X16839230Y-14243152D01*
X16839230Y-14243152D02*
X16858277Y-14233628D01*
X16858277Y-14233628D02*
X16896373Y-14233628D01*
X16896373Y-14233628D02*
X16915420Y-14243152D01*
X16915420Y-14243152D02*
X16924944Y-14262199D01*
X16924944Y-14262199D02*
X16924944Y-14281247D01*
X16924944Y-14281247D02*
X16829706Y-14300295D01*
X17001134Y-14357437D02*
X17020182Y-14366961D01*
X17020182Y-14366961D02*
X17058277Y-14366961D01*
X17058277Y-14366961D02*
X17077325Y-14357437D01*
X17077325Y-14357437D02*
X17086849Y-14338390D01*
X17086849Y-14338390D02*
X17086849Y-14328866D01*
X17086849Y-14328866D02*
X17077325Y-14309818D01*
X17077325Y-14309818D02*
X17058277Y-14300295D01*
X17058277Y-14300295D02*
X17029706Y-14300295D01*
X17029706Y-14300295D02*
X17010658Y-14290771D01*
X17010658Y-14290771D02*
X17001134Y-14271723D01*
X17001134Y-14271723D02*
X17001134Y-14262199D01*
X17001134Y-14262199D02*
X17010658Y-14243152D01*
X17010658Y-14243152D02*
X17029706Y-14233628D01*
X17029706Y-14233628D02*
X17058277Y-14233628D01*
X17058277Y-14233628D02*
X17077325Y-14243152D01*
X17153515Y-14443152D02*
X17163039Y-14433628D01*
X17163039Y-14433628D02*
X17182087Y-14405056D01*
X17182087Y-14405056D02*
X17191611Y-14386009D01*
X17191611Y-14386009D02*
X17201134Y-14357437D01*
X17201134Y-14357437D02*
X17210658Y-14309818D01*
X17210658Y-14309818D02*
X17210658Y-14271723D01*
X17210658Y-14271723D02*
X17201134Y-14224104D01*
X17201134Y-14224104D02*
X17191611Y-14195533D01*
X17191611Y-14195533D02*
X17182087Y-14176485D01*
X17182087Y-14176485D02*
X17163039Y-14147914D01*
X17163039Y-14147914D02*
X17153515Y-14138390D01*
D12*
X11997500Y-14539477D02*
G75*
G02*
X11967500Y-14539477I-15000J0D01*
G01*
X11967500Y-14539477D02*
G75*
G02*
X11997500Y-14539477I15000J0D01*
G01*
D11*
X12296372Y-14430961D02*
X12315420Y-14430961D01*
X12315420Y-14430961D02*
X12334467Y-14440485D01*
X12334467Y-14440485D02*
X12343991Y-14450009D01*
X12343991Y-14450009D02*
X12353515Y-14469056D01*
X12353515Y-14469056D02*
X12363039Y-14507152D01*
X12363039Y-14507152D02*
X12363039Y-14554771D01*
X12363039Y-14554771D02*
X12353515Y-14592866D01*
X12353515Y-14592866D02*
X12343991Y-14611914D01*
X12343991Y-14611914D02*
X12334467Y-14621437D01*
X12334467Y-14621437D02*
X12315420Y-14630961D01*
X12315420Y-14630961D02*
X12296372Y-14630961D01*
X12296372Y-14630961D02*
X12277324Y-14621437D01*
X12277324Y-14621437D02*
X12267801Y-14611914D01*
X12267801Y-14611914D02*
X12258277Y-14592866D01*
X12258277Y-14592866D02*
X12248753Y-14554771D01*
X12248753Y-14554771D02*
X12248753Y-14507152D01*
X12248753Y-14507152D02*
X12258277Y-14469056D01*
X12258277Y-14469056D02*
X12267801Y-14450009D01*
X12267801Y-14450009D02*
X12277324Y-14440485D01*
X12277324Y-14440485D02*
X12296372Y-14430961D01*
X12448753Y-14611914D02*
X12458277Y-14621437D01*
X12458277Y-14621437D02*
X12448753Y-14630961D01*
X12448753Y-14630961D02*
X12439229Y-14621437D01*
X12439229Y-14621437D02*
X12448753Y-14611914D01*
X12448753Y-14611914D02*
X12448753Y-14630961D01*
X12524943Y-14430961D02*
X12648753Y-14430961D01*
X12648753Y-14430961D02*
X12582086Y-14507152D01*
X12582086Y-14507152D02*
X12610658Y-14507152D01*
X12610658Y-14507152D02*
X12629705Y-14516675D01*
X12629705Y-14516675D02*
X12639229Y-14526199D01*
X12639229Y-14526199D02*
X12648753Y-14545247D01*
X12648753Y-14545247D02*
X12648753Y-14592866D01*
X12648753Y-14592866D02*
X12639229Y-14611914D01*
X12639229Y-14611914D02*
X12629705Y-14621437D01*
X12629705Y-14621437D02*
X12610658Y-14630961D01*
X12610658Y-14630961D02*
X12553515Y-14630961D01*
X12553515Y-14630961D02*
X12534467Y-14621437D01*
X12534467Y-14621437D02*
X12524943Y-14611914D01*
X12772562Y-14430961D02*
X12791610Y-14430961D01*
X12791610Y-14430961D02*
X12810658Y-14440485D01*
X12810658Y-14440485D02*
X12820182Y-14450009D01*
X12820182Y-14450009D02*
X12829705Y-14469056D01*
X12829705Y-14469056D02*
X12839229Y-14507152D01*
X12839229Y-14507152D02*
X12839229Y-14554771D01*
X12839229Y-14554771D02*
X12829705Y-14592866D01*
X12829705Y-14592866D02*
X12820182Y-14611914D01*
X12820182Y-14611914D02*
X12810658Y-14621437D01*
X12810658Y-14621437D02*
X12791610Y-14630961D01*
X12791610Y-14630961D02*
X12772562Y-14630961D01*
X12772562Y-14630961D02*
X12753515Y-14621437D01*
X12753515Y-14621437D02*
X12743991Y-14611914D01*
X12743991Y-14611914D02*
X12734467Y-14592866D01*
X12734467Y-14592866D02*
X12724943Y-14554771D01*
X12724943Y-14554771D02*
X12724943Y-14507152D01*
X12724943Y-14507152D02*
X12734467Y-14469056D01*
X12734467Y-14469056D02*
X12743991Y-14450009D01*
X12743991Y-14450009D02*
X12753515Y-14440485D01*
X12753515Y-14440485D02*
X12772562Y-14430961D01*
X12963039Y-14430961D02*
X12982086Y-14430961D01*
X12982086Y-14430961D02*
X13001134Y-14440485D01*
X13001134Y-14440485D02*
X13010658Y-14450009D01*
X13010658Y-14450009D02*
X13020182Y-14469056D01*
X13020182Y-14469056D02*
X13029705Y-14507152D01*
X13029705Y-14507152D02*
X13029705Y-14554771D01*
X13029705Y-14554771D02*
X13020182Y-14592866D01*
X13020182Y-14592866D02*
X13010658Y-14611914D01*
X13010658Y-14611914D02*
X13001134Y-14621437D01*
X13001134Y-14621437D02*
X12982086Y-14630961D01*
X12982086Y-14630961D02*
X12963039Y-14630961D01*
X12963039Y-14630961D02*
X12943991Y-14621437D01*
X12943991Y-14621437D02*
X12934467Y-14611914D01*
X12934467Y-14611914D02*
X12924943Y-14592866D01*
X12924943Y-14592866D02*
X12915420Y-14554771D01*
X12915420Y-14554771D02*
X12915420Y-14507152D01*
X12915420Y-14507152D02*
X12924943Y-14469056D01*
X12924943Y-14469056D02*
X12934467Y-14450009D01*
X12934467Y-14450009D02*
X12943991Y-14440485D01*
X12943991Y-14440485D02*
X12963039Y-14430961D01*
X13115420Y-14630961D02*
X13115420Y-14497628D01*
X13115420Y-14516675D02*
X13124943Y-14507152D01*
X13124943Y-14507152D02*
X13143991Y-14497628D01*
X13143991Y-14497628D02*
X13172563Y-14497628D01*
X13172563Y-14497628D02*
X13191610Y-14507152D01*
X13191610Y-14507152D02*
X13201134Y-14526199D01*
X13201134Y-14526199D02*
X13201134Y-14630961D01*
X13201134Y-14526199D02*
X13210658Y-14507152D01*
X13210658Y-14507152D02*
X13229705Y-14497628D01*
X13229705Y-14497628D02*
X13258277Y-14497628D01*
X13258277Y-14497628D02*
X13277324Y-14507152D01*
X13277324Y-14507152D02*
X13286848Y-14526199D01*
X13286848Y-14526199D02*
X13286848Y-14630961D01*
X13382086Y-14630961D02*
X13382086Y-14497628D01*
X13382086Y-14516675D02*
X13391610Y-14507152D01*
X13391610Y-14507152D02*
X13410658Y-14497628D01*
X13410658Y-14497628D02*
X13439229Y-14497628D01*
X13439229Y-14497628D02*
X13458277Y-14507152D01*
X13458277Y-14507152D02*
X13467801Y-14526199D01*
X13467801Y-14526199D02*
X13467801Y-14630961D01*
X13467801Y-14526199D02*
X13477324Y-14507152D01*
X13477324Y-14507152D02*
X13496372Y-14497628D01*
X13496372Y-14497628D02*
X13524943Y-14497628D01*
X13524943Y-14497628D02*
X13543991Y-14507152D01*
X13543991Y-14507152D02*
X13553515Y-14526199D01*
X13553515Y-14526199D02*
X13553515Y-14630961D01*
X13943991Y-14421437D02*
X13772563Y-14678580D01*
X14201134Y-14430961D02*
X14220182Y-14430961D01*
X14220182Y-14430961D02*
X14239229Y-14440485D01*
X14239229Y-14440485D02*
X14248753Y-14450009D01*
X14248753Y-14450009D02*
X14258277Y-14469056D01*
X14258277Y-14469056D02*
X14267801Y-14507152D01*
X14267801Y-14507152D02*
X14267801Y-14554771D01*
X14267801Y-14554771D02*
X14258277Y-14592866D01*
X14258277Y-14592866D02*
X14248753Y-14611914D01*
X14248753Y-14611914D02*
X14239229Y-14621437D01*
X14239229Y-14621437D02*
X14220182Y-14630961D01*
X14220182Y-14630961D02*
X14201134Y-14630961D01*
X14201134Y-14630961D02*
X14182086Y-14621437D01*
X14182086Y-14621437D02*
X14172563Y-14611914D01*
X14172563Y-14611914D02*
X14163039Y-14592866D01*
X14163039Y-14592866D02*
X14153515Y-14554771D01*
X14153515Y-14554771D02*
X14153515Y-14507152D01*
X14153515Y-14507152D02*
X14163039Y-14469056D01*
X14163039Y-14469056D02*
X14172563Y-14450009D01*
X14172563Y-14450009D02*
X14182086Y-14440485D01*
X14182086Y-14440485D02*
X14201134Y-14430961D01*
X14353515Y-14611914D02*
X14363039Y-14621437D01*
X14363039Y-14621437D02*
X14353515Y-14630961D01*
X14353515Y-14630961D02*
X14343991Y-14621437D01*
X14343991Y-14621437D02*
X14353515Y-14611914D01*
X14353515Y-14611914D02*
X14353515Y-14630961D01*
X14486848Y-14430961D02*
X14505896Y-14430961D01*
X14505896Y-14430961D02*
X14524944Y-14440485D01*
X14524944Y-14440485D02*
X14534467Y-14450009D01*
X14534467Y-14450009D02*
X14543991Y-14469056D01*
X14543991Y-14469056D02*
X14553515Y-14507152D01*
X14553515Y-14507152D02*
X14553515Y-14554771D01*
X14553515Y-14554771D02*
X14543991Y-14592866D01*
X14543991Y-14592866D02*
X14534467Y-14611914D01*
X14534467Y-14611914D02*
X14524944Y-14621437D01*
X14524944Y-14621437D02*
X14505896Y-14630961D01*
X14505896Y-14630961D02*
X14486848Y-14630961D01*
X14486848Y-14630961D02*
X14467801Y-14621437D01*
X14467801Y-14621437D02*
X14458277Y-14611914D01*
X14458277Y-14611914D02*
X14448753Y-14592866D01*
X14448753Y-14592866D02*
X14439229Y-14554771D01*
X14439229Y-14554771D02*
X14439229Y-14507152D01*
X14439229Y-14507152D02*
X14448753Y-14469056D01*
X14448753Y-14469056D02*
X14458277Y-14450009D01*
X14458277Y-14450009D02*
X14467801Y-14440485D01*
X14467801Y-14440485D02*
X14486848Y-14430961D01*
X14743991Y-14630961D02*
X14629706Y-14630961D01*
X14686848Y-14630961D02*
X14686848Y-14430961D01*
X14686848Y-14430961D02*
X14667801Y-14459533D01*
X14667801Y-14459533D02*
X14648753Y-14478580D01*
X14648753Y-14478580D02*
X14629706Y-14488104D01*
X14934467Y-14630961D02*
X14820182Y-14630961D01*
X14877325Y-14630961D02*
X14877325Y-14430961D01*
X14877325Y-14430961D02*
X14858277Y-14459533D01*
X14858277Y-14459533D02*
X14839229Y-14478580D01*
X14839229Y-14478580D02*
X14820182Y-14488104D01*
X15048753Y-14516675D02*
X15029706Y-14507152D01*
X15029706Y-14507152D02*
X15020182Y-14497628D01*
X15020182Y-14497628D02*
X15010658Y-14478580D01*
X15010658Y-14478580D02*
X15010658Y-14469056D01*
X15010658Y-14469056D02*
X15020182Y-14450009D01*
X15020182Y-14450009D02*
X15029706Y-14440485D01*
X15029706Y-14440485D02*
X15048753Y-14430961D01*
X15048753Y-14430961D02*
X15086848Y-14430961D01*
X15086848Y-14430961D02*
X15105896Y-14440485D01*
X15105896Y-14440485D02*
X15115420Y-14450009D01*
X15115420Y-14450009D02*
X15124944Y-14469056D01*
X15124944Y-14469056D02*
X15124944Y-14478580D01*
X15124944Y-14478580D02*
X15115420Y-14497628D01*
X15115420Y-14497628D02*
X15105896Y-14507152D01*
X15105896Y-14507152D02*
X15086848Y-14516675D01*
X15086848Y-14516675D02*
X15048753Y-14516675D01*
X15048753Y-14516675D02*
X15029706Y-14526199D01*
X15029706Y-14526199D02*
X15020182Y-14535723D01*
X15020182Y-14535723D02*
X15010658Y-14554771D01*
X15010658Y-14554771D02*
X15010658Y-14592866D01*
X15010658Y-14592866D02*
X15020182Y-14611914D01*
X15020182Y-14611914D02*
X15029706Y-14621437D01*
X15029706Y-14621437D02*
X15048753Y-14630961D01*
X15048753Y-14630961D02*
X15086848Y-14630961D01*
X15086848Y-14630961D02*
X15105896Y-14621437D01*
X15105896Y-14621437D02*
X15115420Y-14611914D01*
X15115420Y-14611914D02*
X15124944Y-14592866D01*
X15124944Y-14592866D02*
X15124944Y-14554771D01*
X15124944Y-14554771D02*
X15115420Y-14535723D01*
X15115420Y-14535723D02*
X15105896Y-14526199D01*
X15105896Y-14526199D02*
X15086848Y-14516675D01*
X15201134Y-14430961D02*
X15201134Y-14469056D01*
X15277325Y-14430961D02*
X15277325Y-14469056D01*
X15572563Y-14707152D02*
X15563039Y-14697628D01*
X15563039Y-14697628D02*
X15543991Y-14669056D01*
X15543991Y-14669056D02*
X15534468Y-14650009D01*
X15534468Y-14650009D02*
X15524944Y-14621437D01*
X15524944Y-14621437D02*
X15515420Y-14573818D01*
X15515420Y-14573818D02*
X15515420Y-14535723D01*
X15515420Y-14535723D02*
X15524944Y-14488104D01*
X15524944Y-14488104D02*
X15534468Y-14459533D01*
X15534468Y-14459533D02*
X15543991Y-14440485D01*
X15543991Y-14440485D02*
X15563039Y-14411914D01*
X15563039Y-14411914D02*
X15572563Y-14402390D01*
X15753515Y-14630961D02*
X15639229Y-14630961D01*
X15696372Y-14630961D02*
X15696372Y-14430961D01*
X15696372Y-14430961D02*
X15677325Y-14459533D01*
X15677325Y-14459533D02*
X15658277Y-14478580D01*
X15658277Y-14478580D02*
X15639229Y-14488104D01*
X15924944Y-14497628D02*
X15924944Y-14630961D01*
X15877325Y-14421437D02*
X15829706Y-14564295D01*
X15829706Y-14564295D02*
X15953515Y-14564295D01*
X16182087Y-14630961D02*
X16182087Y-14430961D01*
X16267801Y-14630961D02*
X16267801Y-14526199D01*
X16267801Y-14526199D02*
X16258277Y-14507152D01*
X16258277Y-14507152D02*
X16239230Y-14497628D01*
X16239230Y-14497628D02*
X16210658Y-14497628D01*
X16210658Y-14497628D02*
X16191610Y-14507152D01*
X16191610Y-14507152D02*
X16182087Y-14516675D01*
X16391610Y-14630961D02*
X16372563Y-14621437D01*
X16372563Y-14621437D02*
X16363039Y-14611914D01*
X16363039Y-14611914D02*
X16353515Y-14592866D01*
X16353515Y-14592866D02*
X16353515Y-14535723D01*
X16353515Y-14535723D02*
X16363039Y-14516675D01*
X16363039Y-14516675D02*
X16372563Y-14507152D01*
X16372563Y-14507152D02*
X16391610Y-14497628D01*
X16391610Y-14497628D02*
X16420182Y-14497628D01*
X16420182Y-14497628D02*
X16439230Y-14507152D01*
X16439230Y-14507152D02*
X16448753Y-14516675D01*
X16448753Y-14516675D02*
X16458277Y-14535723D01*
X16458277Y-14535723D02*
X16458277Y-14592866D01*
X16458277Y-14592866D02*
X16448753Y-14611914D01*
X16448753Y-14611914D02*
X16439230Y-14621437D01*
X16439230Y-14621437D02*
X16420182Y-14630961D01*
X16420182Y-14630961D02*
X16391610Y-14630961D01*
X16572563Y-14630961D02*
X16553515Y-14621437D01*
X16553515Y-14621437D02*
X16543991Y-14602390D01*
X16543991Y-14602390D02*
X16543991Y-14430961D01*
X16724944Y-14621437D02*
X16705896Y-14630961D01*
X16705896Y-14630961D02*
X16667801Y-14630961D01*
X16667801Y-14630961D02*
X16648753Y-14621437D01*
X16648753Y-14621437D02*
X16639230Y-14602390D01*
X16639230Y-14602390D02*
X16639230Y-14526199D01*
X16639230Y-14526199D02*
X16648753Y-14507152D01*
X16648753Y-14507152D02*
X16667801Y-14497628D01*
X16667801Y-14497628D02*
X16705896Y-14497628D01*
X16705896Y-14497628D02*
X16724944Y-14507152D01*
X16724944Y-14507152D02*
X16734468Y-14526199D01*
X16734468Y-14526199D02*
X16734468Y-14545247D01*
X16734468Y-14545247D02*
X16639230Y-14564295D01*
X16810658Y-14621437D02*
X16829706Y-14630961D01*
X16829706Y-14630961D02*
X16867801Y-14630961D01*
X16867801Y-14630961D02*
X16886849Y-14621437D01*
X16886849Y-14621437D02*
X16896373Y-14602390D01*
X16896373Y-14602390D02*
X16896373Y-14592866D01*
X16896373Y-14592866D02*
X16886849Y-14573818D01*
X16886849Y-14573818D02*
X16867801Y-14564295D01*
X16867801Y-14564295D02*
X16839230Y-14564295D01*
X16839230Y-14564295D02*
X16820182Y-14554771D01*
X16820182Y-14554771D02*
X16810658Y-14535723D01*
X16810658Y-14535723D02*
X16810658Y-14526199D01*
X16810658Y-14526199D02*
X16820182Y-14507152D01*
X16820182Y-14507152D02*
X16839230Y-14497628D01*
X16839230Y-14497628D02*
X16867801Y-14497628D01*
X16867801Y-14497628D02*
X16886849Y-14507152D01*
X16963039Y-14707152D02*
X16972563Y-14697628D01*
X16972563Y-14697628D02*
X16991611Y-14669056D01*
X16991611Y-14669056D02*
X17001134Y-14650009D01*
X17001134Y-14650009D02*
X17010658Y-14621437D01*
X17010658Y-14621437D02*
X17020182Y-14573818D01*
X17020182Y-14573818D02*
X17020182Y-14535723D01*
X17020182Y-14535723D02*
X17010658Y-14488104D01*
X17010658Y-14488104D02*
X17001134Y-14459533D01*
X17001134Y-14459533D02*
X16991611Y-14440485D01*
X16991611Y-14440485D02*
X16972563Y-14411914D01*
X16972563Y-14411914D02*
X16963039Y-14402390D01*
D12*
X11977500Y-14783477D02*
X11977500Y-14823477D01*
X11957500Y-14803477D02*
X11997500Y-14803477D01*
D11*
X12296372Y-14694961D02*
X12315420Y-14694961D01*
X12315420Y-14694961D02*
X12334467Y-14704485D01*
X12334467Y-14704485D02*
X12343991Y-14714009D01*
X12343991Y-14714009D02*
X12353515Y-14733056D01*
X12353515Y-14733056D02*
X12363039Y-14771152D01*
X12363039Y-14771152D02*
X12363039Y-14818771D01*
X12363039Y-14818771D02*
X12353515Y-14856866D01*
X12353515Y-14856866D02*
X12343991Y-14875914D01*
X12343991Y-14875914D02*
X12334467Y-14885437D01*
X12334467Y-14885437D02*
X12315420Y-14894961D01*
X12315420Y-14894961D02*
X12296372Y-14894961D01*
X12296372Y-14894961D02*
X12277324Y-14885437D01*
X12277324Y-14885437D02*
X12267801Y-14875914D01*
X12267801Y-14875914D02*
X12258277Y-14856866D01*
X12258277Y-14856866D02*
X12248753Y-14818771D01*
X12248753Y-14818771D02*
X12248753Y-14771152D01*
X12248753Y-14771152D02*
X12258277Y-14733056D01*
X12258277Y-14733056D02*
X12267801Y-14714009D01*
X12267801Y-14714009D02*
X12277324Y-14704485D01*
X12277324Y-14704485D02*
X12296372Y-14694961D01*
X12448753Y-14875914D02*
X12458277Y-14885437D01*
X12458277Y-14885437D02*
X12448753Y-14894961D01*
X12448753Y-14894961D02*
X12439229Y-14885437D01*
X12439229Y-14885437D02*
X12448753Y-14875914D01*
X12448753Y-14875914D02*
X12448753Y-14894961D01*
X12629705Y-14761628D02*
X12629705Y-14894961D01*
X12582086Y-14685437D02*
X12534467Y-14828295D01*
X12534467Y-14828295D02*
X12658277Y-14828295D01*
X12772562Y-14694961D02*
X12791610Y-14694961D01*
X12791610Y-14694961D02*
X12810658Y-14704485D01*
X12810658Y-14704485D02*
X12820182Y-14714009D01*
X12820182Y-14714009D02*
X12829705Y-14733056D01*
X12829705Y-14733056D02*
X12839229Y-14771152D01*
X12839229Y-14771152D02*
X12839229Y-14818771D01*
X12839229Y-14818771D02*
X12829705Y-14856866D01*
X12829705Y-14856866D02*
X12820182Y-14875914D01*
X12820182Y-14875914D02*
X12810658Y-14885437D01*
X12810658Y-14885437D02*
X12791610Y-14894961D01*
X12791610Y-14894961D02*
X12772562Y-14894961D01*
X12772562Y-14894961D02*
X12753515Y-14885437D01*
X12753515Y-14885437D02*
X12743991Y-14875914D01*
X12743991Y-14875914D02*
X12734467Y-14856866D01*
X12734467Y-14856866D02*
X12724943Y-14818771D01*
X12724943Y-14818771D02*
X12724943Y-14771152D01*
X12724943Y-14771152D02*
X12734467Y-14733056D01*
X12734467Y-14733056D02*
X12743991Y-14714009D01*
X12743991Y-14714009D02*
X12753515Y-14704485D01*
X12753515Y-14704485D02*
X12772562Y-14694961D01*
X12963039Y-14694961D02*
X12982086Y-14694961D01*
X12982086Y-14694961D02*
X13001134Y-14704485D01*
X13001134Y-14704485D02*
X13010658Y-14714009D01*
X13010658Y-14714009D02*
X13020182Y-14733056D01*
X13020182Y-14733056D02*
X13029705Y-14771152D01*
X13029705Y-14771152D02*
X13029705Y-14818771D01*
X13029705Y-14818771D02*
X13020182Y-14856866D01*
X13020182Y-14856866D02*
X13010658Y-14875914D01*
X13010658Y-14875914D02*
X13001134Y-14885437D01*
X13001134Y-14885437D02*
X12982086Y-14894961D01*
X12982086Y-14894961D02*
X12963039Y-14894961D01*
X12963039Y-14894961D02*
X12943991Y-14885437D01*
X12943991Y-14885437D02*
X12934467Y-14875914D01*
X12934467Y-14875914D02*
X12924943Y-14856866D01*
X12924943Y-14856866D02*
X12915420Y-14818771D01*
X12915420Y-14818771D02*
X12915420Y-14771152D01*
X12915420Y-14771152D02*
X12924943Y-14733056D01*
X12924943Y-14733056D02*
X12934467Y-14714009D01*
X12934467Y-14714009D02*
X12943991Y-14704485D01*
X12943991Y-14704485D02*
X12963039Y-14694961D01*
X13115420Y-14894961D02*
X13115420Y-14761628D01*
X13115420Y-14780675D02*
X13124943Y-14771152D01*
X13124943Y-14771152D02*
X13143991Y-14761628D01*
X13143991Y-14761628D02*
X13172563Y-14761628D01*
X13172563Y-14761628D02*
X13191610Y-14771152D01*
X13191610Y-14771152D02*
X13201134Y-14790199D01*
X13201134Y-14790199D02*
X13201134Y-14894961D01*
X13201134Y-14790199D02*
X13210658Y-14771152D01*
X13210658Y-14771152D02*
X13229705Y-14761628D01*
X13229705Y-14761628D02*
X13258277Y-14761628D01*
X13258277Y-14761628D02*
X13277324Y-14771152D01*
X13277324Y-14771152D02*
X13286848Y-14790199D01*
X13286848Y-14790199D02*
X13286848Y-14894961D01*
X13382086Y-14894961D02*
X13382086Y-14761628D01*
X13382086Y-14780675D02*
X13391610Y-14771152D01*
X13391610Y-14771152D02*
X13410658Y-14761628D01*
X13410658Y-14761628D02*
X13439229Y-14761628D01*
X13439229Y-14761628D02*
X13458277Y-14771152D01*
X13458277Y-14771152D02*
X13467801Y-14790199D01*
X13467801Y-14790199D02*
X13467801Y-14894961D01*
X13467801Y-14790199D02*
X13477324Y-14771152D01*
X13477324Y-14771152D02*
X13496372Y-14761628D01*
X13496372Y-14761628D02*
X13524943Y-14761628D01*
X13524943Y-14761628D02*
X13543991Y-14771152D01*
X13543991Y-14771152D02*
X13553515Y-14790199D01*
X13553515Y-14790199D02*
X13553515Y-14894961D01*
X13943991Y-14685437D02*
X13772563Y-14942580D01*
X14201134Y-14694961D02*
X14220182Y-14694961D01*
X14220182Y-14694961D02*
X14239229Y-14704485D01*
X14239229Y-14704485D02*
X14248753Y-14714009D01*
X14248753Y-14714009D02*
X14258277Y-14733056D01*
X14258277Y-14733056D02*
X14267801Y-14771152D01*
X14267801Y-14771152D02*
X14267801Y-14818771D01*
X14267801Y-14818771D02*
X14258277Y-14856866D01*
X14258277Y-14856866D02*
X14248753Y-14875914D01*
X14248753Y-14875914D02*
X14239229Y-14885437D01*
X14239229Y-14885437D02*
X14220182Y-14894961D01*
X14220182Y-14894961D02*
X14201134Y-14894961D01*
X14201134Y-14894961D02*
X14182086Y-14885437D01*
X14182086Y-14885437D02*
X14172563Y-14875914D01*
X14172563Y-14875914D02*
X14163039Y-14856866D01*
X14163039Y-14856866D02*
X14153515Y-14818771D01*
X14153515Y-14818771D02*
X14153515Y-14771152D01*
X14153515Y-14771152D02*
X14163039Y-14733056D01*
X14163039Y-14733056D02*
X14172563Y-14714009D01*
X14172563Y-14714009D02*
X14182086Y-14704485D01*
X14182086Y-14704485D02*
X14201134Y-14694961D01*
X14353515Y-14875914D02*
X14363039Y-14885437D01*
X14363039Y-14885437D02*
X14353515Y-14894961D01*
X14353515Y-14894961D02*
X14343991Y-14885437D01*
X14343991Y-14885437D02*
X14353515Y-14875914D01*
X14353515Y-14875914D02*
X14353515Y-14894961D01*
X14486848Y-14694961D02*
X14505896Y-14694961D01*
X14505896Y-14694961D02*
X14524944Y-14704485D01*
X14524944Y-14704485D02*
X14534467Y-14714009D01*
X14534467Y-14714009D02*
X14543991Y-14733056D01*
X14543991Y-14733056D02*
X14553515Y-14771152D01*
X14553515Y-14771152D02*
X14553515Y-14818771D01*
X14553515Y-14818771D02*
X14543991Y-14856866D01*
X14543991Y-14856866D02*
X14534467Y-14875914D01*
X14534467Y-14875914D02*
X14524944Y-14885437D01*
X14524944Y-14885437D02*
X14505896Y-14894961D01*
X14505896Y-14894961D02*
X14486848Y-14894961D01*
X14486848Y-14894961D02*
X14467801Y-14885437D01*
X14467801Y-14885437D02*
X14458277Y-14875914D01*
X14458277Y-14875914D02*
X14448753Y-14856866D01*
X14448753Y-14856866D02*
X14439229Y-14818771D01*
X14439229Y-14818771D02*
X14439229Y-14771152D01*
X14439229Y-14771152D02*
X14448753Y-14733056D01*
X14448753Y-14733056D02*
X14458277Y-14714009D01*
X14458277Y-14714009D02*
X14467801Y-14704485D01*
X14467801Y-14704485D02*
X14486848Y-14694961D01*
X14743991Y-14894961D02*
X14629706Y-14894961D01*
X14686848Y-14894961D02*
X14686848Y-14694961D01*
X14686848Y-14694961D02*
X14667801Y-14723533D01*
X14667801Y-14723533D02*
X14648753Y-14742580D01*
X14648753Y-14742580D02*
X14629706Y-14752104D01*
X14924944Y-14694961D02*
X14829706Y-14694961D01*
X14829706Y-14694961D02*
X14820182Y-14790199D01*
X14820182Y-14790199D02*
X14829706Y-14780675D01*
X14829706Y-14780675D02*
X14848753Y-14771152D01*
X14848753Y-14771152D02*
X14896372Y-14771152D01*
X14896372Y-14771152D02*
X14915420Y-14780675D01*
X14915420Y-14780675D02*
X14924944Y-14790199D01*
X14924944Y-14790199D02*
X14934467Y-14809247D01*
X14934467Y-14809247D02*
X14934467Y-14856866D01*
X14934467Y-14856866D02*
X14924944Y-14875914D01*
X14924944Y-14875914D02*
X14915420Y-14885437D01*
X14915420Y-14885437D02*
X14896372Y-14894961D01*
X14896372Y-14894961D02*
X14848753Y-14894961D01*
X14848753Y-14894961D02*
X14829706Y-14885437D01*
X14829706Y-14885437D02*
X14820182Y-14875914D01*
X15001134Y-14694961D02*
X15134467Y-14694961D01*
X15134467Y-14694961D02*
X15048753Y-14894961D01*
X15201134Y-14694961D02*
X15201134Y-14733056D01*
X15277325Y-14694961D02*
X15277325Y-14733056D01*
X15572563Y-14971152D02*
X15563039Y-14961628D01*
X15563039Y-14961628D02*
X15543991Y-14933056D01*
X15543991Y-14933056D02*
X15534468Y-14914009D01*
X15534468Y-14914009D02*
X15524944Y-14885437D01*
X15524944Y-14885437D02*
X15515420Y-14837818D01*
X15515420Y-14837818D02*
X15515420Y-14799723D01*
X15515420Y-14799723D02*
X15524944Y-14752104D01*
X15524944Y-14752104D02*
X15534468Y-14723533D01*
X15534468Y-14723533D02*
X15543991Y-14704485D01*
X15543991Y-14704485D02*
X15563039Y-14675914D01*
X15563039Y-14675914D02*
X15572563Y-14666390D01*
X15629706Y-14694961D02*
X15763039Y-14694961D01*
X15763039Y-14694961D02*
X15677325Y-14894961D01*
X15991610Y-14894961D02*
X15991610Y-14694961D01*
X16077325Y-14894961D02*
X16077325Y-14790199D01*
X16077325Y-14790199D02*
X16067801Y-14771152D01*
X16067801Y-14771152D02*
X16048753Y-14761628D01*
X16048753Y-14761628D02*
X16020182Y-14761628D01*
X16020182Y-14761628D02*
X16001134Y-14771152D01*
X16001134Y-14771152D02*
X15991610Y-14780675D01*
X16201134Y-14894961D02*
X16182087Y-14885437D01*
X16182087Y-14885437D02*
X16172563Y-14875914D01*
X16172563Y-14875914D02*
X16163039Y-14856866D01*
X16163039Y-14856866D02*
X16163039Y-14799723D01*
X16163039Y-14799723D02*
X16172563Y-14780675D01*
X16172563Y-14780675D02*
X16182087Y-14771152D01*
X16182087Y-14771152D02*
X16201134Y-14761628D01*
X16201134Y-14761628D02*
X16229706Y-14761628D01*
X16229706Y-14761628D02*
X16248753Y-14771152D01*
X16248753Y-14771152D02*
X16258277Y-14780675D01*
X16258277Y-14780675D02*
X16267801Y-14799723D01*
X16267801Y-14799723D02*
X16267801Y-14856866D01*
X16267801Y-14856866D02*
X16258277Y-14875914D01*
X16258277Y-14875914D02*
X16248753Y-14885437D01*
X16248753Y-14885437D02*
X16229706Y-14894961D01*
X16229706Y-14894961D02*
X16201134Y-14894961D01*
X16382087Y-14894961D02*
X16363039Y-14885437D01*
X16363039Y-14885437D02*
X16353515Y-14866390D01*
X16353515Y-14866390D02*
X16353515Y-14694961D01*
X16534468Y-14885437D02*
X16515420Y-14894961D01*
X16515420Y-14894961D02*
X16477325Y-14894961D01*
X16477325Y-14894961D02*
X16458277Y-14885437D01*
X16458277Y-14885437D02*
X16448753Y-14866390D01*
X16448753Y-14866390D02*
X16448753Y-14790199D01*
X16448753Y-14790199D02*
X16458277Y-14771152D01*
X16458277Y-14771152D02*
X16477325Y-14761628D01*
X16477325Y-14761628D02*
X16515420Y-14761628D01*
X16515420Y-14761628D02*
X16534468Y-14771152D01*
X16534468Y-14771152D02*
X16543991Y-14790199D01*
X16543991Y-14790199D02*
X16543991Y-14809247D01*
X16543991Y-14809247D02*
X16448753Y-14828295D01*
X16620182Y-14885437D02*
X16639230Y-14894961D01*
X16639230Y-14894961D02*
X16677325Y-14894961D01*
X16677325Y-14894961D02*
X16696372Y-14885437D01*
X16696372Y-14885437D02*
X16705896Y-14866390D01*
X16705896Y-14866390D02*
X16705896Y-14856866D01*
X16705896Y-14856866D02*
X16696372Y-14837818D01*
X16696372Y-14837818D02*
X16677325Y-14828295D01*
X16677325Y-14828295D02*
X16648753Y-14828295D01*
X16648753Y-14828295D02*
X16629706Y-14818771D01*
X16629706Y-14818771D02*
X16620182Y-14799723D01*
X16620182Y-14799723D02*
X16620182Y-14790199D01*
X16620182Y-14790199D02*
X16629706Y-14771152D01*
X16629706Y-14771152D02*
X16648753Y-14761628D01*
X16648753Y-14761628D02*
X16677325Y-14761628D01*
X16677325Y-14761628D02*
X16696372Y-14771152D01*
X16772563Y-14971152D02*
X16782087Y-14961628D01*
X16782087Y-14961628D02*
X16801134Y-14933056D01*
X16801134Y-14933056D02*
X16810658Y-14914009D01*
X16810658Y-14914009D02*
X16820182Y-14885437D01*
X16820182Y-14885437D02*
X16829706Y-14837818D01*
X16829706Y-14837818D02*
X16829706Y-14799723D01*
X16829706Y-14799723D02*
X16820182Y-14752104D01*
X16820182Y-14752104D02*
X16810658Y-14723533D01*
X16810658Y-14723533D02*
X16801134Y-14704485D01*
X16801134Y-14704485D02*
X16782087Y-14675914D01*
X16782087Y-14675914D02*
X16772563Y-14666390D01*
D12*
X11988713Y-15088691D02*
X11988713Y-15046264D01*
X11946287Y-15046264D01*
X11946287Y-15088691D01*
X11988713Y-15088691D01*
D11*
X12296372Y-14958961D02*
X12315420Y-14958961D01*
X12315420Y-14958961D02*
X12334467Y-14968485D01*
X12334467Y-14968485D02*
X12343991Y-14978009D01*
X12343991Y-14978009D02*
X12353515Y-14997056D01*
X12353515Y-14997056D02*
X12363039Y-15035152D01*
X12363039Y-15035152D02*
X12363039Y-15082771D01*
X12363039Y-15082771D02*
X12353515Y-15120866D01*
X12353515Y-15120866D02*
X12343991Y-15139914D01*
X12343991Y-15139914D02*
X12334467Y-15149437D01*
X12334467Y-15149437D02*
X12315420Y-15158961D01*
X12315420Y-15158961D02*
X12296372Y-15158961D01*
X12296372Y-15158961D02*
X12277324Y-15149437D01*
X12277324Y-15149437D02*
X12267801Y-15139914D01*
X12267801Y-15139914D02*
X12258277Y-15120866D01*
X12258277Y-15120866D02*
X12248753Y-15082771D01*
X12248753Y-15082771D02*
X12248753Y-15035152D01*
X12248753Y-15035152D02*
X12258277Y-14997056D01*
X12258277Y-14997056D02*
X12267801Y-14978009D01*
X12267801Y-14978009D02*
X12277324Y-14968485D01*
X12277324Y-14968485D02*
X12296372Y-14958961D01*
X12448753Y-15139914D02*
X12458277Y-15149437D01*
X12458277Y-15149437D02*
X12448753Y-15158961D01*
X12448753Y-15158961D02*
X12439229Y-15149437D01*
X12439229Y-15149437D02*
X12448753Y-15139914D01*
X12448753Y-15139914D02*
X12448753Y-15158961D01*
X12629705Y-14958961D02*
X12591610Y-14958961D01*
X12591610Y-14958961D02*
X12572562Y-14968485D01*
X12572562Y-14968485D02*
X12563039Y-14978009D01*
X12563039Y-14978009D02*
X12543991Y-15006580D01*
X12543991Y-15006580D02*
X12534467Y-15044675D01*
X12534467Y-15044675D02*
X12534467Y-15120866D01*
X12534467Y-15120866D02*
X12543991Y-15139914D01*
X12543991Y-15139914D02*
X12553515Y-15149437D01*
X12553515Y-15149437D02*
X12572562Y-15158961D01*
X12572562Y-15158961D02*
X12610658Y-15158961D01*
X12610658Y-15158961D02*
X12629705Y-15149437D01*
X12629705Y-15149437D02*
X12639229Y-15139914D01*
X12639229Y-15139914D02*
X12648753Y-15120866D01*
X12648753Y-15120866D02*
X12648753Y-15073247D01*
X12648753Y-15073247D02*
X12639229Y-15054199D01*
X12639229Y-15054199D02*
X12629705Y-15044675D01*
X12629705Y-15044675D02*
X12610658Y-15035152D01*
X12610658Y-15035152D02*
X12572562Y-15035152D01*
X12572562Y-15035152D02*
X12553515Y-15044675D01*
X12553515Y-15044675D02*
X12543991Y-15054199D01*
X12543991Y-15054199D02*
X12534467Y-15073247D01*
X12772562Y-14958961D02*
X12791610Y-14958961D01*
X12791610Y-14958961D02*
X12810658Y-14968485D01*
X12810658Y-14968485D02*
X12820182Y-14978009D01*
X12820182Y-14978009D02*
X12829705Y-14997056D01*
X12829705Y-14997056D02*
X12839229Y-15035152D01*
X12839229Y-15035152D02*
X12839229Y-15082771D01*
X12839229Y-15082771D02*
X12829705Y-15120866D01*
X12829705Y-15120866D02*
X12820182Y-15139914D01*
X12820182Y-15139914D02*
X12810658Y-15149437D01*
X12810658Y-15149437D02*
X12791610Y-15158961D01*
X12791610Y-15158961D02*
X12772562Y-15158961D01*
X12772562Y-15158961D02*
X12753515Y-15149437D01*
X12753515Y-15149437D02*
X12743991Y-15139914D01*
X12743991Y-15139914D02*
X12734467Y-15120866D01*
X12734467Y-15120866D02*
X12724943Y-15082771D01*
X12724943Y-15082771D02*
X12724943Y-15035152D01*
X12724943Y-15035152D02*
X12734467Y-14997056D01*
X12734467Y-14997056D02*
X12743991Y-14978009D01*
X12743991Y-14978009D02*
X12753515Y-14968485D01*
X12753515Y-14968485D02*
X12772562Y-14958961D01*
X12963039Y-14958961D02*
X12982086Y-14958961D01*
X12982086Y-14958961D02*
X13001134Y-14968485D01*
X13001134Y-14968485D02*
X13010658Y-14978009D01*
X13010658Y-14978009D02*
X13020182Y-14997056D01*
X13020182Y-14997056D02*
X13029705Y-15035152D01*
X13029705Y-15035152D02*
X13029705Y-15082771D01*
X13029705Y-15082771D02*
X13020182Y-15120866D01*
X13020182Y-15120866D02*
X13010658Y-15139914D01*
X13010658Y-15139914D02*
X13001134Y-15149437D01*
X13001134Y-15149437D02*
X12982086Y-15158961D01*
X12982086Y-15158961D02*
X12963039Y-15158961D01*
X12963039Y-15158961D02*
X12943991Y-15149437D01*
X12943991Y-15149437D02*
X12934467Y-15139914D01*
X12934467Y-15139914D02*
X12924943Y-15120866D01*
X12924943Y-15120866D02*
X12915420Y-15082771D01*
X12915420Y-15082771D02*
X12915420Y-15035152D01*
X12915420Y-15035152D02*
X12924943Y-14997056D01*
X12924943Y-14997056D02*
X12934467Y-14978009D01*
X12934467Y-14978009D02*
X12943991Y-14968485D01*
X12943991Y-14968485D02*
X12963039Y-14958961D01*
X13115420Y-15158961D02*
X13115420Y-15025628D01*
X13115420Y-15044675D02*
X13124943Y-15035152D01*
X13124943Y-15035152D02*
X13143991Y-15025628D01*
X13143991Y-15025628D02*
X13172563Y-15025628D01*
X13172563Y-15025628D02*
X13191610Y-15035152D01*
X13191610Y-15035152D02*
X13201134Y-15054199D01*
X13201134Y-15054199D02*
X13201134Y-15158961D01*
X13201134Y-15054199D02*
X13210658Y-15035152D01*
X13210658Y-15035152D02*
X13229705Y-15025628D01*
X13229705Y-15025628D02*
X13258277Y-15025628D01*
X13258277Y-15025628D02*
X13277324Y-15035152D01*
X13277324Y-15035152D02*
X13286848Y-15054199D01*
X13286848Y-15054199D02*
X13286848Y-15158961D01*
X13382086Y-15158961D02*
X13382086Y-15025628D01*
X13382086Y-15044675D02*
X13391610Y-15035152D01*
X13391610Y-15035152D02*
X13410658Y-15025628D01*
X13410658Y-15025628D02*
X13439229Y-15025628D01*
X13439229Y-15025628D02*
X13458277Y-15035152D01*
X13458277Y-15035152D02*
X13467801Y-15054199D01*
X13467801Y-15054199D02*
X13467801Y-15158961D01*
X13467801Y-15054199D02*
X13477324Y-15035152D01*
X13477324Y-15035152D02*
X13496372Y-15025628D01*
X13496372Y-15025628D02*
X13524943Y-15025628D01*
X13524943Y-15025628D02*
X13543991Y-15035152D01*
X13543991Y-15035152D02*
X13553515Y-15054199D01*
X13553515Y-15054199D02*
X13553515Y-15158961D01*
X13943991Y-14949437D02*
X13772563Y-15206580D01*
X14201134Y-14958961D02*
X14220182Y-14958961D01*
X14220182Y-14958961D02*
X14239229Y-14968485D01*
X14239229Y-14968485D02*
X14248753Y-14978009D01*
X14248753Y-14978009D02*
X14258277Y-14997056D01*
X14258277Y-14997056D02*
X14267801Y-15035152D01*
X14267801Y-15035152D02*
X14267801Y-15082771D01*
X14267801Y-15082771D02*
X14258277Y-15120866D01*
X14258277Y-15120866D02*
X14248753Y-15139914D01*
X14248753Y-15139914D02*
X14239229Y-15149437D01*
X14239229Y-15149437D02*
X14220182Y-15158961D01*
X14220182Y-15158961D02*
X14201134Y-15158961D01*
X14201134Y-15158961D02*
X14182086Y-15149437D01*
X14182086Y-15149437D02*
X14172563Y-15139914D01*
X14172563Y-15139914D02*
X14163039Y-15120866D01*
X14163039Y-15120866D02*
X14153515Y-15082771D01*
X14153515Y-15082771D02*
X14153515Y-15035152D01*
X14153515Y-15035152D02*
X14163039Y-14997056D01*
X14163039Y-14997056D02*
X14172563Y-14978009D01*
X14172563Y-14978009D02*
X14182086Y-14968485D01*
X14182086Y-14968485D02*
X14201134Y-14958961D01*
X14353515Y-15139914D02*
X14363039Y-15149437D01*
X14363039Y-15149437D02*
X14353515Y-15158961D01*
X14353515Y-15158961D02*
X14343991Y-15149437D01*
X14343991Y-15149437D02*
X14353515Y-15139914D01*
X14353515Y-15139914D02*
X14353515Y-15158961D01*
X14486848Y-14958961D02*
X14505896Y-14958961D01*
X14505896Y-14958961D02*
X14524944Y-14968485D01*
X14524944Y-14968485D02*
X14534467Y-14978009D01*
X14534467Y-14978009D02*
X14543991Y-14997056D01*
X14543991Y-14997056D02*
X14553515Y-15035152D01*
X14553515Y-15035152D02*
X14553515Y-15082771D01*
X14553515Y-15082771D02*
X14543991Y-15120866D01*
X14543991Y-15120866D02*
X14534467Y-15139914D01*
X14534467Y-15139914D02*
X14524944Y-15149437D01*
X14524944Y-15149437D02*
X14505896Y-15158961D01*
X14505896Y-15158961D02*
X14486848Y-15158961D01*
X14486848Y-15158961D02*
X14467801Y-15149437D01*
X14467801Y-15149437D02*
X14458277Y-15139914D01*
X14458277Y-15139914D02*
X14448753Y-15120866D01*
X14448753Y-15120866D02*
X14439229Y-15082771D01*
X14439229Y-15082771D02*
X14439229Y-15035152D01*
X14439229Y-15035152D02*
X14448753Y-14997056D01*
X14448753Y-14997056D02*
X14458277Y-14978009D01*
X14458277Y-14978009D02*
X14467801Y-14968485D01*
X14467801Y-14968485D02*
X14486848Y-14958961D01*
X14629706Y-14978009D02*
X14639229Y-14968485D01*
X14639229Y-14968485D02*
X14658277Y-14958961D01*
X14658277Y-14958961D02*
X14705896Y-14958961D01*
X14705896Y-14958961D02*
X14724944Y-14968485D01*
X14724944Y-14968485D02*
X14734467Y-14978009D01*
X14734467Y-14978009D02*
X14743991Y-14997056D01*
X14743991Y-14997056D02*
X14743991Y-15016104D01*
X14743991Y-15016104D02*
X14734467Y-15044675D01*
X14734467Y-15044675D02*
X14620182Y-15158961D01*
X14620182Y-15158961D02*
X14743991Y-15158961D01*
X14810658Y-14958961D02*
X14934467Y-14958961D01*
X14934467Y-14958961D02*
X14867801Y-15035152D01*
X14867801Y-15035152D02*
X14896372Y-15035152D01*
X14896372Y-15035152D02*
X14915420Y-15044675D01*
X14915420Y-15044675D02*
X14924944Y-15054199D01*
X14924944Y-15054199D02*
X14934467Y-15073247D01*
X14934467Y-15073247D02*
X14934467Y-15120866D01*
X14934467Y-15120866D02*
X14924944Y-15139914D01*
X14924944Y-15139914D02*
X14915420Y-15149437D01*
X14915420Y-15149437D02*
X14896372Y-15158961D01*
X14896372Y-15158961D02*
X14839229Y-15158961D01*
X14839229Y-15158961D02*
X14820182Y-15149437D01*
X14820182Y-15149437D02*
X14810658Y-15139914D01*
X15105896Y-14958961D02*
X15067801Y-14958961D01*
X15067801Y-14958961D02*
X15048753Y-14968485D01*
X15048753Y-14968485D02*
X15039229Y-14978009D01*
X15039229Y-14978009D02*
X15020182Y-15006580D01*
X15020182Y-15006580D02*
X15010658Y-15044675D01*
X15010658Y-15044675D02*
X15010658Y-15120866D01*
X15010658Y-15120866D02*
X15020182Y-15139914D01*
X15020182Y-15139914D02*
X15029706Y-15149437D01*
X15029706Y-15149437D02*
X15048753Y-15158961D01*
X15048753Y-15158961D02*
X15086848Y-15158961D01*
X15086848Y-15158961D02*
X15105896Y-15149437D01*
X15105896Y-15149437D02*
X15115420Y-15139914D01*
X15115420Y-15139914D02*
X15124944Y-15120866D01*
X15124944Y-15120866D02*
X15124944Y-15073247D01*
X15124944Y-15073247D02*
X15115420Y-15054199D01*
X15115420Y-15054199D02*
X15105896Y-15044675D01*
X15105896Y-15044675D02*
X15086848Y-15035152D01*
X15086848Y-15035152D02*
X15048753Y-15035152D01*
X15048753Y-15035152D02*
X15029706Y-15044675D01*
X15029706Y-15044675D02*
X15020182Y-15054199D01*
X15020182Y-15054199D02*
X15010658Y-15073247D01*
X15201134Y-14958961D02*
X15201134Y-14997056D01*
X15277325Y-14958961D02*
X15277325Y-14997056D01*
X15572563Y-15235152D02*
X15563039Y-15225628D01*
X15563039Y-15225628D02*
X15543991Y-15197056D01*
X15543991Y-15197056D02*
X15534468Y-15178009D01*
X15534468Y-15178009D02*
X15524944Y-15149437D01*
X15524944Y-15149437D02*
X15515420Y-15101818D01*
X15515420Y-15101818D02*
X15515420Y-15063723D01*
X15515420Y-15063723D02*
X15524944Y-15016104D01*
X15524944Y-15016104D02*
X15534468Y-14987533D01*
X15534468Y-14987533D02*
X15543991Y-14968485D01*
X15543991Y-14968485D02*
X15563039Y-14939914D01*
X15563039Y-14939914D02*
X15572563Y-14930390D01*
X15686848Y-14958961D02*
X15705896Y-14958961D01*
X15705896Y-14958961D02*
X15724944Y-14968485D01*
X15724944Y-14968485D02*
X15734468Y-14978009D01*
X15734468Y-14978009D02*
X15743991Y-14997056D01*
X15743991Y-14997056D02*
X15753515Y-15035152D01*
X15753515Y-15035152D02*
X15753515Y-15082771D01*
X15753515Y-15082771D02*
X15743991Y-15120866D01*
X15743991Y-15120866D02*
X15734468Y-15139914D01*
X15734468Y-15139914D02*
X15724944Y-15149437D01*
X15724944Y-15149437D02*
X15705896Y-15158961D01*
X15705896Y-15158961D02*
X15686848Y-15158961D01*
X15686848Y-15158961D02*
X15667801Y-15149437D01*
X15667801Y-15149437D02*
X15658277Y-15139914D01*
X15658277Y-15139914D02*
X15648753Y-15120866D01*
X15648753Y-15120866D02*
X15639229Y-15082771D01*
X15639229Y-15082771D02*
X15639229Y-15035152D01*
X15639229Y-15035152D02*
X15648753Y-14997056D01*
X15648753Y-14997056D02*
X15658277Y-14978009D01*
X15658277Y-14978009D02*
X15667801Y-14968485D01*
X15667801Y-14968485D02*
X15686848Y-14958961D01*
X15991610Y-15158961D02*
X15991610Y-14958961D01*
X16077325Y-15158961D02*
X16077325Y-15054199D01*
X16077325Y-15054199D02*
X16067801Y-15035152D01*
X16067801Y-15035152D02*
X16048753Y-15025628D01*
X16048753Y-15025628D02*
X16020182Y-15025628D01*
X16020182Y-15025628D02*
X16001134Y-15035152D01*
X16001134Y-15035152D02*
X15991610Y-15044675D01*
X16201134Y-15158961D02*
X16182087Y-15149437D01*
X16182087Y-15149437D02*
X16172563Y-15139914D01*
X16172563Y-15139914D02*
X16163039Y-15120866D01*
X16163039Y-15120866D02*
X16163039Y-15063723D01*
X16163039Y-15063723D02*
X16172563Y-15044675D01*
X16172563Y-15044675D02*
X16182087Y-15035152D01*
X16182087Y-15035152D02*
X16201134Y-15025628D01*
X16201134Y-15025628D02*
X16229706Y-15025628D01*
X16229706Y-15025628D02*
X16248753Y-15035152D01*
X16248753Y-15035152D02*
X16258277Y-15044675D01*
X16258277Y-15044675D02*
X16267801Y-15063723D01*
X16267801Y-15063723D02*
X16267801Y-15120866D01*
X16267801Y-15120866D02*
X16258277Y-15139914D01*
X16258277Y-15139914D02*
X16248753Y-15149437D01*
X16248753Y-15149437D02*
X16229706Y-15158961D01*
X16229706Y-15158961D02*
X16201134Y-15158961D01*
X16382087Y-15158961D02*
X16363039Y-15149437D01*
X16363039Y-15149437D02*
X16353515Y-15130390D01*
X16353515Y-15130390D02*
X16353515Y-14958961D01*
X16534468Y-15149437D02*
X16515420Y-15158961D01*
X16515420Y-15158961D02*
X16477325Y-15158961D01*
X16477325Y-15158961D02*
X16458277Y-15149437D01*
X16458277Y-15149437D02*
X16448753Y-15130390D01*
X16448753Y-15130390D02*
X16448753Y-15054199D01*
X16448753Y-15054199D02*
X16458277Y-15035152D01*
X16458277Y-15035152D02*
X16477325Y-15025628D01*
X16477325Y-15025628D02*
X16515420Y-15025628D01*
X16515420Y-15025628D02*
X16534468Y-15035152D01*
X16534468Y-15035152D02*
X16543991Y-15054199D01*
X16543991Y-15054199D02*
X16543991Y-15073247D01*
X16543991Y-15073247D02*
X16448753Y-15092295D01*
X16620182Y-15149437D02*
X16639230Y-15158961D01*
X16639230Y-15158961D02*
X16677325Y-15158961D01*
X16677325Y-15158961D02*
X16696372Y-15149437D01*
X16696372Y-15149437D02*
X16705896Y-15130390D01*
X16705896Y-15130390D02*
X16705896Y-15120866D01*
X16705896Y-15120866D02*
X16696372Y-15101818D01*
X16696372Y-15101818D02*
X16677325Y-15092295D01*
X16677325Y-15092295D02*
X16648753Y-15092295D01*
X16648753Y-15092295D02*
X16629706Y-15082771D01*
X16629706Y-15082771D02*
X16620182Y-15063723D01*
X16620182Y-15063723D02*
X16620182Y-15054199D01*
X16620182Y-15054199D02*
X16629706Y-15035152D01*
X16629706Y-15035152D02*
X16648753Y-15025628D01*
X16648753Y-15025628D02*
X16677325Y-15025628D01*
X16677325Y-15025628D02*
X16696372Y-15035152D01*
X16943992Y-15082771D02*
X17096373Y-15082771D01*
X17020182Y-15158961D02*
X17020182Y-15006580D01*
X17429706Y-15025628D02*
X17429706Y-15158961D01*
X17382087Y-14949437D02*
X17334468Y-15092295D01*
X17334468Y-15092295D02*
X17458277Y-15092295D01*
X17677325Y-15149437D02*
X17696373Y-15158961D01*
X17696373Y-15158961D02*
X17734468Y-15158961D01*
X17734468Y-15158961D02*
X17753516Y-15149437D01*
X17753516Y-15149437D02*
X17763039Y-15130390D01*
X17763039Y-15130390D02*
X17763039Y-15120866D01*
X17763039Y-15120866D02*
X17753516Y-15101818D01*
X17753516Y-15101818D02*
X17734468Y-15092295D01*
X17734468Y-15092295D02*
X17705896Y-15092295D01*
X17705896Y-15092295D02*
X17686849Y-15082771D01*
X17686849Y-15082771D02*
X17677325Y-15063723D01*
X17677325Y-15063723D02*
X17677325Y-15054199D01*
X17677325Y-15054199D02*
X17686849Y-15035152D01*
X17686849Y-15035152D02*
X17705896Y-15025628D01*
X17705896Y-15025628D02*
X17734468Y-15025628D01*
X17734468Y-15025628D02*
X17753516Y-15035152D01*
X17877325Y-15158961D02*
X17858277Y-15149437D01*
X17858277Y-15149437D02*
X17848754Y-15130390D01*
X17848754Y-15130390D02*
X17848754Y-14958961D01*
X17982087Y-15158961D02*
X17963039Y-15149437D01*
X17963039Y-15149437D02*
X17953516Y-15139914D01*
X17953516Y-15139914D02*
X17943992Y-15120866D01*
X17943992Y-15120866D02*
X17943992Y-15063723D01*
X17943992Y-15063723D02*
X17953516Y-15044675D01*
X17953516Y-15044675D02*
X17963039Y-15035152D01*
X17963039Y-15035152D02*
X17982087Y-15025628D01*
X17982087Y-15025628D02*
X18010658Y-15025628D01*
X18010658Y-15025628D02*
X18029706Y-15035152D01*
X18029706Y-15035152D02*
X18039230Y-15044675D01*
X18039230Y-15044675D02*
X18048754Y-15063723D01*
X18048754Y-15063723D02*
X18048754Y-15120866D01*
X18048754Y-15120866D02*
X18039230Y-15139914D01*
X18039230Y-15139914D02*
X18029706Y-15149437D01*
X18029706Y-15149437D02*
X18010658Y-15158961D01*
X18010658Y-15158961D02*
X17982087Y-15158961D01*
X18105897Y-15025628D02*
X18182087Y-15025628D01*
X18134468Y-14958961D02*
X18134468Y-15130390D01*
X18134468Y-15130390D02*
X18143992Y-15149437D01*
X18143992Y-15149437D02*
X18163039Y-15158961D01*
X18163039Y-15158961D02*
X18182087Y-15158961D01*
X18239230Y-15149437D02*
X18258277Y-15158961D01*
X18258277Y-15158961D02*
X18296373Y-15158961D01*
X18296373Y-15158961D02*
X18315420Y-15149437D01*
X18315420Y-15149437D02*
X18324944Y-15130390D01*
X18324944Y-15130390D02*
X18324944Y-15120866D01*
X18324944Y-15120866D02*
X18315420Y-15101818D01*
X18315420Y-15101818D02*
X18296373Y-15092295D01*
X18296373Y-15092295D02*
X18267801Y-15092295D01*
X18267801Y-15092295D02*
X18248754Y-15082771D01*
X18248754Y-15082771D02*
X18239230Y-15063723D01*
X18239230Y-15063723D02*
X18239230Y-15054199D01*
X18239230Y-15054199D02*
X18248754Y-15035152D01*
X18248754Y-15035152D02*
X18267801Y-15025628D01*
X18267801Y-15025628D02*
X18296373Y-15025628D01*
X18296373Y-15025628D02*
X18315420Y-15035152D01*
X18391611Y-15235152D02*
X18401135Y-15225628D01*
X18401135Y-15225628D02*
X18420182Y-15197056D01*
X18420182Y-15197056D02*
X18429706Y-15178009D01*
X18429706Y-15178009D02*
X18439230Y-15149437D01*
X18439230Y-15149437D02*
X18448754Y-15101818D01*
X18448754Y-15101818D02*
X18448754Y-15063723D01*
X18448754Y-15063723D02*
X18439230Y-15016104D01*
X18439230Y-15016104D02*
X18429706Y-14987533D01*
X18429706Y-14987533D02*
X18420182Y-14968485D01*
X18420182Y-14968485D02*
X18401135Y-14939914D01*
X18401135Y-14939914D02*
X18391611Y-14930390D01*
D12*
X11950000Y-15378977D02*
X11997500Y-15331477D01*
X11950000Y-15283977D01*
X11902500Y-15331477D01*
X11950000Y-15378977D01*
D11*
X12296372Y-15222961D02*
X12315420Y-15222961D01*
X12315420Y-15222961D02*
X12334467Y-15232485D01*
X12334467Y-15232485D02*
X12343991Y-15242009D01*
X12343991Y-15242009D02*
X12353515Y-15261056D01*
X12353515Y-15261056D02*
X12363039Y-15299152D01*
X12363039Y-15299152D02*
X12363039Y-15346771D01*
X12363039Y-15346771D02*
X12353515Y-15384866D01*
X12353515Y-15384866D02*
X12343991Y-15403914D01*
X12343991Y-15403914D02*
X12334467Y-15413437D01*
X12334467Y-15413437D02*
X12315420Y-15422961D01*
X12315420Y-15422961D02*
X12296372Y-15422961D01*
X12296372Y-15422961D02*
X12277324Y-15413437D01*
X12277324Y-15413437D02*
X12267801Y-15403914D01*
X12267801Y-15403914D02*
X12258277Y-15384866D01*
X12258277Y-15384866D02*
X12248753Y-15346771D01*
X12248753Y-15346771D02*
X12248753Y-15299152D01*
X12248753Y-15299152D02*
X12258277Y-15261056D01*
X12258277Y-15261056D02*
X12267801Y-15242009D01*
X12267801Y-15242009D02*
X12277324Y-15232485D01*
X12277324Y-15232485D02*
X12296372Y-15222961D01*
X12448753Y-15403914D02*
X12458277Y-15413437D01*
X12458277Y-15413437D02*
X12448753Y-15422961D01*
X12448753Y-15422961D02*
X12439229Y-15413437D01*
X12439229Y-15413437D02*
X12448753Y-15403914D01*
X12448753Y-15403914D02*
X12448753Y-15422961D01*
X12553515Y-15422961D02*
X12591610Y-15422961D01*
X12591610Y-15422961D02*
X12610658Y-15413437D01*
X12610658Y-15413437D02*
X12620182Y-15403914D01*
X12620182Y-15403914D02*
X12639229Y-15375342D01*
X12639229Y-15375342D02*
X12648753Y-15337247D01*
X12648753Y-15337247D02*
X12648753Y-15261056D01*
X12648753Y-15261056D02*
X12639229Y-15242009D01*
X12639229Y-15242009D02*
X12629705Y-15232485D01*
X12629705Y-15232485D02*
X12610658Y-15222961D01*
X12610658Y-15222961D02*
X12572562Y-15222961D01*
X12572562Y-15222961D02*
X12553515Y-15232485D01*
X12553515Y-15232485D02*
X12543991Y-15242009D01*
X12543991Y-15242009D02*
X12534467Y-15261056D01*
X12534467Y-15261056D02*
X12534467Y-15308675D01*
X12534467Y-15308675D02*
X12543991Y-15327723D01*
X12543991Y-15327723D02*
X12553515Y-15337247D01*
X12553515Y-15337247D02*
X12572562Y-15346771D01*
X12572562Y-15346771D02*
X12610658Y-15346771D01*
X12610658Y-15346771D02*
X12629705Y-15337247D01*
X12629705Y-15337247D02*
X12639229Y-15327723D01*
X12639229Y-15327723D02*
X12648753Y-15308675D01*
X12829705Y-15222961D02*
X12734467Y-15222961D01*
X12734467Y-15222961D02*
X12724943Y-15318199D01*
X12724943Y-15318199D02*
X12734467Y-15308675D01*
X12734467Y-15308675D02*
X12753515Y-15299152D01*
X12753515Y-15299152D02*
X12801134Y-15299152D01*
X12801134Y-15299152D02*
X12820182Y-15308675D01*
X12820182Y-15308675D02*
X12829705Y-15318199D01*
X12829705Y-15318199D02*
X12839229Y-15337247D01*
X12839229Y-15337247D02*
X12839229Y-15384866D01*
X12839229Y-15384866D02*
X12829705Y-15403914D01*
X12829705Y-15403914D02*
X12820182Y-15413437D01*
X12820182Y-15413437D02*
X12801134Y-15422961D01*
X12801134Y-15422961D02*
X12753515Y-15422961D01*
X12753515Y-15422961D02*
X12734467Y-15413437D01*
X12734467Y-15413437D02*
X12724943Y-15403914D01*
X12963039Y-15222961D02*
X12982086Y-15222961D01*
X12982086Y-15222961D02*
X13001134Y-15232485D01*
X13001134Y-15232485D02*
X13010658Y-15242009D01*
X13010658Y-15242009D02*
X13020182Y-15261056D01*
X13020182Y-15261056D02*
X13029705Y-15299152D01*
X13029705Y-15299152D02*
X13029705Y-15346771D01*
X13029705Y-15346771D02*
X13020182Y-15384866D01*
X13020182Y-15384866D02*
X13010658Y-15403914D01*
X13010658Y-15403914D02*
X13001134Y-15413437D01*
X13001134Y-15413437D02*
X12982086Y-15422961D01*
X12982086Y-15422961D02*
X12963039Y-15422961D01*
X12963039Y-15422961D02*
X12943991Y-15413437D01*
X12943991Y-15413437D02*
X12934467Y-15403914D01*
X12934467Y-15403914D02*
X12924943Y-15384866D01*
X12924943Y-15384866D02*
X12915420Y-15346771D01*
X12915420Y-15346771D02*
X12915420Y-15299152D01*
X12915420Y-15299152D02*
X12924943Y-15261056D01*
X12924943Y-15261056D02*
X12934467Y-15242009D01*
X12934467Y-15242009D02*
X12943991Y-15232485D01*
X12943991Y-15232485D02*
X12963039Y-15222961D01*
X13115420Y-15422961D02*
X13115420Y-15289628D01*
X13115420Y-15308675D02*
X13124943Y-15299152D01*
X13124943Y-15299152D02*
X13143991Y-15289628D01*
X13143991Y-15289628D02*
X13172563Y-15289628D01*
X13172563Y-15289628D02*
X13191610Y-15299152D01*
X13191610Y-15299152D02*
X13201134Y-15318199D01*
X13201134Y-15318199D02*
X13201134Y-15422961D01*
X13201134Y-15318199D02*
X13210658Y-15299152D01*
X13210658Y-15299152D02*
X13229705Y-15289628D01*
X13229705Y-15289628D02*
X13258277Y-15289628D01*
X13258277Y-15289628D02*
X13277324Y-15299152D01*
X13277324Y-15299152D02*
X13286848Y-15318199D01*
X13286848Y-15318199D02*
X13286848Y-15422961D01*
X13382086Y-15422961D02*
X13382086Y-15289628D01*
X13382086Y-15308675D02*
X13391610Y-15299152D01*
X13391610Y-15299152D02*
X13410658Y-15289628D01*
X13410658Y-15289628D02*
X13439229Y-15289628D01*
X13439229Y-15289628D02*
X13458277Y-15299152D01*
X13458277Y-15299152D02*
X13467801Y-15318199D01*
X13467801Y-15318199D02*
X13467801Y-15422961D01*
X13467801Y-15318199D02*
X13477324Y-15299152D01*
X13477324Y-15299152D02*
X13496372Y-15289628D01*
X13496372Y-15289628D02*
X13524943Y-15289628D01*
X13524943Y-15289628D02*
X13543991Y-15299152D01*
X13543991Y-15299152D02*
X13553515Y-15318199D01*
X13553515Y-15318199D02*
X13553515Y-15422961D01*
X13943991Y-15213437D02*
X13772563Y-15470580D01*
X14201134Y-15222961D02*
X14220182Y-15222961D01*
X14220182Y-15222961D02*
X14239229Y-15232485D01*
X14239229Y-15232485D02*
X14248753Y-15242009D01*
X14248753Y-15242009D02*
X14258277Y-15261056D01*
X14258277Y-15261056D02*
X14267801Y-15299152D01*
X14267801Y-15299152D02*
X14267801Y-15346771D01*
X14267801Y-15346771D02*
X14258277Y-15384866D01*
X14258277Y-15384866D02*
X14248753Y-15403914D01*
X14248753Y-15403914D02*
X14239229Y-15413437D01*
X14239229Y-15413437D02*
X14220182Y-15422961D01*
X14220182Y-15422961D02*
X14201134Y-15422961D01*
X14201134Y-15422961D02*
X14182086Y-15413437D01*
X14182086Y-15413437D02*
X14172563Y-15403914D01*
X14172563Y-15403914D02*
X14163039Y-15384866D01*
X14163039Y-15384866D02*
X14153515Y-15346771D01*
X14153515Y-15346771D02*
X14153515Y-15299152D01*
X14153515Y-15299152D02*
X14163039Y-15261056D01*
X14163039Y-15261056D02*
X14172563Y-15242009D01*
X14172563Y-15242009D02*
X14182086Y-15232485D01*
X14182086Y-15232485D02*
X14201134Y-15222961D01*
X14353515Y-15403914D02*
X14363039Y-15413437D01*
X14363039Y-15413437D02*
X14353515Y-15422961D01*
X14353515Y-15422961D02*
X14343991Y-15413437D01*
X14343991Y-15413437D02*
X14353515Y-15403914D01*
X14353515Y-15403914D02*
X14353515Y-15422961D01*
X14486848Y-15222961D02*
X14505896Y-15222961D01*
X14505896Y-15222961D02*
X14524944Y-15232485D01*
X14524944Y-15232485D02*
X14534467Y-15242009D01*
X14534467Y-15242009D02*
X14543991Y-15261056D01*
X14543991Y-15261056D02*
X14553515Y-15299152D01*
X14553515Y-15299152D02*
X14553515Y-15346771D01*
X14553515Y-15346771D02*
X14543991Y-15384866D01*
X14543991Y-15384866D02*
X14534467Y-15403914D01*
X14534467Y-15403914D02*
X14524944Y-15413437D01*
X14524944Y-15413437D02*
X14505896Y-15422961D01*
X14505896Y-15422961D02*
X14486848Y-15422961D01*
X14486848Y-15422961D02*
X14467801Y-15413437D01*
X14467801Y-15413437D02*
X14458277Y-15403914D01*
X14458277Y-15403914D02*
X14448753Y-15384866D01*
X14448753Y-15384866D02*
X14439229Y-15346771D01*
X14439229Y-15346771D02*
X14439229Y-15299152D01*
X14439229Y-15299152D02*
X14448753Y-15261056D01*
X14448753Y-15261056D02*
X14458277Y-15242009D01*
X14458277Y-15242009D02*
X14467801Y-15232485D01*
X14467801Y-15232485D02*
X14486848Y-15222961D01*
X14620182Y-15222961D02*
X14743991Y-15222961D01*
X14743991Y-15222961D02*
X14677325Y-15299152D01*
X14677325Y-15299152D02*
X14705896Y-15299152D01*
X14705896Y-15299152D02*
X14724944Y-15308675D01*
X14724944Y-15308675D02*
X14734467Y-15318199D01*
X14734467Y-15318199D02*
X14743991Y-15337247D01*
X14743991Y-15337247D02*
X14743991Y-15384866D01*
X14743991Y-15384866D02*
X14734467Y-15403914D01*
X14734467Y-15403914D02*
X14724944Y-15413437D01*
X14724944Y-15413437D02*
X14705896Y-15422961D01*
X14705896Y-15422961D02*
X14648753Y-15422961D01*
X14648753Y-15422961D02*
X14629706Y-15413437D01*
X14629706Y-15413437D02*
X14620182Y-15403914D01*
X14810658Y-15222961D02*
X14943991Y-15222961D01*
X14943991Y-15222961D02*
X14858277Y-15422961D01*
X15105896Y-15289628D02*
X15105896Y-15422961D01*
X15058277Y-15213437D02*
X15010658Y-15356295D01*
X15010658Y-15356295D02*
X15134467Y-15356295D01*
X15201134Y-15222961D02*
X15201134Y-15261056D01*
X15277325Y-15222961D02*
X15277325Y-15261056D01*
X15572563Y-15499152D02*
X15563039Y-15489628D01*
X15563039Y-15489628D02*
X15543991Y-15461056D01*
X15543991Y-15461056D02*
X15534468Y-15442009D01*
X15534468Y-15442009D02*
X15524944Y-15413437D01*
X15524944Y-15413437D02*
X15515420Y-15365818D01*
X15515420Y-15365818D02*
X15515420Y-15327723D01*
X15515420Y-15327723D02*
X15524944Y-15280104D01*
X15524944Y-15280104D02*
X15534468Y-15251533D01*
X15534468Y-15251533D02*
X15543991Y-15232485D01*
X15543991Y-15232485D02*
X15563039Y-15203914D01*
X15563039Y-15203914D02*
X15572563Y-15194390D01*
X15734468Y-15289628D02*
X15734468Y-15422961D01*
X15686848Y-15213437D02*
X15639229Y-15356295D01*
X15639229Y-15356295D02*
X15763039Y-15356295D01*
X15991610Y-15422961D02*
X15991610Y-15222961D01*
X16077325Y-15422961D02*
X16077325Y-15318199D01*
X16077325Y-15318199D02*
X16067801Y-15299152D01*
X16067801Y-15299152D02*
X16048753Y-15289628D01*
X16048753Y-15289628D02*
X16020182Y-15289628D01*
X16020182Y-15289628D02*
X16001134Y-15299152D01*
X16001134Y-15299152D02*
X15991610Y-15308675D01*
X16201134Y-15422961D02*
X16182087Y-15413437D01*
X16182087Y-15413437D02*
X16172563Y-15403914D01*
X16172563Y-15403914D02*
X16163039Y-15384866D01*
X16163039Y-15384866D02*
X16163039Y-15327723D01*
X16163039Y-15327723D02*
X16172563Y-15308675D01*
X16172563Y-15308675D02*
X16182087Y-15299152D01*
X16182087Y-15299152D02*
X16201134Y-15289628D01*
X16201134Y-15289628D02*
X16229706Y-15289628D01*
X16229706Y-15289628D02*
X16248753Y-15299152D01*
X16248753Y-15299152D02*
X16258277Y-15308675D01*
X16258277Y-15308675D02*
X16267801Y-15327723D01*
X16267801Y-15327723D02*
X16267801Y-15384866D01*
X16267801Y-15384866D02*
X16258277Y-15403914D01*
X16258277Y-15403914D02*
X16248753Y-15413437D01*
X16248753Y-15413437D02*
X16229706Y-15422961D01*
X16229706Y-15422961D02*
X16201134Y-15422961D01*
X16382087Y-15422961D02*
X16363039Y-15413437D01*
X16363039Y-15413437D02*
X16353515Y-15394390D01*
X16353515Y-15394390D02*
X16353515Y-15222961D01*
X16534468Y-15413437D02*
X16515420Y-15422961D01*
X16515420Y-15422961D02*
X16477325Y-15422961D01*
X16477325Y-15422961D02*
X16458277Y-15413437D01*
X16458277Y-15413437D02*
X16448753Y-15394390D01*
X16448753Y-15394390D02*
X16448753Y-15318199D01*
X16448753Y-15318199D02*
X16458277Y-15299152D01*
X16458277Y-15299152D02*
X16477325Y-15289628D01*
X16477325Y-15289628D02*
X16515420Y-15289628D01*
X16515420Y-15289628D02*
X16534468Y-15299152D01*
X16534468Y-15299152D02*
X16543991Y-15318199D01*
X16543991Y-15318199D02*
X16543991Y-15337247D01*
X16543991Y-15337247D02*
X16448753Y-15356295D01*
X16620182Y-15413437D02*
X16639230Y-15422961D01*
X16639230Y-15422961D02*
X16677325Y-15422961D01*
X16677325Y-15422961D02*
X16696372Y-15413437D01*
X16696372Y-15413437D02*
X16705896Y-15394390D01*
X16705896Y-15394390D02*
X16705896Y-15384866D01*
X16705896Y-15384866D02*
X16696372Y-15365818D01*
X16696372Y-15365818D02*
X16677325Y-15356295D01*
X16677325Y-15356295D02*
X16648753Y-15356295D01*
X16648753Y-15356295D02*
X16629706Y-15346771D01*
X16629706Y-15346771D02*
X16620182Y-15327723D01*
X16620182Y-15327723D02*
X16620182Y-15318199D01*
X16620182Y-15318199D02*
X16629706Y-15299152D01*
X16629706Y-15299152D02*
X16648753Y-15289628D01*
X16648753Y-15289628D02*
X16677325Y-15289628D01*
X16677325Y-15289628D02*
X16696372Y-15299152D01*
X16772563Y-15499152D02*
X16782087Y-15489628D01*
X16782087Y-15489628D02*
X16801134Y-15461056D01*
X16801134Y-15461056D02*
X16810658Y-15442009D01*
X16810658Y-15442009D02*
X16820182Y-15413437D01*
X16820182Y-15413437D02*
X16829706Y-15365818D01*
X16829706Y-15365818D02*
X16829706Y-15327723D01*
X16829706Y-15327723D02*
X16820182Y-15280104D01*
X16820182Y-15280104D02*
X16810658Y-15251533D01*
X16810658Y-15251533D02*
X16801134Y-15232485D01*
X16801134Y-15232485D02*
X16782087Y-15203914D01*
X16782087Y-15203914D02*
X16772563Y-15194390D01*
D12*
X11897500Y-15545477D02*
X11997500Y-15645477D01*
X11997500Y-15545477D02*
X11897500Y-15645477D01*
X11997500Y-15595477D02*
G75*
G02*
X11897500Y-15595477I-50000J0D01*
G01*
X11897500Y-15595477D02*
G75*
G02*
X11997500Y-15595477I50000J0D01*
G01*
D11*
X12363039Y-15686961D02*
X12248753Y-15686961D01*
X12305896Y-15686961D02*
X12305896Y-15486961D01*
X12305896Y-15486961D02*
X12286848Y-15515533D01*
X12286848Y-15515533D02*
X12267801Y-15534580D01*
X12267801Y-15534580D02*
X12248753Y-15544104D01*
X12448753Y-15667914D02*
X12458277Y-15677437D01*
X12458277Y-15677437D02*
X12448753Y-15686961D01*
X12448753Y-15686961D02*
X12439229Y-15677437D01*
X12439229Y-15677437D02*
X12448753Y-15667914D01*
X12448753Y-15667914D02*
X12448753Y-15686961D01*
X12582086Y-15486961D02*
X12601134Y-15486961D01*
X12601134Y-15486961D02*
X12620182Y-15496485D01*
X12620182Y-15496485D02*
X12629705Y-15506009D01*
X12629705Y-15506009D02*
X12639229Y-15525056D01*
X12639229Y-15525056D02*
X12648753Y-15563152D01*
X12648753Y-15563152D02*
X12648753Y-15610771D01*
X12648753Y-15610771D02*
X12639229Y-15648866D01*
X12639229Y-15648866D02*
X12629705Y-15667914D01*
X12629705Y-15667914D02*
X12620182Y-15677437D01*
X12620182Y-15677437D02*
X12601134Y-15686961D01*
X12601134Y-15686961D02*
X12582086Y-15686961D01*
X12582086Y-15686961D02*
X12563039Y-15677437D01*
X12563039Y-15677437D02*
X12553515Y-15667914D01*
X12553515Y-15667914D02*
X12543991Y-15648866D01*
X12543991Y-15648866D02*
X12534467Y-15610771D01*
X12534467Y-15610771D02*
X12534467Y-15563152D01*
X12534467Y-15563152D02*
X12543991Y-15525056D01*
X12543991Y-15525056D02*
X12553515Y-15506009D01*
X12553515Y-15506009D02*
X12563039Y-15496485D01*
X12563039Y-15496485D02*
X12582086Y-15486961D01*
X12772562Y-15486961D02*
X12791610Y-15486961D01*
X12791610Y-15486961D02*
X12810658Y-15496485D01*
X12810658Y-15496485D02*
X12820182Y-15506009D01*
X12820182Y-15506009D02*
X12829705Y-15525056D01*
X12829705Y-15525056D02*
X12839229Y-15563152D01*
X12839229Y-15563152D02*
X12839229Y-15610771D01*
X12839229Y-15610771D02*
X12829705Y-15648866D01*
X12829705Y-15648866D02*
X12820182Y-15667914D01*
X12820182Y-15667914D02*
X12810658Y-15677437D01*
X12810658Y-15677437D02*
X12791610Y-15686961D01*
X12791610Y-15686961D02*
X12772562Y-15686961D01*
X12772562Y-15686961D02*
X12753515Y-15677437D01*
X12753515Y-15677437D02*
X12743991Y-15667914D01*
X12743991Y-15667914D02*
X12734467Y-15648866D01*
X12734467Y-15648866D02*
X12724943Y-15610771D01*
X12724943Y-15610771D02*
X12724943Y-15563152D01*
X12724943Y-15563152D02*
X12734467Y-15525056D01*
X12734467Y-15525056D02*
X12743991Y-15506009D01*
X12743991Y-15506009D02*
X12753515Y-15496485D01*
X12753515Y-15496485D02*
X12772562Y-15486961D01*
X12963039Y-15486961D02*
X12982086Y-15486961D01*
X12982086Y-15486961D02*
X13001134Y-15496485D01*
X13001134Y-15496485D02*
X13010658Y-15506009D01*
X13010658Y-15506009D02*
X13020182Y-15525056D01*
X13020182Y-15525056D02*
X13029705Y-15563152D01*
X13029705Y-15563152D02*
X13029705Y-15610771D01*
X13029705Y-15610771D02*
X13020182Y-15648866D01*
X13020182Y-15648866D02*
X13010658Y-15667914D01*
X13010658Y-15667914D02*
X13001134Y-15677437D01*
X13001134Y-15677437D02*
X12982086Y-15686961D01*
X12982086Y-15686961D02*
X12963039Y-15686961D01*
X12963039Y-15686961D02*
X12943991Y-15677437D01*
X12943991Y-15677437D02*
X12934467Y-15667914D01*
X12934467Y-15667914D02*
X12924943Y-15648866D01*
X12924943Y-15648866D02*
X12915420Y-15610771D01*
X12915420Y-15610771D02*
X12915420Y-15563152D01*
X12915420Y-15563152D02*
X12924943Y-15525056D01*
X12924943Y-15525056D02*
X12934467Y-15506009D01*
X12934467Y-15506009D02*
X12943991Y-15496485D01*
X12943991Y-15496485D02*
X12963039Y-15486961D01*
X13115420Y-15686961D02*
X13115420Y-15553628D01*
X13115420Y-15572675D02*
X13124943Y-15563152D01*
X13124943Y-15563152D02*
X13143991Y-15553628D01*
X13143991Y-15553628D02*
X13172563Y-15553628D01*
X13172563Y-15553628D02*
X13191610Y-15563152D01*
X13191610Y-15563152D02*
X13201134Y-15582199D01*
X13201134Y-15582199D02*
X13201134Y-15686961D01*
X13201134Y-15582199D02*
X13210658Y-15563152D01*
X13210658Y-15563152D02*
X13229705Y-15553628D01*
X13229705Y-15553628D02*
X13258277Y-15553628D01*
X13258277Y-15553628D02*
X13277324Y-15563152D01*
X13277324Y-15563152D02*
X13286848Y-15582199D01*
X13286848Y-15582199D02*
X13286848Y-15686961D01*
X13382086Y-15686961D02*
X13382086Y-15553628D01*
X13382086Y-15572675D02*
X13391610Y-15563152D01*
X13391610Y-15563152D02*
X13410658Y-15553628D01*
X13410658Y-15553628D02*
X13439229Y-15553628D01*
X13439229Y-15553628D02*
X13458277Y-15563152D01*
X13458277Y-15563152D02*
X13467801Y-15582199D01*
X13467801Y-15582199D02*
X13467801Y-15686961D01*
X13467801Y-15582199D02*
X13477324Y-15563152D01*
X13477324Y-15563152D02*
X13496372Y-15553628D01*
X13496372Y-15553628D02*
X13524943Y-15553628D01*
X13524943Y-15553628D02*
X13543991Y-15563152D01*
X13543991Y-15563152D02*
X13553515Y-15582199D01*
X13553515Y-15582199D02*
X13553515Y-15686961D01*
X13943991Y-15477437D02*
X13772563Y-15734580D01*
X14201134Y-15486961D02*
X14220182Y-15486961D01*
X14220182Y-15486961D02*
X14239229Y-15496485D01*
X14239229Y-15496485D02*
X14248753Y-15506009D01*
X14248753Y-15506009D02*
X14258277Y-15525056D01*
X14258277Y-15525056D02*
X14267801Y-15563152D01*
X14267801Y-15563152D02*
X14267801Y-15610771D01*
X14267801Y-15610771D02*
X14258277Y-15648866D01*
X14258277Y-15648866D02*
X14248753Y-15667914D01*
X14248753Y-15667914D02*
X14239229Y-15677437D01*
X14239229Y-15677437D02*
X14220182Y-15686961D01*
X14220182Y-15686961D02*
X14201134Y-15686961D01*
X14201134Y-15686961D02*
X14182086Y-15677437D01*
X14182086Y-15677437D02*
X14172563Y-15667914D01*
X14172563Y-15667914D02*
X14163039Y-15648866D01*
X14163039Y-15648866D02*
X14153515Y-15610771D01*
X14153515Y-15610771D02*
X14153515Y-15563152D01*
X14153515Y-15563152D02*
X14163039Y-15525056D01*
X14163039Y-15525056D02*
X14172563Y-15506009D01*
X14172563Y-15506009D02*
X14182086Y-15496485D01*
X14182086Y-15496485D02*
X14201134Y-15486961D01*
X14353515Y-15667914D02*
X14363039Y-15677437D01*
X14363039Y-15677437D02*
X14353515Y-15686961D01*
X14353515Y-15686961D02*
X14343991Y-15677437D01*
X14343991Y-15677437D02*
X14353515Y-15667914D01*
X14353515Y-15667914D02*
X14353515Y-15686961D01*
X14486848Y-15486961D02*
X14505896Y-15486961D01*
X14505896Y-15486961D02*
X14524944Y-15496485D01*
X14524944Y-15496485D02*
X14534467Y-15506009D01*
X14534467Y-15506009D02*
X14543991Y-15525056D01*
X14543991Y-15525056D02*
X14553515Y-15563152D01*
X14553515Y-15563152D02*
X14553515Y-15610771D01*
X14553515Y-15610771D02*
X14543991Y-15648866D01*
X14543991Y-15648866D02*
X14534467Y-15667914D01*
X14534467Y-15667914D02*
X14524944Y-15677437D01*
X14524944Y-15677437D02*
X14505896Y-15686961D01*
X14505896Y-15686961D02*
X14486848Y-15686961D01*
X14486848Y-15686961D02*
X14467801Y-15677437D01*
X14467801Y-15677437D02*
X14458277Y-15667914D01*
X14458277Y-15667914D02*
X14448753Y-15648866D01*
X14448753Y-15648866D02*
X14439229Y-15610771D01*
X14439229Y-15610771D02*
X14439229Y-15563152D01*
X14439229Y-15563152D02*
X14448753Y-15525056D01*
X14448753Y-15525056D02*
X14458277Y-15506009D01*
X14458277Y-15506009D02*
X14467801Y-15496485D01*
X14467801Y-15496485D02*
X14486848Y-15486961D01*
X14620182Y-15486961D02*
X14743991Y-15486961D01*
X14743991Y-15486961D02*
X14677325Y-15563152D01*
X14677325Y-15563152D02*
X14705896Y-15563152D01*
X14705896Y-15563152D02*
X14724944Y-15572675D01*
X14724944Y-15572675D02*
X14734467Y-15582199D01*
X14734467Y-15582199D02*
X14743991Y-15601247D01*
X14743991Y-15601247D02*
X14743991Y-15648866D01*
X14743991Y-15648866D02*
X14734467Y-15667914D01*
X14734467Y-15667914D02*
X14724944Y-15677437D01*
X14724944Y-15677437D02*
X14705896Y-15686961D01*
X14705896Y-15686961D02*
X14648753Y-15686961D01*
X14648753Y-15686961D02*
X14629706Y-15677437D01*
X14629706Y-15677437D02*
X14620182Y-15667914D01*
X14839229Y-15686961D02*
X14877325Y-15686961D01*
X14877325Y-15686961D02*
X14896372Y-15677437D01*
X14896372Y-15677437D02*
X14905896Y-15667914D01*
X14905896Y-15667914D02*
X14924944Y-15639342D01*
X14924944Y-15639342D02*
X14934467Y-15601247D01*
X14934467Y-15601247D02*
X14934467Y-15525056D01*
X14934467Y-15525056D02*
X14924944Y-15506009D01*
X14924944Y-15506009D02*
X14915420Y-15496485D01*
X14915420Y-15496485D02*
X14896372Y-15486961D01*
X14896372Y-15486961D02*
X14858277Y-15486961D01*
X14858277Y-15486961D02*
X14839229Y-15496485D01*
X14839229Y-15496485D02*
X14829706Y-15506009D01*
X14829706Y-15506009D02*
X14820182Y-15525056D01*
X14820182Y-15525056D02*
X14820182Y-15572675D01*
X14820182Y-15572675D02*
X14829706Y-15591723D01*
X14829706Y-15591723D02*
X14839229Y-15601247D01*
X14839229Y-15601247D02*
X14858277Y-15610771D01*
X14858277Y-15610771D02*
X14896372Y-15610771D01*
X14896372Y-15610771D02*
X14915420Y-15601247D01*
X14915420Y-15601247D02*
X14924944Y-15591723D01*
X14924944Y-15591723D02*
X14934467Y-15572675D01*
X15105896Y-15553628D02*
X15105896Y-15686961D01*
X15058277Y-15477437D02*
X15010658Y-15620295D01*
X15010658Y-15620295D02*
X15134467Y-15620295D01*
X15201134Y-15486961D02*
X15201134Y-15525056D01*
X15277325Y-15486961D02*
X15277325Y-15525056D01*
X15572563Y-15763152D02*
X15563039Y-15753628D01*
X15563039Y-15753628D02*
X15543991Y-15725056D01*
X15543991Y-15725056D02*
X15534468Y-15706009D01*
X15534468Y-15706009D02*
X15524944Y-15677437D01*
X15524944Y-15677437D02*
X15515420Y-15629818D01*
X15515420Y-15629818D02*
X15515420Y-15591723D01*
X15515420Y-15591723D02*
X15524944Y-15544104D01*
X15524944Y-15544104D02*
X15534468Y-15515533D01*
X15534468Y-15515533D02*
X15543991Y-15496485D01*
X15543991Y-15496485D02*
X15563039Y-15467914D01*
X15563039Y-15467914D02*
X15572563Y-15458390D01*
X15734468Y-15553628D02*
X15734468Y-15686961D01*
X15686848Y-15477437D02*
X15639229Y-15620295D01*
X15639229Y-15620295D02*
X15763039Y-15620295D01*
X15991610Y-15686961D02*
X15991610Y-15486961D01*
X16077325Y-15686961D02*
X16077325Y-15582199D01*
X16077325Y-15582199D02*
X16067801Y-15563152D01*
X16067801Y-15563152D02*
X16048753Y-15553628D01*
X16048753Y-15553628D02*
X16020182Y-15553628D01*
X16020182Y-15553628D02*
X16001134Y-15563152D01*
X16001134Y-15563152D02*
X15991610Y-15572675D01*
X16201134Y-15686961D02*
X16182087Y-15677437D01*
X16182087Y-15677437D02*
X16172563Y-15667914D01*
X16172563Y-15667914D02*
X16163039Y-15648866D01*
X16163039Y-15648866D02*
X16163039Y-15591723D01*
X16163039Y-15591723D02*
X16172563Y-15572675D01*
X16172563Y-15572675D02*
X16182087Y-15563152D01*
X16182087Y-15563152D02*
X16201134Y-15553628D01*
X16201134Y-15553628D02*
X16229706Y-15553628D01*
X16229706Y-15553628D02*
X16248753Y-15563152D01*
X16248753Y-15563152D02*
X16258277Y-15572675D01*
X16258277Y-15572675D02*
X16267801Y-15591723D01*
X16267801Y-15591723D02*
X16267801Y-15648866D01*
X16267801Y-15648866D02*
X16258277Y-15667914D01*
X16258277Y-15667914D02*
X16248753Y-15677437D01*
X16248753Y-15677437D02*
X16229706Y-15686961D01*
X16229706Y-15686961D02*
X16201134Y-15686961D01*
X16382087Y-15686961D02*
X16363039Y-15677437D01*
X16363039Y-15677437D02*
X16353515Y-15658390D01*
X16353515Y-15658390D02*
X16353515Y-15486961D01*
X16534468Y-15677437D02*
X16515420Y-15686961D01*
X16515420Y-15686961D02*
X16477325Y-15686961D01*
X16477325Y-15686961D02*
X16458277Y-15677437D01*
X16458277Y-15677437D02*
X16448753Y-15658390D01*
X16448753Y-15658390D02*
X16448753Y-15582199D01*
X16448753Y-15582199D02*
X16458277Y-15563152D01*
X16458277Y-15563152D02*
X16477325Y-15553628D01*
X16477325Y-15553628D02*
X16515420Y-15553628D01*
X16515420Y-15553628D02*
X16534468Y-15563152D01*
X16534468Y-15563152D02*
X16543991Y-15582199D01*
X16543991Y-15582199D02*
X16543991Y-15601247D01*
X16543991Y-15601247D02*
X16448753Y-15620295D01*
X16620182Y-15677437D02*
X16639230Y-15686961D01*
X16639230Y-15686961D02*
X16677325Y-15686961D01*
X16677325Y-15686961D02*
X16696372Y-15677437D01*
X16696372Y-15677437D02*
X16705896Y-15658390D01*
X16705896Y-15658390D02*
X16705896Y-15648866D01*
X16705896Y-15648866D02*
X16696372Y-15629818D01*
X16696372Y-15629818D02*
X16677325Y-15620295D01*
X16677325Y-15620295D02*
X16648753Y-15620295D01*
X16648753Y-15620295D02*
X16629706Y-15610771D01*
X16629706Y-15610771D02*
X16620182Y-15591723D01*
X16620182Y-15591723D02*
X16620182Y-15582199D01*
X16620182Y-15582199D02*
X16629706Y-15563152D01*
X16629706Y-15563152D02*
X16648753Y-15553628D01*
X16648753Y-15553628D02*
X16677325Y-15553628D01*
X16677325Y-15553628D02*
X16696372Y-15563152D01*
X16943992Y-15610771D02*
X17096373Y-15610771D01*
X17020182Y-15686961D02*
X17020182Y-15534580D01*
X17324944Y-15486961D02*
X17448754Y-15486961D01*
X17448754Y-15486961D02*
X17382087Y-15563152D01*
X17382087Y-15563152D02*
X17410658Y-15563152D01*
X17410658Y-15563152D02*
X17429706Y-15572675D01*
X17429706Y-15572675D02*
X17439230Y-15582199D01*
X17439230Y-15582199D02*
X17448754Y-15601247D01*
X17448754Y-15601247D02*
X17448754Y-15648866D01*
X17448754Y-15648866D02*
X17439230Y-15667914D01*
X17439230Y-15667914D02*
X17429706Y-15677437D01*
X17429706Y-15677437D02*
X17410658Y-15686961D01*
X17410658Y-15686961D02*
X17353515Y-15686961D01*
X17353515Y-15686961D02*
X17334468Y-15677437D01*
X17334468Y-15677437D02*
X17324944Y-15667914D01*
X17677325Y-15677437D02*
X17696373Y-15686961D01*
X17696373Y-15686961D02*
X17734468Y-15686961D01*
X17734468Y-15686961D02*
X17753516Y-15677437D01*
X17753516Y-15677437D02*
X17763039Y-15658390D01*
X17763039Y-15658390D02*
X17763039Y-15648866D01*
X17763039Y-15648866D02*
X17753516Y-15629818D01*
X17753516Y-15629818D02*
X17734468Y-15620295D01*
X17734468Y-15620295D02*
X17705896Y-15620295D01*
X17705896Y-15620295D02*
X17686849Y-15610771D01*
X17686849Y-15610771D02*
X17677325Y-15591723D01*
X17677325Y-15591723D02*
X17677325Y-15582199D01*
X17677325Y-15582199D02*
X17686849Y-15563152D01*
X17686849Y-15563152D02*
X17705896Y-15553628D01*
X17705896Y-15553628D02*
X17734468Y-15553628D01*
X17734468Y-15553628D02*
X17753516Y-15563152D01*
X17877325Y-15686961D02*
X17858277Y-15677437D01*
X17858277Y-15677437D02*
X17848754Y-15658390D01*
X17848754Y-15658390D02*
X17848754Y-15486961D01*
X17982087Y-15686961D02*
X17963039Y-15677437D01*
X17963039Y-15677437D02*
X17953516Y-15667914D01*
X17953516Y-15667914D02*
X17943992Y-15648866D01*
X17943992Y-15648866D02*
X17943992Y-15591723D01*
X17943992Y-15591723D02*
X17953516Y-15572675D01*
X17953516Y-15572675D02*
X17963039Y-15563152D01*
X17963039Y-15563152D02*
X17982087Y-15553628D01*
X17982087Y-15553628D02*
X18010658Y-15553628D01*
X18010658Y-15553628D02*
X18029706Y-15563152D01*
X18029706Y-15563152D02*
X18039230Y-15572675D01*
X18039230Y-15572675D02*
X18048754Y-15591723D01*
X18048754Y-15591723D02*
X18048754Y-15648866D01*
X18048754Y-15648866D02*
X18039230Y-15667914D01*
X18039230Y-15667914D02*
X18029706Y-15677437D01*
X18029706Y-15677437D02*
X18010658Y-15686961D01*
X18010658Y-15686961D02*
X17982087Y-15686961D01*
X18105897Y-15553628D02*
X18182087Y-15553628D01*
X18134468Y-15486961D02*
X18134468Y-15658390D01*
X18134468Y-15658390D02*
X18143992Y-15677437D01*
X18143992Y-15677437D02*
X18163039Y-15686961D01*
X18163039Y-15686961D02*
X18182087Y-15686961D01*
X18239230Y-15677437D02*
X18258277Y-15686961D01*
X18258277Y-15686961D02*
X18296373Y-15686961D01*
X18296373Y-15686961D02*
X18315420Y-15677437D01*
X18315420Y-15677437D02*
X18324944Y-15658390D01*
X18324944Y-15658390D02*
X18324944Y-15648866D01*
X18324944Y-15648866D02*
X18315420Y-15629818D01*
X18315420Y-15629818D02*
X18296373Y-15620295D01*
X18296373Y-15620295D02*
X18267801Y-15620295D01*
X18267801Y-15620295D02*
X18248754Y-15610771D01*
X18248754Y-15610771D02*
X18239230Y-15591723D01*
X18239230Y-15591723D02*
X18239230Y-15582199D01*
X18239230Y-15582199D02*
X18248754Y-15563152D01*
X18248754Y-15563152D02*
X18267801Y-15553628D01*
X18267801Y-15553628D02*
X18296373Y-15553628D01*
X18296373Y-15553628D02*
X18315420Y-15563152D01*
X18391611Y-15763152D02*
X18401135Y-15753628D01*
X18401135Y-15753628D02*
X18420182Y-15725056D01*
X18420182Y-15725056D02*
X18429706Y-15706009D01*
X18429706Y-15706009D02*
X18439230Y-15677437D01*
X18439230Y-15677437D02*
X18448754Y-15629818D01*
X18448754Y-15629818D02*
X18448754Y-15591723D01*
X18448754Y-15591723D02*
X18439230Y-15544104D01*
X18439230Y-15544104D02*
X18429706Y-15515533D01*
X18429706Y-15515533D02*
X18420182Y-15496485D01*
X18420182Y-15496485D02*
X18401135Y-15467914D01*
X18401135Y-15467914D02*
X18391611Y-15458390D01*
M02*
